<svg width="371" height="218" viewBox="0 0 371 218" fill="none" xmlns="http://www.w3.org/2000/svg">
<path d="M163.56 2.50581C163.56 1.12189 164.682 0 166.066 0H197.389C198.773 0 199.895 1.12189 199.895 2.50581V15.0349C199.895 16.4188 198.773 17.5407 197.389 17.5407H166.066C164.682 17.5407 163.56 16.4188 163.56 15.0349V2.50581Z" fill="#E1EFF4"/>
<path fill-rule="evenodd" clip-rule="evenodd" d="M197.389 0.93968H166.066C165.201 0.93968 164.5 1.64086 164.5 2.50581V15.0349C164.5 15.8998 165.201 16.601 166.066 16.601H197.389C198.254 16.601 198.955 15.8998 198.955 15.0349V2.50581C198.955 1.64086 198.254 0.93968 197.389 0.93968ZM166.066 0C164.682 0 163.56 1.12189 163.56 2.50581V15.0349C163.56 16.4188 164.682 17.5407 166.066 17.5407H197.389C198.773 17.5407 199.895 16.4188 199.895 15.0349V2.50581C199.895 1.12189 198.773 0 197.389 0H166.066Z" fill="#316277"/>
<path fill-rule="evenodd" clip-rule="evenodd" d="M259.366 35.2031L182.134 19L181.948 19.9212L259.181 36.1243L259.366 35.2031Z" fill="#45788E"/>
<path d="M264.282 37.7794L256 40.004L258.218 31.7263L264.282 37.7794Z" fill="#45788E"/>
<path fill-rule="evenodd" clip-rule="evenodd" d="M103.025 35.2031L180.258 19L180.443 19.9212L103.211 36.1243L103.025 35.2031Z" fill="#45788E"/>
<path d="M98.109 37.7794L106.391 40.004L104.173 31.7263L98.109 37.7794Z" fill="#45788E"/>
<path fill-rule="evenodd" clip-rule="evenodd" d="M302.43 77.0713L270.982 68.3125L270.767 69.2272L302.215 77.986L302.43 77.0713Z" fill="#45788E"/>
<path d="M308.904 79.7209L300.622 81.9454L302.84 73.6678L308.904 79.7209Z" fill="#45788E"/>
<path fill-rule="evenodd" clip-rule="evenodd" d="M237.881 77.0713L269.329 68.3125L269.544 69.2272L238.096 77.986L237.881 77.0713Z" fill="#45788E"/>
<path d="M231.407 79.7209L239.689 81.9454L237.471 73.6678L231.407 79.7209Z" fill="#45788E"/>
<path fill-rule="evenodd" clip-rule="evenodd" d="M145.997 136.982L136.444 107.539L135.55 107.829L145.103 137.272L145.997 136.982Z" fill="#45788E"/>
<path d="M147.416 142.47L140.695 137.143L148.665 133.993L147.416 142.47Z" fill="#45788E"/>
<path fill-rule="evenodd" clip-rule="evenodd" d="M117.282 136.982L126.836 107.539L127.729 107.829L118.176 137.272L117.282 136.982Z" fill="#45788E"/>
<path d="M115.863 142.47L122.584 137.143L114.615 133.993L115.863 142.47Z" fill="#45788E"/>
<path fill-rule="evenodd" clip-rule="evenodd" d="M240.537 136.982L230.984 107.539L230.09 107.829L239.644 137.272L240.537 136.982Z" fill="#45788E"/>
<path d="M241.957 142.47L235.236 137.143L243.205 133.993L241.957 142.47Z" fill="#45788E"/>
<path fill-rule="evenodd" clip-rule="evenodd" d="M211.823 136.982L221.376 107.539L222.27 107.829L212.717 137.272L211.823 136.982Z" fill="#45788E"/>
<path d="M210.404 142.47L217.125 137.143L209.155 133.993L210.404 142.47Z" fill="#45788E"/>
<path fill-rule="evenodd" clip-rule="evenodd" d="M330.295 136.982L320.742 107.539L319.848 107.829L329.401 137.272L330.295 136.982Z" fill="#45788E"/>
<path d="M331.714 142.47L324.993 137.143L332.963 133.993L331.714 142.47Z" fill="#45788E"/>
<path fill-rule="evenodd" clip-rule="evenodd" d="M301.58 136.982L311.134 107.539L312.027 107.829L302.474 137.272L301.58 136.982Z" fill="#45788E"/>
<path d="M300.161 142.47L306.882 137.143L298.913 133.993L300.161 142.47Z" fill="#45788E"/>
<path fill-rule="evenodd" clip-rule="evenodd" d="M52.9124 136.982L43.359 107.539L42.4651 107.829L52.0185 137.272L52.9124 136.982Z" fill="#45788E"/>
<path d="M54.3316 142.47L47.6105 137.143L55.5801 133.993L54.3316 142.47Z" fill="#45788E"/>
<path fill-rule="evenodd" clip-rule="evenodd" d="M24.1976 136.982L33.751 107.539L34.6448 107.829L25.0914 137.272L24.1976 136.982Z" fill="#45788E"/>
<path d="M22.7784 142.47L29.4995 137.143L21.5299 133.993L22.7784 142.47Z" fill="#45788E"/>
<path d="M99.4833 54.3437C99.4833 60.8308 94.2245 66.0896 87.7373 66.0896C81.2502 66.0896 75.9913 60.8308 75.9913 54.3437C75.9913 47.8565 81.2502 42.5977 87.7373 42.5977C94.2245 42.5977 99.4833 47.8565 99.4833 54.3437Z" fill="#377C9A"/>
<path fill-rule="evenodd" clip-rule="evenodd" d="M120.355 76.8643L88.9066 68.1055L88.6914 69.0202L120.14 77.779L120.355 76.8643Z" fill="#45788E"/>
<path d="M126.829 79.5138L118.547 81.7384L120.765 73.4607L126.829 79.5138Z" fill="#45788E"/>
<path fill-rule="evenodd" clip-rule="evenodd" d="M55.8058 76.8643L87.254 68.1055L87.4692 69.0202L56.021 77.779L55.8058 76.8643Z" fill="#45788E"/>
<path d="M49.3314 79.5138L57.6138 81.7384L55.3958 73.4607L49.3314 79.5138Z" fill="#45788E"/>
<path d="M69.8495 155.766C69.8495 162.253 64.5907 167.512 58.1035 167.512C51.6164 167.512 46.3575 162.253 46.3575 155.766C46.3575 149.278 51.6164 144.02 58.1035 144.02C64.5907 144.02 69.8495 149.278 69.8495 155.766Z" fill="#377C9A"/>
<path fill-rule="evenodd" clip-rule="evenodd" d="M68.2604 197.432L58.707 167.988L57.8132 168.278L67.3666 197.722L68.2604 197.432Z" fill="#45788E"/>
<path d="M69.6796 202.919L62.9585 197.592L70.9281 194.442L69.6796 202.919Z" fill="#45788E"/>
<path fill-rule="evenodd" clip-rule="evenodd" d="M47.3764 197.432L56.9298 167.988L57.8236 168.278L48.2702 197.722L47.3764 197.432Z" fill="#45788E"/>
<path d="M45.9572 202.919L52.6783 197.592L44.7087 194.442L45.9572 202.919Z" fill="#45788E"/>
<path d="M77.0537 210.733C77.0537 214.193 74.249 216.998 70.7892 216.998C67.3294 216.998 64.5247 214.193 64.5247 210.733C64.5247 207.273 67.3294 204.469 70.7892 204.469C74.249 204.469 77.0537 207.273 77.0537 210.733Z" fill="#D75452"/>
<path d="M51.9956 210.733C51.9956 214.193 49.1909 216.998 45.7311 216.998C42.2713 216.998 39.4666 214.193 39.4666 210.733C39.4666 207.273 42.2713 204.469 45.7311 204.469C49.1909 204.469 51.9956 207.273 51.9956 210.733Z" fill="#D75452"/>
<path fill-rule="evenodd" clip-rule="evenodd" d="M28.7938 197.432L19.2404 167.988L18.3466 168.278L27.9 197.722L28.7938 197.432Z" fill="#45788E"/>
<path d="M30.2131 202.919L23.492 197.592L31.4616 194.442L30.2131 202.919Z" fill="#45788E"/>
<path fill-rule="evenodd" clip-rule="evenodd" d="M7.90985 197.432L17.4633 167.988L18.3571 168.278L8.80366 197.722L7.90985 197.432Z" fill="#45788E"/>
<path d="M6.49067 202.919L13.2118 197.592L5.24216 194.442L6.49067 202.919Z" fill="#45788E"/>
<path d="M37.5872 210.733C37.5872 214.193 34.7824 216.998 31.3226 216.998C27.8628 216.998 25.0581 214.193 25.0581 210.733C25.0581 207.273 27.8628 204.469 31.3226 204.469C34.7824 204.469 37.5872 207.273 37.5872 210.733Z" fill="#D75452"/>
<path d="M12.5291 210.733C12.5291 214.193 9.72434 216.998 6.26453 216.998C2.80473 216.998 0 214.193 0 210.733C0 207.273 2.80473 204.469 6.26453 204.469C9.72434 204.469 12.5291 207.273 12.5291 210.733Z" fill="#D75452"/>
<path d="M31.0094 155.766C31.0094 162.253 25.7506 167.512 19.2635 167.512C12.7763 167.512 7.51746 162.253 7.51746 155.766C7.51746 149.278 12.7763 144.02 19.2635 144.02C25.7506 144.02 31.0094 149.278 31.0094 155.766Z" fill="#377C9A"/>
<path d="M162.621 155.766C162.621 162.253 157.362 167.512 150.875 167.512C144.388 167.512 139.129 162.253 139.129 155.766C139.129 149.278 144.388 144.02 150.875 144.02C157.362 144.02 162.621 149.278 162.621 155.766Z" fill="#377C9A"/>
<path fill-rule="evenodd" clip-rule="evenodd" d="M161.345 197.432L151.792 167.988L150.898 168.278L160.451 197.722L161.345 197.432Z" fill="#45788E"/>
<path d="M162.764 202.919L156.043 197.592L164.013 194.442L162.764 202.919Z" fill="#45788E"/>
<path fill-rule="evenodd" clip-rule="evenodd" d="M140.461 197.432L150.014 167.988L150.908 168.278L141.355 197.722L140.461 197.432Z" fill="#45788E"/>
<path d="M139.042 202.919L145.763 197.592L137.793 194.442L139.042 202.919Z" fill="#45788E"/>
<path d="M170.138 210.733C170.138 214.193 167.334 216.998 163.874 216.998C160.414 216.998 157.609 214.193 157.609 210.733C157.609 207.273 160.414 204.469 163.874 204.469C167.334 204.469 170.138 207.273 170.138 210.733Z" fill="#D75452"/>
<path d="M145.08 210.733C145.08 214.193 142.276 216.998 138.816 216.998C135.356 216.998 132.551 214.193 132.551 210.733C132.551 207.273 135.356 204.469 138.816 204.469C142.276 204.469 145.08 207.273 145.08 210.733Z" fill="#D75452"/>
<path d="M123.781 155.766C123.781 162.253 118.522 167.512 112.035 167.512C105.548 167.512 100.289 162.253 100.289 155.766C100.289 149.278 105.548 144.02 112.035 144.02C118.522 144.02 123.781 149.278 123.781 155.766Z" fill="#377C9A"/>
<path fill-rule="evenodd" clip-rule="evenodd" d="M121.878 197.432L112.325 167.988L111.431 168.278L120.985 197.722L121.878 197.432Z" fill="#45788E"/>
<path d="M123.298 202.919L116.577 197.592L124.546 194.442L123.298 202.919Z" fill="#45788E"/>
<path fill-rule="evenodd" clip-rule="evenodd" d="M100.994 197.432L110.548 167.988L111.442 168.278L101.888 197.722L100.994 197.432Z" fill="#45788E"/>
<path d="M99.5753 202.919L106.296 197.592L98.3268 194.442L99.5753 202.919Z" fill="#45788E"/>
<path d="M130.672 210.733C130.672 214.193 127.867 216.998 124.407 216.998C120.947 216.998 118.143 214.193 118.143 210.733C118.143 207.273 120.947 204.469 124.407 204.469C127.867 204.469 130.672 207.273 130.672 210.733Z" fill="#D75452"/>
<path d="M105.614 210.733C105.614 214.193 102.809 216.998 99.3492 216.998C95.8894 216.998 93.0847 214.193 93.0847 210.733C93.0847 207.273 95.8894 204.469 99.3492 204.469C102.809 204.469 105.614 207.273 105.614 210.733Z" fill="#D75452"/>
<path d="M257.162 155.766C257.162 162.253 251.903 167.512 245.416 167.512C238.928 167.512 233.67 162.253 233.67 155.766C233.67 149.278 238.928 144.02 245.416 144.02C251.903 144.02 257.162 149.278 257.162 155.766Z" fill="#377C9A"/>
<path d="M218.321 155.766C218.321 162.253 213.063 167.512 206.575 167.512C200.088 167.512 194.829 162.253 194.829 155.766C194.829 149.278 200.088 144.02 206.575 144.02C213.063 144.02 218.321 149.278 218.321 155.766Z" fill="#377C9A"/>
<path fill-rule="evenodd" clip-rule="evenodd" d="M216.419 197.432L206.866 167.988L205.972 168.278L215.525 197.722L216.419 197.432Z" fill="#45788E"/>
<path d="M217.838 202.919L211.117 197.592L219.087 194.442L217.838 202.919Z" fill="#45788E"/>
<path fill-rule="evenodd" clip-rule="evenodd" d="M195.535 197.432L205.088 167.988L205.982 168.278L196.429 197.722L195.535 197.432Z" fill="#45788E"/>
<path d="M194.116 202.919L200.837 197.592L192.867 194.442L194.116 202.919Z" fill="#45788E"/>
<path d="M225.212 210.733C225.212 214.193 222.408 216.998 218.948 216.998C215.488 216.998 212.683 214.193 212.683 210.733C212.683 207.273 215.488 204.469 218.948 204.469C222.408 204.469 225.212 207.273 225.212 210.733Z" fill="#D75452"/>
<path d="M200.154 210.733C200.154 214.193 197.35 216.998 193.89 216.998C190.43 216.998 187.625 214.193 187.625 210.733C187.625 207.273 190.43 204.469 193.89 204.469C197.35 204.469 200.154 207.273 200.154 210.733Z" fill="#D75452"/>
<path d="M346.919 155.766C346.919 162.253 341.66 167.512 335.173 167.512C328.686 167.512 323.427 162.253 323.427 155.766C323.427 149.278 328.686 144.02 335.173 144.02C341.66 144.02 346.919 149.278 346.919 155.766Z" fill="#377C9A"/>
<path fill-rule="evenodd" clip-rule="evenodd" d="M345.643 197.432L336.09 167.988L335.196 168.278L344.749 197.722L345.643 197.432Z" fill="#45788E"/>
<path d="M347.062 202.919L340.341 197.592L348.311 194.442L347.062 202.919Z" fill="#45788E"/>
<path fill-rule="evenodd" clip-rule="evenodd" d="M324.759 197.432L334.312 167.988L335.206 168.278L325.653 197.722L324.759 197.432Z" fill="#45788E"/>
<path d="M323.34 202.919L330.061 197.592L322.091 194.442L323.34 202.919Z" fill="#45788E"/>
<path d="M354.436 210.733C354.436 214.193 351.632 216.998 348.172 216.998C344.712 216.998 341.907 214.193 341.907 210.733C341.907 207.273 344.712 204.469 348.172 204.469C351.632 204.469 354.436 207.273 354.436 210.733Z" fill="#D75452"/>
<path d="M329.378 210.733C329.378 214.193 326.573 216.998 323.114 216.998C319.654 216.998 316.849 214.193 316.849 210.733C316.849 207.273 319.654 204.469 323.114 204.469C326.573 204.469 329.378 207.273 329.378 210.733Z" fill="#D75452"/>
<path d="M308.079 155.766C308.079 162.253 302.82 167.512 296.333 167.512C289.846 167.512 284.587 162.253 284.587 155.766C284.587 149.278 289.846 144.02 296.333 144.02C302.82 144.02 308.079 149.278 308.079 155.766Z" fill="#377C9A"/>
<path fill-rule="evenodd" clip-rule="evenodd" d="M306.177 197.432L296.623 167.988L295.729 168.278L305.283 197.722L306.177 197.432Z" fill="#45788E"/>
<path d="M307.596 202.919L300.875 197.592L308.844 194.442L307.596 202.919Z" fill="#45788E"/>
<path fill-rule="evenodd" clip-rule="evenodd" d="M285.292 197.432L294.846 167.988L295.739 168.278L286.186 197.722L285.292 197.432Z" fill="#45788E"/>
<path d="M283.873 202.919L290.594 197.592L282.625 194.442L283.873 202.919Z" fill="#45788E"/>
<path d="M314.97 210.733C314.97 214.193 312.165 216.998 308.705 216.998C305.245 216.998 302.441 214.193 302.441 210.733C302.441 207.273 305.245 204.469 308.705 204.469C312.165 204.469 314.97 207.273 314.97 210.733Z" fill="#D75452"/>
<path d="M289.912 210.733C289.912 214.193 287.107 216.998 283.647 216.998C280.187 216.998 277.383 214.193 277.383 210.733C277.383 207.273 280.187 204.469 283.647 204.469C287.107 204.469 289.912 207.273 289.912 210.733Z" fill="#D75452"/>
<path d="M143.201 95.9374C143.201 102.425 137.942 107.683 131.455 107.683C124.968 107.683 119.709 102.425 119.709 95.9374C119.709 89.4503 124.968 84.1914 131.455 84.1914C137.942 84.1914 143.201 89.4503 143.201 95.9374Z" fill="#D75452"/>
<path d="M50.4295 95.9374C50.4295 102.425 45.1706 107.683 38.6835 107.683C32.1964 107.683 26.9375 102.425 26.9375 95.9374C26.9375 89.4503 32.1964 84.1914 38.6835 84.1914C45.1706 84.1914 50.4295 89.4503 50.4295 95.9374Z" fill="#D75452"/>
<path d="M237.742 95.9374C237.742 102.425 232.483 107.683 225.996 107.683C219.508 107.683 214.25 102.425 214.25 95.9374C214.25 89.4503 219.508 84.1914 225.996 84.1914C232.483 84.1914 237.742 89.4503 237.742 95.9374Z" fill="#D75452"/>
<path fill-rule="evenodd" clip-rule="evenodd" d="M256.199 197.435L246.646 167.992L245.752 168.282L255.305 197.725L256.199 197.435Z" fill="#45788E"/>
<path d="M257.618 202.923L250.897 197.596L258.867 194.446L257.618 202.923Z" fill="#45788E"/>
<path fill-rule="evenodd" clip-rule="evenodd" d="M235.315 197.435L244.868 167.992L245.762 168.282L236.209 197.725L235.315 197.435Z" fill="#45788E"/>
<path d="M233.896 202.923L240.617 197.596L232.647 194.446L233.896 202.923Z" fill="#45788E"/>
<path d="M264.992 210.737C264.992 214.197 262.187 217.002 258.728 217.002C255.268 217.002 252.463 214.197 252.463 210.737C252.463 207.277 255.268 204.473 258.728 204.473C262.187 204.473 264.992 207.277 264.992 210.737Z" fill="#D75452"/>
<path d="M239.934 210.737C239.934 214.197 237.129 217.002 233.67 217.002C230.21 217.002 227.405 214.197 227.405 210.737C227.405 207.277 230.21 204.473 233.67 204.473C237.129 204.473 239.934 207.277 239.934 210.737Z" fill="#D75452"/>
<path d="M327.499 95.9374C327.499 102.425 322.24 107.683 315.753 107.683C309.266 107.683 304.007 102.425 304.007 95.9374C304.007 89.4503 309.266 84.1914 315.753 84.1914C322.24 84.1914 327.499 89.4503 327.499 95.9374Z" fill="#D75452"/>
<path d="M282.464 54.3437C282.464 60.8308 277.205 66.0896 270.718 66.0896C264.23 66.0896 258.972 60.8308 258.972 54.3437C258.972 47.8565 264.23 42.5977 270.718 42.5977C277.205 42.5977 282.464 47.8565 282.464 54.3437Z" fill="#377C9A"/>
<path d="M57.506 57.0957C57.506 57.2477 57.4563 57.3763 57.3569 57.4816C57.2575 57.581 57.1318 57.6307 56.9798 57.6307C56.8278 57.6307 56.7021 57.581 56.6027 57.4816C56.5033 57.3763 56.4536 57.2477 56.4536 57.0957V53.4735C56.4536 53.3215 56.5033 53.1958 56.6027 53.0964C56.7021 52.9912 56.8278 52.9385 56.9798 52.9385C57.1318 52.9385 57.2575 52.9912 57.3569 53.0964C57.4563 53.1958 57.506 53.3215 57.506 53.4735V57.0957ZM56.971 52.3685C56.7722 52.3685 56.6319 52.3363 56.55 52.272C56.4682 52.2077 56.4272 52.0937 56.4272 51.93V51.7633C56.4272 51.5938 56.4711 51.4797 56.5588 51.4213C56.6524 51.357 56.7927 51.3248 56.9798 51.3248C57.1844 51.3248 57.3277 51.357 57.4095 51.4213C57.4914 51.4856 57.5323 51.5996 57.5323 51.7633V51.93C57.5323 52.0995 57.4885 52.2165 57.4008 52.2808C57.3131 52.3392 57.1698 52.3685 56.971 52.3685Z" fill="#377C9A"/>
<path d="M62.3852 51.1406C62.5372 51.1406 62.6629 51.1903 62.7623 51.2897C62.8617 51.3891 62.9114 51.5177 62.9114 51.6756V57.0957C62.9114 57.2477 62.8617 57.3763 62.7623 57.4816C62.6629 57.581 62.5372 57.6307 62.3852 57.6307C62.2332 57.6307 62.1075 57.581 62.0081 57.4816C61.9087 57.3763 61.859 57.2477 61.859 57.0957V56.6659L62.0519 56.7449C62.0519 56.8209 62.011 56.9144 61.9291 57.0255C61.8473 57.1308 61.7362 57.236 61.5959 57.3413C61.4555 57.4465 61.2889 57.5371 61.0959 57.6131C60.9088 57.6833 60.7042 57.7184 60.482 57.7184C60.0786 57.7184 59.7132 57.6161 59.3857 57.4114C59.0583 57.2009 58.7981 56.9144 58.6052 56.5519C58.4181 56.1836 58.3245 55.7626 58.3245 55.289C58.3245 54.8096 58.4181 54.3886 58.6052 54.0261C58.7981 53.6577 59.0554 53.3712 59.377 53.1666C59.6985 52.9561 60.0552 52.8508 60.4469 52.8508C60.6984 52.8508 60.9293 52.8888 61.1398 52.9649C61.3503 53.0409 61.5315 53.1373 61.6836 53.2543C61.8414 53.3712 61.9613 53.4911 62.0431 53.6139C62.1308 53.7308 62.1747 53.8302 62.1747 53.9121L61.859 54.0261V51.6756C61.859 51.5236 61.9087 51.3979 62.0081 51.2985C62.1075 51.1932 62.2332 51.1406 62.3852 51.1406ZM60.6136 56.7536C60.8708 56.7536 61.0959 56.6893 61.2889 56.5607C61.4818 56.4321 61.6309 56.2567 61.7362 56.0345C61.8473 55.8123 61.9028 55.5638 61.9028 55.289C61.9028 55.0083 61.8473 54.7569 61.7362 54.5347C61.6309 54.3126 61.4818 54.1372 61.2889 54.0085C61.0959 53.8799 60.8708 53.8156 60.6136 53.8156C60.3622 53.8156 60.14 53.8799 59.947 54.0085C59.7541 54.1372 59.6021 54.3126 59.491 54.5347C59.3857 54.7569 59.3331 55.0083 59.3331 55.289C59.3331 55.5638 59.3857 55.8123 59.491 56.0345C59.6021 56.2567 59.7541 56.4321 59.947 56.5607C60.14 56.6893 60.3622 56.7536 60.6136 56.7536Z" fill="#377C9A"/>
<path d="M64.4379 54.6049C64.2917 54.6049 64.1689 54.5581 64.0695 54.4646C63.9701 54.3652 63.9204 54.2483 63.9204 54.1138C63.9204 53.9793 63.9701 53.8682 64.0695 53.7805C64.1689 53.6869 64.2917 53.6402 64.4379 53.6402H67.9548C68.1068 53.6402 68.2296 53.6869 68.3231 53.7805C68.4225 53.8682 68.4722 53.9793 68.4722 54.1138C68.4722 54.2483 68.4225 54.3652 68.3231 54.4646C68.2296 54.5581 68.1068 54.6049 67.9548 54.6049H64.4379ZM64.4379 56.3064C64.2917 56.3064 64.1689 56.2596 64.0695 56.166C63.9701 56.0666 63.9204 55.9497 63.9204 55.8152C63.9204 55.6807 63.9701 55.5696 64.0695 55.4819C64.1689 55.3884 64.2917 55.3416 64.4379 55.3416H67.9548C68.1068 55.3416 68.2296 55.3884 68.3231 55.4819C68.4225 55.5696 68.4722 55.6807 68.4722 55.8152C68.4722 55.9497 68.4225 56.0666 68.3231 56.166C68.2296 56.2596 68.1068 56.3064 67.9548 56.3064H64.4379Z" fill="#377C9A"/>
<path d="M70.8678 57.6307C70.704 57.6307 70.5696 57.581 70.4643 57.4816C70.3591 57.3763 70.3065 57.2477 70.3065 57.0957V52.6754L70.4292 52.8684L69.7627 53.2718C69.675 53.3244 69.5814 53.3508 69.482 53.3508C69.33 53.3508 69.2043 53.2952 69.1049 53.1841C69.0055 53.0672 68.9558 52.9444 68.9558 52.8158C68.9558 52.617 69.0464 52.4649 69.2277 52.3597L70.552 51.5704C70.6514 51.5177 70.7771 51.4914 70.9291 51.4914C71.0812 51.4914 71.2039 51.5441 71.2975 51.6493C71.3969 51.7487 71.4466 51.8744 71.4466 52.0264V57.0957C71.4466 57.2477 71.3911 57.3763 71.28 57.4816C71.1747 57.581 71.0373 57.6307 70.8678 57.6307Z" fill="#377C9A"/>
<path d="M287.783 57.0957C287.783 57.2477 287.734 57.3763 287.634 57.4816C287.535 57.581 287.409 57.6307 287.257 57.6307C287.105 57.6307 286.98 57.581 286.88 57.4816C286.781 57.3763 286.731 57.2477 286.731 57.0957V53.4735C286.731 53.3215 286.781 53.1958 286.88 53.0964C286.98 52.9912 287.105 52.9385 287.257 52.9385C287.409 52.9385 287.535 52.9912 287.634 53.0964C287.734 53.1958 287.783 53.3215 287.783 53.4735V57.0957ZM287.248 52.3685C287.05 52.3685 286.909 52.3363 286.827 52.272C286.746 52.2077 286.705 52.0937 286.705 51.93V51.7633C286.705 51.5938 286.749 51.4797 286.836 51.4213C286.93 51.357 287.07 51.3248 287.257 51.3248C287.462 51.3248 287.605 51.357 287.687 51.4213C287.769 51.4856 287.81 51.5996 287.81 51.7633V51.93C287.81 52.0995 287.766 52.2165 287.678 52.2808C287.591 52.3392 287.447 52.3685 287.248 52.3685Z" fill="#377C9A"/>
<path d="M292.663 51.1406C292.815 51.1406 292.94 51.1903 293.04 51.2897C293.139 51.3891 293.189 51.5177 293.189 51.6756V57.0957C293.189 57.2477 293.139 57.3763 293.04 57.4816C292.94 57.581 292.815 57.6307 292.663 57.6307C292.511 57.6307 292.385 57.581 292.286 57.4816C292.186 57.3763 292.136 57.2477 292.136 57.0957V56.6659L292.329 56.7449C292.329 56.8209 292.288 56.9144 292.207 57.0255C292.125 57.1308 292.014 57.236 291.873 57.3413C291.733 57.4465 291.566 57.5371 291.373 57.6131C291.186 57.6833 290.982 57.7184 290.759 57.7184C290.356 57.7184 289.991 57.6161 289.663 57.4114C289.336 57.2009 289.076 56.9144 288.883 56.5519C288.696 56.1836 288.602 55.7626 288.602 55.289C288.602 54.8096 288.696 54.3886 288.883 54.0261C289.076 53.6577 289.333 53.3712 289.654 53.1666C289.976 52.9561 290.333 52.8508 290.724 52.8508C290.976 52.8508 291.207 52.8888 291.417 52.9649C291.628 53.0409 291.809 53.1373 291.961 53.2543C292.119 53.3712 292.239 53.4911 292.321 53.6139C292.408 53.7308 292.452 53.8302 292.452 53.9121L292.136 54.0261V51.6756C292.136 51.5236 292.186 51.3979 292.286 51.2985C292.385 51.1932 292.511 51.1406 292.663 51.1406ZM290.891 56.7536C291.148 56.7536 291.373 56.6893 291.566 56.5607C291.759 56.4321 291.908 56.2567 292.014 56.0345C292.125 55.8123 292.18 55.5638 292.18 55.289C292.18 55.0083 292.125 54.7569 292.014 54.5347C291.908 54.3126 291.759 54.1372 291.566 54.0085C291.373 53.8799 291.148 53.8156 290.891 53.8156C290.64 53.8156 290.417 53.8799 290.224 54.0085C290.032 54.1372 289.88 54.3126 289.768 54.5347C289.663 54.7569 289.611 55.0083 289.611 55.289C289.611 55.5638 289.663 55.8123 289.768 56.0345C289.88 56.2567 290.032 56.4321 290.224 56.5607C290.417 56.6893 290.64 56.7536 290.891 56.7536Z" fill="#377C9A"/>
<path d="M294.715 54.6049C294.569 54.6049 294.446 54.5581 294.347 54.4646C294.248 54.3652 294.198 54.2483 294.198 54.1138C294.198 53.9793 294.248 53.8682 294.347 53.7805C294.446 53.6869 294.569 53.6402 294.715 53.6402H298.232C298.384 53.6402 298.507 53.6869 298.601 53.7805C298.7 53.8682 298.75 53.9793 298.75 54.1138C298.75 54.2483 298.7 54.3652 298.601 54.4646C298.507 54.5581 298.384 54.6049 298.232 54.6049H294.715ZM294.715 56.3064C294.569 56.3064 294.446 56.2596 294.347 56.166C294.248 56.0666 294.198 55.9497 294.198 55.8152C294.198 55.6807 294.248 55.5696 294.347 55.4819C294.446 55.3884 294.569 55.3416 294.715 55.3416H298.232C298.384 55.3416 298.507 55.3884 298.601 55.4819C298.7 55.5696 298.75 55.6807 298.75 55.8152C298.75 55.9497 298.7 56.0666 298.601 56.166C298.507 56.2596 298.384 56.3064 298.232 56.3064H294.715Z" fill="#377C9A"/>
<path d="M301.145 57.6307C300.982 57.6307 300.847 57.581 300.742 57.4816C300.637 57.3763 300.584 57.2477 300.584 57.0957V52.6754L300.707 52.8684L300.04 53.2718C299.952 53.3244 299.859 53.3508 299.76 53.3508C299.607 53.3508 299.482 53.2952 299.382 53.1841C299.283 53.0672 299.233 52.9444 299.233 52.8158C299.233 52.617 299.324 52.4649 299.505 52.3597L300.829 51.5704C300.929 51.5177 301.055 51.4914 301.207 51.4914C301.359 51.4914 301.481 51.5441 301.575 51.6493C301.674 51.7487 301.724 51.8744 301.724 52.0264V57.0957C301.724 57.2477 301.669 57.3763 301.557 57.4816C301.452 57.581 301.315 57.6307 301.145 57.6307Z" fill="#377C9A"/>
<path d="M303.226 55.5258C303.086 55.5258 302.969 55.479 302.875 55.3855C302.782 55.2919 302.735 55.175 302.735 55.0347C302.735 54.8943 302.782 54.7803 302.875 54.6926C302.969 54.6049 303.086 54.5611 303.226 54.5611H306.796C306.936 54.5611 307.053 54.6078 307.146 54.7014C307.24 54.7891 307.287 54.9031 307.287 55.0434C307.287 55.1838 307.24 55.3007 307.146 55.3942C307.053 55.4819 306.936 55.5258 306.796 55.5258H303.226ZM304.998 57.236C304.834 57.236 304.697 57.1834 304.585 57.0781C304.48 56.9729 304.428 56.8384 304.428 56.6747V53.2543C304.428 53.0906 304.483 52.9561 304.594 52.8508C304.705 52.7456 304.843 52.693 305.006 52.693C305.176 52.693 305.31 52.7456 305.41 52.8508C305.515 52.9561 305.568 53.0906 305.568 53.2543V56.6747C305.568 56.8384 305.515 56.9729 305.41 57.0781C305.305 57.1834 305.167 57.236 304.998 57.236Z" fill="#377C9A"/>
<path d="M309.41 57.6307C309.247 57.6307 309.112 57.581 309.007 57.4816C308.902 57.3763 308.849 57.2477 308.849 57.0957V52.6754L308.972 52.8684L308.305 53.2718C308.217 53.3244 308.124 53.3508 308.025 53.3508C307.873 53.3508 307.747 53.2952 307.647 53.1841C307.548 53.0672 307.498 52.9444 307.498 52.8158C307.498 52.617 307.589 52.4649 307.77 52.3597L309.095 51.5704C309.194 51.5177 309.32 51.4914 309.472 51.4914C309.624 51.4914 309.746 51.5441 309.84 51.6493C309.939 51.7487 309.989 51.8744 309.989 52.0264V57.0957C309.989 57.2477 309.934 57.3763 309.822 57.4816C309.717 57.581 309.58 57.6307 309.41 57.6307Z" fill="#377C9A"/>
<path d="M55.7493 98.6933C55.7493 98.8454 55.6996 98.974 55.6002 99.0792C55.5008 99.1786 55.3751 99.2283 55.2231 99.2283C55.071 99.2283 54.9453 99.1786 54.8459 99.0792C54.7465 98.974 54.6968 98.8454 54.6968 98.6933V95.0712C54.6968 94.9192 54.7465 94.7935 54.8459 94.6941C54.9453 94.5888 55.071 94.5362 55.2231 94.5362C55.3751 94.5362 55.5008 94.5888 55.6002 94.6941C55.6996 94.7935 55.7493 94.9192 55.7493 95.0712V98.6933ZM55.2143 93.9661C55.0155 93.9661 54.8752 93.934 54.7933 93.8697C54.7115 93.8053 54.6705 93.6913 54.6705 93.5276V93.361C54.6705 93.1914 54.7144 93.0774 54.8021 93.0189C54.8956 92.9546 55.036 92.9225 55.2231 92.9225C55.4277 92.9225 55.571 92.9546 55.6528 93.0189C55.7347 93.0832 55.7756 93.1973 55.7756 93.361V93.5276C55.7756 93.6972 55.7317 93.8141 55.644 93.8784C55.5563 93.9369 55.4131 93.9661 55.2143 93.9661Z" fill="#D75452"/>
<path d="M60.6285 92.7383C60.7805 92.7383 60.9062 92.788 61.0056 92.8874C61.105 92.9868 61.1547 93.1154 61.1547 93.2733V98.6933C61.1547 98.8454 61.105 98.974 61.0056 99.0792C60.9062 99.1786 60.7805 99.2283 60.6285 99.2283C60.4765 99.2283 60.3507 99.1786 60.2513 99.0792C60.152 98.974 60.1023 98.8454 60.1023 98.6933V98.2636L60.2952 98.3425C60.2952 98.4185 60.2543 98.5121 60.1724 98.6232C60.0906 98.7284 59.9795 98.8337 59.8391 98.9389C59.6988 99.0442 59.5322 99.1348 59.3392 99.2108C59.1521 99.281 58.9475 99.316 58.7253 99.316C58.3219 99.316 57.9564 99.2137 57.629 99.0091C57.3016 98.7986 57.0414 98.5121 56.8485 98.1496C56.6614 97.7812 56.5678 97.3603 56.5678 96.8867C56.5678 96.4072 56.6614 95.9862 56.8485 95.6237C57.0414 95.2554 57.2987 94.9689 57.6202 94.7642C57.9418 94.5537 58.2985 94.4485 58.6902 94.4485C58.9416 94.4485 59.1726 94.4865 59.3831 94.5625C59.5936 94.6385 59.7748 94.735 59.9268 94.8519C60.0847 94.9689 60.2046 95.0887 60.2864 95.2115C60.3741 95.3285 60.418 95.4279 60.418 95.5097L60.1023 95.6237V93.2733C60.1023 93.1213 60.152 92.9955 60.2513 92.8961C60.3507 92.7909 60.4765 92.7383 60.6285 92.7383ZM58.8569 98.3513C59.1141 98.3513 59.3392 98.287 59.5322 98.1584C59.7251 98.0297 59.8742 97.8543 59.9795 97.6321C60.0906 97.41 60.1461 97.1615 60.1461 96.8867C60.1461 96.606 60.0906 96.3546 59.9795 96.1324C59.8742 95.9102 59.7251 95.7348 59.5322 95.6062C59.3392 95.4776 59.1141 95.4132 58.8569 95.4132C58.6054 95.4132 58.3833 95.4776 58.1903 95.6062C57.9974 95.7348 57.8454 95.9102 57.7343 96.1324C57.629 96.3546 57.5764 96.606 57.5764 96.8867C57.5764 97.1615 57.629 97.41 57.7343 97.6321C57.8454 97.8543 57.9974 98.0297 58.1903 98.1584C58.3833 98.287 58.6054 98.3513 58.8569 98.3513Z" fill="#D75452"/>
<path d="M62.6811 96.2026C62.535 96.2026 62.4122 96.1558 62.3128 96.0622C62.2134 95.9628 62.1637 95.8459 62.1637 95.7114C62.1637 95.5769 62.2134 95.4659 62.3128 95.3782C62.4122 95.2846 62.535 95.2378 62.6811 95.2378H66.1981C66.3501 95.2378 66.4729 95.2846 66.5664 95.3782C66.6658 95.4659 66.7155 95.5769 66.7155 95.7114C66.7155 95.8459 66.6658 95.9628 66.5664 96.0622C66.4729 96.1558 66.3501 96.2026 66.1981 96.2026H62.6811ZM62.6811 97.904C62.535 97.904 62.4122 97.8572 62.3128 97.7637C62.2134 97.6643 62.1637 97.5474 62.1637 97.4129C62.1637 97.2784 62.2134 97.1673 62.3128 97.0796C62.4122 96.9861 62.535 96.9393 62.6811 96.9393H66.1981C66.3501 96.9393 66.4729 96.9861 66.5664 97.0796C66.6658 97.1673 66.7155 97.2784 66.7155 97.4129C66.7155 97.5474 66.6658 97.6643 66.5664 97.7637C66.4729 97.8572 66.3501 97.904 66.1981 97.904H62.6811Z" fill="#D75452"/>
<path d="M69.111 99.2283C68.9473 99.2283 68.8128 99.1786 68.7076 99.0792C68.6024 98.974 68.5497 98.8454 68.5497 98.6933V94.2731L68.6725 94.466L68.006 94.8695C67.9183 94.9221 67.8247 94.9484 67.7253 94.9484C67.5733 94.9484 67.4476 94.8929 67.3482 94.7818C67.2488 94.6648 67.1991 94.542 67.1991 94.4134C67.1991 94.2146 67.2897 94.0626 67.471 93.9574L68.7953 93.168C68.8947 93.1154 69.0204 93.0891 69.1724 93.0891C69.3245 93.0891 69.4472 93.1417 69.5408 93.247C69.6402 93.3464 69.6899 93.4721 69.6899 93.6241V98.6933C69.6899 98.8454 69.6343 98.974 69.5232 99.0792C69.418 99.1786 69.2806 99.2283 69.111 99.2283Z" fill="#D75452"/>
<path d="M72.2531 93.9749C72.2531 94.0743 72.2239 94.1942 72.1654 94.3345C72.1128 94.4748 72.0367 94.6151 71.9374 94.7555C71.8438 94.8958 71.7356 95.0127 71.6128 95.1063C71.4901 95.1998 71.3614 95.2466 71.227 95.2466C71.11 95.2466 71.0106 95.2203 70.9288 95.1677C70.8469 95.115 70.806 95.0244 70.806 94.8958C70.806 94.7672 70.8469 94.6882 70.9288 94.659C71.0165 94.6298 71.0896 94.6005 71.148 94.5713C71.224 94.5304 71.2825 94.4836 71.3234 94.431C71.3702 94.3725 71.3936 94.3023 71.3936 94.2205C71.3936 94.162 71.3614 94.1065 71.2971 94.0538C71.2386 94.0012 71.1597 93.9749 71.0603 93.9749C71.0252 93.9749 70.9843 93.9807 70.9375 93.9924C70.8908 93.9983 70.8498 94.0129 70.8147 94.0363C70.7504 94.0129 70.6978 93.9778 70.6569 93.931C70.616 93.8843 70.5955 93.8112 70.5955 93.7118C70.5955 93.5832 70.6393 93.4691 70.727 93.3697C70.8147 93.2703 70.9229 93.1914 71.0515 93.1329C71.1802 93.0745 71.3059 93.0452 71.4287 93.0452C71.6801 93.0452 71.8789 93.1242 72.0251 93.282C72.1771 93.4399 72.2531 93.6709 72.2531 93.9749Z" fill="#D75452"/>
<path d="M148.521 98.6932C148.521 98.8452 148.471 98.9738 148.372 99.0791C148.272 99.1785 148.146 99.2282 147.994 99.2282C147.842 99.2282 147.717 99.1785 147.617 99.0791C147.518 98.9738 147.468 98.8452 147.468 98.6932V95.071C147.468 94.919 147.518 94.7933 147.617 94.6939C147.717 94.5887 147.842 94.536 147.994 94.536C148.146 94.536 148.272 94.5887 148.372 94.6939C148.471 94.7933 148.521 94.919 148.521 95.071V98.6932ZM147.986 93.966C147.787 93.966 147.647 93.9338 147.565 93.8695C147.483 93.8052 147.442 93.6912 147.442 93.5274V93.3608C147.442 93.1913 147.486 93.0772 147.573 93.0188C147.667 92.9545 147.807 92.9223 147.994 92.9223C148.199 92.9223 148.342 92.9545 148.424 93.0188C148.506 93.0831 148.547 93.1971 148.547 93.3608V93.5274C148.547 93.697 148.503 93.8139 148.415 93.8783C148.328 93.9367 148.184 93.966 147.986 93.966Z" fill="#D75452"/>
<path d="M153.4 92.7381C153.552 92.7381 153.678 92.7878 153.777 92.8872C153.876 92.9866 153.926 93.1152 153.926 93.2731V98.6932C153.926 98.8452 153.876 98.9738 153.777 99.0791C153.678 99.1785 153.552 99.2282 153.4 99.2282C153.248 99.2282 153.122 99.1785 153.023 99.0791C152.923 98.9738 152.874 98.8452 152.874 98.6932V98.2634L153.067 98.3424C153.067 98.4184 153.026 98.5119 152.944 98.623C152.862 98.7283 152.751 98.8335 152.611 98.9387C152.47 99.044 152.304 99.1346 152.111 99.2106C151.923 99.2808 151.719 99.3159 151.497 99.3159C151.093 99.3159 150.728 99.2136 150.4 99.0089C150.073 98.7984 149.813 98.5119 149.62 98.1494C149.433 97.7811 149.339 97.3601 149.339 96.8865C149.339 96.407 149.433 95.9861 149.62 95.6236C149.813 95.2552 150.07 94.9687 150.392 94.7641C150.713 94.5536 151.07 94.4483 151.462 94.4483C151.713 94.4483 151.944 94.4863 152.154 94.5623C152.365 94.6384 152.546 94.7348 152.698 94.8518C152.856 94.9687 152.976 95.0886 153.058 95.2114C153.145 95.3283 153.189 95.4277 153.189 95.5095L152.874 95.6236V93.2731C152.874 93.1211 152.923 92.9954 153.023 92.896C153.122 92.7907 153.248 92.7381 153.4 92.7381ZM151.628 98.3511C151.885 98.3511 152.111 98.2868 152.304 98.1582C152.496 98.0296 152.646 97.8541 152.751 97.632C152.862 97.4098 152.917 97.1613 152.917 96.8865C152.917 96.6058 152.862 96.3544 152.751 96.1322C152.646 95.9101 152.496 95.7346 152.304 95.606C152.111 95.4774 151.885 95.4131 151.628 95.4131C151.377 95.4131 151.155 95.4774 150.962 95.606C150.769 95.7346 150.617 95.9101 150.506 96.1322C150.4 96.3544 150.348 96.6058 150.348 96.8865C150.348 97.1613 150.4 97.4098 150.506 97.632C150.617 97.8541 150.769 98.0296 150.962 98.1582C151.155 98.2868 151.377 98.3511 151.628 98.3511Z" fill="#D75452"/>
<path d="M155.453 96.2024C155.306 96.2024 155.184 96.1556 155.084 96.0621C154.985 95.9627 154.935 95.8457 154.935 95.7113C154.935 95.5768 154.985 95.4657 155.084 95.378C155.184 95.2844 155.306 95.2377 155.453 95.2377H158.969C159.121 95.2377 159.244 95.2844 159.338 95.378C159.437 95.4657 159.487 95.5768 159.487 95.7113C159.487 95.8457 159.437 95.9627 159.338 96.0621C159.244 96.1556 159.121 96.2024 158.969 96.2024H155.453ZM155.453 97.9038C155.306 97.9038 155.184 97.8571 155.084 97.7635C154.985 97.6641 154.935 97.5472 154.935 97.4127C154.935 97.2782 154.985 97.1671 155.084 97.0794C155.184 96.9859 155.306 96.9391 155.453 96.9391H158.969C159.121 96.9391 159.244 96.9859 159.338 97.0794C159.437 97.1671 159.487 97.2782 159.487 97.4127C159.487 97.5472 159.437 97.6641 159.338 97.7635C159.244 97.8571 159.121 97.9038 158.969 97.9038H155.453Z" fill="#D75452"/>
<path d="M161.882 99.2282C161.719 99.2282 161.584 99.1785 161.479 99.0791C161.374 98.9738 161.321 98.8452 161.321 98.6932V94.2729L161.444 94.4659L160.777 94.8693C160.69 94.9219 160.596 94.9482 160.497 94.9482C160.345 94.9482 160.219 94.8927 160.12 94.7816C160.02 94.6647 159.97 94.5419 159.97 94.4133C159.97 94.2145 160.061 94.0624 160.242 93.9572L161.567 93.1679C161.666 93.1152 161.792 93.0889 161.944 93.0889C162.096 93.0889 162.219 93.1416 162.312 93.2468C162.412 93.3462 162.461 93.4719 162.461 93.6239V98.6932C162.461 98.8452 162.406 98.9738 162.295 99.0791C162.189 99.1785 162.052 99.2282 161.882 99.2282Z" fill="#D75452"/>
<path d="M163.858 100.403C163.759 100.403 163.656 100.362 163.551 100.281C163.446 100.199 163.393 100.094 163.393 99.9649C163.393 99.8947 163.411 99.8246 163.446 99.7544L167.007 92.4662C167.047 92.3844 167.103 92.3201 167.173 92.2733C167.243 92.2265 167.316 92.2031 167.392 92.2031C167.492 92.2031 167.591 92.2441 167.691 92.3259C167.796 92.4019 167.848 92.5072 167.848 92.6416C167.848 92.7118 167.831 92.782 167.796 92.8521L164.244 100.14C164.203 100.222 164.147 100.286 164.077 100.333C164.013 100.38 163.94 100.403 163.858 100.403Z" fill="#D75452"/>
<path d="M170.798 99.3159C170.296 99.3159 169.869 99.1843 169.518 98.9212C169.173 98.6523 168.91 98.281 168.729 97.8074C168.547 97.3279 168.457 96.7783 168.457 96.1585C168.457 95.5329 168.547 94.9833 168.729 94.5097C168.91 94.0361 169.173 93.6678 169.518 93.4047C169.869 93.1357 170.296 93.0012 170.798 93.0012C171.301 93.0012 171.725 93.1357 172.07 93.4047C172.421 93.6678 172.687 94.0361 172.868 94.5097C173.05 94.9833 173.14 95.5329 173.14 96.1585C173.14 96.7783 173.05 97.3279 172.868 97.8074C172.687 98.281 172.421 98.6523 172.07 98.9212C171.725 99.1843 171.301 99.3159 170.798 99.3159ZM170.798 98.2634C171.044 98.2634 171.255 98.1874 171.43 98.0354C171.611 97.8775 171.752 97.6437 171.851 97.3338C171.95 97.018 172 96.6263 172 96.1585C172 95.685 171.95 95.2932 171.851 94.9833C171.752 94.6734 171.611 94.4425 171.43 94.2905C171.255 94.1326 171.044 94.0537 170.798 94.0537C170.559 94.0537 170.348 94.1326 170.167 94.2905C169.986 94.4425 169.845 94.6734 169.746 94.9833C169.647 95.2932 169.597 95.685 169.597 96.1585C169.597 96.6263 169.647 97.018 169.746 97.3338C169.845 97.6437 169.986 97.8775 170.167 98.0354C170.348 98.1874 170.559 98.2634 170.798 98.2634Z" fill="#D75452"/>
<path d="M243.061 98.6932C243.061 98.8452 243.012 98.9738 242.912 99.0791C242.813 99.1785 242.687 99.2282 242.535 99.2282C242.383 99.2282 242.257 99.1785 242.158 99.0791C242.059 98.9738 242.009 98.8452 242.009 98.6932V95.071C242.009 94.919 242.059 94.7933 242.158 94.6939C242.257 94.5887 242.383 94.536 242.535 94.536C242.687 94.536 242.813 94.5887 242.912 94.6939C243.012 94.7933 243.061 94.919 243.061 95.071V98.6932ZM242.526 93.966C242.328 93.966 242.187 93.9338 242.105 93.8695C242.023 93.8052 241.983 93.6912 241.983 93.5274V93.3608C241.983 93.1913 242.026 93.0772 242.114 93.0188C242.208 92.9545 242.348 92.9223 242.535 92.9223C242.74 92.9223 242.883 92.9545 242.965 93.0188C243.047 93.0831 243.088 93.1971 243.088 93.3608V93.5274C243.088 93.697 243.044 93.8139 242.956 93.8783C242.868 93.9367 242.725 93.966 242.526 93.966Z" fill="#D75452"/>
<path d="M247.94 92.7381C248.093 92.7381 248.218 92.7878 248.318 92.8872C248.417 92.9866 248.467 93.1152 248.467 93.2731V98.6932C248.467 98.8452 248.417 98.9738 248.318 99.0791C248.218 99.1785 248.093 99.2282 247.94 99.2282C247.788 99.2282 247.663 99.1785 247.563 99.0791C247.464 98.9738 247.414 98.8452 247.414 98.6932V98.2634L247.607 98.3424C247.607 98.4184 247.566 98.5119 247.484 98.623C247.403 98.7283 247.291 98.8335 247.151 98.9387C247.011 99.044 246.844 99.1346 246.651 99.2106C246.464 99.2808 246.26 99.3159 246.037 99.3159C245.634 99.3159 245.268 99.2136 244.941 99.0089C244.614 98.7984 244.353 98.5119 244.16 98.1494C243.973 97.7811 243.88 97.3601 243.88 96.8865C243.88 96.407 243.973 95.9861 244.16 95.6236C244.353 95.2552 244.611 94.9687 244.932 94.7641C245.254 94.5536 245.61 94.4483 246.002 94.4483C246.254 94.4483 246.485 94.4863 246.695 94.5623C246.906 94.6384 247.087 94.7348 247.239 94.8518C247.397 94.9687 247.517 95.0886 247.598 95.2114C247.686 95.3283 247.73 95.4277 247.73 95.5095L247.414 95.6236V93.2731C247.414 93.1211 247.464 92.9954 247.563 92.896C247.663 92.7907 247.788 92.7381 247.94 92.7381ZM246.169 98.3511C246.426 98.3511 246.651 98.2868 246.844 98.1582C247.037 98.0296 247.186 97.8541 247.291 97.632C247.403 97.4098 247.458 97.1613 247.458 96.8865C247.458 96.6058 247.403 96.3544 247.291 96.1322C247.186 95.9101 247.037 95.7346 246.844 95.606C246.651 95.4774 246.426 95.4131 246.169 95.4131C245.917 95.4131 245.695 95.4774 245.502 95.606C245.309 95.7346 245.157 95.9101 245.046 96.1322C244.941 96.3544 244.888 96.6058 244.888 96.8865C244.888 97.1613 244.941 97.4098 245.046 97.632C245.157 97.8541 245.309 98.0296 245.502 98.1582C245.695 98.2868 245.917 98.3511 246.169 98.3511Z" fill="#D75452"/>
<path d="M249.993 96.2024C249.847 96.2024 249.724 96.1556 249.625 96.0621C249.525 95.9627 249.476 95.8457 249.476 95.7113C249.476 95.5768 249.525 95.4657 249.625 95.378C249.724 95.2844 249.847 95.2377 249.993 95.2377H253.51C253.662 95.2377 253.785 95.2844 253.878 95.378C253.978 95.4657 254.028 95.5768 254.028 95.7113C254.028 95.8457 253.978 95.9627 253.878 96.0621C253.785 96.1556 253.662 96.2024 253.51 96.2024H249.993ZM249.993 97.9038C249.847 97.9038 249.724 97.8571 249.625 97.7635C249.525 97.6641 249.476 97.5472 249.476 97.4127C249.476 97.2782 249.525 97.1671 249.625 97.0794C249.724 96.9859 249.847 96.9391 249.993 96.9391H253.51C253.662 96.9391 253.785 96.9859 253.878 97.0794C253.978 97.1671 254.028 97.2782 254.028 97.4127C254.028 97.5472 253.978 97.6641 253.878 97.7635C253.785 97.8571 253.662 97.9038 253.51 97.9038H249.993Z" fill="#D75452"/>
<path d="M257.028 100.824C256.941 100.824 256.862 100.801 256.791 100.754C256.347 100.456 255.97 100.108 255.66 99.7105C255.356 99.3188 255.125 98.8891 254.967 98.4213C254.809 97.9535 254.73 97.4653 254.73 96.9567C254.73 96.448 254.809 95.9598 254.967 95.492C255.125 95.0243 255.356 94.5945 255.66 94.2028C255.97 93.8052 256.347 93.4573 256.791 93.1591C256.862 93.1123 256.941 93.0889 257.028 93.0889C257.169 93.0889 257.277 93.1416 257.353 93.2468C257.429 93.352 257.467 93.4514 257.467 93.545C257.467 93.6795 257.405 93.7964 257.283 93.8958C256.949 94.1589 256.672 94.4542 256.449 94.7816C256.227 95.1032 256.061 95.4482 255.949 95.8165C255.844 96.1849 255.792 96.5649 255.792 96.9567C255.792 97.3484 255.841 97.7314 255.941 98.1056C256.046 98.4798 256.21 98.8306 256.432 99.158C256.654 99.4796 256.938 99.7661 257.283 100.018C257.405 100.105 257.467 100.222 257.467 100.368C257.467 100.474 257.423 100.576 257.335 100.675C257.253 100.775 257.151 100.824 257.028 100.824Z" fill="#D75452"/>
<path d="M259.558 99.2282C259.394 99.2282 259.26 99.1785 259.154 99.0791C259.049 98.9738 258.996 98.8452 258.996 98.6932V94.2729L259.119 94.4659L258.453 94.8693C258.365 94.9219 258.271 94.9482 258.172 94.9482C258.02 94.9482 257.894 94.8927 257.795 94.7816C257.696 94.6647 257.646 94.5419 257.646 94.4133C257.646 94.2145 257.736 94.0624 257.918 93.9572L259.242 93.1679C259.341 93.1152 259.467 93.0889 259.619 93.0889C259.771 93.0889 259.894 93.1416 259.988 93.2468C260.087 93.3462 260.137 93.4719 260.137 93.6239V98.6932C260.137 98.8452 260.081 98.9738 259.97 99.0791C259.865 99.1785 259.727 99.2282 259.558 99.2282Z" fill="#D75452"/>
<path d="M261.639 97.1233C261.498 97.1233 261.381 97.0765 261.288 96.983C261.194 96.8894 261.147 96.7725 261.147 96.6321C261.147 96.4918 261.194 96.3778 261.288 96.2901C261.381 96.2024 261.498 96.1586 261.639 96.1586H265.208C265.348 96.1586 265.465 96.2053 265.559 96.2989C265.652 96.3866 265.699 96.5006 265.699 96.6409C265.699 96.7812 265.652 96.8982 265.559 96.9917C265.465 97.0794 265.348 97.1233 265.208 97.1233H261.639ZM263.41 98.8335C263.246 98.8335 263.109 98.7809 262.998 98.6756C262.893 98.5704 262.84 98.4359 262.84 98.2722V94.8518C262.84 94.6881 262.896 94.5536 263.007 94.4483C263.118 94.3431 263.255 94.2905 263.419 94.2905C263.589 94.2905 263.723 94.3431 263.822 94.4483C263.928 94.5536 263.98 94.6881 263.98 94.8518V98.2722C263.98 98.4359 263.928 98.5704 263.822 98.6756C263.717 98.7809 263.58 98.8335 263.41 98.8335Z" fill="#D75452"/>
<path d="M268.559 99.3159C268.057 99.3159 267.63 99.1843 267.279 98.9212C266.934 98.6523 266.671 98.281 266.49 97.8074C266.308 97.3279 266.218 96.7783 266.218 96.1586C266.218 95.5329 266.308 94.9833 266.49 94.5097C266.671 94.0361 266.934 93.6678 267.279 93.4047C267.63 93.1357 268.057 93.0012 268.559 93.0012C269.062 93.0012 269.486 93.1357 269.831 93.4047C270.182 93.6678 270.448 94.0361 270.629 94.5097C270.811 94.9833 270.901 95.5329 270.901 96.1586C270.901 96.7783 270.811 97.3279 270.629 97.8074C270.448 98.281 270.182 98.6523 269.831 98.9212C269.486 99.1843 269.062 99.3159 268.559 99.3159ZM268.559 98.2634C268.805 98.2634 269.016 98.1874 269.191 98.0354C269.372 97.8775 269.513 97.6437 269.612 97.3338C269.711 97.018 269.761 96.6263 269.761 96.1586C269.761 95.685 269.711 95.2932 269.612 94.9833C269.513 94.6734 269.372 94.4425 269.191 94.2905C269.016 94.1326 268.805 94.0537 268.559 94.0537C268.32 94.0537 268.109 94.1326 267.928 94.2905C267.747 94.4425 267.606 94.6734 267.507 94.9833C267.408 95.2932 267.358 95.685 267.358 96.1586C267.358 96.6263 267.408 97.018 267.507 97.3338C267.606 97.6437 267.747 97.8775 267.928 98.0354C268.109 98.1874 268.32 98.2634 268.559 98.2634Z" fill="#D75452"/>
<path d="M271.824 100.824C271.684 100.824 271.576 100.772 271.5 100.667C271.424 100.561 271.386 100.462 271.386 100.368C271.386 100.228 271.447 100.111 271.57 100.018C271.909 99.7544 272.187 99.462 272.403 99.1405C272.625 98.813 272.789 98.4652 272.894 98.0968C273.005 97.7284 273.061 97.3484 273.061 96.9567C273.061 96.5649 273.008 96.1819 272.903 95.8077C272.804 95.4335 272.643 95.0827 272.421 94.7553C272.204 94.4279 271.921 94.1414 271.57 93.8958C271.447 93.8081 271.386 93.6912 271.386 93.545C271.386 93.4397 271.427 93.3374 271.509 93.238C271.596 93.1386 271.702 93.0889 271.824 93.0889C271.912 93.0889 271.991 93.1123 272.061 93.1591C272.511 93.4573 272.888 93.8052 273.192 94.2028C273.497 94.5945 273.727 95.0243 273.885 95.492C274.043 95.9598 274.122 96.448 274.122 96.9567C274.122 97.4653 274.043 97.9535 273.885 98.4213C273.727 98.8891 273.497 99.3188 273.192 99.7105C272.888 100.108 272.511 100.456 272.061 100.754C271.991 100.801 271.912 100.824 271.824 100.824Z" fill="#D75452"/>
<path d="M275.126 100.403C275.026 100.403 274.924 100.362 274.819 100.281C274.713 100.199 274.661 100.094 274.661 99.9649C274.661 99.8947 274.678 99.8246 274.713 99.7544L278.274 92.4662C278.315 92.3844 278.371 92.3201 278.441 92.2733C278.511 92.2265 278.584 92.2031 278.66 92.2031C278.76 92.2031 278.859 92.2441 278.958 92.3259C279.064 92.4019 279.116 92.5072 279.116 92.6416C279.116 92.7118 279.099 92.782 279.064 92.8521L275.512 100.14C275.471 100.222 275.415 100.286 275.345 100.333C275.281 100.38 275.208 100.403 275.126 100.403Z" fill="#D75452"/>
<path d="M282.066 99.3159C281.563 99.3159 281.137 99.1843 280.786 98.9212C280.441 98.6523 280.178 98.281 279.996 97.8074C279.815 97.3279 279.724 96.7783 279.724 96.1586C279.724 95.5329 279.815 94.9833 279.996 94.5097C280.178 94.0361 280.441 93.6678 280.786 93.4047C281.137 93.1357 281.563 93.0012 282.066 93.0012C282.569 93.0012 282.993 93.1357 283.338 93.4047C283.689 93.6678 283.955 94.0361 284.136 94.5097C284.317 94.9833 284.408 95.5329 284.408 96.1586C284.408 96.7783 284.317 97.3279 284.136 97.8074C283.955 98.281 283.689 98.6523 283.338 98.9212C282.993 99.1843 282.569 99.3159 282.066 99.3159ZM282.066 98.2634C282.312 98.2634 282.522 98.1874 282.698 98.0354C282.879 97.8775 283.019 97.6437 283.119 97.3338C283.218 97.018 283.268 96.6263 283.268 96.1586C283.268 95.685 283.218 95.2932 283.119 94.9833C283.019 94.6734 282.879 94.4425 282.698 94.2905C282.522 94.1326 282.312 94.0537 282.066 94.0537C281.826 94.0537 281.616 94.1326 281.435 94.2905C281.253 94.4425 281.113 94.6734 281.014 94.9833C280.914 95.2932 280.865 95.685 280.865 96.1586C280.865 96.6263 280.914 97.018 281.014 97.3338C281.113 97.6437 281.253 97.8775 281.435 98.0354C281.616 98.1874 281.826 98.2634 282.066 98.2634Z" fill="#D75452"/>
<path d="M332.819 98.6932C332.819 98.8452 332.769 98.9738 332.67 99.0791C332.57 99.1785 332.445 99.2282 332.293 99.2282C332.141 99.2282 332.015 99.1785 331.915 99.0791C331.816 98.9738 331.766 98.8452 331.766 98.6932V95.071C331.766 94.919 331.816 94.7933 331.915 94.6939C332.015 94.5887 332.141 94.536 332.293 94.536C332.445 94.536 332.57 94.5887 332.67 94.6939C332.769 94.7933 332.819 94.919 332.819 95.071V98.6932ZM332.284 93.966C332.085 93.966 331.945 93.9338 331.863 93.8695C331.781 93.8052 331.74 93.6912 331.74 93.5274V93.3608C331.74 93.1913 331.784 93.0772 331.872 93.0188C331.965 92.9545 332.105 92.9223 332.293 92.9223C332.497 92.9223 332.64 92.9545 332.722 93.0188C332.804 93.0831 332.845 93.1971 332.845 93.3608V93.5274C332.845 93.697 332.801 93.8139 332.713 93.8783C332.626 93.9367 332.483 93.966 332.284 93.966Z" fill="#D75452"/>
<path d="M337.698 92.7381C337.85 92.7381 337.976 92.7878 338.075 92.8872C338.174 92.9866 338.224 93.1152 338.224 93.2731V98.6932C338.224 98.8452 338.174 98.9738 338.075 99.0791C337.976 99.1785 337.85 99.2282 337.698 99.2282C337.546 99.2282 337.42 99.1785 337.321 99.0791C337.221 98.9738 337.172 98.8452 337.172 98.6932V98.2634L337.365 98.3424C337.365 98.4184 337.324 98.5119 337.242 98.623C337.16 98.7283 337.049 98.8335 336.909 98.9387C336.768 99.044 336.602 99.1346 336.409 99.2106C336.222 99.2808 336.017 99.3159 335.795 99.3159C335.391 99.3159 335.026 99.2136 334.698 99.0089C334.371 98.7984 334.111 98.5119 333.918 98.1494C333.731 97.7811 333.637 97.3601 333.637 96.8865C333.637 96.407 333.731 95.9861 333.918 95.6236C334.111 95.2552 334.368 94.9687 334.69 94.7641C335.011 94.5536 335.368 94.4483 335.76 94.4483C336.011 94.4483 336.242 94.4863 336.453 94.5623C336.663 94.6384 336.844 94.7348 336.996 94.8518C337.154 94.9687 337.274 95.0886 337.356 95.2114C337.444 95.3283 337.487 95.4277 337.487 95.5095L337.172 95.6236V93.2731C337.172 93.1211 337.221 92.9954 337.321 92.896C337.42 92.7907 337.546 92.7381 337.698 92.7381ZM335.926 98.3511C336.184 98.3511 336.409 98.2868 336.602 98.1582C336.795 98.0296 336.944 97.8541 337.049 97.632C337.16 97.4098 337.216 97.1613 337.216 96.8865C337.216 96.6058 337.16 96.3544 337.049 96.1322C336.944 95.9101 336.795 95.7346 336.602 95.606C336.409 95.4774 336.184 95.4131 335.926 95.4131C335.675 95.4131 335.453 95.4774 335.26 95.606C335.067 95.7346 334.915 95.9101 334.804 96.1322C334.698 96.3544 334.646 96.6058 334.646 96.8865C334.646 97.1613 334.698 97.4098 334.804 97.632C334.915 97.8541 335.067 98.0296 335.26 98.1582C335.453 98.2868 335.675 98.3511 335.926 98.3511Z" fill="#D75452"/>
<path d="M339.751 96.2024C339.604 96.2024 339.482 96.1556 339.382 96.0621C339.283 95.9627 339.233 95.8457 339.233 95.7113C339.233 95.5768 339.283 95.4657 339.382 95.378C339.482 95.2844 339.604 95.2377 339.751 95.2377H343.268C343.42 95.2377 343.542 95.2844 343.636 95.378C343.735 95.4657 343.785 95.5768 343.785 95.7113C343.785 95.8457 343.735 95.9627 343.636 96.0621C343.542 96.1556 343.42 96.2024 343.268 96.2024H339.751ZM339.751 97.9038C339.604 97.9038 339.482 97.8571 339.382 97.7635C339.283 97.6641 339.233 97.5472 339.233 97.4127C339.233 97.2782 339.283 97.1671 339.382 97.0794C339.482 96.9859 339.604 96.9391 339.751 96.9391H343.268C343.42 96.9391 343.542 96.9859 343.636 97.0794C343.735 97.1671 343.785 97.2782 343.785 97.4127C343.785 97.5472 343.735 97.6641 343.636 97.7635C343.542 97.8571 343.42 97.9038 343.268 97.9038H339.751Z" fill="#D75452"/>
<path d="M346.786 100.824C346.698 100.824 346.619 100.801 346.549 100.754C346.104 100.456 345.727 100.108 345.417 99.7105C345.113 99.3188 344.882 98.8891 344.725 98.4213C344.567 97.9535 344.488 97.4653 344.488 96.9567C344.488 96.448 344.567 95.9598 344.725 95.492C344.882 95.0243 345.113 94.5945 345.417 94.2028C345.727 93.8052 346.104 93.4573 346.549 93.1591C346.619 93.1123 346.698 93.0889 346.786 93.0889C346.926 93.0889 347.034 93.1416 347.11 93.2468C347.186 93.352 347.224 93.4514 347.224 93.545C347.224 93.6795 347.163 93.7964 347.04 93.8958C346.707 94.1589 346.429 94.4542 346.207 94.7816C345.985 95.1032 345.818 95.4482 345.707 95.8165C345.602 96.1849 345.549 96.5649 345.549 96.9567C345.549 97.3484 345.599 97.7314 345.698 98.1056C345.803 98.4798 345.967 98.8306 346.189 99.158C346.411 99.4796 346.695 99.7661 347.04 100.018C347.163 100.105 347.224 100.222 347.224 100.368C347.224 100.474 347.18 100.576 347.093 100.675C347.011 100.775 346.908 100.824 346.786 100.824Z" fill="#D75452"/>
<path d="M349.315 99.2282C349.151 99.2282 349.017 99.1785 348.912 99.0791C348.807 98.9738 348.754 98.8452 348.754 98.6932V94.2729L348.877 94.4659L348.21 94.8693C348.122 94.9219 348.029 94.9482 347.929 94.9482C347.777 94.9482 347.652 94.8927 347.552 94.7816C347.453 94.6647 347.403 94.5419 347.403 94.4133C347.403 94.2145 347.494 94.0624 347.675 93.9572L348.999 93.1679C349.099 93.1152 349.225 93.0889 349.377 93.0889C349.529 93.0889 349.651 93.1416 349.745 93.2468C349.844 93.3462 349.894 93.4719 349.894 93.6239V98.6932C349.894 98.8452 349.839 98.9738 349.727 99.0791C349.622 99.1785 349.485 99.2282 349.315 99.2282Z" fill="#D75452"/>
<path d="M351.528 97.0619C351.376 97.0619 351.247 97.0122 351.142 96.9128C351.042 96.8134 350.993 96.6877 350.993 96.5357C350.993 96.3837 351.042 96.2609 351.142 96.1673C351.247 96.0679 351.376 96.0182 351.528 96.0182H353.054C353.206 96.0182 353.331 96.0708 353.431 96.1761C353.536 96.2755 353.589 96.4012 353.589 96.5532C353.589 96.6994 353.536 96.8222 353.431 96.9216C353.331 97.0151 353.206 97.0619 353.054 97.0619H351.528Z" fill="#D75452"/>
<path d="M355.987 99.2282C355.823 99.2282 355.689 99.1785 355.584 99.0791C355.479 98.9738 355.426 98.8452 355.426 98.6932V94.2729L355.549 94.4659L354.882 94.8693C354.794 94.9219 354.701 94.9482 354.601 94.9482C354.449 94.9482 354.324 94.8927 354.224 94.7816C354.125 94.6647 354.075 94.5419 354.075 94.4133C354.075 94.2145 354.166 94.0624 354.347 93.9572L355.671 93.1679C355.771 93.1152 355.897 93.0889 356.049 93.0889C356.201 93.0889 356.323 93.1416 356.417 93.2468C356.516 93.3462 356.566 93.4719 356.566 93.6239V98.6932C356.566 98.8452 356.51 98.9738 356.399 99.0791C356.294 99.1785 356.157 99.2282 355.987 99.2282Z" fill="#D75452"/>
<path d="M357.796 100.824C357.656 100.824 357.548 100.772 357.472 100.667C357.396 100.561 357.358 100.462 357.358 100.368C357.358 100.228 357.419 100.111 357.542 100.018C357.881 99.7544 358.159 99.462 358.375 99.1405C358.597 98.813 358.761 98.4652 358.866 98.0968C358.977 97.7284 359.033 97.3484 359.033 96.9567C359.033 96.5649 358.98 96.1819 358.875 95.8077C358.775 95.4335 358.615 95.0827 358.393 94.7553C358.176 94.4279 357.893 94.1414 357.542 93.8958C357.419 93.8081 357.358 93.6912 357.358 93.545C357.358 93.4397 357.399 93.3374 357.48 93.238C357.568 93.1386 357.673 93.0889 357.796 93.0889C357.884 93.0889 357.963 93.1123 358.033 93.1591C358.483 93.4573 358.86 93.8052 359.164 94.2028C359.468 94.5945 359.699 95.0243 359.857 95.492C360.015 95.9598 360.094 96.448 360.094 96.9567C360.094 97.4653 360.015 97.9535 359.857 98.4213C359.699 98.8891 359.468 99.3188 359.164 99.7105C358.86 100.108 358.483 100.456 358.033 100.754C357.963 100.801 357.884 100.824 357.796 100.824Z" fill="#D75452"/>
<path d="M361.097 100.403C360.998 100.403 360.896 100.362 360.791 100.281C360.685 100.199 360.633 100.094 360.633 99.9649C360.633 99.8947 360.65 99.8246 360.685 99.7544L364.246 92.4662C364.287 92.3844 364.343 92.3201 364.413 92.2733C364.483 92.2265 364.556 92.2031 364.632 92.2031C364.731 92.2031 364.831 92.2441 364.93 92.3259C365.035 92.4019 365.088 92.5072 365.088 92.6416C365.088 92.7118 365.07 92.782 365.035 92.8521L361.483 100.14C361.442 100.222 361.387 100.286 361.317 100.333C361.252 100.38 361.179 100.403 361.097 100.403Z" fill="#D75452"/>
<path d="M368.038 99.3159C367.535 99.3159 367.108 99.1843 366.758 98.9212C366.413 98.6523 366.149 98.281 365.968 97.8074C365.787 97.3279 365.696 96.7783 365.696 96.1586C365.696 95.5329 365.787 94.9833 365.968 94.5097C366.149 94.0361 366.413 93.6678 366.758 93.4047C367.108 93.1357 367.535 93.0012 368.038 93.0012C368.541 93.0012 368.965 93.1357 369.31 93.4047C369.66 93.6678 369.927 94.0361 370.108 94.5097C370.289 94.9833 370.38 95.5329 370.38 96.1586C370.38 96.7783 370.289 97.3279 370.108 97.8074C369.927 98.281 369.66 98.6523 369.31 98.9212C368.965 99.1843 368.541 99.3159 368.038 99.3159ZM368.038 98.2634C368.284 98.2634 368.494 98.1874 368.669 98.0354C368.851 97.8775 368.991 97.6437 369.09 97.3338C369.19 97.018 369.24 96.6263 369.24 96.1586C369.24 95.685 369.19 95.2932 369.09 94.9833C368.991 94.6734 368.851 94.4425 368.669 94.2905C368.494 94.1326 368.284 94.0537 368.038 94.0537C367.798 94.0537 367.588 94.1326 367.407 94.2905C367.225 94.4425 367.085 94.6734 366.986 94.9833C366.886 95.2932 366.836 95.685 366.836 96.1586C366.836 96.6263 366.886 97.018 366.986 97.3338C367.085 97.6437 367.225 97.8775 367.407 98.0354C367.588 98.1874 367.798 98.2634 368.038 98.2634Z" fill="#D75452"/>
</svg>
