<svg width="334" height="258" viewBox="0 0 334 258" fill="none" xmlns="http://www.w3.org/2000/svg">
<path d="M219.485 243.351C219.485 250.907 213.314 257.08 205.758 257.08H97.4599C89.9047 257.08 83.7332 250.907 83.7332 243.351V13.7294C83.7332 6.17273 89.9047 0 97.4599 0H205.758C213.314 0 219.485 6.17273 219.485 13.7294V243.351Z" fill="#D75452"/>
<path d="M214.961 233.323C214.961 236.343 212.49 238.814 209.47 238.814H93.7481C90.7283 238.814 88.2574 236.343 88.2574 233.323V23.7574C88.2574 20.7369 90.7283 18.2656 93.7481 18.2656H209.47C212.49 18.2656 214.961 20.7369 214.961 23.7574V233.323Z" fill="white"/>
<path d="M201.575 55.4366C203.694 55.4366 205.418 57.161 205.418 59.2808V178.265C205.418 180.385 203.694 182.109 201.575 182.109H101.644C99.5244 182.109 97.8003 180.385 97.8003 178.265V59.2808C97.8003 57.161 99.5244 55.4366 101.644 55.4366H201.575ZM201.575 53.7891H101.644C98.6239 53.7891 96.1531 56.2604 96.1531 59.2808V178.265C96.1531 181.286 98.6239 183.757 101.644 183.757H201.575C204.594 183.757 207.065 181.286 207.065 178.265V59.2808C207.065 56.2604 204.594 53.7891 201.575 53.7891Z" fill="#316277"/>
<path d="M207.065 222.018C207.065 225.039 204.594 227.51 201.575 227.51H101.644C98.6239 227.51 96.1531 225.039 96.1531 222.018V173.867C96.1531 170.846 98.6239 168.375 101.644 168.375H201.575C204.594 168.375 207.065 170.846 207.065 173.867V222.018Z" fill="#377C9A"/>
<path d="M187.408 130.671C185.553 129.605 184.092 127.958 184.169 127.002C184.169 127.002 184.169 127.002 184.169 126.124C184.169 125.234 184.169 125.234 184.169 125.234C184.081 124.289 185.531 122.62 187.387 121.543C189.253 120.467 189.704 117.743 188.397 115.492L183.785 107.551C182.478 105.31 179.897 104.354 178.03 105.431C176.174 106.507 174 106.968 173.199 106.441C172.397 105.925 170.124 103.036 170.113 100.884C170.113 98.7308 167.982 96.9844 165.38 96.9844L156.199 97.0063C153.597 97.0173 151.488 98.7747 151.488 100.927C151.488 103.08 150.785 105.189 149.94 105.628C149.083 106.068 145.47 106.584 143.604 105.519C141.737 104.453 139.156 105.42 137.86 107.671L133.292 115.634C131.996 117.897 132.469 120.61 134.335 121.675C136.191 122.741 137.652 124.41 137.575 125.355C137.575 125.355 137.575 125.355 137.575 126.244C137.575 127.123 137.575 127.123 137.575 127.123C137.663 128.079 136.213 129.737 134.357 130.814C132.49 131.901 132.04 134.614 133.347 136.865L137.959 144.807C139.266 147.047 141.847 148.003 143.713 146.926C145.569 145.85 147.744 145.4 148.545 145.905C149.347 146.432 151.62 149.321 151.631 151.463C151.642 153.615 153.761 155.373 156.364 155.362L165.544 155.34C168.136 155.329 170.256 153.571 170.256 151.419C170.256 149.266 170.947 147.146 171.804 146.718C172.66 146.278 176.273 145.773 178.14 146.828C180.018 147.893 182.588 146.926 183.883 144.675L188.452 136.712C189.748 134.46 189.286 131.747 187.408 130.671Z" fill="#AACFDF"/>
<path d="M160.91 138.458C154.135 138.48 148.622 133 148.6 126.223C148.578 119.446 154.058 113.932 160.833 113.91C167.609 113.888 173.122 119.369 173.144 126.146C173.177 132.934 167.686 138.447 160.91 138.458Z" fill="white"/>
<path d="M146.602 90.7556C145.493 90.1186 144.625 89.141 144.68 88.5809C144.68 88.5809 144.68 88.5809 144.68 88.0537C144.68 87.5265 144.68 87.5265 144.68 87.5265C144.625 86.9663 145.493 85.9778 146.591 85.3407C147.7 84.7037 147.974 83.0781 147.195 81.7491L144.46 77.0372C143.681 75.7082 142.154 75.1371 141.045 75.7741C139.936 76.4112 138.651 76.6857 138.179 76.3782C137.696 76.0707 136.345 74.3572 136.345 73.0831C136.345 71.7981 135.082 70.7656 133.534 70.7656L128.087 70.7766C126.55 70.7766 125.287 71.831 125.287 73.1051C125.287 74.3792 124.869 75.6313 124.364 75.8949C123.859 76.1585 121.707 76.4661 120.598 75.829C119.489 75.203 117.951 75.7631 117.182 77.1031L114.47 81.837C113.701 83.177 113.976 84.7916 115.096 85.4286C116.205 86.0657 117.062 87.0542 117.018 87.6143C117.018 87.6143 117.018 87.6143 117.018 88.1415C117.018 88.6578 117.018 88.6578 117.018 88.6578C117.073 89.2289 116.205 90.2064 115.107 90.8545C113.998 91.5025 113.734 93.1171 114.503 94.4461L117.237 99.158C118.017 100.487 119.543 101.058 120.653 100.421C121.762 99.7841 123.047 99.5095 123.519 99.817C123.991 100.136 125.342 101.838 125.353 103.123C125.353 104.397 126.626 105.441 128.164 105.441L133.611 105.43C135.148 105.43 136.411 104.375 136.411 103.101C136.411 101.827 136.828 100.564 137.333 100.311C137.838 100.048 139.991 99.7511 141.1 100.377C142.209 101.014 143.735 100.432 144.515 99.1031L147.228 94.3692C147.985 93.0072 147.711 91.3927 146.602 90.7556Z" fill="#AACFDF"/>
<path d="M130.865 95.3791C126.835 95.3901 123.563 92.139 123.552 88.108C123.541 84.0771 126.791 80.804 130.821 80.793C134.852 80.782 138.124 84.0331 138.135 88.0641C138.146 92.095 134.884 95.3681 130.865 95.3791Z" fill="white"/>
<path d="M202.156 193.474C198.73 206.38 213.138 210.916 213.138 210.916C214.236 221.218 215.751 235.629 223.845 242.493C230.807 248.392 267.902 221.625 267.902 221.625C267.902 217.912 266.672 206.38 266.255 202.129C265.794 197.417 272.492 182.337 270.779 175.9C269 169.178 261.577 155.032 258.974 152.56C256.372 150.089 243.732 145.553 240.438 144.74C240.438 144.74 230.28 144.059 227.677 144.74C225.075 145.421 210.381 151.748 206.681 157.097C202.98 162.446 202.156 193.474 202.156 193.474Z" fill="#F95566"/>
<path d="M257.063 171.375C259.26 176.318 264.07 188.531 265.3 194.309C266.529 200.086 268.045 188.817 268.045 188.817L257.063 171.375Z" fill="#E03F50"/>
<path d="M217.113 170.684C218.343 177.548 218.629 205.963 218.079 210.224C218.079 210.224 204.902 207.753 207.647 196.363C210.392 184.973 217.113 170.684 217.113 170.684Z" fill="#E03F50"/>
<path d="M210.843 195.352C210.656 196.637 210.019 201.579 210.019 201.579C210.019 201.579 227.128 201.942 233.717 202.315C240.306 202.689 247.905 204.424 249.453 203.776C251.013 203.139 255.493 199.844 260.347 203.04C265.201 206.247 269.319 208.62 255.68 211.003C242.041 213.387 208.548 216.682 202.233 215.309C195.919 213.936 193.36 209.817 193.909 204.051C194.459 198.284 195.37 193.43 195.37 193.43L210.843 195.352Z" fill="#AACFDF"/>
<path d="M206.681 157.096C202.574 162.05 195.139 177.284 193.844 196.505C193.844 196.505 197.391 198.109 202.607 198.834C207.823 199.57 211.941 198.197 211.941 198.197C211.941 198.197 216.795 177.789 217.113 170.694C217.432 163.599 211.304 151.517 206.681 157.096Z" fill="#F95566"/>
<path d="M264.674 210.025C264.86 209.267 264.267 208.729 263.367 208.828L238.79 211.53C237.89 211.629 237 212.332 236.814 213.09C236.627 213.848 237.22 214.386 238.121 214.287L262.697 211.585C263.597 211.486 264.487 210.783 264.674 210.025Z" fill="#FFB7BE"/>
<path d="M259.216 214.298C274.425 209.41 308.226 204.039 314.309 213.386C322.183 225.468 294.356 244.14 294.356 244.14C289.964 245.601 253.912 254.388 244.204 249.083C234.497 243.778 243.842 219.241 259.216 214.298Z" fill="#1C5066"/>
<path d="M274.074 173.174C273.173 173.24 272.196 173.998 271.91 174.855L259.963 210.354C259.677 211.21 260.171 211.858 261.083 211.792L305.019 208.552C305.92 208.486 306.897 207.729 307.182 206.872L319.13 171.373C319.416 170.516 318.922 169.868 318.01 169.934L274.074 173.174Z" fill="#FFB7BE"/>
<path d="M283.551 230.226L292.522 221.988C292.522 221.988 278.982 228.216 278.433 230.588C277.884 232.972 283.551 230.226 283.551 230.226Z" fill="#083B51"/>
<path d="M303.185 244.142C315.397 241.945 332.22 244.098 332.967 247.986C333.79 252.247 321.985 255.125 317.593 255.542C313.2 255.96 298.925 255.817 296.454 251.424C293.983 247.03 299.627 244.779 303.185 244.142Z" fill="#BB0A1C"/>
<path d="M304.789 243.955C290.15 232.06 253.912 207.71 244.94 205.7C235.968 203.69 227.37 204.788 223.889 216.134C220.408 227.48 218.76 239.2 221.33 243.593C223.889 247.986 233.959 256.96 240.734 256.773C247.51 256.586 253.912 253.116 253.725 237.365C263.422 242.857 289.415 252.006 295.641 252.742C302.768 251.281 304.789 243.955 304.789 243.955Z" fill="#316277"/>
<path d="M253.725 237.365C250.068 235.904 240.361 231.324 234.694 227.117C234.694 227.117 247.685 238.924 253.637 242.307C253.725 240.572 253.725 237.365 253.725 237.365Z" fill="#16475B"/>
<path d="M290.831 247.16C289.986 241.668 282.156 241.383 278.071 242.086C273.975 242.789 266.54 245.919 263.795 246.347C261.05 246.776 254.395 247.336 252.056 249.51C249.717 251.674 251.035 257.55 255.833 257.056C263.938 256.232 272.306 257.056 279.993 256.09C285.033 255.453 291.38 250.752 290.831 247.16Z" fill="#BB0A1C"/>
<path d="M224.526 129.703C225.327 134.108 226.919 142.839 225.854 147.123C225.657 147.925 230.972 148.803 233.97 148.606C236.967 148.408 243.172 147.31 242.974 146.508C242.777 145.706 242.326 141.708 242.733 139.413C243.128 137.106 224.526 129.703 224.526 129.703Z" fill="#AACFDF"/>
<path d="M242.711 144.379C238.966 144.676 233.19 139.678 231.433 138.207C229.676 136.735 242.524 140.821 242.524 140.821C242.513 141.655 242.711 144.379 242.711 144.379Z" fill="#95BECF"/>
<path d="M231.433 138.206C237.143 142.138 242.656 142.236 245.434 140.402C250.112 137.327 252.638 123.795 250.738 116.898C248.838 110 231.806 106.2 224.734 118.798C220.133 127.002 229.83 137.107 231.433 138.206Z" fill="#AACFDF"/>
<path d="M223.032 127.299C221.352 128.067 219.529 116.095 221.132 110.692C222.736 105.288 226.733 105.09 230.73 104.695C234.727 104.299 240.427 101.389 246.225 102.289C252.023 103.19 255.328 113.196 252.726 116.392C250.123 119.588 236.726 119.687 231.828 116.787C231.828 116.798 230.73 123.806 223.032 127.299Z" fill="#377C9A"/>
<path d="M227.326 124.609C225.086 121.468 221.121 121.205 220.331 123.709C219.529 126.213 221.429 131.408 225.734 131.815C230.027 132.21 228.325 126.004 227.326 124.609Z" fill="#AACFDF"/>
<path d="M106.058 177.64H103.851C103.401 177.64 103.027 177.266 103.027 176.816C103.027 176.366 103.401 175.992 103.851 175.992H106.058C106.509 175.992 106.882 176.366 106.882 176.816C106.882 177.277 106.52 177.64 106.058 177.64Z" fill="#FFB7BE"/>
<path d="M106.058 186.097H103.851C103.401 186.097 103.027 185.723 103.027 185.273C103.027 184.823 103.401 184.449 103.851 184.449H106.058C106.509 184.449 106.882 184.823 106.882 185.273C106.882 185.723 106.52 186.097 106.058 186.097Z" fill="#FFB7BE"/>
<path d="M106.058 194.55H103.851C103.401 194.55 103.027 194.176 103.027 193.726C103.027 193.276 103.401 192.902 103.851 192.902H106.058C106.509 192.902 106.882 193.276 106.882 193.726C106.882 194.176 106.52 194.55 106.058 194.55Z" fill="#FFB7BE"/>
<path d="M106.058 203.011H103.851C103.401 203.011 103.027 202.637 103.027 202.187C103.027 201.737 103.401 201.363 103.851 201.363H106.058C106.509 201.363 106.882 201.737 106.882 202.187C106.882 202.637 106.52 203.011 106.058 203.011Z" fill="#FFB7BE"/>
<path d="M106.058 211.456H103.851C103.401 211.456 103.027 211.083 103.027 210.632C103.027 210.182 103.401 209.809 103.851 209.809H106.058C106.509 209.809 106.882 210.182 106.882 210.632C106.882 211.094 106.52 211.456 106.058 211.456Z" fill="#FFB7BE"/>
<path d="M106.058 219.913H103.851C103.401 219.913 103.027 219.54 103.027 219.089C103.027 218.639 103.401 218.266 103.851 218.266H106.058C106.509 218.266 106.882 218.639 106.882 219.089C106.882 219.54 106.52 219.913 106.058 219.913Z" fill="#FFB7BE"/>
<path d="M134.61 177.64H115.755C115.305 177.64 114.931 177.266 114.931 176.816C114.931 176.366 115.305 175.992 115.755 175.992H134.61C135.06 175.992 135.434 176.366 135.434 176.816C135.434 177.277 135.071 177.64 134.61 177.64Z" fill="#FFB7BE"/>
<path d="M157.122 177.64H138.267C137.817 177.64 137.443 177.266 137.443 176.816C137.443 176.366 137.817 175.992 138.267 175.992H157.122C157.572 175.992 157.946 176.366 157.946 176.816C157.946 177.277 157.583 177.64 157.122 177.64Z" fill="#AACFDF"/>
<path d="M140.837 186.097H115.766C115.316 186.097 114.942 185.723 114.942 185.273C114.942 184.823 115.316 184.449 115.766 184.449H140.837C141.287 184.449 141.66 184.823 141.66 185.273C141.66 185.723 141.287 186.097 140.837 186.097Z" fill="#1C5066"/>
<path d="M156.573 186.097H144.856C144.405 186.097 144.032 185.723 144.032 185.273C144.032 184.823 144.405 184.449 144.856 184.449H156.573C157.023 184.449 157.396 184.823 157.396 185.273C157.396 185.723 157.034 186.097 156.573 186.097Z" fill="#FFB7BE"/>
<path d="M171.584 186.097H159.867C159.417 186.097 159.044 185.723 159.044 185.273C159.044 184.823 159.417 184.449 159.867 184.449H171.584C172.035 184.449 172.408 184.823 172.408 185.273C172.408 185.723 172.035 186.097 171.584 186.097Z" fill="#AACFDF"/>
<path d="M129.866 194.55H115.766C115.316 194.55 114.942 194.176 114.942 193.726C114.942 193.276 115.316 192.902 115.766 192.902H129.866C130.316 192.902 130.69 193.276 130.69 193.726C130.69 194.176 130.327 194.55 129.866 194.55Z" fill="#FFB7BE"/>
<path d="M141.583 203.007H115.766C115.316 203.007 114.942 202.633 114.942 202.183C114.942 201.733 115.316 201.359 115.766 201.359H141.583C142.033 201.359 142.407 201.733 142.407 202.183C142.407 202.633 142.033 203.007 141.583 203.007Z" fill="#FFB7BE"/>
<path d="M161.712 203.007H145.053C144.603 203.007 144.23 202.633 144.23 202.183C144.23 201.733 144.603 201.359 145.053 201.359H161.712C162.162 201.359 162.536 201.733 162.536 202.183C162.536 202.633 162.173 203.007 161.712 203.007Z" fill="#1C5066"/>
<path d="M191.548 203.007H165.006C164.556 203.007 164.183 202.633 164.183 202.183C164.183 201.733 164.556 201.359 165.006 201.359H191.548C191.999 201.359 192.372 201.733 192.372 202.183C192.372 202.633 191.999 203.007 191.548 203.007Z" fill="#AACFDF"/>
<path d="M134.994 211.456H115.766C115.316 211.456 114.942 211.083 114.942 210.632C114.942 210.182 115.316 209.809 115.766 209.809H134.994C135.445 209.809 135.818 210.182 135.818 210.632C135.818 211.094 135.445 211.456 134.994 211.456Z" fill="#1C5066"/>
<path d="M156.946 211.456H137.718C137.267 211.456 136.894 211.083 136.894 210.632C136.894 210.182 137.267 209.809 137.718 209.809H156.946C157.396 209.809 157.77 210.182 157.77 210.632C157.77 211.094 157.396 211.456 156.946 211.456Z" fill="#FFB7BE"/>
<path d="M126.022 219.913H115.766C115.316 219.913 114.942 219.54 114.942 219.089C114.942 218.639 115.316 218.266 115.766 218.266H126.022C126.473 218.266 126.846 218.639 126.846 219.089C126.846 219.54 126.484 219.913 126.022 219.913Z" fill="#FFB7BE"/>
<path d="M139.387 219.913H129.13C128.68 219.913 128.307 219.54 128.307 219.089C128.307 218.639 128.68 218.266 129.13 218.266H139.387C139.837 218.266 140.21 218.639 140.21 219.089C140.21 219.54 139.837 219.913 139.387 219.913Z" fill="#FFB7BE"/>
<path d="M170.497 219.913H142.484C142.033 219.913 141.66 219.54 141.66 219.089C141.66 218.639 142.033 218.266 142.484 218.266H170.497C170.947 218.266 171.321 218.639 171.321 219.089C171.321 219.54 170.958 219.913 170.497 219.913Z" fill="#AACFDF"/>
<path d="M184.037 219.913H173.781C173.33 219.913 172.957 219.54 172.957 219.089C172.957 218.639 173.33 218.266 173.781 218.266H184.037C184.487 218.266 184.861 218.639 184.861 219.089C184.861 219.54 184.498 219.913 184.037 219.913Z" fill="#1C5066"/>
<path d="M62.3743 154.262L60.3977 152.285L36.1837 176.471L38.1604 178.448L62.3743 154.262Z" fill="#AACFDF"/>
<path d="M43.5302 179.108C45.7046 176.933 45.7046 173.386 43.5412 171.211L43.4314 171.101C41.2571 168.926 37.7101 168.926 35.5358 171.09L18.6794 187.928C16.505 190.092 16.505 193.65 18.6684 195.825L18.7782 195.935C20.9415 198.11 24.4995 198.11 26.6738 195.946L43.5302 179.108Z" fill="#316277"/>
<path d="M20.2216 186.392L19.4291 187.184L24.9235 192.685L25.716 191.894L20.2216 186.392Z" fill="#377C9A"/>
<path d="M23.3078 183.325L22.5153 184.117L28.0097 189.62L28.8023 188.828L23.3078 183.325Z" fill="#377C9A"/>
<path d="M26.3787 180.247L25.5862 181.039L31.0806 186.541L31.8731 185.749L26.3787 180.247Z" fill="#377C9A"/>
<path d="M29.4525 177.169L28.6598 177.961L34.1527 183.464L34.9454 182.673L29.4525 177.169Z" fill="#377C9A"/>
<path d="M56.8398 196.868C56.2687 196.956 55.4891 196.681 55.0937 196.253L29.8695 168.926C29.4741 168.508 29.4961 167.827 29.9024 167.421L32.494 164.829C32.9003 164.422 33.5812 164.412 33.9985 164.796L61.3092 190.003C61.7375 190.399 62.012 191.178 61.9242 191.749L61.419 195.165C61.3312 195.736 60.804 196.275 60.233 196.352L56.8398 196.868Z" fill="#377C9A"/>
<path d="M29.1557 149.847C29.7047 149.694 30.4954 149.902 30.9017 150.32L37.2929 156.712C37.6992 157.118 37.9079 157.909 37.7651 158.458L35.0307 168.662C34.877 169.222 34.306 169.793 33.7459 169.947L23.5332 172.693C22.9732 172.847 22.1935 172.627 21.7872 172.221L15.396 165.828C14.9897 165.422 14.781 164.631 14.9238 164.082L15.9451 160.271C16.0878 159.711 16.549 159.59 16.9553 159.996L23.3355 166.378C23.7418 166.784 24.5325 166.993 25.0816 166.85L29.4632 165.675C30.0232 165.521 30.5942 164.95 30.748 164.39L31.923 160.007C32.0658 159.447 31.8571 158.667 31.4508 158.261L25.0706 151.879C24.6643 151.473 24.7851 151.023 25.3451 150.869L29.1557 149.847Z" fill="#377C9A"/>
<path d="M60.1231 211.672H14.5503C6.52295 211.672 0 205.148 0 197.119V151.538C0 143.509 6.52295 136.984 14.5503 136.984H60.1231C68.1505 136.984 74.6735 143.509 74.6735 151.538V197.119C74.6735 205.148 68.1505 211.672 60.1231 211.672ZM14.5503 138.632C7.4344 138.632 1.64721 144.42 1.64721 151.538V197.119C1.64721 204.236 7.4344 210.025 14.5503 210.025H60.1231C67.2391 210.025 73.0263 204.236 73.0263 197.119V151.538C73.0263 144.42 67.2391 138.632 60.1231 138.632H14.5503Z" fill="#AACFDF"/>
</svg>
