<svg width="345" height="217" viewBox="0 0 345 217" fill="none" xmlns="http://www.w3.org/2000/svg">
<path d="M62.7294 78.5273H36.4706C33.4508 78.531 31.0036 81.0272 31 84.1073V139.907C31.0036 142.987 33.4508 145.484 36.4706 145.487H62.7294C65.7491 145.484 68.1964 142.987 68.2 139.907V84.1073C68.1964 81.0272 65.7491 78.531 62.7294 78.5273ZM66.0117 139.907C66.0117 141.756 64.5422 143.255 62.7294 143.255H36.4706C34.6578 143.255 33.1882 141.756 33.1882 139.907V138.791H66.0117V139.907ZM66.0117 136.559H33.1882V87.4553H66.0117V136.559ZM66.0117 85.2233H33.1882V84.1073C33.1882 82.2583 34.6578 80.7593 36.4706 80.7593H62.7294C64.5422 80.7593 66.0117 82.2583 66.0117 84.1073V85.2233Z" fill="#45788E"/>
<path d="M51.7889 139.922H47.4125V142.154H51.7889V139.922Z" fill="#45788E"/>
<path d="M55.5394 106.407L57.5588 102.868C57.6727 102.67 57.6038 102.418 57.4104 102.302C57.2169 102.187 56.9652 102.254 56.8539 102.453L54.808 106.037C53.247 105.316 51.49 104.914 49.6005 104.914C47.7109 104.914 45.9539 105.316 44.3929 106.037L42.347 102.453C42.2331 102.254 41.984 102.187 41.7879 102.302C41.5918 102.418 41.5255 102.67 41.6395 102.868L43.6589 106.407C40.1766 108.316 37.818 111.882 37.4284 116.057H61.7725C61.3829 111.882 59.0243 108.316 55.5394 106.407ZM44.0113 112.598C43.4468 112.598 42.991 112.134 42.991 111.566C42.991 110.995 43.4495 110.534 44.0113 110.534C44.5758 110.534 45.0316 110.997 45.0316 111.566C45.0343 112.134 44.5758 112.598 44.0113 112.598ZM55.1869 112.598C54.6224 112.598 54.1666 112.134 54.1666 111.566C54.1666 110.995 54.6251 110.534 55.1869 110.534C55.7514 110.534 56.2072 110.997 56.2072 111.566C56.2099 112.134 55.7514 112.598 55.1869 112.598Z" fill="#45788E"/>
<path d="M110.775 55.1094L62 115.508L117.8 169.465L110.775 55.1094Z" fill="url(#paint0_linear)"/>
<path d="M313.444 108.5C313.444 168.423 264.867 217 204.944 217C145.022 217 96.4445 168.423 96.4445 108.5C96.4445 48.5771 145.022 0 204.944 0C264.867 0 313.444 48.5771 313.444 108.5Z" fill="#FFF2F1"/>
<path fill-rule="evenodd" clip-rule="evenodd" d="M204.944 212.178C262.204 212.178 308.622 165.76 308.622 108.5C308.622 51.2403 262.204 4.82222 204.944 4.82222C147.685 4.82222 101.267 51.2403 101.267 108.5C101.267 165.76 147.685 212.178 204.944 212.178ZM204.944 217C264.867 217 313.444 168.423 313.444 108.5C313.444 48.5771 264.867 0 204.944 0C145.022 0 96.4445 48.5771 96.4445 108.5C96.4445 168.423 145.022 217 204.944 217Z" fill="#D86A69"/>
<mask id="mask0" mask-type="alpha" maskUnits="userSpaceOnUse" x="96" y="0" width="218" height="217">
<circle cx="204.944" cy="108.5" r="103.5" fill="#E1EFF4" stroke="#45788E" stroke-width="10"/>
</mask>
<g mask="url(#mask0)">
<path d="M268.75 161.891H157.673C156.578 161.891 155.689 162.507 155.689 163.268C155.689 164.029 156.578 164.646 157.673 164.646H268.75C269.846 164.646 270.734 164.029 270.734 163.268C270.734 162.507 269.846 161.891 268.75 161.891Z" fill="#45788E"/>
<path d="M231.074 182.559H156.772C156.174 182.559 155.689 183.175 155.689 183.936C155.689 184.697 156.174 185.314 156.772 185.314H231.074C231.672 185.314 232.156 184.697 232.156 183.936C232.156 183.175 231.672 182.559 231.074 182.559Z" fill="#45788E"/>
<path d="M204.588 172.223H156.391C156.004 172.223 155.689 172.84 155.689 173.6C155.689 174.361 156.004 174.978 156.391 174.978H204.588C204.975 174.978 205.289 174.361 205.289 173.6C205.289 172.84 204.975 172.223 204.588 172.223Z" fill="#45788E"/>
<path d="M225.386 74.4023H154.881C154.186 74.4023 153.622 75.0192 153.622 75.7801C153.622 76.541 154.186 77.1579 154.881 77.1579H225.386C226.081 77.1579 226.645 76.541 226.645 75.7801C226.645 75.0192 226.081 74.4023 225.386 74.4023Z" fill="#45788E"/>
<path d="M241.911 84.7344H154.89C154.19 84.7344 153.622 85.3512 153.622 86.1122C153.622 86.8731 154.19 87.4899 154.89 87.4899H241.911C242.61 87.4899 243.178 86.8731 243.178 86.1122C243.178 85.3512 242.61 84.7344 241.911 84.7344Z" fill="#45788E"/>
<path d="M161.531 108.156C161.43 108.156 161.32 108.129 161.2 108.074C161.09 108.01 160.97 107.941 160.842 107.867L156.364 105.236C156.254 105.162 156.171 105.07 156.116 104.96C156.061 104.841 156.033 104.721 156.033 104.602C156.033 104.473 156.061 104.354 156.116 104.244C156.171 104.124 156.254 104.032 156.364 103.968L160.842 101.392C160.961 101.318 161.072 101.263 161.173 101.226C161.283 101.18 161.384 101.157 161.476 101.157C161.659 101.157 161.829 101.249 161.985 101.433C162.151 101.607 162.233 101.791 162.233 101.984C162.233 102.076 162.206 102.168 162.151 102.26C162.105 102.342 162.031 102.416 161.93 102.48L157.149 105.249L157.053 103.872L161.917 106.779C162.027 106.843 162.105 106.926 162.151 107.027C162.197 107.119 162.22 107.215 162.22 107.316C162.22 107.536 162.142 107.734 161.985 107.908C161.838 108.074 161.687 108.156 161.531 108.156Z" fill="#45788E"/>
<path d="M173.651 100.648C173.889 100.648 174.087 100.726 174.243 100.882C174.399 101.038 174.477 101.24 174.477 101.488V107.316C174.477 107.555 174.399 107.757 174.243 107.922C174.087 108.078 173.889 108.156 173.651 108.156C173.412 108.156 173.214 108.078 173.058 107.922C172.902 107.757 172.824 107.555 172.824 107.316V106.641L173.127 106.765C173.127 106.884 173.063 107.031 172.934 107.206C172.806 107.371 172.631 107.536 172.411 107.702C172.19 107.867 171.928 108.01 171.625 108.129C171.331 108.239 171.01 108.294 170.661 108.294C170.027 108.294 169.453 108.134 168.939 107.812C168.424 107.481 168.015 107.031 167.712 106.462C167.418 105.883 167.271 105.222 167.271 104.478C167.271 103.725 167.418 103.063 167.712 102.494C168.015 101.915 168.42 101.465 168.925 101.144C169.43 100.813 169.99 100.648 170.606 100.648C171.001 100.648 171.363 100.707 171.694 100.827C172.025 100.946 172.31 101.098 172.548 101.281C172.796 101.465 172.985 101.653 173.113 101.846C173.251 102.03 173.32 102.186 173.32 102.315L172.824 102.494V101.488C172.824 101.249 172.902 101.052 173.058 100.896C173.214 100.73 173.412 100.648 173.651 100.648ZM170.867 106.779C171.272 106.779 171.625 106.678 171.928 106.476C172.231 106.274 172.466 105.998 172.631 105.649C172.806 105.3 172.893 104.91 172.893 104.478C172.893 104.037 172.806 103.642 172.631 103.293C172.466 102.944 172.231 102.668 171.928 102.466C171.625 102.264 171.272 102.163 170.867 102.163C170.473 102.163 170.123 102.264 169.82 102.466C169.517 102.668 169.278 102.944 169.104 103.293C168.939 103.642 168.856 104.037 168.856 104.478C168.856 104.91 168.939 105.3 169.104 105.649C169.278 105.998 169.517 106.274 169.82 106.476C170.123 106.678 170.473 106.779 170.867 106.779Z" fill="#45788E"/>
<path d="M180.085 100.648C180.728 100.648 181.302 100.813 181.808 101.144C182.322 101.465 182.726 101.911 183.02 102.48C183.323 103.05 183.475 103.711 183.475 104.464C183.475 105.217 183.323 105.883 183.02 106.462C182.726 107.031 182.327 107.481 181.821 107.812C181.325 108.134 180.765 108.294 180.141 108.294C179.773 108.294 179.429 108.235 179.107 108.115C178.786 107.996 178.501 107.844 178.253 107.66C178.014 107.477 177.826 107.293 177.688 107.109C177.56 106.916 177.495 106.756 177.495 106.627L177.922 106.448V110.072C177.922 110.31 177.844 110.508 177.688 110.664C177.532 110.829 177.335 110.912 177.096 110.912C176.857 110.912 176.659 110.834 176.503 110.678C176.347 110.522 176.269 110.32 176.269 110.072V101.626C176.269 101.387 176.347 101.19 176.503 101.033C176.659 100.868 176.857 100.785 177.096 100.785C177.335 100.785 177.532 100.868 177.688 101.033C177.844 101.19 177.922 101.387 177.922 101.626V102.301L177.688 102.177C177.688 102.058 177.752 101.915 177.881 101.75C178.01 101.575 178.184 101.405 178.405 101.24C178.625 101.066 178.878 100.923 179.162 100.813C179.456 100.703 179.764 100.648 180.085 100.648ZM179.879 102.163C179.475 102.163 179.121 102.264 178.818 102.466C178.515 102.668 178.276 102.944 178.101 103.293C177.936 103.633 177.853 104.023 177.853 104.464C177.853 104.896 177.936 105.291 178.101 105.649C178.276 105.998 178.515 106.274 178.818 106.476C179.121 106.678 179.475 106.779 179.879 106.779C180.283 106.779 180.632 106.678 180.926 106.476C181.229 106.274 181.463 105.998 181.629 105.649C181.803 105.291 181.89 104.896 181.89 104.464C181.89 104.023 181.803 103.633 181.629 103.293C181.463 102.944 181.229 102.668 180.926 102.466C180.632 102.264 180.283 102.163 179.879 102.163Z" fill="#45788E"/>
<path d="M188.67 100.648C189.313 100.648 189.887 100.813 190.392 101.144C190.906 101.465 191.31 101.911 191.604 102.48C191.907 103.05 192.059 103.711 192.059 104.464C192.059 105.217 191.907 105.883 191.604 106.462C191.31 107.031 190.911 107.481 190.406 107.812C189.91 108.134 189.349 108.294 188.725 108.294C188.357 108.294 188.013 108.235 187.691 108.115C187.37 107.996 187.085 107.844 186.837 107.66C186.598 107.477 186.41 107.293 186.272 107.109C186.144 106.916 186.079 106.756 186.079 106.627L186.507 106.448V110.072C186.507 110.31 186.428 110.508 186.272 110.664C186.116 110.829 185.919 110.912 185.68 110.912C185.441 110.912 185.244 110.834 185.087 110.678C184.931 110.522 184.853 110.32 184.853 110.072V101.626C184.853 101.387 184.931 101.19 185.087 101.033C185.244 100.868 185.441 100.785 185.68 100.785C185.919 100.785 186.116 100.868 186.272 101.033C186.428 101.19 186.507 101.387 186.507 101.626V102.301L186.272 102.177C186.272 102.058 186.337 101.915 186.465 101.75C186.594 101.575 186.768 101.405 186.989 101.24C187.209 101.066 187.462 100.923 187.747 100.813C188.04 100.703 188.348 100.648 188.67 100.648ZM188.463 102.163C188.059 102.163 187.705 102.264 187.402 102.466C187.099 102.668 186.86 102.944 186.686 103.293C186.52 103.633 186.438 104.023 186.438 104.464C186.438 104.896 186.52 105.291 186.686 105.649C186.86 105.998 187.099 106.274 187.402 106.476C187.705 106.678 188.059 106.779 188.463 106.779C188.867 106.779 189.216 106.678 189.51 106.476C189.813 106.274 190.047 105.998 190.213 105.649C190.387 105.291 190.475 104.896 190.475 104.464C190.475 104.023 190.387 103.633 190.213 103.293C190.047 102.944 189.813 102.668 189.51 102.466C189.216 102.264 188.867 102.163 188.463 102.163Z" fill="#45788E"/>
<path d="M195.229 107.316C195.229 107.555 195.146 107.757 194.981 107.922C194.824 108.078 194.627 108.156 194.388 108.156C194.158 108.156 193.966 108.078 193.809 107.922C193.653 107.757 193.575 107.555 193.575 107.316V98.8014C193.575 98.5626 193.653 98.3651 193.809 98.2089C193.975 98.0436 194.177 97.9609 194.416 97.9609C194.654 97.9609 194.847 98.0436 194.994 98.2089C195.15 98.3651 195.229 98.5626 195.229 98.8014V107.316Z" fill="#45788E"/>
<path d="M198.708 107.316C198.708 107.555 198.63 107.757 198.474 107.922C198.317 108.078 198.12 108.156 197.881 108.156C197.642 108.156 197.445 108.078 197.289 107.922C197.133 107.757 197.055 107.555 197.055 107.316V101.626C197.055 101.387 197.133 101.19 197.289 101.033C197.445 100.868 197.642 100.785 197.881 100.785C198.12 100.785 198.317 100.868 198.474 101.033C198.63 101.19 198.708 101.387 198.708 101.626V107.316ZM197.867 99.8898C197.555 99.8898 197.335 99.8393 197.206 99.7383C197.077 99.6372 197.013 99.4581 197.013 99.2009V98.9392C197.013 98.6728 197.082 98.4937 197.22 98.4018C197.367 98.3008 197.587 98.2503 197.881 98.2503C198.203 98.2503 198.428 98.3008 198.556 98.4018C198.685 98.5029 198.749 98.682 198.749 98.9392V99.2009C198.749 99.4673 198.68 99.651 198.543 99.752C198.405 99.8439 198.18 99.8898 197.867 99.8898Z" fill="#45788E"/>
<path d="M203.617 100.648C204.141 100.648 204.595 100.703 204.981 100.813C205.376 100.923 205.679 101.079 205.891 101.281C206.111 101.474 206.221 101.708 206.221 101.984C206.221 102.168 206.166 102.342 206.056 102.508C205.946 102.664 205.785 102.742 205.574 102.742C205.427 102.742 205.303 102.723 205.202 102.687C205.11 102.641 205.027 102.586 204.954 102.521C204.88 102.457 204.793 102.397 204.692 102.342C204.6 102.287 204.458 102.246 204.265 102.218C204.081 102.182 203.943 102.163 203.851 102.163C203.383 102.163 202.983 102.264 202.653 102.466C202.331 102.668 202.083 102.944 201.909 103.293C201.734 103.633 201.647 104.028 201.647 104.478C201.647 104.919 201.734 105.314 201.909 105.663C202.093 106.003 202.341 106.274 202.653 106.476C202.974 106.678 203.342 106.779 203.755 106.779C203.985 106.779 204.182 106.765 204.347 106.737C204.513 106.71 204.651 106.668 204.761 106.613C204.889 106.54 205.004 106.462 205.105 106.379C205.206 106.296 205.358 106.255 205.56 106.255C205.799 106.255 205.982 106.333 206.111 106.489C206.24 106.636 206.304 106.82 206.304 107.04C206.304 107.27 206.175 107.481 205.918 107.674C205.661 107.858 205.321 108.01 204.899 108.129C204.485 108.239 204.035 108.294 203.548 108.294C202.823 108.294 202.194 108.129 201.661 107.798C201.128 107.458 200.715 106.999 200.421 106.42C200.136 105.842 199.994 105.194 199.994 104.478C199.994 103.725 200.145 103.063 200.448 102.494C200.761 101.915 201.188 101.465 201.73 101.144C202.281 100.813 202.91 100.648 203.617 100.648Z" fill="#45788E"/>
<path d="M213.464 100.648C213.702 100.648 213.9 100.726 214.056 100.882C214.212 101.038 214.29 101.24 214.29 101.488V107.316C214.29 107.555 214.212 107.757 214.056 107.922C213.9 108.078 213.702 108.156 213.464 108.156C213.225 108.156 213.027 108.078 212.871 107.922C212.715 107.757 212.637 107.555 212.637 107.316V106.641L212.94 106.765C212.94 106.884 212.876 107.031 212.747 107.206C212.618 107.371 212.444 107.536 212.224 107.702C212.003 107.867 211.741 108.01 211.438 108.129C211.144 108.239 210.823 108.294 210.474 108.294C209.84 108.294 209.266 108.134 208.752 107.812C208.237 107.481 207.828 107.031 207.525 106.462C207.231 105.883 207.084 105.222 207.084 104.478C207.084 103.725 207.231 103.063 207.525 102.494C207.828 101.915 208.233 101.465 208.738 101.144C209.243 100.813 209.803 100.648 210.419 100.648C210.814 100.648 211.176 100.707 211.507 100.827C211.838 100.946 212.122 101.098 212.361 101.281C212.609 101.465 212.798 101.653 212.926 101.846C213.064 102.03 213.133 102.186 213.133 102.315L212.637 102.494V101.488C212.637 101.249 212.715 101.052 212.871 100.896C213.027 100.73 213.225 100.648 213.464 100.648ZM210.68 106.779C211.085 106.779 211.438 106.678 211.741 106.476C212.044 106.274 212.279 105.998 212.444 105.649C212.618 105.3 212.706 104.91 212.706 104.478C212.706 104.037 212.618 103.642 212.444 103.293C212.279 102.944 212.044 102.668 211.741 102.466C211.438 102.264 211.085 102.163 210.68 102.163C210.285 102.163 209.936 102.264 209.633 102.466C209.33 102.668 209.091 102.944 208.917 103.293C208.752 103.642 208.669 104.037 208.669 104.478C208.669 104.91 208.752 105.3 208.917 105.649C209.091 105.998 209.33 106.274 209.633 106.476C209.936 106.678 210.285 106.779 210.68 106.779Z" fill="#45788E"/>
<path d="M216.165 100.923H219.43C219.65 100.923 219.834 100.997 219.981 101.144C220.128 101.291 220.202 101.474 220.202 101.695C220.202 101.906 220.128 102.085 219.981 102.232C219.834 102.37 219.65 102.439 219.43 102.439H216.165C215.944 102.439 215.76 102.365 215.614 102.218C215.467 102.071 215.393 101.888 215.393 101.667C215.393 101.456 215.467 101.281 215.614 101.144C215.76 100.997 215.944 100.923 216.165 100.923ZM217.639 99.2009C217.878 99.2009 218.071 99.2836 218.218 99.4489C218.374 99.6051 218.452 99.8026 218.452 100.041V106.172C218.452 106.301 218.475 106.407 218.521 106.489C218.576 106.572 218.645 106.632 218.727 106.668C218.819 106.705 218.916 106.724 219.017 106.724C219.127 106.724 219.228 106.705 219.32 106.668C219.412 106.623 219.517 106.6 219.637 106.6C219.765 106.6 219.88 106.659 219.981 106.779C220.091 106.898 220.146 107.063 220.146 107.275C220.146 107.532 220.004 107.743 219.719 107.908C219.444 108.074 219.145 108.156 218.824 108.156C218.631 108.156 218.415 108.143 218.176 108.115C217.947 108.078 217.726 108 217.515 107.881C217.313 107.752 217.143 107.559 217.005 107.302C216.867 107.045 216.798 106.691 216.798 106.241V100.041C216.798 99.8026 216.876 99.6051 217.033 99.4489C217.198 99.2836 217.4 99.2009 217.639 99.2009Z" fill="#45788E"/>
<path d="M223.276 107.316C223.276 107.555 223.198 107.757 223.042 107.922C222.886 108.078 222.689 108.156 222.45 108.156C222.211 108.156 222.013 108.078 221.857 107.922C221.701 107.757 221.623 107.555 221.623 107.316V101.626C221.623 101.387 221.701 101.19 221.857 101.033C222.013 100.868 222.211 100.785 222.45 100.785C222.689 100.785 222.886 100.868 223.042 101.033C223.198 101.19 223.276 101.387 223.276 101.626V107.316ZM222.436 99.8898C222.124 99.8898 221.903 99.8393 221.775 99.7383C221.646 99.6372 221.582 99.4581 221.582 99.2009V98.9392C221.582 98.6728 221.651 98.4937 221.788 98.4018C221.935 98.3008 222.156 98.2503 222.45 98.2503C222.771 98.2503 222.996 98.3008 223.125 98.4018C223.253 98.5029 223.318 98.682 223.318 98.9392V99.2009C223.318 99.4673 223.249 99.651 223.111 99.752C222.973 99.8439 222.748 99.8898 222.436 99.8898Z" fill="#45788E"/>
<path d="M232.057 104.478C232.057 105.231 231.887 105.897 231.548 106.476C231.217 107.045 230.767 107.491 230.197 107.812C229.637 108.134 229.008 108.294 228.31 108.294C227.612 108.294 226.978 108.134 226.409 107.812C225.848 107.491 225.398 107.045 225.058 106.476C224.728 105.897 224.562 105.231 224.562 104.478C224.562 103.725 224.728 103.063 225.058 102.494C225.398 101.915 225.848 101.465 226.409 101.144C226.978 100.813 227.612 100.648 228.31 100.648C229.008 100.648 229.637 100.813 230.197 101.144C230.767 101.465 231.217 101.915 231.548 102.494C231.887 103.063 232.057 103.725 232.057 104.478ZM230.404 104.478C230.404 104.009 230.308 103.605 230.115 103.265C229.931 102.916 229.678 102.645 229.357 102.452C229.045 102.26 228.696 102.163 228.31 102.163C227.924 102.163 227.57 102.26 227.249 102.452C226.937 102.645 226.684 102.916 226.491 103.265C226.307 103.605 226.216 104.009 226.216 104.478C226.216 104.937 226.307 105.341 226.491 105.69C226.684 106.03 226.937 106.296 227.249 106.489C227.57 106.682 227.924 106.779 228.31 106.779C228.696 106.779 229.045 106.682 229.357 106.489C229.678 106.296 229.931 106.03 230.115 105.69C230.308 105.341 230.404 104.937 230.404 104.478Z" fill="#45788E"/>
<path d="M237.379 100.648C238.059 100.648 238.573 100.79 238.922 101.075C239.281 101.359 239.524 101.741 239.652 102.218C239.79 102.687 239.859 103.21 239.859 103.789V107.316C239.859 107.555 239.781 107.757 239.625 107.922C239.469 108.078 239.271 108.156 239.032 108.156C238.794 108.156 238.596 108.078 238.44 107.922C238.284 107.757 238.206 107.555 238.206 107.316V103.789C238.206 103.486 238.164 103.215 238.082 102.976C238.008 102.728 237.871 102.531 237.669 102.384C237.466 102.237 237.177 102.163 236.8 102.163C236.433 102.163 236.121 102.237 235.864 102.384C235.616 102.531 235.423 102.728 235.285 102.976C235.156 103.215 235.092 103.486 235.092 103.789V107.316C235.092 107.555 235.014 107.757 234.858 107.922C234.702 108.078 234.504 108.156 234.265 108.156C234.027 108.156 233.829 108.078 233.673 107.922C233.517 107.757 233.439 107.555 233.439 107.316V101.626C233.439 101.387 233.517 101.19 233.673 101.033C233.829 100.868 234.027 100.785 234.265 100.785C234.504 100.785 234.702 100.868 234.858 101.033C235.014 101.19 235.092 101.387 235.092 101.626V102.218L234.885 102.177C234.968 102.021 235.087 101.855 235.244 101.681C235.4 101.497 235.583 101.327 235.795 101.171C236.006 101.015 236.245 100.891 236.511 100.799C236.778 100.698 237.067 100.648 237.379 100.648Z" fill="#45788E"/>
<path d="M174.474 121.914C174.699 121.914 174.886 121.988 175.033 122.135C175.18 122.282 175.254 122.473 175.254 122.707V128.206C175.254 128.431 175.18 128.622 175.033 128.778C174.886 128.925 174.699 128.999 174.474 128.999C174.249 128.999 174.062 128.925 173.915 128.778C173.768 128.622 173.694 128.431 173.694 128.206V127.569L173.98 127.686C173.98 127.799 173.919 127.937 173.798 128.102C173.677 128.258 173.512 128.414 173.304 128.57C173.096 128.726 172.849 128.86 172.563 128.973C172.286 129.077 171.982 129.129 171.653 129.129C171.055 129.129 170.513 128.977 170.028 128.674C169.543 128.362 169.157 127.937 168.871 127.4C168.594 126.854 168.455 126.23 168.455 125.528C168.455 124.817 168.594 124.193 168.871 123.656C169.157 123.11 169.538 122.685 170.015 122.382C170.492 122.07 171.02 121.914 171.601 121.914C171.974 121.914 172.316 121.97 172.628 122.083C172.94 122.196 173.209 122.339 173.434 122.512C173.668 122.685 173.846 122.863 173.967 123.045C174.097 123.218 174.162 123.366 174.162 123.487L173.694 123.656V122.707C173.694 122.482 173.768 122.295 173.915 122.148C174.062 121.992 174.249 121.914 174.474 121.914ZM171.848 127.699C172.229 127.699 172.563 127.604 172.849 127.413C173.135 127.222 173.356 126.962 173.512 126.633C173.677 126.304 173.759 125.935 173.759 125.528C173.759 125.112 173.677 124.739 173.512 124.41C173.356 124.081 173.135 123.821 172.849 123.63C172.563 123.439 172.229 123.344 171.848 123.344C171.475 123.344 171.146 123.439 170.86 123.63C170.574 123.821 170.349 124.081 170.184 124.41C170.028 124.739 169.95 125.112 169.95 125.528C169.95 125.935 170.028 126.304 170.184 126.633C170.349 126.962 170.574 127.222 170.86 127.413C171.146 127.604 171.475 127.699 171.848 127.699Z" fill="#D86A69"/>
<path d="M180.663 121.914C181.304 121.914 181.789 122.048 182.119 122.317C182.457 122.586 182.686 122.945 182.808 123.396C182.938 123.838 183.003 124.332 183.003 124.878V128.206C183.003 128.431 182.929 128.622 182.782 128.778C182.634 128.925 182.448 128.999 182.223 128.999C181.997 128.999 181.811 128.925 181.664 128.778C181.516 128.622 181.443 128.431 181.443 128.206V124.878C181.443 124.592 181.404 124.336 181.326 124.111C181.256 123.877 181.126 123.691 180.936 123.552C180.745 123.413 180.472 123.344 180.117 123.344C179.77 123.344 179.475 123.413 179.233 123.552C178.999 123.691 178.817 123.877 178.687 124.111C178.565 124.336 178.505 124.592 178.505 124.878V128.206C178.505 128.431 178.431 128.622 178.284 128.778C178.136 128.925 177.95 128.999 177.725 128.999C177.499 128.999 177.313 128.925 177.166 128.778C177.018 128.622 176.945 128.431 176.945 128.206V122.837C176.945 122.612 177.018 122.425 177.166 122.278C177.313 122.122 177.499 122.044 177.725 122.044C177.95 122.044 178.136 122.122 178.284 122.278C178.431 122.425 178.505 122.612 178.505 122.837V123.396L178.31 123.357C178.388 123.21 178.5 123.054 178.648 122.889C178.795 122.716 178.968 122.555 179.168 122.408C179.367 122.261 179.592 122.144 179.844 122.057C180.095 121.962 180.368 121.914 180.663 121.914Z" fill="#D86A69"/>
<path d="M190.318 119.379C190.543 119.379 190.729 119.453 190.877 119.6C191.024 119.747 191.098 119.938 191.098 120.172V128.206C191.098 128.431 191.024 128.622 190.877 128.778C190.729 128.925 190.543 128.999 190.318 128.999C190.092 128.999 189.906 128.925 189.759 128.778C189.611 128.622 189.538 128.431 189.538 128.206V127.569L189.824 127.686C189.824 127.799 189.763 127.937 189.642 128.102C189.52 128.258 189.356 128.414 189.148 128.57C188.94 128.726 188.693 128.86 188.407 128.973C188.129 129.077 187.826 129.129 187.497 129.129C186.899 129.129 186.357 128.977 185.872 128.674C185.386 128.362 185.001 127.937 184.715 127.4C184.437 126.854 184.299 126.23 184.299 125.528C184.299 124.817 184.437 124.193 184.715 123.656C185.001 123.11 185.382 122.685 185.859 122.382C186.335 122.07 186.864 121.914 187.445 121.914C187.817 121.914 188.16 121.97 188.472 122.083C188.784 122.196 189.052 122.339 189.278 122.512C189.512 122.685 189.689 122.863 189.811 123.045C189.941 123.218 190.006 123.366 190.006 123.487L189.538 123.656V120.172C189.538 119.947 189.611 119.76 189.759 119.613C189.906 119.457 190.092 119.379 190.318 119.379ZM187.692 127.699C188.073 127.699 188.407 127.604 188.693 127.413C188.979 127.222 189.2 126.962 189.356 126.633C189.52 126.304 189.603 125.935 189.603 125.528C189.603 125.112 189.52 124.739 189.356 124.41C189.2 124.081 188.979 123.821 188.693 123.63C188.407 123.439 188.073 123.344 187.692 123.344C187.319 123.344 186.99 123.439 186.704 123.63C186.418 123.821 186.192 124.081 186.028 124.41C185.872 124.739 185.794 125.112 185.794 125.528C185.794 125.935 185.872 126.304 186.028 126.633C186.192 126.962 186.418 127.222 186.704 127.413C186.99 127.604 187.319 127.699 187.692 127.699Z" fill="#D86A69"/>
<path d="M193.568 128.999C193.343 128.999 193.157 128.925 193.009 128.778C192.862 128.622 192.788 128.431 192.788 128.206V122.837C192.788 122.612 192.862 122.425 193.009 122.278C193.157 122.122 193.343 122.044 193.568 122.044C193.794 122.044 193.98 122.122 194.127 122.278C194.275 122.425 194.348 122.612 194.348 122.837V124.059L194.257 123.188C194.353 122.98 194.474 122.798 194.621 122.642C194.777 122.477 194.951 122.343 195.141 122.239C195.332 122.126 195.536 122.044 195.752 121.992C195.969 121.94 196.186 121.914 196.402 121.914C196.662 121.914 196.879 121.988 197.052 122.135C197.234 122.282 197.325 122.456 197.325 122.655C197.325 122.941 197.252 123.149 197.104 123.279C196.957 123.4 196.797 123.461 196.623 123.461C196.459 123.461 196.307 123.431 196.168 123.37C196.038 123.309 195.887 123.279 195.713 123.279C195.557 123.279 195.397 123.318 195.232 123.396C195.076 123.465 194.929 123.578 194.79 123.734C194.66 123.89 194.552 124.085 194.465 124.319C194.387 124.544 194.348 124.813 194.348 125.125V128.206C194.348 128.431 194.275 128.622 194.127 128.778C193.98 128.925 193.794 128.999 193.568 128.999Z" fill="#D86A69"/>
<path d="M204.815 125.528C204.815 126.239 204.655 126.867 204.334 127.413C204.022 127.95 203.597 128.371 203.06 128.674C202.531 128.977 201.938 129.129 201.279 129.129C200.62 129.129 200.022 128.977 199.485 128.674C198.956 128.371 198.532 127.95 198.211 127.413C197.899 126.867 197.743 126.239 197.743 125.528C197.743 124.817 197.899 124.193 198.211 123.656C198.532 123.11 198.956 122.685 199.485 122.382C200.022 122.07 200.62 121.914 201.279 121.914C201.938 121.914 202.531 122.07 203.06 122.382C203.597 122.685 204.022 123.11 204.334 123.656C204.655 124.193 204.815 124.817 204.815 125.528ZM203.255 125.528C203.255 125.086 203.164 124.705 202.982 124.384C202.809 124.055 202.57 123.799 202.267 123.617C201.972 123.435 201.643 123.344 201.279 123.344C200.915 123.344 200.581 123.435 200.278 123.617C199.983 123.799 199.745 124.055 199.563 124.384C199.39 124.705 199.303 125.086 199.303 125.528C199.303 125.961 199.39 126.343 199.563 126.672C199.745 126.993 199.983 127.244 200.278 127.426C200.581 127.608 200.915 127.699 201.279 127.699C201.643 127.699 201.972 127.608 202.267 127.426C202.57 127.244 202.809 126.993 202.982 126.672C203.164 126.343 203.255 125.961 203.255 125.528Z" fill="#D86A69"/>
<path d="M207.587 128.206C207.587 128.431 207.514 128.622 207.366 128.778C207.219 128.925 207.033 128.999 206.807 128.999C206.582 128.999 206.396 128.925 206.248 128.778C206.101 128.622 206.027 128.431 206.027 128.206V122.837C206.027 122.612 206.101 122.425 206.248 122.278C206.396 122.122 206.582 122.044 206.807 122.044C207.033 122.044 207.219 122.122 207.366 122.278C207.514 122.425 207.587 122.612 207.587 122.837V128.206ZM206.794 121.199C206.5 121.199 206.292 121.151 206.17 121.056C206.049 120.961 205.988 120.792 205.988 120.549V120.302C205.988 120.051 206.053 119.882 206.183 119.795C206.322 119.7 206.53 119.652 206.807 119.652C207.111 119.652 207.323 119.7 207.444 119.795C207.566 119.89 207.626 120.059 207.626 120.302V120.549C207.626 120.8 207.561 120.974 207.431 121.069C207.301 121.156 207.089 121.199 206.794 121.199Z" fill="#D86A69"/>
<path d="M214.82 119.379C215.045 119.379 215.231 119.453 215.379 119.6C215.526 119.747 215.6 119.938 215.6 120.172V128.206C215.6 128.431 215.526 128.622 215.379 128.778C215.231 128.925 215.045 128.999 214.82 128.999C214.594 128.999 214.408 128.925 214.261 128.778C214.113 128.622 214.04 128.431 214.04 128.206V127.569L214.326 127.686C214.326 127.799 214.265 127.937 214.144 128.102C214.022 128.258 213.858 128.414 213.65 128.57C213.442 128.726 213.195 128.86 212.909 128.973C212.631 129.077 212.328 129.129 211.999 129.129C211.401 129.129 210.859 128.977 210.374 128.674C209.888 128.362 209.503 127.937 209.217 127.4C208.939 126.854 208.801 126.23 208.801 125.528C208.801 124.817 208.939 124.193 209.217 123.656C209.503 123.11 209.884 122.685 210.361 122.382C210.837 122.07 211.366 121.914 211.947 121.914C212.319 121.914 212.662 121.97 212.974 122.083C213.286 122.196 213.554 122.339 213.78 122.512C214.014 122.685 214.191 122.863 214.313 123.045C214.443 123.218 214.508 123.366 214.508 123.487L214.04 123.656V120.172C214.04 119.947 214.113 119.76 214.261 119.613C214.408 119.457 214.594 119.379 214.82 119.379ZM212.194 127.699C212.575 127.699 212.909 127.604 213.195 127.413C213.481 127.222 213.702 126.962 213.858 126.633C214.022 126.304 214.105 125.935 214.105 125.528C214.105 125.112 214.022 124.739 213.858 124.41C213.702 124.081 213.481 123.821 213.195 123.63C212.909 123.439 212.575 123.344 212.194 123.344C211.821 123.344 211.492 123.439 211.206 123.63C210.92 123.821 210.694 124.081 210.53 124.41C210.374 124.739 210.296 125.112 210.296 125.528C210.296 125.935 210.374 126.304 210.53 126.633C210.694 126.962 210.92 127.222 211.206 127.413C211.492 127.604 211.821 127.699 212.194 127.699Z" fill="#D86A69"/>
<path d="M218.135 123.916C217.884 123.916 217.689 123.851 217.55 123.721C217.42 123.582 217.355 123.387 217.355 123.136V122.915C217.355 122.664 217.42 122.473 217.55 122.343C217.689 122.204 217.884 122.135 218.135 122.135H218.304C218.556 122.135 218.746 122.204 218.876 122.343C219.015 122.473 219.084 122.664 219.084 122.915V123.136C219.084 123.387 219.015 123.582 218.876 123.721C218.746 123.851 218.556 123.916 218.304 123.916H218.135ZM218.135 128.999C217.884 128.999 217.689 128.934 217.55 128.804C217.42 128.665 217.355 128.47 217.355 128.219V127.998C217.355 127.747 217.42 127.556 217.55 127.426C217.689 127.287 217.884 127.218 218.135 127.218H218.304C218.556 127.218 218.746 127.287 218.876 127.426C219.015 127.556 219.084 127.747 219.084 127.998V128.219C219.084 128.47 219.015 128.665 218.876 128.804C218.746 128.934 218.556 128.999 218.304 128.999H218.135Z" fill="#D86A69"/>
<path d="M226.474 119.379C226.699 119.379 226.886 119.453 227.033 119.6C227.18 119.747 227.254 119.938 227.254 120.172V128.206C227.254 128.431 227.18 128.622 227.033 128.778C226.886 128.925 226.699 128.999 226.474 128.999C226.249 128.999 226.062 128.925 225.915 128.778C225.768 128.622 225.694 128.431 225.694 128.206V127.569L225.98 127.686C225.98 127.799 225.919 127.937 225.798 128.102C225.677 128.258 225.512 128.414 225.304 128.57C225.096 128.726 224.849 128.86 224.563 128.973C224.286 129.077 223.982 129.129 223.653 129.129C223.055 129.129 222.513 128.977 222.028 128.674C221.543 128.362 221.157 127.937 220.871 127.4C220.594 126.854 220.455 126.23 220.455 125.528C220.455 124.817 220.594 124.193 220.871 123.656C221.157 123.11 221.538 122.685 222.015 122.382C222.492 122.07 223.02 121.914 223.601 121.914C223.974 121.914 224.316 121.97 224.628 122.083C224.94 122.196 225.209 122.339 225.434 122.512C225.668 122.685 225.846 122.863 225.967 123.045C226.097 123.218 226.162 123.366 226.162 123.487L225.694 123.656V120.172C225.694 119.947 225.768 119.76 225.915 119.613C226.062 119.457 226.249 119.379 226.474 119.379ZM223.848 127.699C224.229 127.699 224.563 127.604 224.849 127.413C225.135 127.222 225.356 126.962 225.512 126.633C225.677 126.304 225.759 125.935 225.759 125.528C225.759 125.112 225.677 124.739 225.512 124.41C225.356 124.081 225.135 123.821 224.849 123.63C224.563 123.439 224.229 123.344 223.848 123.344C223.475 123.344 223.146 123.439 222.86 123.63C222.574 123.821 222.349 124.081 222.184 124.41C222.028 124.739 221.95 125.112 221.95 125.528C221.95 125.935 222.028 126.304 222.184 126.633C222.349 126.962 222.574 127.222 222.86 127.413C223.146 127.604 223.475 127.699 223.848 127.699Z" fill="#D86A69"/>
<path d="M232.156 129.129C231.419 129.129 230.778 128.977 230.232 128.674C229.694 128.362 229.278 127.942 228.984 127.413C228.698 126.884 228.555 126.286 228.555 125.619C228.555 124.839 228.711 124.176 229.023 123.63C229.343 123.075 229.759 122.651 230.271 122.356C230.782 122.061 231.324 121.914 231.896 121.914C232.338 121.914 232.754 122.005 233.144 122.187C233.542 122.369 233.893 122.62 234.197 122.941C234.5 123.253 234.738 123.617 234.912 124.033C235.094 124.449 235.185 124.891 235.185 125.359C235.176 125.567 235.094 125.736 234.938 125.866C234.782 125.996 234.6 126.061 234.392 126.061H229.426L229.036 124.761H233.807L233.521 125.021V124.67C233.503 124.419 233.412 124.193 233.248 123.994C233.092 123.795 232.892 123.639 232.65 123.526C232.416 123.405 232.164 123.344 231.896 123.344C231.636 123.344 231.393 123.379 231.168 123.448C230.942 123.517 230.747 123.634 230.583 123.799C230.418 123.964 230.288 124.185 230.193 124.462C230.097 124.739 230.05 125.09 230.05 125.515C230.05 125.983 230.145 126.382 230.336 126.711C230.535 127.032 230.786 127.279 231.09 127.452C231.402 127.617 231.731 127.699 232.078 127.699C232.398 127.699 232.654 127.673 232.845 127.621C233.035 127.569 233.187 127.508 233.3 127.439C233.421 127.361 233.529 127.296 233.625 127.244C233.781 127.166 233.928 127.127 234.067 127.127C234.257 127.127 234.413 127.192 234.535 127.322C234.665 127.452 234.73 127.604 234.73 127.777C234.73 128.011 234.608 128.223 234.366 128.414C234.14 128.605 233.824 128.774 233.417 128.921C233.009 129.06 232.589 129.129 232.156 129.129Z" fill="#D86A69"/>
<path d="M240.087 121.914C240.693 121.914 241.235 122.07 241.712 122.382C242.197 122.685 242.578 123.106 242.856 123.643C243.142 124.18 243.285 124.804 243.285 125.515C243.285 126.226 243.142 126.854 242.856 127.4C242.578 127.937 242.201 128.362 241.725 128.674C241.257 128.977 240.728 129.129 240.139 129.129C239.792 129.129 239.467 129.073 239.164 128.96C238.86 128.847 238.592 128.704 238.358 128.531C238.132 128.358 237.955 128.184 237.825 128.011C237.703 127.829 237.643 127.677 237.643 127.556L238.046 127.387V128.336C238.046 128.561 237.972 128.752 237.825 128.908C237.677 129.055 237.491 129.129 237.266 129.129C237.04 129.129 236.854 129.055 236.707 128.908C236.559 128.761 236.486 128.57 236.486 128.336V120.172C236.486 119.947 236.559 119.76 236.707 119.613C236.854 119.457 237.04 119.379 237.266 119.379C237.491 119.379 237.677 119.457 237.825 119.613C237.972 119.76 238.046 119.947 238.046 120.172V123.474L237.825 123.357C237.825 123.244 237.885 123.11 238.007 122.954C238.128 122.789 238.293 122.629 238.501 122.473C238.709 122.308 238.947 122.174 239.216 122.07C239.493 121.966 239.783 121.914 240.087 121.914ZM239.892 123.344C239.51 123.344 239.177 123.439 238.891 123.63C238.605 123.821 238.379 124.081 238.215 124.41C238.059 124.731 237.981 125.099 237.981 125.515C237.981 125.922 238.059 126.295 238.215 126.633C238.379 126.962 238.605 127.222 238.891 127.413C239.177 127.604 239.51 127.699 239.892 127.699C240.273 127.699 240.602 127.604 240.88 127.413C241.166 127.222 241.387 126.962 241.543 126.633C241.707 126.295 241.79 125.922 241.79 125.515C241.79 125.099 241.707 124.731 241.543 124.41C241.387 124.081 241.166 123.821 240.88 123.63C240.602 123.439 240.273 123.344 239.892 123.344Z" fill="#D86A69"/>
<path d="M249.746 122.044C249.972 122.044 250.158 122.122 250.305 122.278C250.453 122.425 250.526 122.612 250.526 122.837V126.139C250.526 127.058 250.271 127.786 249.759 128.323C249.248 128.86 248.511 129.129 247.549 129.129C246.587 129.129 245.851 128.86 245.339 128.323C244.837 127.786 244.585 127.058 244.585 126.139V122.837C244.585 122.612 244.659 122.425 244.806 122.278C244.954 122.122 245.14 122.044 245.365 122.044C245.591 122.044 245.777 122.122 245.924 122.278C246.072 122.425 246.145 122.612 246.145 122.837V126.139C246.145 126.668 246.262 127.062 246.496 127.322C246.73 127.573 247.081 127.699 247.549 127.699C248.026 127.699 248.381 127.573 248.615 127.322C248.849 127.062 248.966 126.668 248.966 126.139V122.837C248.966 122.612 249.04 122.425 249.187 122.278C249.335 122.122 249.521 122.044 249.746 122.044Z" fill="#D86A69"/>
<path d="M254.909 121.914C255.273 121.914 255.607 121.97 255.91 122.083C256.213 122.196 256.473 122.339 256.69 122.512C256.915 122.685 257.089 122.863 257.21 123.045C257.34 123.218 257.405 123.366 257.405 123.487L257.067 123.656V122.707C257.067 122.482 257.141 122.295 257.288 122.148C257.435 121.992 257.622 121.914 257.847 121.914C258.072 121.914 258.259 121.988 258.406 122.135C258.553 122.282 258.627 122.473 258.627 122.707V128.492C258.627 129.246 258.462 129.848 258.133 130.299C257.812 130.758 257.388 131.088 256.859 131.287C256.33 131.495 255.763 131.599 255.156 131.599C254.983 131.599 254.757 131.577 254.48 131.534C254.203 131.491 253.938 131.439 253.687 131.378C253.436 131.317 253.245 131.261 253.115 131.209C252.855 131.096 252.673 130.953 252.569 130.78C252.474 130.615 252.456 130.438 252.517 130.247C252.595 129.996 252.721 129.822 252.894 129.727C253.067 129.64 253.249 129.632 253.44 129.701C253.527 129.727 253.67 129.779 253.869 129.857C254.068 129.935 254.285 130.004 254.519 130.065C254.762 130.134 254.974 130.169 255.156 130.169C255.806 130.169 256.287 130.039 256.599 129.779C256.911 129.519 257.067 129.159 257.067 128.7V127.569L257.223 127.686C257.223 127.799 257.162 127.937 257.041 128.102C256.928 128.258 256.768 128.414 256.56 128.57C256.361 128.726 256.122 128.86 255.845 128.973C255.568 129.077 255.273 129.129 254.961 129.129C254.346 129.129 253.791 128.977 253.297 128.674C252.803 128.362 252.413 127.937 252.127 127.4C251.841 126.854 251.698 126.23 251.698 125.528C251.698 124.817 251.841 124.193 252.127 123.656C252.413 123.11 252.799 122.685 253.284 122.382C253.769 122.07 254.311 121.914 254.909 121.914ZM255.156 123.344C254.766 123.344 254.424 123.439 254.129 123.63C253.834 123.821 253.605 124.081 253.44 124.41C253.275 124.739 253.193 125.112 253.193 125.528C253.193 125.935 253.275 126.304 253.44 126.633C253.605 126.962 253.834 127.222 254.129 127.413C254.424 127.604 254.766 127.699 255.156 127.699C255.555 127.699 255.901 127.604 256.196 127.413C256.491 127.222 256.72 126.962 256.885 126.633C257.05 126.304 257.132 125.935 257.132 125.528C257.132 125.112 257.05 124.739 256.885 124.41C256.72 124.081 256.491 123.821 256.196 123.63C255.901 123.439 255.555 123.344 255.156 123.344Z" fill="#D86A69"/>
<path d="M263.136 121.914C263.5 121.914 263.833 121.97 264.137 122.083C264.44 122.196 264.7 122.339 264.917 122.512C265.142 122.685 265.315 122.863 265.437 123.045C265.567 123.218 265.632 123.366 265.632 123.487L265.294 123.656V122.707C265.294 122.482 265.367 122.295 265.515 122.148C265.662 121.992 265.848 121.914 266.074 121.914C266.299 121.914 266.485 121.988 266.633 122.135C266.78 122.282 266.854 122.473 266.854 122.707V128.492C266.854 129.246 266.689 129.848 266.36 130.299C266.039 130.758 265.614 131.088 265.086 131.287C264.557 131.495 263.989 131.599 263.383 131.599C263.209 131.599 262.984 131.577 262.707 131.534C262.429 131.491 262.165 131.439 261.914 131.378C261.662 131.317 261.472 131.261 261.342 131.209C261.082 131.096 260.9 130.953 260.796 130.78C260.7 130.615 260.683 130.438 260.744 130.247C260.822 129.996 260.947 129.822 261.121 129.727C261.294 129.64 261.476 129.632 261.667 129.701C261.753 129.727 261.896 129.779 262.096 129.857C262.295 129.935 262.512 130.004 262.746 130.065C262.988 130.134 263.201 130.169 263.383 130.169C264.033 130.169 264.514 130.039 264.826 129.779C265.138 129.519 265.294 129.159 265.294 128.7V127.569L265.45 127.686C265.45 127.799 265.389 127.937 265.268 128.102C265.155 128.258 264.995 128.414 264.787 128.57C264.587 128.726 264.349 128.86 264.072 128.973C263.794 129.077 263.5 129.129 263.188 129.129C262.572 129.129 262.018 128.977 261.524 128.674C261.03 128.362 260.64 127.937 260.354 127.4C260.068 126.854 259.925 126.23 259.925 125.528C259.925 124.817 260.068 124.193 260.354 123.656C260.64 123.11 261.025 122.685 261.511 122.382C261.996 122.07 262.538 121.914 263.136 121.914ZM263.383 123.344C262.993 123.344 262.65 123.439 262.356 123.63C262.061 123.821 261.831 124.081 261.667 124.41C261.502 124.739 261.42 125.112 261.42 125.528C261.42 125.935 261.502 126.304 261.667 126.633C261.831 126.962 262.061 127.222 262.356 127.413C262.65 127.604 262.993 127.699 263.383 127.699C263.781 127.699 264.128 127.604 264.423 127.413C264.717 127.222 264.947 126.962 265.112 126.633C265.276 126.304 265.359 125.935 265.359 125.528C265.359 125.112 265.276 124.739 265.112 124.41C264.947 124.081 264.717 123.821 264.423 123.63C264.128 123.439 263.781 123.344 263.383 123.344Z" fill="#D86A69"/>
<path d="M274.107 121.914C274.332 121.914 274.518 121.988 274.666 122.135C274.813 122.282 274.887 122.473 274.887 122.707V128.206C274.887 128.431 274.813 128.622 274.666 128.778C274.518 128.925 274.332 128.999 274.107 128.999C273.881 128.999 273.695 128.925 273.548 128.778C273.4 128.622 273.327 128.431 273.327 128.206V127.569L273.613 127.686C273.613 127.799 273.552 127.937 273.431 128.102C273.309 128.258 273.145 128.414 272.937 128.57C272.729 128.726 272.482 128.86 272.196 128.973C271.918 129.077 271.615 129.129 271.286 129.129C270.688 129.129 270.146 128.977 269.661 128.674C269.175 128.362 268.79 127.937 268.504 127.4C268.226 126.854 268.088 126.23 268.088 125.528C268.088 124.817 268.226 124.193 268.504 123.656C268.79 123.11 269.171 122.685 269.648 122.382C270.124 122.07 270.653 121.914 271.234 121.914C271.606 121.914 271.949 121.97 272.261 122.083C272.573 122.196 272.841 122.339 273.067 122.512C273.301 122.685 273.478 122.863 273.6 123.045C273.73 123.218 273.795 123.366 273.795 123.487L273.327 123.656V122.707C273.327 122.482 273.4 122.295 273.548 122.148C273.695 121.992 273.881 121.914 274.107 121.914ZM271.481 127.699C271.862 127.699 272.196 127.604 272.482 127.413C272.768 127.222 272.989 126.962 273.145 126.633C273.309 126.304 273.392 125.935 273.392 125.528C273.392 125.112 273.309 124.739 273.145 124.41C272.989 124.081 272.768 123.821 272.482 123.63C272.196 123.439 271.862 123.344 271.481 123.344C271.108 123.344 270.779 123.439 270.493 123.63C270.207 123.821 269.981 124.081 269.817 124.41C269.661 124.739 269.583 125.112 269.583 125.528C269.583 125.935 269.661 126.304 269.817 126.633C269.981 126.962 270.207 127.222 270.493 127.413C270.779 127.604 271.108 127.699 271.481 127.699Z" fill="#D86A69"/>
<path d="M280.178 121.914C280.785 121.914 281.327 122.07 281.803 122.382C282.289 122.685 282.67 123.106 282.947 123.643C283.233 124.18 283.376 124.804 283.376 125.515C283.376 126.226 283.233 126.854 282.947 127.4C282.67 127.937 282.293 128.362 281.816 128.674C281.348 128.977 280.82 129.129 280.23 129.129C279.884 129.129 279.559 129.073 279.255 128.96C278.952 128.847 278.683 128.704 278.449 128.531C278.224 128.358 278.046 128.184 277.916 128.011C277.795 127.829 277.734 127.677 277.734 127.556L278.137 127.387V128.336C278.137 128.561 278.064 128.752 277.916 128.908C277.769 129.055 277.583 129.129 277.357 129.129C277.132 129.129 276.946 129.055 276.798 128.908C276.651 128.761 276.577 128.57 276.577 128.336V120.172C276.577 119.947 276.651 119.76 276.798 119.613C276.946 119.457 277.132 119.379 277.357 119.379C277.583 119.379 277.769 119.457 277.916 119.613C278.064 119.76 278.137 119.947 278.137 120.172V123.474L277.916 123.357C277.916 123.244 277.977 123.11 278.098 122.954C278.22 122.789 278.384 122.629 278.592 122.473C278.8 122.308 279.039 122.174 279.307 122.07C279.585 121.966 279.875 121.914 280.178 121.914ZM279.983 123.344C279.602 123.344 279.268 123.439 278.982 123.63C278.696 123.821 278.471 124.081 278.306 124.41C278.15 124.731 278.072 125.099 278.072 125.515C278.072 125.922 278.15 126.295 278.306 126.633C278.471 126.962 278.696 127.222 278.982 127.413C279.268 127.604 279.602 127.699 279.983 127.699C280.365 127.699 280.694 127.604 280.971 127.413C281.257 127.222 281.478 126.962 281.634 126.633C281.799 126.295 281.881 125.922 281.881 125.515C281.881 125.099 281.799 124.731 281.634 124.41C281.478 124.081 281.257 123.821 280.971 123.63C280.694 123.439 280.365 123.344 279.983 123.344Z" fill="#D86A69"/>
<path d="M286.367 128.206C286.367 128.431 286.289 128.622 286.133 128.778C285.986 128.925 285.799 128.999 285.574 128.999C285.357 128.999 285.175 128.925 285.028 128.778C284.881 128.622 284.807 128.431 284.807 128.206V120.172C284.807 119.947 284.881 119.76 285.028 119.613C285.184 119.457 285.375 119.379 285.6 119.379C285.825 119.379 286.007 119.457 286.146 119.613C286.293 119.76 286.367 119.947 286.367 120.172V128.206Z" fill="#D86A69"/>
<path d="M291.265 129.129C290.528 129.129 289.887 128.977 289.341 128.674C288.804 128.362 288.388 127.942 288.093 127.413C287.807 126.884 287.664 126.286 287.664 125.619C287.664 124.839 287.82 124.176 288.132 123.63C288.453 123.075 288.869 122.651 289.38 122.356C289.891 122.061 290.433 121.914 291.005 121.914C291.447 121.914 291.863 122.005 292.253 122.187C292.652 122.369 293.003 122.62 293.306 122.941C293.609 123.253 293.848 123.617 294.021 124.033C294.203 124.449 294.294 124.891 294.294 125.359C294.285 125.567 294.203 125.736 294.047 125.866C293.891 125.996 293.709 126.061 293.501 126.061H288.535L288.145 124.761H292.916L292.63 125.021V124.67C292.613 124.419 292.522 124.193 292.357 123.994C292.201 123.795 292.002 123.639 291.759 123.526C291.525 123.405 291.274 123.344 291.005 123.344C290.745 123.344 290.502 123.379 290.277 123.448C290.052 123.517 289.857 123.634 289.692 123.799C289.527 123.964 289.397 124.185 289.302 124.462C289.207 124.739 289.159 125.09 289.159 125.515C289.159 125.983 289.254 126.382 289.445 126.711C289.644 127.032 289.896 127.279 290.199 127.452C290.511 127.617 290.84 127.699 291.187 127.699C291.508 127.699 291.763 127.673 291.954 127.621C292.145 127.569 292.296 127.508 292.409 127.439C292.53 127.361 292.639 127.296 292.734 127.244C292.89 127.166 293.037 127.127 293.176 127.127C293.367 127.127 293.523 127.192 293.644 127.322C293.774 127.452 293.839 127.604 293.839 127.777C293.839 128.011 293.718 128.223 293.475 128.414C293.25 128.605 292.933 128.774 292.526 128.921C292.119 129.06 291.698 129.129 291.265 129.129Z" fill="#D86A69"/>
<path d="M169.417 140.514C169.2 140.514 169.018 140.445 168.871 140.306C168.724 140.159 168.65 139.985 168.65 139.786C168.65 139.587 168.724 139.422 168.871 139.292C169.018 139.153 169.2 139.084 169.417 139.084H174.63C174.855 139.084 175.037 139.153 175.176 139.292C175.323 139.422 175.397 139.587 175.397 139.786C175.397 139.985 175.323 140.159 175.176 140.306C175.037 140.445 174.855 140.514 174.63 140.514H169.417ZM169.417 143.036C169.2 143.036 169.018 142.967 168.871 142.828C168.724 142.681 168.65 142.507 168.65 142.308C168.65 142.109 168.724 141.944 168.871 141.814C169.018 141.675 169.2 141.606 169.417 141.606H174.63C174.855 141.606 175.037 141.675 175.176 141.814C175.323 141.944 175.397 142.109 175.397 142.308C175.397 142.507 175.323 142.681 175.176 142.828C175.037 142.967 174.855 143.036 174.63 143.036H169.417Z" fill="#D86A69"/>
<path d="M180.342 136.523C180.386 136.107 180.611 135.899 181.018 135.899H181.395C181.638 135.899 181.807 135.968 181.902 136.107C181.998 136.237 182.011 136.415 181.941 136.64L181.057 139.357C180.953 139.643 180.771 139.786 180.511 139.786C180.234 139.786 180.108 139.608 180.134 139.253L180.342 136.523ZM183.202 136.523C183.246 136.107 183.471 135.899 183.878 135.899H184.255C184.498 135.899 184.667 135.968 184.762 136.107C184.858 136.237 184.866 136.415 184.788 136.64L183.904 139.357C183.8 139.643 183.618 139.786 183.358 139.786C183.081 139.786 182.955 139.604 182.981 139.24L183.202 136.523Z" fill="#D86A69"/>
<path d="M186.201 138.174H189.282C189.49 138.174 189.664 138.243 189.802 138.382C189.941 138.521 190.01 138.694 190.01 138.902C190.01 139.101 189.941 139.27 189.802 139.409C189.664 139.539 189.49 139.604 189.282 139.604H186.201C185.993 139.604 185.82 139.535 185.681 139.396C185.543 139.257 185.473 139.084 185.473 138.876C185.473 138.677 185.543 138.512 185.681 138.382C185.82 138.243 185.993 138.174 186.201 138.174ZM187.592 136.549C187.818 136.549 188 136.627 188.138 136.783C188.286 136.93 188.359 137.117 188.359 137.342V143.127C188.359 143.248 188.381 143.348 188.424 143.426C188.476 143.504 188.541 143.56 188.619 143.595C188.706 143.63 188.797 143.647 188.892 143.647C188.996 143.647 189.092 143.63 189.178 143.595C189.265 143.552 189.365 143.53 189.477 143.53C189.599 143.53 189.707 143.586 189.802 143.699C189.906 143.812 189.958 143.968 189.958 144.167C189.958 144.41 189.824 144.609 189.555 144.765C189.295 144.921 189.014 144.999 188.71 144.999C188.528 144.999 188.325 144.986 188.099 144.96C187.883 144.925 187.675 144.852 187.475 144.739C187.285 144.618 187.124 144.436 186.994 144.193C186.864 143.95 186.799 143.617 186.799 143.192V137.342C186.799 137.117 186.873 136.93 187.02 136.783C187.176 136.627 187.367 136.549 187.592 136.549Z" fill="#D86A69"/>
<path d="M192.223 144.999C191.997 144.999 191.811 144.925 191.664 144.778C191.516 144.622 191.443 144.431 191.443 144.206V138.837C191.443 138.612 191.516 138.425 191.664 138.278C191.811 138.122 191.997 138.044 192.223 138.044C192.448 138.044 192.634 138.122 192.782 138.278C192.929 138.425 193.003 138.612 193.003 138.837V140.059L192.912 139.188C193.007 138.98 193.128 138.798 193.276 138.642C193.432 138.477 193.605 138.343 193.796 138.239C193.986 138.126 194.19 138.044 194.407 137.992C194.623 137.94 194.84 137.914 195.057 137.914C195.317 137.914 195.533 137.988 195.707 138.135C195.889 138.282 195.98 138.456 195.98 138.655C195.98 138.941 195.906 139.149 195.759 139.279C195.611 139.4 195.451 139.461 195.278 139.461C195.113 139.461 194.961 139.431 194.823 139.37C194.693 139.309 194.541 139.279 194.368 139.279C194.212 139.279 194.051 139.318 193.887 139.396C193.731 139.465 193.583 139.578 193.445 139.734C193.315 139.89 193.206 140.085 193.12 140.319C193.042 140.544 193.003 140.813 193.003 141.125V144.206C193.003 144.431 192.929 144.622 192.782 144.778C192.634 144.925 192.448 144.999 192.223 144.999Z" fill="#D86A69"/>
<path d="M202.24 138.044C202.466 138.044 202.652 138.122 202.799 138.278C202.947 138.425 203.02 138.612 203.02 138.837V142.139C203.02 143.058 202.765 143.786 202.253 144.323C201.742 144.86 201.005 145.129 200.043 145.129C199.081 145.129 198.345 144.86 197.833 144.323C197.331 143.786 197.079 143.058 197.079 142.139V138.837C197.079 138.612 197.153 138.425 197.3 138.278C197.448 138.122 197.634 138.044 197.859 138.044C198.085 138.044 198.271 138.122 198.418 138.278C198.566 138.425 198.639 138.612 198.639 138.837V142.139C198.639 142.668 198.756 143.062 198.99 143.322C199.224 143.573 199.575 143.699 200.043 143.699C200.52 143.699 200.875 143.573 201.109 143.322C201.343 143.062 201.46 142.668 201.46 142.139V138.837C201.46 138.612 201.534 138.425 201.681 138.278C201.829 138.122 202.015 138.044 202.24 138.044Z" fill="#D86A69"/>
<path d="M207.92 145.129C207.184 145.129 206.542 144.977 205.996 144.674C205.459 144.362 205.043 143.942 204.748 143.413C204.462 142.884 204.319 142.286 204.319 141.619C204.319 140.839 204.475 140.176 204.787 139.63C205.108 139.075 205.524 138.651 206.035 138.356C206.547 138.061 207.088 137.914 207.66 137.914C208.102 137.914 208.518 138.005 208.908 138.187C209.307 138.369 209.658 138.62 209.961 138.941C210.265 139.253 210.503 139.617 210.676 140.033C210.858 140.449 210.949 140.891 210.949 141.359C210.941 141.567 210.858 141.736 210.702 141.866C210.546 141.996 210.364 142.061 210.156 142.061H205.19L204.8 140.761H209.571L209.285 141.021V140.67C209.268 140.419 209.177 140.193 209.012 139.994C208.856 139.795 208.657 139.639 208.414 139.526C208.18 139.405 207.929 139.344 207.66 139.344C207.4 139.344 207.158 139.379 206.932 139.448C206.707 139.517 206.512 139.634 206.347 139.799C206.183 139.964 206.053 140.185 205.957 140.462C205.862 140.739 205.814 141.09 205.814 141.515C205.814 141.983 205.91 142.382 206.1 142.711C206.3 143.032 206.551 143.279 206.854 143.452C207.166 143.617 207.496 143.699 207.842 143.699C208.163 143.699 208.419 143.673 208.609 143.621C208.8 143.569 208.952 143.508 209.064 143.439C209.186 143.361 209.294 143.296 209.389 143.244C209.545 143.166 209.693 143.127 209.831 143.127C210.022 143.127 210.178 143.192 210.299 143.322C210.429 143.452 210.494 143.604 210.494 143.777C210.494 144.011 210.373 144.223 210.13 144.414C209.905 144.605 209.589 144.774 209.181 144.921C208.774 145.06 208.354 145.129 207.92 145.129Z" fill="#D86A69"/>
<path d="M212.055 136.523C212.099 136.107 212.324 135.899 212.731 135.899H213.108C213.351 135.899 213.52 135.968 213.615 136.107C213.711 136.237 213.724 136.415 213.654 136.64L212.77 139.357C212.666 139.643 212.484 139.786 212.224 139.786C211.947 139.786 211.821 139.608 211.847 139.253L212.055 136.523ZM214.915 136.523C214.959 136.107 215.184 135.899 215.591 135.899H215.968C216.211 135.899 216.38 135.968 216.475 136.107C216.571 136.237 216.579 136.415 216.501 136.64L215.617 139.357C215.513 139.643 215.331 139.786 215.071 139.786C214.794 139.786 214.668 139.604 214.694 139.24L214.915 136.523Z" fill="#D86A69"/>
<mask id="mask1" mask-type="alpha" maskUnits="userSpaceOnUse" x="135" y="23" width="182" height="327">
<path d="M289.556 23.4219H161.666C146.959 23.4395 135.04 35.597 135.022 50.5985V322.365C135.04 337.367 146.959 349.524 161.666 349.542H289.556C304.264 349.524 316.183 337.367 316.2 322.365V50.5985C316.183 35.597 304.264 23.4395 289.556 23.4219ZM305.543 322.365C305.543 331.371 298.385 338.671 289.556 338.671H161.666C152.837 338.671 145.68 331.371 145.68 322.365V316.93H305.543V322.365ZM305.543 306.059H145.68V66.9045H305.543V306.059ZM305.543 56.0339H145.68V50.5985C145.68 41.5929 152.837 34.2925 161.666 34.2925H289.556C298.385 34.2925 305.543 41.5929 305.543 50.5985V56.0339Z" fill="#45788E"/>
</mask>
<g mask="url(#mask1)">
<rect x="91.311" y="-4.82031" width="212.178" height="272.8" fill="#45788E"/>
</g>
</g>
<defs>
<linearGradient id="paint0_linear" x1="102.3" y1="102.643" x2="62" y2="112.287" gradientUnits="userSpaceOnUse">
<stop stop-color="#FFE4E2"/>
<stop offset="1" stop-color="#FFE4E2" stop-opacity="0.2"/>
</linearGradient>
</defs>
</svg>
