<svg width="345" height="217" viewBox="0 0 345 217" fill="none" xmlns="http://www.w3.org/2000/svg">
<path d="M151.18 211.059C148.506 211.059 146.427 213.851 146.961 216.999H251.296C251.89 213.851 249.751 211.059 247.077 211.059H151.18Z" fill="#45788E"/>
<path d="M225.747 160.387H175.957V211.06H225.747V160.387Z" fill="#316277"/>
<path d="M309.999 187.829H91.7045C88.4366 187.829 85.7629 185.155 85.7629 181.888V47.7492C85.7629 44.4819 88.4366 41.8086 91.7045 41.8086H310.058C313.326 41.8086 316 44.4819 316 47.7492V181.947C315.941 185.215 313.326 187.829 309.999 187.829Z" fill="#45788E"/>
<path d="M311.187 169.235V47.4531H90.5154V169.235H311.187Z" fill="#9BBCCB"/>
<path d="M295.026 56.6578C295.026 54.9944 293.719 53.6875 292.055 53.6875H111.074C109.411 53.6875 108.103 54.9944 108.103 56.6578V61.2915H295.026V56.6578Z" fill="#E1EFF4"/>
<path d="M108.103 61.2891V162.339C108.103 163.646 109.113 164.715 110.302 164.715H292.768C294.016 164.715 294.967 163.646 294.967 162.339V61.2891H108.103Z" fill="white"/>
<path d="M284.391 58.6175C283.856 58.6175 283.381 58.1422 283.381 57.6076C283.381 57.0729 283.856 56.5977 284.391 56.5977C284.925 56.5977 285.4 57.0729 285.4 57.6076C285.4 58.1422 284.925 58.6175 284.391 58.6175Z" fill="white"/>
<path d="M287.004 58.6175C286.47 58.6175 285.995 58.1422 285.995 57.6076C285.995 57.0729 286.47 56.5977 287.004 56.5977C287.539 56.5977 288.014 57.0729 288.014 57.6076C288.014 58.1422 287.598 58.6175 287.004 58.6175Z" fill="white"/>
<path d="M289.678 58.6175C289.143 58.6175 288.668 58.1422 288.668 57.6076C288.668 57.0729 289.143 56.5977 289.678 56.5977C290.212 56.5977 290.688 57.0729 290.688 57.6076C290.688 58.1422 290.212 58.6175 289.678 58.6175Z" fill="white"/>
<path d="M291.698 164.716V65.9241C291.698 65.2112 291.223 64.6172 290.629 64.6172C290.035 64.6172 289.56 65.2112 289.56 65.9241V164.716H291.698Z" fill="#E1EFF4"/>
<path d="M290.629 64.5586C290.035 64.5586 289.56 65.0338 289.56 65.6279V70.7368C289.56 71.3309 290.035 71.8061 290.629 71.8061C291.223 71.8061 291.698 71.3309 291.698 70.7368V65.6279C291.758 65.0338 291.223 64.5586 290.629 64.5586Z" fill="#AACFDF"/>
<path d="M155.22 71.4577C154.567 71.4577 154.032 71.1606 154.032 70.8636C154.032 70.5072 154.567 70.2695 155.22 70.2695C155.874 70.2695 156.408 70.5666 156.408 70.8636C156.408 71.1606 155.874 71.4577 155.22 71.4577Z" fill="#E1EFF4"/>
<path d="M155.22 74.6647C154.567 74.6647 154.032 74.3677 154.032 74.0706C154.032 73.7142 154.567 73.4766 155.22 73.4766C155.874 73.4766 156.408 73.7736 156.408 74.0706C156.408 74.3677 155.874 74.6647 155.22 74.6647Z" fill="#E1EFF4"/>
<path d="M155.22 77.8131C154.567 77.8131 154.032 77.5161 154.032 77.2191C154.032 76.8626 154.567 76.625 155.22 76.625C155.874 76.625 156.408 76.922 156.408 77.2191C156.408 77.5755 155.874 77.8131 155.22 77.8131Z" fill="#E1EFF4"/>
<path d="M155.22 81.0241C154.567 81.0241 154.032 80.727 154.032 80.43C154.032 80.0736 154.567 79.8359 155.22 79.8359C155.874 79.8359 156.408 80.133 156.408 80.43C156.408 80.727 155.874 81.0241 155.22 81.0241Z" fill="#E1EFF4"/>
<path d="M155.22 84.1725C154.567 84.1725 154.032 83.8755 154.032 83.5784C154.032 83.222 154.567 82.9844 155.22 82.9844C155.874 82.9844 156.408 83.2814 156.408 83.5784C156.408 83.9349 155.874 84.1725 155.22 84.1725Z" fill="#E1EFF4"/>
<path d="M155.22 87.3795C154.567 87.3795 154.032 87.0825 154.032 86.7855C154.032 86.429 154.567 86.1914 155.22 86.1914C155.874 86.1914 156.408 86.4884 156.408 86.7855C156.408 87.0825 155.874 87.3795 155.22 87.3795Z" fill="#E1EFF4"/>
<path d="M155.22 90.5866C154.567 90.5866 154.032 90.2895 154.032 89.9925C154.032 89.6361 154.567 89.3984 155.22 89.3984C155.874 89.3984 156.408 89.6955 156.408 89.9925C156.408 90.2895 155.874 90.5866 155.22 90.5866Z" fill="#E1EFF4"/>
<path d="M155.22 93.735C154.567 93.735 154.032 93.438 154.032 93.1409C154.032 92.7845 154.567 92.5469 155.22 92.5469C155.874 92.5469 156.408 92.8439 156.408 93.1409C156.408 93.4974 155.874 93.735 155.22 93.735Z" fill="#E1EFF4"/>
<path d="M155.22 96.942C154.567 96.942 154.032 96.645 154.032 96.348C154.032 95.9915 154.567 95.7539 155.22 95.7539C155.874 95.7539 156.408 96.0509 156.408 96.348C156.408 96.645 155.874 96.942 155.22 96.942Z" fill="#E1EFF4"/>
<path d="M155.22 100.09C154.567 100.09 154.032 99.7934 154.032 99.4964C154.032 99.14 154.567 98.9023 155.22 98.9023C155.874 98.9023 156.408 99.1994 156.408 99.4964C156.408 99.8528 155.874 100.09 155.22 100.09Z" fill="#E1EFF4"/>
<path d="M155.22 103.477C154.567 103.477 154.032 103.18 154.032 102.883C154.032 102.527 154.567 102.289 155.22 102.289C155.874 102.289 156.408 102.586 156.408 102.883C156.408 103.18 155.874 103.477 155.22 103.477Z" fill="#E1EFF4"/>
<path d="M155.22 106.626C154.567 106.626 154.032 106.329 154.032 106.032C154.032 105.675 154.567 105.438 155.22 105.438C155.874 105.438 156.408 105.735 156.408 106.032C156.408 106.388 155.874 106.626 155.22 106.626Z" fill="#E1EFF4"/>
<path d="M155.22 109.833C154.567 109.833 154.032 109.536 154.032 109.239C154.032 108.882 154.567 108.645 155.22 108.645C155.874 108.645 156.408 108.942 156.408 109.239C156.408 109.536 155.874 109.833 155.22 109.833Z" fill="#E1EFF4"/>
<path d="M155.22 113.044C154.567 113.044 154.032 112.747 154.032 112.45C154.032 112.093 154.567 111.855 155.22 111.855C155.874 111.855 156.408 112.152 156.408 112.45C156.408 112.747 155.874 113.044 155.22 113.044Z" fill="#E1EFF4"/>
<path d="M155.22 116.192C154.567 116.192 154.032 115.895 154.032 115.598C154.032 115.242 154.567 115.004 155.22 115.004C155.874 115.004 156.408 115.301 156.408 115.598C156.408 115.954 155.874 116.192 155.22 116.192Z" fill="#E1EFF4"/>
<path d="M155.22 119.399C154.567 119.399 154.032 119.102 154.032 118.805C154.032 118.449 154.567 118.211 155.22 118.211C155.874 118.211 156.408 118.508 156.408 118.805C156.408 119.102 155.874 119.399 155.22 119.399Z" fill="#E1EFF4"/>
<path d="M155.22 122.547C154.567 122.547 154.032 122.25 154.032 121.953C154.032 121.597 154.567 121.359 155.22 121.359C155.874 121.359 156.408 121.656 156.408 121.953C156.408 122.31 155.874 122.547 155.22 122.547Z" fill="#E1EFF4"/>
<path d="M155.22 125.751C154.567 125.751 154.032 125.454 154.032 125.157C154.032 124.8 154.567 124.562 155.22 124.562C155.874 124.562 156.408 124.86 156.408 125.157C156.408 125.454 155.874 125.751 155.22 125.751Z" fill="#E1EFF4"/>
<path d="M155.22 128.962C154.567 128.962 154.032 128.665 154.032 128.367C154.032 128.011 154.567 127.773 155.22 127.773C155.874 127.773 156.408 128.07 156.408 128.367C156.408 128.665 155.874 128.962 155.22 128.962Z" fill="#E1EFF4"/>
<path d="M155.22 132.11C154.567 132.11 154.032 131.813 154.032 131.516C154.032 131.159 154.567 130.922 155.22 130.922C155.874 130.922 156.408 131.219 156.408 131.516C156.408 131.872 155.874 132.11 155.22 132.11Z" fill="#E1EFF4"/>
<path d="M188.85 70.5039H166.094V72.0485H188.85V70.5039Z" fill="#E1EFF4"/>
<path d="M188.85 73.5352H166.094V75.0797H188.85V73.5352Z" fill="#E1EFF4"/>
<path d="M188.85 76.5039H166.094V78.0485H188.85V76.5039Z" fill="#E1EFF4"/>
<path d="M207.328 79.5352H166.094V81.0797H207.328V79.5352Z" fill="#E1EFF4"/>
<path d="M186.295 85.0586H176.372V86.6031H184.156C184.928 86.0685 185.641 85.5932 186.295 85.0586Z" fill="#E1EFF4"/>
<path d="M180.709 89.0966C181.184 88.7402 181.6 88.3838 182.075 88.0273H176.432V89.5719H180.234C180.353 89.3937 180.531 89.2749 180.709 89.0966Z" fill="#E1EFF4"/>
<path d="M266.209 87.9688H243.453V89.5133H266.209V87.9688Z" fill="#E1EFF4"/>
<path d="M178.808 91.0586H176.432V92.6031H177.561C177.917 92.0685 178.333 91.5338 178.808 91.0586Z" fill="#E1EFF4"/>
<path d="M249.276 70.5039H191.761V72.0485H249.276V70.5039Z" fill="#E1EFF4"/>
<path d="M234.897 73.5352H191.761V75.0797H234.897V73.5352Z" fill="#E1EFF4"/>
<path d="M266.982 73.4727H237.987V75.0172H266.982V73.4727Z" fill="#E1EFF4"/>
<path d="M276.251 76.5039H191.761V78.0485H276.251V76.5039Z" fill="#E1EFF4"/>
<path d="M269.893 79.5352H215.052V81.0797H269.893V79.5352Z" fill="#E1EFF4"/>
<path d="M208.814 85.0586C209.824 85.6527 210.834 86.1279 211.903 86.6031H276.073V85.0586H208.814Z" fill="#E1EFF4"/>
<path d="M214.933 88.0273C215.171 88.2056 215.468 88.3244 215.706 88.5026C216.181 88.7996 216.656 89.1561 217.072 89.5719H240.542V88.0273H214.933Z" fill="#E1EFF4"/>
<path d="M218.498 91.0586C218.914 91.5338 219.271 92.0685 219.627 92.6031H261.753V91.0586H218.498Z" fill="#E1EFF4"/>
<path d="M220.935 94.6836C221.232 95.2182 221.529 95.6935 221.826 96.2281H275.954V94.6836H220.935Z" fill="#E1EFF4"/>
<path d="M222.717 97.6523C223.014 98.1276 223.311 98.6622 223.608 99.1969H282.549V97.6523H222.717Z" fill="#E1EFF4"/>
<path d="M224.381 100.684C224.618 101.159 224.915 101.693 225.153 102.228H242.443V100.684H224.381Z" fill="#E1EFF4"/>
<path d="M282.311 100.684H245.77V102.228H282.311V100.684Z" fill="#E1EFF4"/>
<path d="M226.698 106.68C226.817 107.214 226.876 107.69 226.876 108.224H234.778V106.68H226.698Z" fill="#E1EFF4"/>
<path d="M282.549 106.625H238.165V108.17H282.549V106.625Z" fill="#E1EFF4"/>
<path d="M226.222 112.68V112.739C225.985 113.214 225.807 113.749 225.569 114.224H227.886V112.68H226.222Z" fill="#E1EFF4"/>
<path d="M224.678 115.891C224.44 116.366 224.202 116.901 223.965 117.435H246.959V115.891H224.678Z" fill="#E1EFF4"/>
<path d="M223.43 118.859C223.252 119.394 223.133 119.869 222.955 120.404H261.397V118.859H223.43Z" fill="#E1EFF4"/>
<path d="M280.232 124.859H271.2V126.404H280.232V124.859Z" fill="#E1EFF4"/>
<path d="M221.232 124.922C220.994 125.457 220.697 125.932 220.4 126.466H267.576V124.922H221.232Z" fill="#E1EFF4"/>
<path d="M275.062 127.891H219.865V129.435H275.062V127.891Z" fill="#E1EFF4"/>
<path d="M216.538 130.922C216.478 130.922 216.478 130.922 216.538 130.922C215.765 131.516 214.934 131.991 214.102 132.466H233.471V130.922H216.538Z" fill="#E1EFF4"/>
<path d="M145.417 70.5625H126.819V72.1071H145.417V70.5625Z" fill="#E1EFF4"/>
<path d="M145.417 73.5352H126.819V75.0797H145.417V73.5352Z" fill="#E1EFF4"/>
<path d="M145.417 79.5352H117.313V81.0797H145.417V79.5352Z" fill="#E1EFF4"/>
<path d="M139.297 85.0586H117.313V86.6031H139.297V85.0586Z" fill="#E1EFF4"/>
<path d="M123.908 70.5625H117.313V72.1071H123.908V70.5625Z" fill="#E1EFF4"/>
<path d="M123.908 73.5352H117.313V75.0797H123.908V73.5352Z" fill="#E1EFF4"/>
<path d="M126.76 94.7422H117.313V96.2867H126.76V94.7422Z" fill="#E1EFF4"/>
<path d="M126.76 97.7109H117.313V99.2555H126.76V97.7109Z" fill="#E1EFF4"/>
<path d="M139.178 106.742H117.313V108.287H139.178V106.742Z" fill="#E1EFF4"/>
<path d="M139.178 112.742H117.313V114.287H139.178V112.742Z" fill="#E1EFF4"/>
<path d="M125.512 115.949H117.313V117.494H125.512V115.949Z" fill="#E1EFF4"/>
<path d="M125.512 124.922H117.313V126.466H125.512V124.922Z" fill="#E1EFF4"/>
<path d="M125.512 130.922H117.313V132.466H125.512V130.922Z" fill="#E1EFF4"/>
<path d="M155.636 142.266C156.292 142.266 156.824 142 156.824 141.672C156.824 141.344 156.292 141.078 155.636 141.078C154.98 141.078 154.448 141.344 154.448 141.672C154.448 142 154.98 142.266 155.636 142.266Z" fill="#E1EFF4"/>
<path d="M155.636 145.415C154.983 145.415 154.448 145.118 154.448 144.821C154.448 144.464 154.983 144.227 155.636 144.227C156.29 144.227 156.824 144.524 156.824 144.821C156.824 145.177 156.29 145.415 155.636 145.415Z" fill="#E1EFF4"/>
<path d="M155.636 148.622C156.292 148.622 156.824 148.356 156.824 148.028C156.824 147.7 156.292 147.434 155.636 147.434C154.98 147.434 154.448 147.7 154.448 148.028C154.448 148.356 154.98 148.622 155.636 148.622Z" fill="#E1EFF4"/>
<path d="M155.636 151.77C156.292 151.77 156.824 151.504 156.824 151.176C156.824 150.848 156.292 150.582 155.636 150.582C154.98 150.582 154.448 150.848 154.448 151.176C154.448 151.504 154.98 151.77 155.636 151.77Z" fill="#E1EFF4"/>
<path d="M155.636 154.977C154.983 154.977 154.448 154.68 154.448 154.383C154.448 154.086 154.983 153.789 155.636 153.789C156.29 153.789 156.824 154.086 156.824 154.383C156.824 154.68 156.29 154.977 155.636 154.977Z" fill="#E1EFF4"/>
<path d="M155.636 158.188C156.292 158.188 156.824 157.922 156.824 157.594C156.824 157.266 156.292 157 155.636 157C154.98 157 154.448 157.266 154.448 157.594C154.448 157.922 154.98 158.188 155.636 158.188Z" fill="#E1EFF4"/>
<path d="M189.266 141.316H166.509V142.861H189.266V141.316Z" fill="#E1EFF4"/>
<path d="M189.266 144.344H166.509V145.888H189.266V144.344Z" fill="#E1EFF4"/>
<path d="M189.266 147.316H166.509V148.861H189.266V147.316Z" fill="#E1EFF4"/>
<path d="M207.744 150.348H166.509V151.892H207.744V150.348Z" fill="#E1EFF4"/>
<path d="M249.692 141.316H192.177V142.861H249.692V141.316Z" fill="#E1EFF4"/>
<path d="M235.313 144.344H192.177V145.888H235.313V144.344Z" fill="#E1EFF4"/>
<path d="M267.398 144.285H238.403V145.83H267.398V144.285Z" fill="#E1EFF4"/>
<path d="M276.667 147.316H192.177V148.861H276.667V147.316Z" fill="#E1EFF4"/>
<path d="M270.25 150.348H215.409V151.892H270.25V150.348Z" fill="#E1EFF4"/>
<path d="M145.833 141.375H127.235V142.92H145.833V141.375Z" fill="#E1EFF4"/>
<path d="M145.833 144.344H127.235V145.888H145.833V144.344Z" fill="#E1EFF4"/>
<path d="M145.773 150.348H117.669V151.892H145.773V150.348Z" fill="#E1EFF4"/>
<path d="M139.653 155.871H117.669V157.416H139.653V155.871Z" fill="#E1EFF4"/>
<path d="M124.265 141.375H117.669V142.92H124.265V141.375Z" fill="#E1EFF4"/>
<path d="M124.265 144.344H117.669V145.888H124.265V144.344Z" fill="#E1EFF4"/>
<path d="M133.652 93.0142C134.964 93.0142 136.028 91.9503 136.028 90.638C136.028 89.3256 134.964 88.2617 133.652 88.2617C132.34 88.2617 131.276 89.3256 131.276 90.638C131.276 91.9503 132.34 93.0142 133.652 93.0142Z" fill="#D75452"/>
<path d="M202.396 75.1926C202.396 76.4996 201.327 77.5689 200.02 77.5689C198.713 77.5689 197.643 76.4996 197.643 75.1926C197.643 73.8857 198.713 72.8164 200.02 72.8164C201.327 72.8758 202.396 73.8857 202.396 75.1926Z" fill="#D75452"/>
<path d="M142.564 144.877C142.564 145.768 141.851 146.481 140.96 146.481C140.069 146.481 139.356 145.768 139.356 144.877C139.356 143.986 140.069 143.273 140.96 143.273C141.851 143.273 142.564 143.986 142.564 144.877Z" fill="#D75452"/>
<path d="M120.105 71.4516C120.105 72.3427 119.392 73.0556 118.501 73.0556C117.61 73.0556 116.897 72.3427 116.897 71.4516C116.897 70.5605 117.61 69.8477 118.501 69.8477C119.333 69.8477 120.105 70.6199 120.105 71.4516Z" fill="#D75452"/>
<path d="M147.852 141.137C147.852 142.325 146.901 143.276 145.654 143.276C144.466 143.276 143.456 142.325 143.456 141.137C143.456 139.949 144.406 138.999 145.654 138.999C146.901 138.939 147.852 139.949 147.852 141.137Z" fill="#D75452"/>
<path d="M278.152 150.288C279.464 150.288 280.528 149.224 280.528 147.911C280.528 146.599 279.464 145.535 278.152 145.535C276.839 145.535 275.776 146.599 275.776 147.911C275.776 149.224 276.839 150.288 278.152 150.288Z" fill="#D75452"/>
<path d="M255.633 89.5141C255.633 90.4052 254.92 91.1181 254.029 91.1181C253.138 91.1181 252.425 90.4052 252.425 89.5141C252.425 88.623 253.138 87.9102 254.029 87.9102C254.861 87.9102 255.633 88.623 255.633 89.5141Z" fill="#D75452"/>
<path d="M186.473 151.115C186.473 151.768 185.938 152.362 185.225 152.362C184.512 152.362 183.978 151.828 183.978 151.115C183.978 150.461 184.512 149.867 185.225 149.867C185.879 149.867 186.473 150.402 186.473 151.115Z" fill="#D75452"/>
<path d="M277.914 74.3046C279.095 74.3046 280.053 73.3471 280.053 72.166C280.053 70.9848 279.095 70.0273 277.914 70.0273C276.733 70.0273 275.776 70.9848 275.776 72.166C275.776 73.3471 276.733 74.3046 277.914 74.3046Z" fill="#D75452"/>
<path d="M216.894 89.6925L217.785 89.5737L216.775 89.0391L216.894 89.6925Z" fill="#AACFDF"/>
<path d="M220.875 91.2337L220.518 90.9961L220.578 91.2337H220.875Z" fill="#AACFDF"/>
<path d="M220.518 91.0003L219.33 90.4062L217.013 90.7033L217.132 91.7132L220.577 91.2379L220.518 91.0003Z" fill="#AACFDF"/>
<path d="M219.33 90.404L220.518 90.998L220.221 90.2852L219.33 90.404Z" fill="#AACFDF"/>
<path d="M213.686 87.0195L213.092 87.1383L213.745 87.4354L213.686 87.0195Z" fill="#AACFDF"/>
<path d="M227.826 107.158L227.648 106.148L226.698 106.267L227.114 107.277L227.826 107.158Z" fill="#AACFDF"/>
<path d="M227.47 108.164L227.292 108.223V109.233L227.886 109.174L227.47 108.164Z" fill="#AACFDF"/>
<path d="M228.064 109.175L227.945 108.105L227.47 108.165L227.886 109.175H228.064Z" fill="#AACFDF"/>
<path d="M228.183 110.125L227.232 110.244L227.173 111.313L228.302 111.135L228.183 110.125Z" fill="#AACFDF"/>
<path d="M228.421 112.148L227.114 112.327L227.054 113.337L228.599 113.158L228.421 112.148Z" fill="#AACFDF"/>
<path d="M228.955 116.129L226.935 116.426L226.876 117.436L229.074 117.139L228.955 116.129Z" fill="#AACFDF"/>
<path d="M225.153 143.455L229.55 139.772L221.35 129.91L216.953 133.534L225.153 143.455Z" fill="#45788E"/>
<path d="M219.984 133.357C232.639 122.842 234.481 104.07 224.024 91.4755C213.567 78.8815 194.851 77.1587 182.136 87.6736C169.48 98.1884 167.638 116.961 178.095 129.555C188.553 142.149 207.328 143.872 219.984 133.357ZM181.066 126.228C172.57 115.476 174.412 99.7924 185.225 91.2379C187.245 89.634 189.503 88.3864 191.82 87.4953C201.743 83.6934 213.329 86.5448 220.221 95.2775C228.718 106.03 226.876 121.713 216.062 130.268C213.448 132.347 210.596 133.773 207.566 134.664C198.119 137.396 187.483 134.426 181.066 126.228Z" fill="#316277"/>
<path d="M267.576 182.662L264.962 184.979C262.407 187.237 258.485 186.999 256.227 184.444L223.965 148.147C221.053 144.88 221.35 139.89 224.618 136.979C227.886 134.128 232.936 134.425 235.848 137.633L268.111 173.989C270.368 176.543 270.131 180.405 267.576 182.662Z" fill="#316277"/>
<path d="M192.831 114.818V106.976C192.831 103.056 196.039 99.8477 199.96 99.8477H200.376C204.298 99.8477 207.506 103.056 207.506 106.976V114.818C207.506 118.739 204.298 121.947 200.376 121.947H199.96C196.039 121.947 192.831 118.739 192.831 114.818Z" fill="#D75452"/>
<path d="M200.138 102.64C198.713 102.64 197.584 101.511 197.584 100.145V98.6005C197.584 97.2342 198.713 96.1055 200.079 96.1055C201.505 96.1055 202.633 97.2342 202.633 98.6005V100.145C202.693 101.511 201.564 102.64 200.138 102.64Z" fill="#D75452"/>
<path d="M197.702 106.622C197.524 106.622 197.346 106.563 197.227 106.503L187.78 100.385C187.364 100.147 187.245 99.5528 187.542 99.137C187.839 98.7212 188.374 98.6023 188.79 98.8994L198.237 105.018C198.653 105.256 198.772 105.85 198.475 106.266C198.237 106.503 197.999 106.622 197.702 106.622Z" fill="#D75452"/>
<path d="M202.634 106.62C202.337 106.62 202.04 106.502 201.862 106.205C201.565 105.789 201.683 105.254 202.099 104.957L211.546 98.8382C211.962 98.6006 212.497 98.66 212.794 99.0758C213.091 99.4917 212.972 100.026 212.557 100.323L203.109 106.442C202.931 106.62 202.753 106.62 202.634 106.62Z" fill="#D75452"/>
<path d="M188.196 122.187C187.899 122.187 187.602 122.068 187.423 121.771C187.126 121.355 187.245 120.82 187.661 120.523L197.108 114.405C197.524 114.167 198.059 114.226 198.356 114.642C198.653 115.058 198.534 115.593 198.118 115.89L188.671 122.009C188.493 122.127 188.374 122.187 188.196 122.187Z" fill="#D75452"/>
<path d="M212.141 122.181C211.962 122.181 211.784 122.121 211.665 122.062L202.218 115.943C201.802 115.705 201.683 115.111 201.981 114.696C202.278 114.28 202.812 114.161 203.228 114.458L212.675 120.577C213.091 120.814 213.21 121.408 212.913 121.824C212.675 122.062 212.438 122.181 212.141 122.181Z" fill="#D75452"/>
<path d="M186.176 110.956C185.701 110.956 185.285 110.541 185.285 110.065C185.285 109.59 185.641 109.174 186.176 109.174L197.406 108.996C197.881 108.996 198.297 109.353 198.297 109.887C198.297 110.362 197.94 110.778 197.406 110.778L186.176 110.956Z" fill="#D75452"/>
<path d="M214.102 110.956L202.813 110.778C202.337 110.778 201.921 110.362 201.921 109.887C201.921 109.412 202.337 108.996 202.813 108.996L214.042 109.174C214.517 109.174 214.933 109.59 214.933 110.065C214.993 110.6 214.636 110.956 214.102 110.956Z" fill="#D75452"/>
<path d="M87.5056 87.4992C102.155 87.4992 114.031 75.6258 114.031 60.9781C114.031 46.3304 102.155 34.457 87.5056 34.457C72.8567 34.457 60.9806 46.3304 60.9806 60.9781C60.9806 75.6258 72.8567 87.4992 87.5056 87.4992Z" fill="#E1EFF4" stroke="#316277" stroke-width="6"/>
<g clip-path="url(#clip0)">
<path d="M91.0455 62.702C91.5504 60.7369 90.3714 58.7331 88.4121 58.2265C86.4527 57.7199 84.4551 58.9023 83.9501 60.8675C83.4452 62.8327 84.6242 64.8365 86.5836 65.343C88.5429 65.8496 90.5405 64.6672 91.0455 62.702Z" fill="#285C72"/>
<path d="M87.5196 75.7885C84.3316 75.7885 81.8427 69.6459 81.8427 61.7923C81.8427 53.9388 84.3316 47.8242 87.5196 47.8242C90.7077 47.8242 93.1966 53.9668 93.1966 61.8204C93.1966 69.6739 90.6797 75.7885 87.5196 75.7885ZM87.5196 48.6937C85.1985 48.6937 82.7375 53.9668 82.7375 61.7923C82.7375 69.6178 85.1985 74.8909 87.5196 74.8909C89.8408 74.8909 92.3017 69.6178 92.3017 61.7923C92.3017 53.9668 89.8128 48.6937 87.5196 48.6937Z" fill="white"/>
<path d="M79.9124 72.5052C78.9616 72.5052 78.1786 72.2528 77.6473 71.6918C75.41 69.4479 77.9828 63.3334 83.492 57.7798C86.0928 55.1713 88.9173 53.1237 91.4622 52.0018C94.1468 50.8238 96.2442 50.7677 97.3629 51.9177C99.6001 54.1615 97.0273 60.2761 91.5181 65.8297C87.3233 70.0089 82.8488 72.5052 79.9124 72.5052ZM95.0697 51.9738C94.1748 51.9738 93.0842 52.2542 91.8257 52.8152C89.3648 53.9091 86.6521 55.9005 84.1352 58.3968C78.5981 63.9504 76.6405 69.4199 78.2625 71.0747C79.8845 72.7015 85.3657 70.7381 90.8749 65.2126C96.412 59.659 98.3696 54.1896 96.7197 52.5628C96.3561 52.1701 95.7968 51.9738 95.0697 51.9738Z" fill="white"/>
<path d="M87.5196 67.4853C79.6893 67.4853 73.5649 64.989 73.5649 61.7915C73.5649 58.594 79.6893 56.0977 87.5196 56.0977C95.3499 56.0977 101.474 58.594 101.474 61.7915C101.474 64.989 95.322 67.4853 87.5196 67.4853ZM87.5196 56.9952C79.7173 56.9952 74.4598 59.4635 74.4598 61.7915C74.4598 64.1195 79.7173 66.5878 87.5196 66.5878C95.322 66.5878 100.579 64.1195 100.579 61.7915C100.579 59.4635 95.322 56.9952 87.5196 56.9952Z" fill="white"/>
<path d="M95.0698 72.5058C94.063 72.5058 92.8325 72.1972 91.4622 71.5802C88.9174 70.4582 86.0929 68.4107 83.4921 65.8022C77.9549 60.2486 75.3821 54.1621 77.6473 51.8902C79.8846 49.6463 85.981 52.2268 91.5182 57.7523C97.0274 63.3339 99.6002 69.4485 97.3629 71.6924C96.8036 72.2533 96.0486 72.5058 95.0698 72.5058ZM79.9405 51.9743C79.2134 51.9743 78.6541 52.1707 78.2626 52.5353C76.6406 54.1902 78.5982 59.6596 84.1073 65.1851C86.6242 67.7095 89.3648 69.7009 91.7978 70.7668C94.091 71.7765 95.8808 71.8887 96.7197 71.0472C98.3417 69.4204 96.3841 63.923 90.875 58.3974C86.6242 54.1341 82.4014 51.9743 79.9405 51.9743Z" fill="white"/>
<path d="M88.427 50.1603C89.4717 49.6587 89.9132 48.4026 89.4132 47.3546C88.9133 46.3067 87.6611 45.8637 86.6164 46.3653C85.5717 46.8669 85.1302 48.123 85.6302 49.1709C86.1301 50.2189 87.3823 50.6618 88.427 50.1603Z" fill="#317A9A"/>
<path d="M77.759 73.6526C78.9171 73.6526 79.856 72.7107 79.856 71.5489C79.856 70.3871 78.9171 69.4453 77.759 69.4453C76.6008 69.4453 75.6619 70.3871 75.6619 71.5489C75.6619 72.7107 76.6008 73.6526 77.759 73.6526Z" fill="#E8505B"/>
<path d="M97.1393 73.6526C98.2975 73.6526 99.2364 72.7107 99.2364 71.5489C99.2364 70.3871 98.2975 69.4453 97.1393 69.4453C95.9812 69.4453 95.0423 70.3871 95.0423 71.5489C95.0423 72.7107 95.9812 73.6526 97.1393 73.6526Z" fill="#A1000C"/>
</g>
<path d="M104.06 39.7345L123.833 19.9648" stroke="#316277" stroke-width="2"/>
<path d="M121.538 12.0169C121.538 18.1012 126.471 23.0338 132.557 23.0338C138.642 23.0338 143.576 18.1012 143.576 12.0169C143.576 5.93258 138.642 1 132.557 1C126.471 1 121.538 5.93258 121.538 12.0169Z" stroke="#316277" stroke-width="2"/>
<path d="M137.803 15.4099C137.6 15.8665 137.359 16.2867 137.08 16.6731C136.7 17.1998 136.389 17.5643 136.149 17.7668C135.777 18.0991 135.379 18.2693 134.952 18.279C134.646 18.279 134.277 18.1943 133.847 18.0225C133.415 17.8515 133.019 17.7668 132.656 17.7668C132.276 17.7668 131.868 17.8515 131.432 18.0225C130.996 18.1943 130.644 18.2838 130.375 18.2927C129.966 18.3096 129.558 18.1346 129.151 17.7668C128.891 17.5466 128.566 17.1691 128.177 16.6343C127.759 16.0633 127.416 15.4011 127.147 14.6461C126.858 13.8306 126.714 13.041 126.714 12.2765C126.714 11.4007 126.909 10.6454 127.299 10.0125C127.605 9.50411 128.013 9.10307 128.523 8.80866C129.034 8.51425 129.585 8.36422 130.179 8.35463C130.504 8.35463 130.93 8.45231 131.46 8.64428C131.988 8.83689 132.327 8.93457 132.476 8.93457C132.587 8.93457 132.964 8.82035 133.602 8.59265C134.206 8.38149 134.716 8.29405 135.133 8.32849C136.265 8.41722 137.115 8.8506 137.68 9.63139C136.668 10.2271 136.167 11.0616 136.177 12.132C136.187 12.9658 136.498 13.6596 137.11 14.2105C137.387 14.4662 137.696 14.6638 138.041 14.8042C137.966 15.0147 137.887 15.2163 137.803 15.4099ZM135.209 5.48798C135.209 6.14149 134.963 6.75168 134.473 7.31646C133.882 7.98787 133.167 8.37584 132.392 8.31462C132.382 8.23622 132.377 8.1537 132.377 8.06699C132.377 7.43962 132.658 6.76821 133.157 6.21924C133.406 5.94129 133.723 5.71018 134.107 5.52581C134.491 5.3442 134.853 5.24376 135.195 5.22656C135.205 5.31393 135.209 5.4013 135.209 5.48797V5.48798Z" fill="#D75452"/>
<path d="M70.5153 39.7345L50.7422 19.9648" stroke="#316277" stroke-width="2"/>
<path d="M53.0378 12.0169C53.0378 18.1012 48.1046 23.0338 42.0189 23.0338C35.9332 23.0338 31 18.1012 31 12.0169C31 5.93258 35.9332 1 42.0189 1C48.1046 1 53.0378 5.93258 53.0378 12.0169Z" stroke="#316277" stroke-width="2"/>
<path d="M46.0891 13.8329C47.6169 12.9941 48.7852 12.355 48.8851 12.305C49.2046 12.1353 49.5342 11.6859 48.8851 11.3364C48.6754 11.2266 47.547 10.6075 46.0891 9.80859L44.0819 11.8257L46.0891 13.8329Z" fill="#C45E5D"/>
<path d="M44.0819 11.8203L37.6699 18.2811C37.8197 18.3011 37.9895 18.2612 38.1893 18.1513C38.6087 17.9216 43.0632 15.4851 46.0894 13.8275L44.0819 11.8203Z" fill="#C73D3B"/>
<path d="M44.0818 11.8226L46.0893 9.80545C46.0893 9.80545 38.6386 5.74123 38.1892 5.50157C38.0194 5.40171 37.8296 5.37175 37.6599 5.40171L44.0818 11.8226Z" fill="#EE8E8D"/>
<path d="M44.0819 11.8232L37.6599 5.40234C37.4003 5.46226 37.1805 5.69193 37.1805 6.16127C37.1805 6.9102 37.1805 16.896 37.1805 17.5251C37.1805 17.9545 37.3503 18.2641 37.6699 18.294L44.0819 11.8232Z" fill="#D75452"/>
<defs>
<clipPath id="clip0">
<rect width="27.8815" height="29.6191" fill="white" transform="translate(73.5649 46.168)"/>
</clipPath>
</defs>
</svg>
