<svg width="345" height="218" viewBox="0 0 345 218" fill="none" xmlns="http://www.w3.org/2000/svg">
<path d="M174.977 154.969H172.775L193.14 83.8281H200.295L174.977 154.969Z" fill="#316277"/>
<path d="M225.612 154.969H227.814L207.45 83.8281H200.295L225.612 154.969Z" fill="#316277"/>
<path d="M235.795 18.75H164.519V90.9935H235.795V18.75Z" fill="#E9F0F0"/>
<path d="M238.822 15.9883H161.767V18.7457H238.822V15.9883Z" fill="#487A8F"/>
<path d="M238.822 90.9844H161.767V93.7418H238.822V90.9844Z" fill="#487A8F"/>
<path d="M194.241 31.7109H174.977V37.7772H194.241V31.7109Z" fill="#316277"/>
<path d="M193.415 30.332V39.4314L199.744 34.7439L193.415 30.332Z" fill="#316277"/>
<path d="M210.477 41.3633H174.977V47.4295H210.477V41.3633Z" fill="#D75452"/>
<path d="M209.651 39.9883V49.0877L216.256 44.4001L209.651 39.9883Z" fill="#D75452"/>
<path d="M198.919 51.0195H174.977V57.0858H198.919V51.0195Z" fill="#B4D1D7"/>
<path d="M198.093 49.6406V58.74L204.423 54.0524L198.093 49.6406Z" fill="#B4D1D7"/>
<path d="M215.431 60.6719H174.977V66.7381H215.431V60.6719Z" fill="#316277"/>
<path d="M214.605 59.293V68.3923L220.934 63.7048L214.605 59.293Z" fill="#316277"/>
<path d="M190.113 70.3242H174.977V76.3905H190.113V70.3242Z" fill="#004A6E"/>
<path d="M189.287 68.9453V78.0447L195.616 73.3571L189.287 68.9453Z" fill="#004A6E"/>
<path d="M203.322 36.6814H201.671L201.12 38.06H200.019L201.946 32.2695H202.771L204.698 38.06H203.597L203.322 36.6814ZM201.671 35.5784H202.771L202.221 34.1997L201.946 33.3725L201.671 34.1997V35.5784Z" fill="#316277"/>
<path d="M221.76 43.2882C221.76 43.2882 221.76 43.5639 221.76 43.8396C221.76 44.1154 221.76 44.1154 221.485 44.1154L221.21 44.3911C221.21 44.3911 220.934 44.6669 220.659 44.6669C220.934 44.6669 220.934 44.6668 221.21 44.9426C221.485 44.9426 221.485 45.2183 221.485 45.2183C221.485 45.2183 221.76 45.4941 221.76 45.7698C221.76 46.0455 221.76 46.0455 221.76 46.3213C221.76 46.597 221.76 46.8728 221.485 47.1485C221.485 47.4242 221.21 47.4242 220.934 47.7C220.659 47.7 220.384 47.9757 220.109 47.9757C219.834 47.9757 219.558 47.9757 219.283 47.9757H219.008C218.733 47.9757 218.733 47.9757 218.458 47.9757C218.183 47.9757 218.183 47.9757 217.907 47.9757C217.632 47.9757 217.632 47.9757 217.357 47.9757V42.4609H217.632C217.632 42.4609 217.907 42.4609 218.183 42.4609C218.458 42.4609 218.458 42.4609 218.733 42.4609C219.008 42.4609 219.008 42.4609 219.283 42.4609C219.558 42.4609 219.834 42.4609 220.109 42.4609C220.384 42.4609 220.659 42.4609 220.659 42.7367C220.934 42.7367 220.934 43.0124 221.21 43.2882C221.485 42.7367 221.76 43.0124 221.76 43.2882ZM219.283 44.3911C219.558 44.3911 219.834 44.3911 219.834 44.3911C220.109 44.3911 220.109 44.1154 220.384 44.1154C220.659 44.1154 220.659 43.8396 220.659 43.5639C220.659 43.2882 220.659 43.2882 220.659 43.2882C220.659 43.2882 220.659 43.0124 220.384 43.0124H220.109H219.834H219.558H219.283V44.3911ZM219.558 46.8728H219.834C219.834 46.8728 220.109 46.8728 220.109 46.597L220.384 46.3213V46.0455C220.384 45.7698 220.384 45.7698 220.384 45.4941L220.109 45.2183H219.834C219.558 45.2183 219.558 45.2183 219.283 45.2183H218.733V46.8728C218.733 46.8728 218.733 46.8728 219.008 46.8728C219.283 46.8728 219.283 46.8728 219.558 46.8728Z" fill="#D75452"/>
<path d="M210.202 57.0757C209.927 57.0757 209.927 57.3514 209.651 57.3514C209.376 57.3514 209.101 57.3514 208.826 57.3514C208.551 57.3514 208.275 57.3514 207.725 57.0757C207.45 57.0757 207.175 56.7999 206.899 56.5242C206.624 56.2485 206.349 55.9727 206.349 55.697C206.074 55.4212 206.074 54.8698 206.074 54.3183C206.074 53.7668 206.074 53.2153 206.349 52.9396C206.624 52.6639 206.624 52.3881 206.899 52.1124C207.175 51.8366 207.45 51.8366 207.725 51.5609C208 51.5609 208.275 51.2852 208.551 51.2852C208.826 51.2852 209.101 51.2852 209.376 51.2852C209.651 51.2852 209.927 51.2852 209.927 51.5609L209.651 52.3881C209.651 52.3881 209.376 52.3881 209.101 52.3881C208.826 52.3881 208.826 52.3881 208.551 52.3881C208 52.3881 207.725 52.6639 207.45 52.9396C207.175 53.2153 207.175 53.7668 207.175 54.3183C207.175 54.594 207.175 54.8698 207.175 55.1455C207.175 55.4212 207.45 55.697 207.45 55.697C207.45 55.9727 207.725 55.9727 208 55.9727C208.275 55.9727 208.551 56.2485 208.551 56.2485C208.826 56.2485 209.101 56.2485 209.101 56.2485C209.376 56.2485 209.376 56.2485 209.651 55.9727L210.202 57.0757Z" fill="#B4D1D7"/>
<path d="M222.31 61.2188H222.585C222.86 61.2188 222.86 61.2188 223.136 61.2188C223.411 61.2188 223.411 61.2188 223.686 61.2188C223.961 61.2188 223.961 61.2188 223.961 61.2188C224.511 61.2188 224.787 61.2187 225.337 61.4945C225.612 61.7702 225.887 61.7702 226.163 62.046C226.438 62.3217 226.438 62.5974 226.713 62.8732C226.713 63.1489 226.988 63.7004 226.988 63.9761C226.988 64.2519 226.988 64.8034 226.713 65.0791C226.713 65.3548 226.438 65.6306 226.163 65.9063C225.887 66.182 225.612 66.4578 225.337 66.4578C225.062 66.7335 224.511 66.7335 223.961 66.7335H223.686C223.411 66.7335 223.411 66.7335 223.136 66.7335C222.86 66.7335 222.86 66.7335 222.585 66.7335C222.31 66.7335 222.31 66.7335 222.31 66.7335V61.2188ZM223.961 62.046H223.686H223.411V65.9063C223.411 65.9063 223.411 65.9063 223.686 65.9063C223.686 65.9063 223.686 65.9063 223.961 65.9063C224.236 65.9063 224.511 65.9063 224.787 65.6306C225.062 65.6306 225.062 65.3548 225.337 65.0791C225.337 64.8034 225.612 64.8034 225.612 64.5276C225.612 64.2519 225.612 63.9761 225.612 63.7004C225.612 63.4247 225.612 63.1489 225.612 63.1489C225.612 62.8732 225.612 62.5974 225.337 62.5974C225.337 62.3217 225.062 62.3217 224.787 62.046C224.511 62.046 224.236 62.046 223.961 62.046Z" fill="#316277"/>
<path d="M196.993 70.875H200.295V71.7022H198.093V73.0809H200.02V74.1839H198.093V75.5626H200.295V76.6655H196.993V70.875Z" fill="#004A6E"/>
<path d="M175.252 28.1484H174.702V83.8477H175.252V28.1484Z" fill="#316277"/>
<path d="M174.427 28.4192L174.977 25.9375L175.803 28.4192H174.427Z" fill="#316277"/>
<path d="M227.815 80.793H172.225V81.3444H227.815V80.793Z" fill="#316277"/>
<path d="M227.539 80.2344L230.016 81.0616L227.539 81.6131V80.2344Z" fill="#316277"/>
<path d="M178.279 81.0742H177.729V83.0044H178.279V81.0742Z" fill="#316277"/>
<path d="M175.252 81.0742H174.702V83.8316H175.252V81.0742Z" fill="#316277"/>
<path d="M178.279 81.0742H177.729V83.0044H178.279V81.0742Z" fill="#316277"/>
<path d="M181.306 81.0742H180.756V83.0044H181.306V81.0742Z" fill="#316277"/>
<path d="M184.334 81.0742H183.783V83.0044H184.334V81.0742Z" fill="#316277"/>
<path d="M187.361 81.0742H186.811V83.0044H187.361V81.0742Z" fill="#316277"/>
<path d="M190.388 81.0742H189.838V83.0044H190.388V81.0742Z" fill="#316277"/>
<path d="M193.415 81.0742H192.865V83.0044H193.415V81.0742Z" fill="#316277"/>
<path d="M196.442 81.0742H195.892V83.0044H196.442V81.0742Z" fill="#316277"/>
<path d="M199.469 81.0742H198.919V83.0044H199.469V81.0742Z" fill="#316277"/>
<path d="M202.496 81.0742H201.946V83.0044H202.496V81.0742Z" fill="#316277"/>
<path d="M205.524 81.0742H204.973V83.0044H205.524V81.0742Z" fill="#316277"/>
<path d="M208.551 81.0742H208V83.0044H208.551V81.0742Z" fill="#316277"/>
<path d="M211.578 81.0742H211.027V83.0044H211.578V81.0742Z" fill="#316277"/>
<path d="M214.605 81.0742H214.054V83.0044H214.605V81.0742Z" fill="#316277"/>
<path d="M217.632 81.0742H217.082V83.0044H217.632V81.0742Z" fill="#316277"/>
<path d="M220.659 81.0742H220.109V83.0044H220.659V81.0742Z" fill="#316277"/>
<path d="M223.686 81.0742H223.136V83.0044H223.686V81.0742Z" fill="#316277"/>
<path d="M175.252 77.7617H173.326V78.3132H175.252V77.7617Z" fill="#316277"/>
<path d="M175.252 77.7617H173.326V78.3132H175.252V77.7617Z" fill="#316277"/>
<path d="M175.252 74.7266H173.326V75.278H175.252V74.7266Z" fill="#316277"/>
<path d="M175.252 71.7031H173.326V72.2546H175.252V71.7031Z" fill="#316277"/>
<path d="M175.252 68.6562H173.326V69.2077H175.252V68.6562Z" fill="#316277"/>
<path d="M175.252 65.625H173.326V66.1765H175.252V65.625Z" fill="#316277"/>
<path d="M175.252 62.5977H173.326V63.1491H175.252V62.5977Z" fill="#316277"/>
<path d="M175.252 59.5586H173.326V60.1101H175.252V59.5586Z" fill="#316277"/>
<path d="M175.252 56.5391H173.326V57.0905H175.252V56.5391Z" fill="#316277"/>
<path d="M175.252 53.4961H173.326V54.0476H175.252V53.4961Z" fill="#316277"/>
<path d="M175.252 50.4688H173.326V51.0202H175.252V50.4688Z" fill="#316277"/>
<path d="M175.252 47.4336H173.326V47.9851H175.252V47.4336Z" fill="#316277"/>
<path d="M175.252 44.4062H173.326V44.9577H175.252V44.4062Z" fill="#316277"/>
<path d="M175.252 41.3711H173.326V41.9226H175.252V41.3711Z" fill="#316277"/>
<path d="M175.252 38.3438H173.326V38.8952H175.252V38.3438Z" fill="#316277"/>
<path d="M175.252 35.3008H173.326V35.8523H175.252V35.3008Z" fill="#316277"/>
<path d="M175.252 32.2773H173.326V32.8288H175.252V32.2773Z" fill="#316277"/>
<path d="M138.927 20.1328C138.927 20.1328 138.927 23.9932 140.027 25.0961C140.027 25.0961 138.927 29.2322 135.624 29.2322V20.6843L138.927 20.1328Z" fill="#AACFDF"/>
<path d="M132.597 20.1328C132.597 20.1328 132.597 23.9932 131.496 25.0961C131.496 25.0961 132.597 29.2322 135.899 29.2322V20.6843L132.597 20.1328Z" fill="#AACFDF"/>
<path d="M136.45 24.8142C134.799 24.8142 133.423 23.4355 132.597 22.3325C132.872 21.2296 132.872 20.4023 132.872 20.4023L135.899 20.9538L138.927 20.4023C138.927 20.4023 138.927 22.3325 139.477 23.7112C138.376 24.2627 137.551 24.8142 136.45 24.8142Z" fill="#7DA8BB"/>
<path d="M149.934 157.718C149.934 157.718 152.962 161.578 154.338 163.232C155.713 164.887 153.787 169.023 149.934 166.817C146.082 164.611 144.155 162.681 143.33 162.405C142.504 162.129 141.954 160.475 142.229 155.512L149.934 157.718Z" fill="#377C9A"/>
<path d="M148.833 86.9834L150.76 157.724H140.302L136.725 96.0383C136.725 96.0383 136.725 92.9256 135.899 92.3597V85.8516L148.833 86.9834Z" fill="#003B5E"/>
<path d="M121.589 157.718C121.589 157.718 118.562 161.578 117.186 163.232C115.81 164.887 117.737 169.023 121.589 166.817C125.442 164.611 127.368 162.681 128.194 162.405C129.02 162.129 129.57 160.475 129.295 155.512L121.589 157.718Z" fill="#377C9A"/>
<path d="M122.69 86.9834L120.764 157.724H131.221L134.798 96.0383C134.798 96.0383 135.074 92.6427 135.624 92.3597V85.8516L122.69 86.9834Z" fill="#003B5E"/>
<path d="M143.33 26.1914C144.981 27.2944 151.585 30.3275 152.136 33.6364C152.411 36.9452 150.209 49.9049 149.934 58.1771C149.659 66.4493 150.209 88.5084 150.209 88.5084H135.899V29.2245L143.33 26.1914Z" fill="#004A6E"/>
<path d="M128.194 26.1914C126.543 27.2944 119.938 30.3275 119.663 33.6364C119.388 36.9452 121.589 49.9049 121.865 58.1771C122.14 66.4493 121.589 88.5084 121.589 88.5084H135.899V29.2245L128.194 26.1914Z" fill="#004A6E"/>
<path d="M143.88 26.7475L135.899 47.4279V29.2291L142.229 25.6445L143.88 26.7475Z" fill="#B4D1D7"/>
<path d="M127.368 26.7475L135.899 47.4279V29.2291L129.02 25.6445L127.368 26.7475Z" fill="#B4D1D7"/>
<path d="M135.624 23.4391C132.872 23.4391 130.395 20.1302 129.57 15.9941C129.57 15.9941 129.019 16.2699 128.469 15.7184C127.919 15.1669 127.368 13.5125 127.919 12.6852C128.744 11.3066 129.57 12.1338 129.57 12.1338C129.57 12.1338 129.56 5.36328 135.614 5.36328L136.539 23.4391H135.624Z" fill="#AACFDF"/>
<path d="M135.614 23.2535C138.366 23.2535 142.043 20.1353 142.868 15.9992C142.868 15.9992 143.419 16.2749 143.969 15.7235C144.52 15.172 145.07 13.5176 144.52 12.6903C143.694 11.3116 142.593 12.1389 142.593 12.1389C142.593 12.1389 141.678 5.79688 135.624 5.79688L135.614 23.2535Z" fill="#AACFDF"/>
<path d="M127.919 6.06625C128.194 2.75739 129.846 0 135.625 0C141.404 0 143.055 2.75739 143.33 6.06625C143.88 9.09938 143.055 12.1325 143.055 12.1325C141.954 11.8568 141.404 13.2355 141.404 13.2355C141.679 10.4781 139.753 6.34199 139.202 6.89347C138.377 7.44495 136.725 7.99642 135.9 7.99642C135.074 7.99642 133.423 7.44495 132.598 6.89347C131.772 6.34199 129.846 10.4781 130.396 13.2355C130.396 13.2355 129.846 11.8568 128.745 12.1325C128.47 12.1325 127.644 9.09938 127.919 6.06625Z" fill="#377C9A"/>
<path d="M135.624 29.2266L140.027 24.5391L143.33 26.1935L139.202 32.5355L135.624 29.2266Z" fill="#D8E9ED"/>
<path d="M135.624 29.2266L131.496 24.5391L128.194 26.1935L132.046 32.5355L135.624 29.2266Z" fill="#D8E9ED"/>
<path d="M116.636 43.0105C116.636 42.7348 116.636 42.1833 116.636 41.9075C116.361 35.0141 122.14 30.0508 122.14 30.0508L120.764 43.0105H116.636Z" fill="#004A6E"/>
<path d="M149.384 30.0508C149.384 30.0508 153.787 32.5324 154.337 39.7016C154.888 46.5951 147.733 49.3525 147.733 49.3525L149.384 30.0508Z" fill="#004A6E"/>
<path d="M173.051 56.5223C174.427 55.6951 176.078 54.3164 177.454 54.3164C178.83 54.3164 183.233 53.4892 183.508 54.8679C184.058 56.2466 182.958 59.5555 181.582 59.8312C180.206 60.1069 177.178 60.9342 176.078 60.3827C174.977 59.8312 173.051 59.5555 173.051 59.5555V56.5223Z" fill="#AACFDF"/>
<path d="M147.733 46.331C150.209 52.9488 155.163 64.5298 157.089 65.357C159.016 66.1842 174.702 61.2209 174.702 61.2209L173.326 55.4304L160.667 57.3606L152.961 34.75L147.733 46.331Z" fill="#004A6E"/>
<path d="M121.864 74.7266V76.6567L124.616 78.5869L126.268 77.4839L121.864 74.7266Z" fill="#003B5E"/>
<path d="M179.655 56.5269L190.663 54.8725C190.938 54.8725 191.213 54.5967 191.213 54.321C191.213 54.0453 190.938 53.7695 190.387 53.7695L179.38 55.424C179.105 55.424 178.829 55.6997 178.829 55.9754C179.105 56.2512 179.38 56.5269 179.655 56.5269Z" fill="#316277"/>
<path d="M121.865 63.1464V60.1133L130.671 73.9002L127.919 75.8304L121.865 63.1464Z" fill="#003B5E"/>
<path d="M180.206 56.5296C181.306 56.5296 182.682 55.4266 182.682 54.0479C182.682 52.6692 179.38 55.4266 178.83 55.7024C178.279 55.9781 177.454 57.3568 177.454 57.3568L180.206 56.5296Z" fill="#AACFDF"/>
<path d="M125.167 27.8594C125.167 27.8594 117.737 30.0653 114.709 42.1978C113.058 48.8155 109.756 58.1906 109.756 62.051C109.756 65.9113 125.442 78.0438 125.442 78.0438L129.845 73.9077L119.388 60.3965L122.14 52.4001L125.167 27.8594Z" fill="#004A6E"/>
<path d="M141.251 71.8577L139.71 73.4336L146.788 80.3792L148.328 78.8033L141.251 71.8577Z" fill="#00253B"/>
<path d="M124.891 80.2354L123.516 78.581L130.395 71.6875L132.047 73.3419L124.891 80.2354Z" fill="#00253B"/>
<path d="M259.186 100.643C259.186 100.643 260.837 97.0584 263.314 93.1981C265.791 89.3378 265.516 85.7532 263.589 83.5472C261.663 81.3413 257.26 78.3082 253.957 78.584C250.655 78.8597 248.729 84.0987 247.628 86.8561C246.527 89.6135 247.078 92.3709 247.078 92.3709V96.2312C247.078 96.2312 249.004 97.8857 250.105 99.8158C250.38 100.367 250.105 101.195 250.38 101.746C250.655 102.297 250.93 102.297 251.205 102.573C251.481 103.952 250.655 105.055 250.655 105.055L259.186 100.643Z" fill="#AACFDF"/>
<path d="M247.077 96.2398V95.964L249.554 93.7581C250.104 94.3096 251.205 94.5854 252.031 94.0339L261.112 85.7617C261.938 90.1735 259.736 95.1368 259.461 96.2398C259.186 97.3427 259.736 99.8244 260.562 102.582C257.81 103.409 255.333 103.96 252.581 104.236C253.132 102.306 253.957 98.4457 249.554 99.2729C245.701 99.8244 245.701 98.4457 245.977 97.3427C246.802 96.5155 247.077 96.7913 247.077 96.2398Z" fill="#AACFDF"/>
<path d="M251.206 80.5078C250.655 81.0593 247.353 81.8865 246.252 85.1954C245.702 86.8498 245.702 86.8498 245.977 87.4013C246.252 88.5042 245.427 89.6072 244.876 90.1587C244.051 90.9859 243.225 91.5374 244.326 92.3646C245.702 93.1918 244.876 93.4675 244.601 94.019C244.326 93.7433 244.876 94.2947 244.876 94.5705C244.876 94.5705 244.326 95.122 244.601 95.6734C244.876 96.2249 245.427 96.2249 245.427 96.5007C245.427 96.7764 244.876 98.4308 245.427 98.9823C245.977 99.5338 247.903 99.258 249.004 99.258C249.83 99.258 250.931 99.258 251.756 100.085C254.508 103.118 253.958 104.221 253.958 104.221C253.958 104.221 256.159 104.497 258.911 102.567C259.462 102.015 257.81 103.118 257.535 101.74C257.26 99.5338 264.415 89.8829 260.838 89.3315C260.562 89.3315 253.132 85.7468 253.132 85.7468L251.206 80.5078Z" fill="#AACFDF"/>
<path d="M266.891 85.743C265.791 81.6069 264.139 77.4708 259.461 76.9194C254.783 76.3679 249.554 77.7466 249.279 75.8164C249.279 75.8164 246.802 79.9525 248.178 82.4341C248.729 81.6069 253.957 89.6033 254.783 90.7063C255.608 91.8093 255.058 88.5004 256.984 88.7761C258.636 89.0519 259.461 92.6365 258.911 94.2909C258.36 95.3939 260.011 98.1512 260.011 98.1512L259.461 99.2542L262.213 96.4968C262.488 96.4968 267.992 89.8791 266.891 85.743Z" fill="#377C9A"/>
<path d="M249.279 99.2707C248.178 99.2707 246.252 99.5465 245.702 98.995C245.427 98.7192 245.427 98.1678 245.427 97.892C245.427 97.892 250.655 98.4435 252.306 97.0648C254.233 95.1346 253.958 92.3772 255.334 88.5169C256.434 84.3808 255.334 91.2743 255.334 91.2743C255.334 91.2743 254.783 99.2707 250.655 99.5464C250.105 98.995 249.83 98.995 249.279 99.2707Z" fill="#377C9A"/>
<path d="M269.093 151.376C269.093 151.376 268.267 124.078 268.267 121.044C268.267 118.011 267.442 104.5 261.663 102.294L260.012 99.8125L250.93 103.673C250.93 103.673 246.252 109.188 245.426 116.081C244.876 121.044 245.702 128.489 247.077 134.28C248.453 139.795 251.205 153.03 251.205 153.03L269.093 151.376Z" fill="#E37473"/>
<path d="M231.942 202.943C232.768 203.77 236.07 205.149 237.446 204.873C238.822 204.598 241.023 202.668 241.299 203.77C241.849 204.873 242.399 207.907 241.849 209.561C241.849 209.561 242.124 209.837 242.124 210.94C241.849 211.767 239.923 212.043 237.171 212.043C234.419 212.043 226.438 212.594 224.237 212.043C222.035 211.491 220.109 210.388 219.833 209.561C219.558 208.458 219.008 206.252 220.934 206.528C222.861 206.804 225.337 206.804 226.163 206.252C227.264 205.701 229.465 204.598 230.291 203.77C231.116 202.943 231.667 202.668 231.942 202.943Z" fill="#316277"/>
<path d="M253.682 164.897C253.682 164.897 238.271 163.794 238.271 166.276L241.573 203.501C238.271 209.567 229.465 205.431 229.465 205.431C229.465 205.431 225.887 158.279 226.163 157.177C226.438 153.868 234.969 151.938 245.426 151.938L253.682 164.897Z" fill="#001533"/>
<path d="M226.438 206.532C227.539 207.635 230.841 209.014 232.217 208.462C233.868 208.186 236.07 206.256 236.345 207.359C236.895 208.462 237.721 211.771 236.895 213.701C236.895 213.701 237.446 214.253 237.17 215.08C236.895 215.907 234.694 216.183 231.942 216.183C229.19 216.183 220.659 216.734 218.182 216.183C215.705 215.356 213.779 214.528 213.504 213.425C213.229 212.322 212.403 209.841 214.605 210.392C216.806 210.668 219.283 210.668 220.384 210.117C221.484 209.565 223.686 208.462 224.787 207.635C225.612 206.256 225.887 205.98 226.438 206.532Z" fill="#316277"/>
<path d="M251.481 211.774C251.481 213.153 252.581 214.255 253.957 214.255C255.333 214.255 256.434 213.153 256.434 211.774V166.001C256.434 164.622 255.333 163.52 253.957 163.52C252.581 163.52 251.481 164.622 251.481 166.001V211.774Z" fill="#316277"/>
<path d="M269.368 168.203C269.368 170.133 271.019 171.788 272.946 171.788C274.872 171.788 276.523 170.133 276.523 168.203L279 114.71C279 112.779 277.349 111.125 275.422 111.125C273.496 111.125 271.845 112.779 271.845 114.71L269.368 168.203Z" fill="#487A8F"/>
<path d="M234.969 167.923C234.969 165.717 236.62 164.062 238.822 164.062H272.671C274.872 164.062 276.523 165.717 276.523 167.923C276.523 170.129 274.872 171.783 272.671 171.783H239.097C236.895 171.783 234.969 170.129 234.969 167.923Z" fill="#316277"/>
<path d="M244.051 212.601C244.051 211.222 245.151 209.844 246.803 209.844H261.938C263.314 209.844 264.69 210.947 264.69 212.601C264.69 213.98 263.589 215.359 261.938 215.359H246.803C245.427 215.359 244.051 214.256 244.051 212.601Z" fill="#316277"/>
<path d="M249.554 165.994C249.554 165.994 233.318 164.891 233.318 167.649L236.895 207.355C233.318 213.697 223.961 209.561 223.961 209.561C223.961 209.561 219.833 158.825 220.109 157.722C220.384 154.138 229.74 150.277 240.748 150.277L249.554 165.994Z" fill="#003B5E"/>
<path d="M269.093 148.352C269.093 148.352 271.845 160.484 267.992 162.966C263.039 166.55 249.554 165.723 249.554 165.723L238.822 150.006L269.093 148.352Z" fill="#003B5E"/>
<path d="M132.046 127.938H127.919V200.733H132.046V127.938Z" fill="#377C9A"/>
<path d="M230.841 140.348H226.713V217.003H230.841V140.348Z" fill="#377C9A"/>
<path d="M210.202 127.938H206.074V200.733H210.202V127.938Z" fill="#377C9A"/>
<path d="M220.384 130.971C217.632 129.316 212.678 127.938 209.376 127.938H171.674C168.372 127.938 168.372 127.938 165.07 127.938H127.368C124.066 127.938 119.112 129.316 116.36 130.971L99.5736 140.897C96.8217 142.552 97.0969 143.93 100.399 143.93H130.12C133.422 143.93 138.376 142.552 140.853 140.621L141.953 139.794C144.705 137.864 147.733 136.485 151.035 136.485H165.07C168.372 136.485 168.372 136.485 171.674 136.485H185.984C189.287 136.485 192.314 137.864 195.066 139.794L196.167 140.621C198.919 142.552 203.597 143.93 206.899 143.93H236.62C239.922 143.93 240.198 142.552 237.446 140.897L220.384 130.971Z" fill="#316277"/>
<path d="M239.097 137.043H218.457V143.936H239.097V137.043Z" fill="#316277"/>
<path d="M97.6473 137.043V142.833H121.314V137.87L97.6473 137.043Z" fill="#316277"/>
<path d="M220.384 124.904C217.632 123.25 212.678 121.871 209.376 121.871H171.674C168.372 121.871 168.372 121.871 165.07 121.871H127.368C124.066 121.871 119.112 123.25 116.36 124.904L99.5736 134.831C96.8216 136.485 97.0968 137.864 100.399 137.864H130.12C133.422 137.864 138.376 136.485 140.853 134.555L141.953 133.728C144.705 131.798 147.732 130.419 151.035 130.419H165.07C168.372 130.419 168.372 130.419 171.674 130.419H185.984C189.287 130.419 192.314 131.798 195.066 133.728L196.167 134.555C198.919 136.485 203.597 137.864 206.899 137.864H236.62C239.922 137.864 240.198 136.485 237.446 134.831L220.384 124.904Z" fill="#487A8F"/>
<path d="M84.1627 158.278L95.1704 147.248C95.1704 147.248 95.1704 146.973 95.4456 146.973L96.5464 147.248C96.5464 147.248 108.93 149.454 115.26 151.66C120.763 153.315 120.763 155.245 121.039 158.829C121.314 163.241 119.112 187.782 119.112 188.058C116.911 187.782 113.884 188.058 111.407 188.609C108.105 178.683 110.031 167.929 111.407 161.863C111.407 161.863 105.628 160.76 85.5386 158.554C85.2634 158.554 84.713 158.278 84.1627 158.278Z" fill="#363636"/>
<path d="M119.112 188.333C119.388 198.26 118.287 208.738 121.314 211.22C121.314 211.22 118.837 212.598 117.461 211.771C114.984 210.668 112.233 202.12 112.233 202.12C112.233 202.12 113.884 198.812 112.783 192.194C112.508 190.264 111.957 189.436 111.682 188.333C113.884 188.333 116.911 188.058 119.112 188.333Z" fill="#AACFDF"/>
<path d="M94.8951 211.499C94.8951 212.877 93.7943 213.98 92.4183 213.98C91.0424 213.98 89.9416 212.877 89.9416 211.499V159.384C89.9416 158.005 91.0424 156.902 92.4183 156.902C93.7943 156.902 94.8951 158.005 94.8951 159.384V211.499Z" fill="#316277"/>
<path d="M76.1822 161.588C76.1822 163.518 74.531 165.173 72.3295 165.173C70.1279 165.173 68.4767 163.518 68.4767 161.588L66 104.51C66 102.58 67.6512 100.926 69.8527 100.926C72.0543 100.926 73.7054 102.58 73.7054 104.51L76.1822 161.588Z" fill="#487A8F"/>
<path d="M112.233 161.304C112.233 159.098 110.306 157.168 108.105 157.168H72.6047C70.4032 157.168 68.4768 159.098 68.4768 161.304C68.4768 163.51 70.4032 165.44 72.6047 165.44H108.105C110.306 165.44 112.233 163.51 112.233 161.304Z" fill="#316277"/>
<path d="M102.601 212.316C102.601 210.662 101.225 209.559 99.8487 209.559H84.1626C82.5115 209.559 81.4107 210.937 81.4107 212.316C81.4107 213.97 82.7867 215.073 84.1626 215.073H99.8487C101.5 215.073 102.601 213.97 102.601 212.316Z" fill="#316277"/>
<path d="M112.232 202.117C112.232 202.117 110.031 204.047 110.581 206.805C110.856 209.838 111.407 213.147 111.132 214.25L112.508 214.525L112.783 208.183C112.783 208.183 115.26 210.389 115.81 212.044C116.36 213.698 115.26 214.801 122.139 215.077C125.442 215.353 128.194 215.077 127.643 213.974C126.818 212.044 125.442 213.422 121.864 211.217C121.314 211.217 117.736 211.768 112.232 202.117Z" fill="#003B5E"/>
<path d="M78.1087 145.859L86.3645 146.687L96.5466 147.514C96.5466 147.514 111.682 151.65 118.837 153.58C124.616 155.234 124.616 156.889 125.167 160.198C125.717 164.334 125.167 189.15 125.167 189.702C122.965 189.702 119.938 190.253 117.461 190.529C113.609 180.878 114.985 170.124 115.81 163.782C115.81 163.782 110.031 162.679 89.6668 162.128C69.0273 161.301 78.1087 145.859 78.1087 145.859Z" fill="#316277"/>
<path d="M125.167 189.699C125.992 199.626 125.992 210.104 129.019 212.586C129.019 212.586 126.543 213.964 125.167 213.413C122.415 212.31 119.112 204.038 119.112 204.038C119.112 204.038 120.488 200.453 119.112 194.111C118.562 192.181 118.287 191.354 117.737 190.526C119.663 190.251 122.69 189.699 125.167 189.699Z" fill="#AACFDF"/>
<path d="M119.112 204.047C119.112 204.047 117.186 205.977 117.736 209.01C118.287 212.043 118.837 215.352 118.837 216.455H120.213L119.938 210.113C119.938 210.113 122.415 212.043 123.24 213.698C123.791 215.352 122.965 216.455 129.845 216.455C133.147 216.455 135.899 216.179 135.349 214.801C134.523 212.871 133.147 214.525 129.295 212.595C128.744 212.319 125.442 213.422 119.112 204.047Z" fill="#004A6E"/>
<path d="M89.6668 91.8203C89.6668 91.8203 92.1436 93.4748 93.7947 98.9895C94.6203 101.471 93.7947 105.607 93.7947 109.743C93.7947 113.052 92.6939 116.637 93.5195 119.394C95.4459 124.909 93.5195 129.321 93.5195 129.321C93.5195 129.321 95.1707 126.839 93.7947 123.53C93.2443 122.427 91.8684 120.221 91.8684 116.637C91.8684 113.052 91.8684 110.295 90.7676 108.089C89.6668 105.883 89.942 103.401 90.2172 101.195C90.4924 98.9895 89.1164 94.0262 88.566 93.7505C88.0156 93.199 89.1164 93.199 89.1164 93.199L89.6668 91.8203Z" fill="#377C9A"/>
<path d="M73.7053 92.0898C73.7053 92.0898 71.5037 94.8472 72.0541 101.189C72.3293 104.222 73.4301 109.186 75.3564 113.322C76.7324 116.906 79.7595 120.215 79.7595 123.248C80.0347 129.866 85.5386 133.175 85.5386 133.175C85.5386 133.175 83.337 131.245 83.337 126.833C83.337 125.454 84.4378 122.697 82.5115 119.112C80.8603 115.252 77.558 111.667 77.8332 109.186C78.1084 106.704 78.1084 104.222 77.0076 102.292C75.9068 100.086 77.558 96.7774 77.8332 95.9502C78.3835 95.3987 74.806 92.9171 74.806 92.9171L73.7053 92.0898Z" fill="#377C9A"/>
<path d="M79.4843 98.159C79.4843 98.159 79.7595 101.468 79.4843 103.674C79.2091 105.88 80.5851 106.983 81.4107 108.637C82.2363 110.292 81.6859 110.843 81.4107 112.497C81.1355 114.152 82.7867 115.255 83.0618 116.358C83.337 117.461 83.0618 118.012 83.337 118.564C83.6122 119.391 85.2634 122.424 84.1626 124.354C83.0618 126.284 79.4843 115.531 79.4843 115.531L77.558 106.983C77.558 106.983 74.5308 99.5377 75.0812 99.262C75.0812 98.7105 77.0076 95.9531 77.0076 95.9531L79.4843 98.159Z" fill="#377C9A"/>
<path d="M93.5194 102.569C93.5194 105.326 91.3178 107.532 88.5659 107.532C85.814 107.532 83.6124 105.326 83.6124 102.569C83.6124 99.8114 85.814 97.6055 88.5659 97.6055C91.3178 97.6055 93.5194 99.8114 93.5194 102.569Z" fill="#377C9A"/>
<path d="M90.217 106.436C89.3914 106.16 88.5659 105.884 87.7403 105.609C86.0891 104.781 86.3643 100.094 86.3643 100.094H79.4845C79.4845 100.094 79.7597 104.781 78.1085 105.609C76.4573 106.436 73.9806 106.711 72.3294 107.263C70.6783 107.814 72.3294 108.917 71.779 112.226C71.5038 114.432 71.5038 117.741 71.5038 117.741H90.217V106.436Z" fill="#AACFDF"/>
<path d="M91.8682 106.987C91.8682 106.711 91.8682 106.711 91.8682 106.987C90.4922 106.711 88.841 106.436 87.7403 105.609C86.0891 104.781 86.3643 100.094 86.3643 100.094H79.4845C79.4845 100.094 79.7597 104.781 78.1085 105.609C76.4573 106.436 73.9806 106.711 72.3294 107.263C70.6783 107.814 72.3294 108.917 71.779 112.226C71.5038 114.432 71.5038 117.741 71.5038 117.741H88.5659C89.3914 118.293 89.9418 118.568 91.0426 118.844C91.3178 118.844 91.593 119.12 91.8682 119.12V106.987Z" fill="#AACFDF"/>
<path d="M79.2095 104.231C81.1358 103.955 84.7133 102.577 86.3645 101.474V101.198C86.3645 101.198 86.3645 101.198 86.3645 100.922H83.0622H79.4847C79.4847 100.371 79.4847 102.577 79.2095 104.231Z" fill="#AACFDF"/>
<path d="M71.5038 116.91C71.5038 116.91 70.9534 112.774 71.779 110.568C72.3294 109.189 72.3294 107.535 73.7054 106.983C74.2558 106.708 76.4573 106.156 77.2829 106.156C78.3837 108.362 90.217 107.811 89.3914 106.156C90.217 106.432 92.1433 106.432 93.2441 107.535C94.3449 108.914 96.8216 113.05 97.6472 116.359C98.4728 119.667 97.372 121.046 96.2712 126.285C95.9961 127.94 94.8953 131.524 94.8953 133.179C94.8953 138.693 96.8216 146.966 96.8216 147.241C84.1627 149.999 78.3837 145.587 78.3837 145.587L79.7596 142.554C80.5852 138.418 77.8333 129.87 74.8061 124.906C72.8798 121.873 72.0542 119.943 71.779 118.289V116.91H71.5038Z" fill="#D8E9ED"/>
<path d="M91.8684 90.1714C91.8684 90.1714 92.694 86.8625 91.8684 84.3809C91.0428 81.6235 88.5661 78.3146 83.6126 78.5904C78.3839 78.8661 91.8684 90.1714 91.8684 90.1714Z" fill="#377C9A"/>
<path d="M91.0425 91.8151C91.5929 92.3665 91.3177 93.1937 90.7673 93.7452L89.6666 94.5724C89.1162 95.1239 88.2906 94.8482 88.0154 94.5724C87.465 94.021 87.7402 93.1937 88.0154 92.6423L89.1162 91.8151C89.9418 90.9878 90.7673 91.2636 91.0425 91.8151Z" fill="#C90E00"/>
<path d="M90.4923 85.2016C88.8411 81.3413 86.0892 77.4809 80.5853 78.8596C74.8062 80.2383 72.6047 85.7531 73.1551 89.3377C73.7054 92.6466 74.8062 94.5767 75.0814 95.1282C75.3566 95.6797 78.6589 97.0584 79.4845 98.9886C80.3101 100.919 90.4923 85.2016 90.4923 85.2016Z" fill="#377C9A"/>
<path d="M78.1086 95.6758C78.659 96.7787 79.2094 98.4332 79.4846 100.088C80.0349 100.363 80.3101 100.639 80.8605 100.915C84.7132 102.294 87.4652 100.639 87.4652 100.639C87.4652 100.639 87.4652 101.191 86.9148 100.363L78.1086 95.6758Z" fill="#AACFDF"/>
<path d="M77.8333 95.6848C78.3837 96.7877 78.9341 98.4421 81.1356 99.5451C83.3372 100.924 86.6395 102.302 87.7403 102.302C88.8411 102.027 89.3915 102.302 90.4922 99.5451C91.593 96.7877 92.4186 95.409 92.1434 92.9274C91.8682 90.4457 92.1434 84.9309 88.5659 83.5522C86.0891 82.4493 82.2364 83.828 80.5853 86.0339C78.9341 88.5156 78.9341 89.3428 78.6589 92.6516C78.6589 92.6516 76.7325 90.7215 75.907 90.7215C75.3566 90.7215 74.8062 91.2729 75.3566 92.6516C75.907 94.0303 76.1822 93.7546 76.4574 94.3061C76.7325 95.1333 76.7325 95.6848 77.2829 95.9605C77.8333 96.2362 77.8333 95.6848 77.8333 95.6848Z" fill="#AACFDF"/>
<path d="M86.6396 82.9991C86.6396 82.9991 84.1628 91.2713 78.9341 93.4772L75.3566 87.4109L79.7597 82.1719L86.6396 82.9991Z" fill="#377C9A"/>
<path d="M85.8137 83.2698C85.8137 83.2698 89.3912 86.8544 92.1432 87.6816C92.1432 87.6816 91.0424 81.8911 87.1897 79.9609L85.8137 83.2698Z" fill="#377C9A"/>
<path d="M112.508 129.051C112.508 129.051 114.709 127.948 115.81 127.672C116.911 127.396 116.911 127.396 118.012 127.672C119.112 127.948 120.213 128.223 120.488 127.672C120.764 127.396 121.589 127.12 121.589 126.569C121.589 126.018 122.69 126.018 122.965 125.466C122.965 124.915 124.066 124.363 124.066 123.812C124.066 122.984 123.24 122.984 120.764 122.984C118.562 122.984 117.186 123.536 116.636 123.812C116.085 124.363 113.058 125.19 113.058 125.19L112.508 129.051Z" fill="#AACFDF"/>
<path d="M123.791 128.77C123.515 128.77 123.24 128.77 123.24 128.494L118.287 121.325C118.012 121.049 118.287 120.773 118.287 120.773C118.562 120.773 118.837 120.773 118.837 121.049L123.791 128.218C124.066 128.218 124.066 128.494 123.791 128.77Z" fill="#3357BD"/>
<path d="M118.562 124.628C119.113 124.628 121.589 123.525 121.864 124.076C122.14 124.628 120.213 125.455 119.938 125.731C119.663 126.006 118.012 126.282 118.012 126.282L118.562 124.628Z" fill="#AACFDF"/>
<path d="M91.3179 106.703C91.5931 106.979 93.2443 113.597 94.8954 116.354C96.5466 119.111 98.1978 124.902 98.1978 124.902L113.609 124.626L114.434 128.486L96.2714 131.244L88.8412 117.733L91.3179 106.703Z" fill="#B4D1D7"/>
<path d="M133.147 129.047H115.81V130.426H133.147V129.047Z" fill="white"/>
<path d="M132.322 129.047H116.911V129.874H132.322V129.047Z" fill="white"/>
<path d="M104.802 127.657C104.802 127.657 107.279 127.381 108.105 127.105C108.93 126.83 116.085 128.208 116.36 130.139C116.636 132.069 114.434 131.517 112.508 131.242C110.581 130.966 104.802 130.69 103.702 130.966C102.601 130.966 104.802 127.657 104.802 127.657Z" fill="#AACFDF"/>
<path d="M94.6202 133.454C94.6202 134.006 94.6202 134.833 94.6202 135.385C89.3915 136.212 83.8877 135.936 78.659 136.212C77.8334 132.351 75.9071 127.94 74.2559 124.906C72.3295 121.873 71.504 119.943 71.2288 118.289V116.91H71.504C71.504 116.91 70.9536 112.774 71.7791 110.568C72.3295 109.189 72.3295 107.535 73.7055 106.983C74.2559 106.708 76.4574 106.156 77.283 106.156C78.3838 108.362 90.2171 107.811 89.3915 106.156C90.2171 106.432 92.1435 106.432 93.2443 107.535C94.345 108.914 96.8218 113.05 97.6474 116.359C98.4729 119.667 97.3722 121.046 96.2714 126.285C95.721 128.215 94.6202 131.8 94.6202 133.454Z" fill="#D8E9ED"/>
<path d="M94.6202 133.458C94.6202 133.458 94.6202 134.285 94.6202 135.388L79.4845 139.8C79.4845 139.8 78.3837 134.837 77.5582 132.631C77.0078 130.701 94.6202 133.458 94.6202 133.458Z" fill="#B4D1D7"/>
<path d="M77.558 113.883C77.558 113.883 82.7867 125.188 84.1626 127.118C84.9882 128.221 95.7208 127.118 95.7208 127.118L94.0696 132.357L80.8603 133.185L77.558 113.883Z" fill="#B4D1D7"/>
<path d="M74.8064 106.703C72.3297 107.255 67.101 107.255 69.5777 117.733C72.0545 128.211 78.6591 136.207 80.0351 137.862C81.4111 139.516 107.004 130.692 107.004 130.692L106.178 125.729L83.8878 129.038C83.8878 129.038 81.6862 128.211 79.4847 119.387C77.5583 112.494 74.8064 106.703 74.8064 106.703Z" fill="#D8E9ED"/>
<path d="M232.217 126.565C232.217 126.565 229.465 126.289 228.365 125.737C227.539 125.462 219.283 127.392 219.008 129.598C218.733 132.079 221.21 131.528 223.411 130.976C225.613 130.701 232.492 130.425 233.593 130.425C234.694 130.976 232.217 126.565 232.217 126.565Z" fill="#AACFDF"/>
<path d="M111.682 143.664H107.554V216.735H111.682V143.664Z" fill="#377C9A"/>
<path d="M245.702 124.359C241.849 124.911 232.217 124.911 229.19 125.462L229.465 132.08C230.841 132.356 240.198 133.183 246.802 133.183C246.252 130.426 245.977 127.393 245.702 124.359Z" fill="#BB3836"/>
<path d="M230.841 130.694C230.841 130.694 228.089 129.867 227.264 129.316C226.438 128.764 217.907 129.591 217.357 132.073C216.806 134.555 219.283 134.279 221.485 134.003C223.686 134.003 230.566 134.555 231.667 134.83C232.768 135.658 230.841 130.694 230.841 130.694Z" fill="#AACFDF"/>
<path d="M249.83 120.221C249.554 121.048 247.903 128.217 246.527 130.423C245.702 131.526 231.942 129.596 228.364 129.596L227.814 136.213C230.016 137.041 251.206 141.452 252.031 140.074C256.434 132.629 258.085 130.423 261.113 121.048C264.14 111.673 266.066 106.434 260.837 104.503C248.729 100.643 250.105 119.393 249.83 120.221Z" fill="#D75452"/>
</svg>
