<svg width="345" height="217" viewBox="0 0 345 217" fill="none" xmlns="http://www.w3.org/2000/svg">
<path d="M84.1885 53.9168L84.1763 53.9158C63.2342 52.3029 43.3953 62.536 32.1759 81.2325C29.4693 85.5757 27.5601 90.2111 26.4652 95.1244C20.6044 119.46 30.5254 143.622 51.8987 156.738C56.3041 159.492 61.176 161.37 66.1757 162.687L66.2059 162.695L66.2361 162.702C85.7602 167.522 105.366 161.893 119.052 148.19L136.971 130.25C141.133 126.083 147.557 126.083 151.718 130.25C155.882 134.419 155.882 140.859 151.718 145.029L135.293 161.474C121.01 175.774 102.301 184.499 82.5295 184.97L82.5221 184.97L82.5146 184.97C56.7581 185.68 32.8896 173.636 17.7194 151.802L17.6586 151.715L17.5933 151.631C11.0795 143.246 7.07787 133.408 5.18332 122.989C0.214345 94.0479 11.0949 66.134 34.0541 48.3599C44.4227 40.3381 56.6886 35.3723 69.6914 33.7154L69.6971 33.7147C93.5936 30.6352 116.758 38.6781 133.561 55.2596C133.564 55.2627 133.568 55.2658 133.571 55.2689L225.135 146.944C245.688 167.523 279.172 169.78 301.264 150.629C326.747 128.602 326.747 89.118 301.264 67.0911C279.172 47.9397 245.688 50.1966 225.135 70.7752L225.125 70.7852L225.115 70.7953L207.714 88.4664C207.71 88.4697 207.707 88.473 207.704 88.4763C203.542 92.633 197.125 92.6297 192.967 88.4664C188.803 84.2972 188.803 77.857 192.967 73.6877L211.632 54.9998C226.263 40.3509 245.879 33 265.295 33C286.554 33 307.833 41.9799 323.231 59.759C347.309 88.1343 346.851 131.006 322.26 159.179C293.188 192.299 242.365 193.49 211.632 162.72L138.713 89.7123L119.799 70.7752C110.221 61.186 97.6539 54.9953 84.1885 53.9168Z" fill="#45788E" stroke="white" stroke-width="8"/>
<path d="M99.4241 118.03C106.371 114.212 111.683 111.304 112.137 111.077C113.59 110.304 115.089 108.259 112.137 106.668C111.184 106.168 106.053 103.351 99.4241 99.7148L90.2979 108.895L99.4241 118.03Z" fill="#C45E5D"/>
<path d="M90.297 108.879L61.1475 138.283C61.8285 138.374 62.6004 138.192 63.5085 137.692C65.4155 136.647 85.6658 125.558 99.4233 118.014L90.297 108.879Z" fill="#C73D3B"/>
<path d="M90.2976 108.882L99.4239 99.7019C99.4239 99.7019 65.5523 81.205 63.5091 80.1143C62.7372 79.6598 61.8745 79.5235 61.1027 79.6598L90.2976 108.882Z" fill="#EE8E8D"/>
<path d="M90.2972 108.875L61.1023 79.6523C59.9217 79.925 58.9229 80.9703 58.9229 83.1063C58.9229 86.5148 58.9229 131.962 58.9229 134.825C58.9229 136.779 59.6947 138.188 61.1477 138.324L90.2972 108.875Z" fill="#D75452"/>
<path d="M46.9999 87.9227V73.0781H62.8673" stroke="#D75452" stroke-opacity="0.6" stroke-width="3" stroke-linecap="round" stroke-linejoin="round"/>
<path d="M118 87.9227V73.0781H102.133" stroke="#D75452" stroke-opacity="0.6" stroke-width="3" stroke-linecap="round" stroke-linejoin="round"/>
<path d="M118 130.082V144.925H102.133" stroke="#D75452" stroke-opacity="0.6" stroke-width="3" stroke-linecap="round" stroke-linejoin="round"/>
<path d="M46.9999 130.082V144.925H62.8673" stroke="#D75452" stroke-opacity="0.6" stroke-width="3" stroke-linecap="round" stroke-linejoin="round"/>
<path d="M282.631 82.8789H251.546C245.587 82.8789 240.739 87.7316 240.739 93.6964V124.81C240.739 130.774 245.587 135.627 251.546 135.627H282.631C288.59 135.627 293.438 130.774 293.438 124.81V93.6964C293.438 87.7316 288.59 82.8789 282.631 82.8789ZM256.965 123.523C256.489 124.349 255.623 124.811 254.733 124.811C254.296 124.811 253.855 124.7 253.45 124.466C252.222 123.756 251.799 122.178 252.508 120.948L253.015 120.071H258.957L256.965 123.523ZM252.113 118.01C250.694 118.01 249.539 116.855 249.539 115.435C249.539 114.014 250.694 112.859 252.113 112.859H257.174L264.117 100.822L262.236 97.56C261.526 96.3301 261.949 94.7518 263.177 94.0417H263.177C264.406 93.3316 265.983 93.7546 266.692 94.9844L267.089 95.6711L267.485 94.9845C268.194 93.7545 269.771 93.3317 271 94.0418C271.595 94.3858 272.021 94.9412 272.198 95.6057C272.376 96.2702 272.285 96.9644 271.941 97.5601L263.117 112.859H268.683L271.654 118.01H252.113ZM282.065 118.01H279.974L281.668 120.948C282.378 122.178 281.955 123.756 280.727 124.466C280.33 124.695 279.89 124.812 279.444 124.812C279.221 124.812 278.996 124.783 278.774 124.723C278.11 124.545 277.555 124.119 277.211 123.523L268.277 108.034L271.248 102.883L277.003 112.859H282.065C283.483 112.859 284.638 114.014 284.638 115.435C284.638 116.855 283.483 118.01 282.065 118.01Z" fill="#D75452"/>
<path d="M232 87.9227V73.0781H247.867" stroke="#D75452" stroke-opacity="0.6" stroke-width="3" stroke-linecap="round" stroke-linejoin="round"/>
<path d="M303 87.9227V73.0781H287.133" stroke="#D75452" stroke-opacity="0.6" stroke-width="3" stroke-linecap="round" stroke-linejoin="round"/>
<path d="M303 130.082V144.925H287.133" stroke="#D75452" stroke-opacity="0.6" stroke-width="3" stroke-linecap="round" stroke-linejoin="round"/>
<path d="M232 130.082V144.925H247.867" stroke="#D75452" stroke-opacity="0.6" stroke-width="3" stroke-linecap="round" stroke-linejoin="round"/>
</svg>
