<svg width="801" height="351" viewBox="0 0 801 351" fill="none" xmlns="http://www.w3.org/2000/svg">
<path d="M498.067 289.827H293.931C285.942 289.827 279.45 283.337 279.45 275.349V122.076C279.45 114.088 285.942 107.598 293.931 107.598H498.067C506.057 107.598 512.548 114.088 512.548 122.076V275.349C512.548 283.337 506.057 289.827 498.067 289.827ZM293.931 108.496C286.441 108.496 280.349 114.587 280.349 122.076V275.349C280.349 282.838 286.441 288.928 293.931 288.928H498.067C505.557 288.928 511.65 282.838 511.65 275.349V122.076C511.65 114.587 505.557 108.496 498.067 108.496H293.931Z" fill="#AACFDF"/>
<path d="M522.136 108.997V262.27C522.136 270.058 515.844 276.349 508.054 276.349H303.919C296.129 276.349 289.837 270.058 289.837 262.27V108.997C289.837 101.209 296.129 94.918 303.919 94.918H508.054C515.844 94.918 522.136 101.209 522.136 108.997Z" fill="#C4DEE9"/>
<path d="M522.136 108.997V112.991H289.837V108.997C289.837 101.209 296.129 94.918 303.919 94.918H508.054C515.844 94.918 522.136 101.209 522.136 108.997Z" fill="#316277"/>
<path d="M381.818 165.119H316.303C313.306 165.119 310.91 162.722 310.91 159.727V142.552C310.91 139.557 313.306 137.16 316.303 137.16H381.818C384.814 137.16 387.211 139.557 387.211 142.552V159.727C387.211 162.722 384.814 165.119 381.818 165.119Z" fill="#AACFDF"/>
<path d="M381.818 202.76H316.303C313.107 202.76 310.41 200.163 310.41 196.868V179.794C310.41 176.598 313.007 173.902 316.303 173.902H381.818C385.014 173.902 387.71 176.498 387.71 179.794V196.968C387.71 200.163 385.014 202.76 381.818 202.76ZM316.303 174.801C313.606 174.801 311.309 176.998 311.309 179.794V196.968C311.309 199.664 313.506 201.961 316.303 201.961H381.818C384.514 201.961 386.811 199.764 386.811 196.968V179.794C386.811 177.098 384.614 174.801 381.818 174.801H316.303Z" fill="#AACFDF"/>
<path d="M465.21 216.04H405.787C404.988 216.04 404.388 215.441 404.388 214.642V212.945C404.388 212.146 404.988 211.547 405.787 211.547H465.21C466.009 211.547 466.608 212.146 466.608 212.945V214.642C466.608 215.441 466.009 216.04 465.21 216.04Z" fill="#AACFDF"/>
<path d="M465.21 232.415H405.787C404.988 232.415 404.388 231.816 404.388 231.017V229.32C404.388 228.521 404.988 227.922 405.787 227.922H465.21C466.009 227.922 466.608 228.521 466.608 229.32V231.017C466.608 231.816 466.009 232.415 465.21 232.415Z" fill="#AACFDF"/>
<path d="M493.573 202.758H412.079C407.584 202.758 403.889 199.064 403.889 194.57V144.844C403.889 140.351 407.584 136.656 412.079 136.656H493.573C498.067 136.656 501.762 140.351 501.762 144.844V194.67C501.762 199.163 498.167 202.758 493.573 202.758ZM412.079 137.555C408.084 137.555 404.788 140.85 404.788 144.844V194.67C404.788 198.664 408.084 201.959 412.079 201.959H493.573C497.568 201.959 500.864 198.664 500.864 194.67V144.844C500.864 140.85 497.568 137.555 493.573 137.555H412.079Z" fill="#AACFDF"/>
<path d="M490.177 217.441L484.984 212.948C484.585 212.549 484.485 211.95 484.884 211.55C485.284 211.151 485.883 211.051 486.282 211.45L489.978 214.646L495.171 208.854C495.57 208.455 496.17 208.355 496.569 208.754C496.969 209.154 497.068 209.753 496.669 210.152L490.177 217.441Z" fill="#6BAAC6"/>
<path d="M490.177 234.91L484.984 230.417C484.585 230.017 484.485 229.418 484.884 229.019C485.284 228.619 485.883 228.52 486.282 228.919L489.978 232.114L495.171 226.323C495.57 225.923 496.17 225.824 496.569 226.223C496.969 226.622 497.068 227.222 496.669 227.621L490.177 234.91Z" fill="#6BAAC6"/>
<path d="M465.21 249.892H405.787C404.988 249.892 404.388 249.293 404.388 248.494V246.796C404.388 245.998 404.988 245.398 405.787 245.398H465.21C466.009 245.398 466.608 245.998 466.608 246.796V248.494C466.608 249.293 466.009 249.892 465.21 249.892Z" fill="#AACFDF"/>
<path d="M490.177 252.387L484.984 247.893C484.585 247.494 484.485 246.895 484.884 246.495C485.284 246.096 485.883 245.996 486.282 246.396L489.978 249.591L495.171 243.799C495.57 243.4 496.17 243.3 496.569 243.7C496.969 244.099 497.068 244.698 496.669 245.097L490.177 252.387Z" fill="#6BAAC6"/>
<path d="M333.58 151.235C333.58 151.135 333.58 150.935 333.58 150.835V150.735C333.58 149.937 333.38 149.138 333.081 148.439C331.982 145.343 328.986 143.147 325.491 143.047C323.593 143.047 321.895 143.646 320.497 144.645C318.6 146.142 317.301 148.439 317.301 151.035C317.301 154.63 319.598 157.725 322.794 158.823C323.593 159.123 324.392 159.223 325.291 159.223C326.29 159.223 327.288 159.023 328.087 158.724C329.585 158.224 330.884 157.226 331.783 156.028C332.681 154.829 333.281 153.431 333.48 151.834C333.58 151.634 333.58 151.434 333.58 151.235ZM319.399 151.035C319.399 149.038 320.397 147.341 321.795 146.242C322.794 145.443 324.192 144.944 325.591 144.944C328.187 144.944 330.384 146.642 331.283 148.938C331.483 149.537 331.583 150.037 331.683 150.735C331.683 150.835 331.683 151.035 331.683 151.135C331.683 151.734 331.583 152.333 331.383 152.832C331.183 153.531 330.784 154.23 330.384 154.829C330.185 155.029 330.085 155.229 329.885 155.429C328.786 156.527 327.188 157.226 325.491 157.226C324.991 157.226 324.592 157.126 324.192 157.026C323.993 157.026 323.793 156.926 323.593 156.826C321.096 156.127 319.299 153.731 319.399 151.035Z" fill="#CDF0FF"/>
<g opacity="0.83">
<path opacity="0.83" d="M374.927 41H252.485C246.093 41 241 46.1923 241 52.5828V123.677C241 130.068 246.193 135.26 252.585 135.26H375.027C381.418 135.26 386.612 130.068 386.612 123.677V52.5828C386.512 46.1923 381.318 41 374.927 41Z" fill="#AACFDF"/>
</g>
<path d="M268.265 95.7285C270.362 96.4275 272.659 96.8269 275.056 96.9268C282.247 97.0266 288.638 93.6316 292.633 88.4394C295.43 84.8447 297.127 80.2515 297.227 75.3588C297.227 74.8595 297.227 74.3603 297.227 73.861C297.127 71.6643 296.628 69.5674 295.929 67.5703C292.933 59.2826 284.943 53.2915 275.655 53.1917C270.562 53.0918 265.968 54.7893 262.173 57.5852C256.979 61.4794 253.584 67.77 253.484 74.7597C253.284 84.4453 259.476 92.8328 268.265 95.7285ZM258.877 74.8595C258.877 69.5674 261.473 64.9742 265.269 61.9786C268.065 59.7819 271.66 58.5837 275.455 58.5837C282.446 58.6835 288.439 63.1769 290.636 69.3677C291.135 70.8654 291.535 72.4631 291.634 74.0607C291.634 74.4601 291.634 74.7597 291.634 75.1591C291.634 78.8536 290.336 82.2485 288.239 85.0444C285.143 88.9386 280.449 91.4349 275.056 91.4349C273.258 91.4349 271.56 91.1354 269.962 90.5362C263.471 88.3395 258.777 82.1487 258.877 74.8595Z" fill="#AACFDF"/>
<path d="M288.239 85.043L292.533 88.4379C288.439 93.6302 282.047 97.0252 274.956 96.9253C272.559 96.9253 270.362 96.5259 268.165 95.7271L269.962 90.5348C271.56 91.0341 273.258 91.3336 275.056 91.4335C280.449 91.5333 285.243 89.037 288.239 85.043Z" fill="#317A9A"/>
<path d="M295.829 67.5664L290.636 69.4636C291.335 71.3608 291.634 73.3578 291.634 75.255C291.634 78.9495 290.336 82.3445 288.239 85.1403L292.533 88.5353C295.33 84.9406 297.027 80.3474 297.127 75.4547C297.227 72.6588 296.728 69.9628 295.829 67.5664Z" fill="#599DBA"/>
<path d="M262.073 57.4836C265.768 54.6877 270.462 52.9903 275.555 53.0901C284.943 53.19 292.833 59.1811 295.829 67.4688L290.636 69.366C288.439 63.1751 282.546 58.6818 275.455 58.582C271.66 58.582 268.065 59.7802 265.269 61.9769L262.073 57.4836Z" fill="#6BAAC6"/>
<path d="M363.242 122.483H321.496C315.903 122.483 311.309 117.89 311.309 112.298V63.2708C311.309 57.6791 315.903 53.0859 321.496 53.0859H363.142C368.735 53.0859 373.329 57.6791 373.329 63.2708V112.298C373.329 117.99 368.834 122.483 363.242 122.483Z" fill="#377C9A"/>
<path d="M296.928 111.397H256.38C255.082 111.397 254.083 110.398 254.083 109.1V108.801C254.083 107.502 255.082 106.504 256.38 106.504H297.027C298.326 106.504 299.324 107.502 299.324 108.801V109.1C299.324 110.398 298.226 111.397 296.928 111.397Z" fill="#AACFDF"/>
<path d="M296.928 122.479H256.38C255.082 122.479 254.083 121.48 254.083 120.182V119.883C254.083 118.584 255.082 117.586 256.38 117.586H297.027C298.326 117.586 299.324 118.584 299.324 119.883V120.182C299.324 121.48 298.226 122.479 296.928 122.479Z" fill="#AACFDF"/>
<g opacity="0.78">
<path opacity="0.78" d="M542.31 199.563H460.816C456.521 199.563 453.125 196.068 453.125 191.874V142.048C453.125 137.754 456.621 134.359 460.816 134.359H542.31C546.604 134.359 550 137.854 550 142.048V191.774C550 196.068 546.604 199.563 542.31 199.563Z" fill="#EF9D9A"/>
</g>
<path d="M492.574 169.708H465.809C464.211 169.708 462.913 168.409 462.913 166.812V145.044C462.913 143.447 464.211 142.148 465.809 142.148H492.574C494.172 142.148 495.471 143.447 495.471 145.044V166.812C495.471 168.409 494.172 169.708 492.574 169.708Z" fill="#F6D9D8"/>
<path d="M541.112 149.436H502.661C501.762 149.436 500.964 148.637 500.964 147.738V143.744C500.964 142.846 501.762 142.047 502.661 142.047H541.112C542.01 142.047 542.809 142.846 542.809 143.744V147.738C542.809 148.737 542.01 149.436 541.112 149.436Z" fill="#F6D9D8"/>
<path d="M541.112 161.022H502.661C501.762 161.022 500.964 160.223 500.964 159.324V155.33C500.964 154.432 501.762 153.633 502.661 153.633H541.112C542.01 153.633 542.809 154.432 542.809 155.33V159.324C542.809 160.223 542.01 161.022 541.112 161.022Z" fill="#F6D9D8"/>
<path d="M541.211 190.578H526.331C525.432 190.578 524.733 189.879 524.733 188.98V188.281C524.733 187.383 525.432 186.684 526.331 186.684H541.211C542.11 186.684 542.809 187.383 542.809 188.281V188.98C542.809 189.879 542.11 190.578 541.211 190.578Z" fill="#F6D9D8"/>
<g opacity="0.78">
<path opacity="0.78" d="M341.969 205.955H276.454C273.458 205.955 271.061 203.558 271.061 200.563V183.388C271.061 180.393 273.458 177.996 276.454 177.996H341.969C344.965 177.996 347.362 180.393 347.362 183.388V200.563C347.462 203.558 344.965 205.955 341.969 205.955Z" fill="#EF9D9A"/>
</g>
<path d="M312.408 225.527H305.417V250.79H312.408V225.527Z" fill="#6BAAC6"/>
<path d="M322.295 222.93H315.304V250.688H322.295V222.93Z" fill="#6BAAC6"/>
<path d="M332.382 228.223H325.391V250.689H332.382V228.223Z" fill="#6BAAC6"/>
<path d="M342.369 217.84H335.378V250.791H342.369V217.84Z" fill="#6BAAC6"/>
<path d="M352.855 221.133H345.864V250.789H352.855V221.133Z" fill="#6BAAC6"/>
<path d="M363.541 225.527H356.55V250.79H363.541V225.527Z" fill="#6BAAC6"/>
<path d="M373.429 222.93H366.438V250.688H373.429V222.93Z" fill="#6BAAC6"/>
<path d="M383.515 228.223H376.525V250.689H383.515V228.223Z" fill="#6BAAC6"/>
<path d="M294.73 191.078V190.978C294.73 190.179 294.531 189.38 294.231 188.681C293.133 185.586 290.136 183.389 286.641 183.289C284.743 183.289 283.046 183.888 281.647 184.887C279.75 186.384 278.452 188.681 278.452 191.277C278.452 194.872 280.749 197.967 283.944 199.066C284.743 199.365 285.542 199.465 286.441 199.465C287.44 199.465 288.439 199.265 289.337 198.966C290.736 198.467 292.034 197.468 292.933 196.27C293.832 195.072 294.431 193.674 294.631 192.076C294.631 191.876 294.631 191.577 294.631 191.377C294.73 191.377 294.73 191.177 294.73 191.078ZM280.549 191.277C280.549 189.28 281.548 187.583 282.946 186.484C283.944 185.686 285.343 185.186 286.741 185.186C289.337 185.186 291.535 186.884 292.433 189.18C292.633 189.779 292.733 190.279 292.833 190.978C292.833 191.077 292.833 191.277 292.833 191.377C292.833 191.976 292.733 192.575 292.533 193.075C292.334 193.774 291.934 194.472 291.535 195.072C291.335 195.271 291.235 195.471 291.035 195.671C289.937 196.769 288.339 197.468 286.641 197.468C286.142 197.468 285.742 197.368 285.343 197.268C285.143 197.268 284.943 197.168 284.743 197.069C282.247 196.37 280.449 193.973 280.549 191.277Z" fill="#F6D9D8"/>
<g opacity="0.74">
<path opacity="0.74" d="M474.498 310.997H420.068C416.273 310.997 413.077 307.902 413.077 304.007V264.466C413.077 260.672 416.173 257.477 420.068 257.477H474.498C478.293 257.477 481.489 260.572 481.489 264.466V304.007C481.389 307.902 478.293 310.997 474.498 310.997Z" fill="#EF9D9A"/>
</g>
<path d="M473.1 304.608H448.731C446.434 304.608 444.537 302.711 444.537 300.414V267.463C444.537 265.167 446.434 263.27 448.731 263.27H473.1C475.397 263.27 477.294 265.167 477.294 267.463V300.414C477.294 302.711 475.397 304.608 473.1 304.608Z" fill="#F6D9D8"/>
<path d="M435.249 268.962H422.765C421.367 268.962 420.168 267.763 420.168 266.365V265.666C420.168 264.269 421.367 263.07 422.765 263.07H435.249C436.647 263.07 437.845 264.269 437.845 265.666V266.365C437.845 267.863 436.647 268.962 435.249 268.962Z" fill="#F6D9D8"/>
<path d="M435.249 280.047H422.765C421.367 280.047 420.168 278.849 420.168 277.451V276.752C420.168 275.354 421.367 274.156 422.765 274.156H435.249C436.647 274.156 437.845 275.354 437.845 276.752V277.451C437.845 278.849 436.647 280.047 435.249 280.047Z" fill="#F6D9D8"/>
<path opacity="0.5" fill-rule="evenodd" clip-rule="evenodd" d="M589.935 6.04451C588.627 6.01489 587.315 6 586 6V0C587.361 0 588.718 0.0154016 590.071 0.046042L589.935 6.04451ZM606.555 7.22611C603.971 6.91561 601.368 6.66291 598.749 6.46935L599.192 0.485671C601.902 0.685989 604.596 0.947538 607.271 1.26895L606.555 7.22611ZM622.978 10.0205C620.434 9.45805 617.869 8.9524 615.284 8.50495L616.308 2.59286C618.984 3.05612 621.64 3.57966 624.273 4.16204L622.978 10.0205ZM639.046 14.4139C636.568 13.6033 634.065 12.8479 631.539 12.1493L633.138 6.36631C635.754 7.08975 638.346 7.87191 640.911 8.7113L639.046 14.4139ZM654.604 20.3675C652.216 19.3163 649.8 18.3183 647.356 17.3749L649.517 11.7775C652.047 12.7543 654.549 13.7877 657.022 14.8762L654.604 20.3675ZM669.503 27.8219C667.228 26.5405 664.921 25.3099 662.583 24.1316L665.283 18.7736C667.704 19.9936 670.093 21.2677 672.447 22.5943L669.503 27.8219ZM683.6 36.7004C681.461 35.2019 679.285 33.7514 677.075 32.3504L680.287 27.2826C682.575 28.733 684.827 30.2346 687.042 31.7858L683.6 36.7004ZM696.765 46.9134C694.78 45.2126 692.756 43.5567 690.694 41.9472L694.386 37.2172C696.52 38.8832 698.616 40.5973 700.67 42.3579L696.765 46.9134ZM708.872 58.3608C707.062 56.474 705.208 54.6288 703.314 52.8268L707.448 48.4789C709.41 50.3442 711.328 52.2542 713.201 54.2073L708.872 58.3608ZM719.805 70.9332C718.187 68.878 716.522 66.8611 714.813 64.8839L719.352 60.9597C721.121 63.0064 722.844 65.0943 724.519 67.2218L719.805 70.9332ZM729.457 84.5127C728.047 82.3082 726.588 80.1384 725.081 78.0048L729.981 74.5428C731.542 76.7517 733.052 78.9982 734.512 81.2807L729.457 84.5127ZM737.729 98.9724C736.542 96.639 735.304 94.3366 734.014 92.0667L739.23 89.1024C740.566 91.4527 741.849 93.8369 743.077 96.2533L737.729 98.9724ZM744.534 114.176C743.583 111.735 742.578 109.322 741.519 106.938L747.003 104.502C748.099 106.972 749.141 109.471 750.125 111.999L744.534 114.176ZM749.8 129.977C749.096 127.453 748.334 124.952 747.517 122.477L753.215 120.596C754.061 123.16 754.85 125.75 755.579 128.365L749.8 129.977ZM753.474 146.222C753.023 143.639 752.513 141.075 751.946 138.533L757.802 137.226C758.389 139.859 758.917 142.515 759.384 145.19L753.474 146.222ZM755.527 162.753C755.331 160.134 755.077 157.533 754.763 154.949L760.72 154.227C761.044 156.902 761.308 159.596 761.51 162.307L755.527 162.753ZM756 175.5C756 174.185 755.985 172.873 755.955 171.565L761.954 171.428C761.984 172.782 762 174.139 762 175.5C762 176.861 761.984 178.218 761.954 179.572L755.955 179.435C755.985 178.127 756 176.815 756 175.5ZM754.763 196.051C755.077 193.467 755.331 190.866 755.527 188.247L761.51 188.693C761.308 191.404 761.044 194.098 760.72 196.773L754.763 196.051ZM751.946 212.467C752.513 209.925 753.023 207.361 753.474 204.778L759.384 205.81C758.917 208.485 758.389 211.141 757.802 213.774L751.946 212.467ZM747.517 228.523C748.334 226.048 749.096 223.547 749.8 221.023L755.579 222.635C754.85 225.25 754.061 227.84 753.215 230.404L747.517 228.523ZM741.519 244.062C742.578 241.678 743.583 239.265 744.534 236.824L750.125 239.001C749.141 241.529 748.099 244.028 747.003 246.498L741.519 244.062ZM734.014 258.933C735.304 256.663 736.542 254.361 737.729 252.028L743.077 254.747C741.849 257.163 740.566 259.547 739.23 261.898L734.014 258.933ZM725.081 272.995C726.588 270.862 728.047 268.692 729.457 266.487L734.512 269.719C733.052 272.002 731.542 274.248 729.981 276.457L725.081 272.995ZM714.813 286.116C716.522 284.139 718.187 282.122 719.805 280.067L724.519 283.778C722.844 285.906 721.121 287.994 719.352 290.04L714.813 286.116ZM703.314 298.173C705.208 296.371 707.062 294.526 708.872 292.639L713.201 296.793C711.328 298.746 709.41 300.656 707.448 302.521L703.314 298.173ZM690.694 309.053C692.756 307.443 694.78 305.787 696.765 304.087L700.67 308.642C698.616 310.403 696.52 312.117 694.386 313.783L690.694 309.053ZM677.075 318.65C679.285 317.249 681.461 315.798 683.6 314.3L687.042 319.214C684.827 320.765 682.575 322.267 680.287 323.717L677.075 318.65ZM662.583 326.868C664.921 325.69 667.228 324.459 669.503 323.178L672.447 328.406C670.093 329.732 667.704 331.006 665.283 332.226L662.583 326.868ZM647.356 333.625C649.8 332.682 652.216 331.684 654.604 330.632L657.022 336.124C654.549 337.212 652.047 338.246 649.517 339.223L647.356 333.625ZM631.539 338.851C634.065 338.152 636.568 337.397 639.046 336.586L640.911 342.289C638.346 343.128 635.754 343.91 633.138 344.634L631.539 338.851ZM615.284 342.495C617.869 342.048 620.434 341.542 622.978 340.979L624.273 346.838C621.64 347.42 618.984 347.944 616.308 348.407L615.284 342.495ZM598.749 344.531C601.368 344.337 603.971 344.084 606.555 343.774L607.271 349.731C604.596 350.052 601.902 350.314 599.192 350.514L598.749 344.531ZM586 345C587.315 345 588.627 344.985 589.935 344.956L590.071 350.954C588.718 350.985 587.361 351 586 351V345Z" fill="#C4DEE9"/>
<path d="M636.761 153.797L630.713 168.021C630.582 168.376 630.377 168.656 630.097 168.861C629.836 169.048 629.546 169.141 629.229 169.141C628.725 169.141 628.352 169.001 628.109 168.721C627.866 168.441 627.745 168.096 627.745 167.685C627.745 167.517 627.773 167.34 627.829 167.153L634.801 150.409C634.95 150.036 635.174 149.747 635.473 149.541C635.79 149.336 636.126 149.252 636.481 149.289C636.817 149.289 637.125 149.392 637.405 149.597C637.704 149.784 637.918 150.055 638.049 150.409L644.937 166.817C645.03 167.06 645.077 167.284 645.077 167.489C645.077 167.993 644.909 168.395 644.573 168.693C644.256 168.992 643.901 169.141 643.509 169.141C643.173 169.141 642.865 169.039 642.585 168.833C642.324 168.628 642.118 168.348 641.969 167.993L635.949 153.965L636.761 153.797ZM631.581 164.605L633.121 161.385H640.681L641.213 164.605H631.581Z" fill="#07394F"/>
<path d="M655.176 153.741C656.557 153.741 657.602 154.031 658.312 154.609C659.04 155.188 659.534 155.963 659.796 156.933C660.076 157.885 660.216 158.949 660.216 160.125V167.293C660.216 167.779 660.057 168.189 659.74 168.525C659.422 168.843 659.021 169.001 658.536 169.001C658.05 169.001 657.649 168.843 657.332 168.525C657.014 168.189 656.856 167.779 656.856 167.293V160.125C656.856 159.509 656.772 158.959 656.604 158.473C656.454 157.969 656.174 157.568 655.764 157.269C655.353 156.971 654.765 156.821 654 156.821C653.253 156.821 652.618 156.971 652.096 157.269C651.592 157.568 651.2 157.969 650.92 158.473C650.658 158.959 650.528 159.509 650.528 160.125V167.293C650.528 167.779 650.369 168.189 650.052 168.525C649.734 168.843 649.333 169.001 648.848 169.001C648.362 169.001 647.961 168.843 647.644 168.525C647.326 168.189 647.168 167.779 647.168 167.293V155.729C647.168 155.244 647.326 154.843 647.644 154.525C647.961 154.189 648.362 154.021 648.848 154.021C649.333 154.021 649.734 154.189 650.052 154.525C650.369 154.843 650.528 155.244 650.528 155.729V156.933L650.108 156.849C650.276 156.532 650.518 156.196 650.836 155.841C651.153 155.468 651.526 155.123 651.956 154.805C652.385 154.488 652.87 154.236 653.412 154.049C653.953 153.844 654.541 153.741 655.176 153.741Z" fill="#07394F"/>
<path d="M686.087 161.525C686.087 163.056 685.742 164.409 685.051 165.585C684.379 166.743 683.464 167.648 682.307 168.301C681.168 168.955 679.89 169.281 678.471 169.281C677.052 169.281 675.764 168.955 674.607 168.301C673.468 167.648 672.554 166.743 671.863 165.585C671.191 164.409 670.855 163.056 670.855 161.525C670.855 159.995 671.191 158.651 671.863 157.493C672.554 156.317 673.468 155.403 674.607 154.749C675.764 154.077 677.052 153.741 678.471 153.741C679.89 153.741 681.168 154.077 682.307 154.749C683.464 155.403 684.379 156.317 685.051 157.493C685.742 158.651 686.087 159.995 686.087 161.525ZM682.727 161.525C682.727 160.573 682.531 159.752 682.139 159.061C681.766 158.352 681.252 157.801 680.599 157.409C679.964 157.017 679.255 156.821 678.471 156.821C677.687 156.821 676.968 157.017 676.315 157.409C675.68 157.801 675.167 158.352 674.775 159.061C674.402 159.752 674.215 160.573 674.215 161.525C674.215 162.459 674.402 163.28 674.775 163.989C675.167 164.68 675.68 165.221 676.315 165.613C676.968 166.005 677.687 166.201 678.471 166.201C679.255 166.201 679.964 166.005 680.599 165.613C681.252 165.221 681.766 164.68 682.139 163.989C682.531 163.28 682.727 162.459 682.727 161.525Z" fill="#07394F"/>
<path d="M696.65 153.741C697.957 153.741 699.124 154.077 700.15 154.749C701.196 155.403 702.017 156.308 702.614 157.465C703.23 158.623 703.538 159.967 703.538 161.497C703.538 163.028 703.23 164.381 702.614 165.557C702.017 166.715 701.205 167.629 700.178 168.301C699.17 168.955 698.032 169.281 696.762 169.281C696.016 169.281 695.316 169.16 694.662 168.917C694.009 168.675 693.43 168.367 692.926 167.993C692.441 167.62 692.058 167.247 691.778 166.873C691.517 166.481 691.386 166.155 691.386 165.893L692.254 165.529V172.893C692.254 173.379 692.096 173.78 691.778 174.097C691.461 174.433 691.06 174.601 690.574 174.601C690.089 174.601 689.688 174.443 689.37 174.125C689.053 173.808 688.894 173.397 688.894 172.893V155.729C688.894 155.244 689.053 154.843 689.37 154.525C689.688 154.189 690.089 154.021 690.574 154.021C691.06 154.021 691.461 154.189 691.778 154.525C692.096 154.843 692.254 155.244 692.254 155.729V157.101L691.778 156.849C691.778 156.607 691.909 156.317 692.17 155.981C692.432 155.627 692.786 155.281 693.234 154.945C693.682 154.591 694.196 154.301 694.774 154.077C695.372 153.853 695.997 153.741 696.65 153.741ZM696.23 156.821C695.409 156.821 694.69 157.027 694.074 157.437C693.458 157.848 692.973 158.408 692.618 159.117C692.282 159.808 692.114 160.601 692.114 161.497C692.114 162.375 692.282 163.177 692.618 163.905C692.973 164.615 693.458 165.175 694.074 165.585C694.69 165.996 695.409 166.201 696.23 166.201C697.052 166.201 697.761 165.996 698.358 165.585C698.974 165.175 699.45 164.615 699.786 163.905C700.141 163.177 700.318 162.375 700.318 161.497C700.318 160.601 700.141 159.808 699.786 159.117C699.45 158.408 698.974 157.848 698.358 157.437C697.761 157.027 697.052 156.821 696.23 156.821Z" fill="#07394F"/>
<path d="M706.508 154.301H713.144C713.592 154.301 713.965 154.451 714.264 154.749C714.562 155.048 714.712 155.421 714.712 155.869C714.712 156.299 714.562 156.663 714.264 156.961C713.965 157.241 713.592 157.381 713.144 157.381H706.508C706.06 157.381 705.686 157.232 705.388 156.933C705.089 156.635 704.94 156.261 704.94 155.813C704.94 155.384 705.089 155.029 705.388 154.749C705.686 154.451 706.06 154.301 706.508 154.301ZM709.504 150.801C709.989 150.801 710.381 150.969 710.68 151.305C710.997 151.623 711.156 152.024 711.156 152.509V164.969C711.156 165.231 711.202 165.445 711.296 165.613C711.408 165.781 711.548 165.903 711.716 165.977C711.902 166.052 712.098 166.089 712.304 166.089C712.528 166.089 712.733 166.052 712.92 165.977C713.106 165.884 713.321 165.837 713.564 165.837C713.825 165.837 714.058 165.959 714.264 166.201C714.488 166.444 714.6 166.78 714.6 167.209C714.6 167.732 714.31 168.161 713.732 168.497C713.172 168.833 712.565 169.001 711.912 169.001C711.52 169.001 711.081 168.973 710.596 168.917C710.129 168.843 709.681 168.684 709.252 168.441C708.841 168.18 708.496 167.788 708.216 167.265C707.936 166.743 707.796 166.024 707.796 165.109V152.509C707.796 152.024 707.954 151.623 708.272 151.305C708.608 150.969 709.018 150.801 709.504 150.801Z" fill="#07394F"/>
<path d="M720.961 167.293C720.961 167.779 720.802 168.189 720.485 168.525C720.167 168.843 719.766 169.001 719.281 169.001C718.795 169.001 718.394 168.843 718.077 168.525C717.759 168.189 717.601 167.779 717.601 167.293V155.729C717.601 155.244 717.759 154.843 718.077 154.525C718.394 154.189 718.795 154.021 719.281 154.021C719.766 154.021 720.167 154.189 720.485 154.525C720.802 154.843 720.961 155.244 720.961 155.729V167.293ZM719.253 152.201C718.618 152.201 718.17 152.099 717.909 151.893C717.647 151.688 717.517 151.324 717.517 150.801V150.269C717.517 149.728 717.657 149.364 717.937 149.177C718.235 148.972 718.683 148.869 719.281 148.869C719.934 148.869 720.391 148.972 720.653 149.177C720.914 149.383 721.045 149.747 721.045 150.269V150.801C721.045 151.343 720.905 151.716 720.625 151.921C720.345 152.108 719.887 152.201 719.253 152.201Z" fill="#07394F"/>
<path d="M732.282 153.741C733.775 153.741 734.876 154.105 735.586 154.833C736.295 155.543 736.762 156.467 736.986 157.605L736.51 157.353L736.734 156.905C736.958 156.476 737.303 156.019 737.77 155.533C738.236 155.029 738.796 154.609 739.45 154.273C740.122 153.919 740.868 153.741 741.69 153.741C743.034 153.741 744.051 154.031 744.742 154.609C745.451 155.188 745.936 155.963 746.198 156.933C746.459 157.885 746.59 158.949 746.59 160.125V167.293C746.59 167.779 746.431 168.189 746.114 168.525C745.796 168.843 745.395 169.001 744.91 169.001C744.424 169.001 744.023 168.843 743.706 168.525C743.388 168.189 743.23 167.779 743.23 167.293V160.125C743.23 159.509 743.155 158.959 743.006 158.473C742.856 157.969 742.586 157.568 742.194 157.269C741.802 156.971 741.242 156.821 740.514 156.821C739.804 156.821 739.198 156.971 738.694 157.269C738.19 157.568 737.807 157.969 737.546 158.473C737.303 158.959 737.182 159.509 737.182 160.125V167.293C737.182 167.779 737.023 168.189 736.706 168.525C736.388 168.843 735.987 169.001 735.502 169.001C735.016 169.001 734.615 168.843 734.298 168.525C733.98 168.189 733.822 167.779 733.822 167.293V160.125C733.822 159.509 733.747 158.959 733.598 158.473C733.448 157.969 733.178 157.568 732.786 157.269C732.394 156.971 731.834 156.821 731.106 156.821C730.396 156.821 729.79 156.971 729.286 157.269C728.782 157.568 728.399 157.969 728.138 158.473C727.895 158.959 727.774 159.509 727.774 160.125V167.293C727.774 167.779 727.615 168.189 727.298 168.525C726.98 168.843 726.579 169.001 726.094 169.001C725.608 169.001 725.207 168.843 724.89 168.525C724.572 168.189 724.414 167.779 724.414 167.293V155.729C724.414 155.244 724.572 154.843 724.89 154.525C725.207 154.189 725.608 154.021 726.094 154.021C726.579 154.021 726.98 154.189 727.298 154.525C727.615 154.843 727.774 155.244 727.774 155.729V156.933L727.354 156.849C727.522 156.532 727.755 156.196 728.054 155.841C728.352 155.468 728.716 155.123 729.146 154.805C729.575 154.488 730.051 154.236 730.574 154.049C731.096 153.844 731.666 153.741 732.282 153.741Z" fill="#07394F"/>
<path d="M753.39 167.293C753.39 167.779 753.232 168.189 752.914 168.525C752.597 168.843 752.196 169.001 751.71 169.001C751.225 169.001 750.824 168.843 750.506 168.525C750.189 168.189 750.03 167.779 750.03 167.293V155.729C750.03 155.244 750.189 154.843 750.506 154.525C750.824 154.189 751.225 154.021 751.71 154.021C752.196 154.021 752.597 154.189 752.914 154.525C753.232 154.843 753.39 155.244 753.39 155.729V167.293ZM751.682 152.201C751.048 152.201 750.6 152.099 750.338 151.893C750.077 151.688 749.946 151.324 749.946 150.801V150.269C749.946 149.728 750.086 149.364 750.366 149.177C750.665 148.972 751.113 148.869 751.71 148.869C752.364 148.869 752.821 148.972 753.082 149.177C753.344 149.383 753.474 149.747 753.474 150.269V150.801C753.474 151.343 753.334 151.716 753.054 151.921C752.774 152.108 752.317 152.201 751.682 152.201Z" fill="#07394F"/>
<path d="M766.391 165.921C766.839 165.921 767.213 166.071 767.511 166.369C767.81 166.649 767.959 167.013 767.959 167.461C767.959 167.891 767.81 168.255 767.511 168.553C767.213 168.852 766.839 169.001 766.391 169.001H757.375C756.909 169.001 756.535 168.833 756.255 168.497C755.975 168.161 755.845 167.825 755.863 167.489C755.882 167.209 755.919 166.967 755.975 166.761C756.031 166.537 756.171 166.285 756.395 166.005L763.367 156.989L763.311 157.381H757.627C757.179 157.381 756.806 157.232 756.507 156.933C756.209 156.635 756.059 156.261 756.059 155.813C756.059 155.384 756.209 155.029 756.507 154.749C756.806 154.451 757.179 154.301 757.627 154.301H766.251C766.681 154.301 767.045 154.46 767.343 154.777C767.642 155.095 767.773 155.496 767.735 155.981C767.717 156.168 767.679 156.355 767.623 156.541C767.586 156.728 767.465 156.952 767.259 157.213L760.399 166.089V165.921H766.391Z" fill="#07394F"/>
<path d="M777.049 169.281C775.462 169.281 774.081 168.955 772.905 168.301C771.747 167.629 770.851 166.724 770.217 165.585C769.601 164.447 769.293 163.159 769.293 161.721C769.293 160.041 769.629 158.613 770.301 157.437C770.991 156.243 771.887 155.328 772.989 154.693C774.09 154.059 775.257 153.741 776.489 153.741C777.441 153.741 778.337 153.937 779.177 154.329C780.035 154.721 780.791 155.263 781.445 155.953C782.098 156.625 782.611 157.409 782.985 158.305C783.377 159.201 783.573 160.153 783.573 161.161C783.554 161.609 783.377 161.973 783.041 162.253C782.705 162.533 782.313 162.673 781.865 162.673H771.169L770.329 159.873H780.605L779.989 160.433V159.677C779.951 159.136 779.755 158.651 779.401 158.221C779.065 157.792 778.635 157.456 778.113 157.213C777.609 156.952 777.067 156.821 776.489 156.821C775.929 156.821 775.406 156.896 774.921 157.045C774.435 157.195 774.015 157.447 773.661 157.801C773.306 158.156 773.026 158.632 772.821 159.229C772.615 159.827 772.513 160.583 772.513 161.497C772.513 162.505 772.718 163.364 773.129 164.073C773.558 164.764 774.099 165.296 774.753 165.669C775.425 166.024 776.134 166.201 776.881 166.201C777.571 166.201 778.122 166.145 778.533 166.033C778.943 165.921 779.27 165.791 779.513 165.641C779.774 165.473 780.007 165.333 780.213 165.221C780.549 165.053 780.866 164.969 781.165 164.969C781.575 164.969 781.911 165.109 782.173 165.389C782.453 165.669 782.593 165.996 782.593 166.369C782.593 166.873 782.331 167.331 781.809 167.741C781.323 168.152 780.642 168.516 779.765 168.833C778.887 169.132 777.982 169.281 777.049 169.281Z" fill="#07394F"/>
<path d="M798.499 148.281C798.984 148.281 799.385 148.44 799.703 148.757C800.02 149.075 800.179 149.485 800.179 149.989V167.293C800.179 167.779 800.02 168.189 799.703 168.525C799.385 168.843 798.984 169.001 798.499 169.001C798.013 169.001 797.612 168.843 797.295 168.525C796.977 168.189 796.819 167.779 796.819 167.293V165.921L797.435 166.173C797.435 166.416 797.304 166.715 797.043 167.069C796.781 167.405 796.427 167.741 795.979 168.077C795.531 168.413 794.999 168.703 794.383 168.945C793.785 169.169 793.132 169.281 792.423 169.281C791.135 169.281 789.968 168.955 788.923 168.301C787.877 167.629 787.047 166.715 786.431 165.557C785.833 164.381 785.535 163.037 785.535 161.525C785.535 159.995 785.833 158.651 786.431 157.493C787.047 156.317 787.868 155.403 788.895 154.749C789.921 154.077 791.06 153.741 792.311 153.741C793.113 153.741 793.851 153.863 794.523 154.105C795.195 154.348 795.773 154.656 796.259 155.029C796.763 155.403 797.145 155.785 797.407 156.177C797.687 156.551 797.827 156.868 797.827 157.129L796.819 157.493V149.989C796.819 149.504 796.977 149.103 797.295 148.785C797.612 148.449 798.013 148.281 798.499 148.281ZM792.843 166.201C793.664 166.201 794.383 165.996 794.999 165.585C795.615 165.175 796.091 164.615 796.427 163.905C796.781 163.196 796.959 162.403 796.959 161.525C796.959 160.629 796.781 159.827 796.427 159.117C796.091 158.408 795.615 157.848 794.999 157.437C794.383 157.027 793.664 156.821 792.843 156.821C792.04 156.821 791.331 157.027 790.715 157.437C790.099 157.848 789.613 158.408 789.259 159.117C788.923 159.827 788.755 160.629 788.755 161.525C788.755 162.403 788.923 163.196 789.259 163.905C789.613 164.615 790.099 165.175 790.715 165.585C791.331 165.996 792.04 166.201 792.843 166.201Z" fill="#07394F"/>
<path d="M696.448 194.677C696.261 194.416 696.177 194.08 696.196 193.669C696.215 193.259 696.457 192.904 696.924 192.605C697.223 192.419 697.54 192.344 697.876 192.381C698.212 192.4 698.539 192.568 698.856 192.885C699.397 193.427 699.967 193.847 700.564 194.145C701.161 194.444 701.908 194.593 702.804 194.593C703.084 194.575 703.392 194.537 703.728 194.481C704.064 194.407 704.353 194.257 704.596 194.033C704.857 193.791 704.988 193.427 704.988 192.941C704.988 192.531 704.848 192.204 704.568 191.961C704.288 191.719 703.915 191.513 703.448 191.345C703 191.177 702.496 191.019 701.936 190.869C701.357 190.701 700.76 190.515 700.144 190.309C699.547 190.104 698.996 189.843 698.492 189.525C697.988 189.189 697.577 188.751 697.26 188.209C696.943 187.668 696.784 186.987 696.784 186.165C696.784 185.232 697.045 184.439 697.568 183.785C698.091 183.132 698.763 182.628 699.584 182.273C700.424 181.919 701.301 181.741 702.216 181.741C702.795 181.741 703.401 181.816 704.036 181.965C704.671 182.096 705.277 182.32 705.856 182.637C706.435 182.936 706.92 183.337 707.312 183.841C707.517 184.121 707.639 184.457 707.676 184.849C707.713 185.241 707.536 185.596 707.144 185.913C706.864 186.137 706.537 186.24 706.164 186.221C705.791 186.184 705.483 186.053 705.24 185.829C704.923 185.419 704.493 185.092 703.952 184.849C703.429 184.607 702.823 184.485 702.132 184.485C701.852 184.485 701.544 184.523 701.208 184.597C700.891 184.653 700.611 184.793 700.368 185.017C700.125 185.223 700.004 185.559 700.004 186.025C700.004 186.455 700.144 186.8 700.424 187.061C700.704 187.304 701.077 187.509 701.544 187.677C702.029 187.827 702.543 187.976 703.084 188.125C703.644 188.275 704.213 188.452 704.792 188.657C705.371 188.863 705.903 189.133 706.388 189.469C706.873 189.805 707.265 190.244 707.564 190.785C707.863 191.308 708.012 191.98 708.012 192.801C708.012 193.753 707.732 194.565 707.172 195.237C706.612 195.909 705.912 196.423 705.072 196.777C704.232 197.113 703.373 197.281 702.496 197.281C701.395 197.281 700.293 197.095 699.192 196.721C698.091 196.329 697.176 195.648 696.448 194.677Z" fill="#07394F"/>
<path d="M725.216 189.525C725.216 191.056 724.871 192.409 724.18 193.585C723.508 194.743 722.593 195.648 721.436 196.301C720.297 196.955 719.019 197.281 717.6 197.281C716.181 197.281 714.893 196.955 713.736 196.301C712.597 195.648 711.683 194.743 710.992 193.585C710.32 192.409 709.984 191.056 709.984 189.525C709.984 187.995 710.32 186.651 710.992 185.493C711.683 184.317 712.597 183.403 713.736 182.749C714.893 182.077 716.181 181.741 717.6 181.741C719.019 181.741 720.297 182.077 721.436 182.749C722.593 183.403 723.508 184.317 724.18 185.493C724.871 186.651 725.216 187.995 725.216 189.525ZM721.856 189.525C721.856 188.573 721.66 187.752 721.268 187.061C720.895 186.352 720.381 185.801 719.728 185.409C719.093 185.017 718.384 184.821 717.6 184.821C716.816 184.821 716.097 185.017 715.444 185.409C714.809 185.801 714.296 186.352 713.904 187.061C713.531 187.752 713.344 188.573 713.344 189.525C713.344 190.459 713.531 191.28 713.904 191.989C714.296 192.68 714.809 193.221 715.444 193.613C716.097 194.005 716.816 194.201 717.6 194.201C718.384 194.201 719.093 194.005 719.728 193.613C720.381 193.221 720.895 192.68 721.268 191.989C721.66 191.28 721.856 190.459 721.856 189.525Z" fill="#07394F"/>
<path d="M731.663 195.293C731.663 195.779 731.495 196.189 731.159 196.525C730.842 196.843 730.44 197.001 729.955 197.001C729.488 197.001 729.096 196.843 728.779 196.525C728.462 196.189 728.303 195.779 728.303 195.293V177.989C728.303 177.504 728.462 177.103 728.779 176.785C729.115 176.449 729.526 176.281 730.011 176.281C730.496 176.281 730.888 176.449 731.187 176.785C731.504 177.103 731.663 177.504 731.663 177.989V195.293Z" fill="#07394F"/>
<path d="M746.549 182.021C747.035 182.021 747.436 182.189 747.753 182.525C748.071 182.843 748.229 183.244 748.229 183.729V190.841C748.229 192.82 747.679 194.388 746.577 195.545C745.476 196.703 743.889 197.281 741.817 197.281C739.745 197.281 738.159 196.703 737.057 195.545C735.975 194.388 735.433 192.82 735.433 190.841V183.729C735.433 183.244 735.592 182.843 735.909 182.525C736.227 182.189 736.628 182.021 737.113 182.021C737.599 182.021 738 182.189 738.317 182.525C738.635 182.843 738.793 183.244 738.793 183.729V190.841C738.793 191.98 739.045 192.829 739.549 193.389C740.053 193.931 740.809 194.201 741.817 194.201C742.844 194.201 743.609 193.931 744.113 193.389C744.617 192.829 744.869 191.98 744.869 190.841V183.729C744.869 183.244 745.028 182.843 745.345 182.525C745.663 182.189 746.064 182.021 746.549 182.021Z" fill="#07394F"/>
<path d="M752.035 182.301H758.671C759.119 182.301 759.492 182.451 759.791 182.749C760.09 183.048 760.239 183.421 760.239 183.869C760.239 184.299 760.09 184.663 759.791 184.961C759.492 185.241 759.119 185.381 758.671 185.381H752.035C751.587 185.381 751.214 185.232 750.915 184.933C750.616 184.635 750.467 184.261 750.467 183.813C750.467 183.384 750.616 183.029 750.915 182.749C751.214 182.451 751.587 182.301 752.035 182.301ZM755.031 178.801C755.516 178.801 755.908 178.969 756.207 179.305C756.524 179.623 756.683 180.024 756.683 180.509V192.969C756.683 193.231 756.73 193.445 756.823 193.613C756.935 193.781 757.075 193.903 757.243 193.977C757.43 194.052 757.626 194.089 757.831 194.089C758.055 194.089 758.26 194.052 758.447 193.977C758.634 193.884 758.848 193.837 759.091 193.837C759.352 193.837 759.586 193.959 759.791 194.201C760.015 194.444 760.127 194.78 760.127 195.209C760.127 195.732 759.838 196.161 759.259 196.497C758.699 196.833 758.092 197.001 757.439 197.001C757.047 197.001 756.608 196.973 756.123 196.917C755.656 196.843 755.208 196.684 754.779 196.441C754.368 196.18 754.023 195.788 753.743 195.265C753.463 194.743 753.323 194.024 753.323 193.109V180.509C753.323 180.024 753.482 179.623 753.799 179.305C754.135 178.969 754.546 178.801 755.031 178.801Z" fill="#07394F"/>
<path d="M766.488 195.293C766.488 195.779 766.329 196.189 766.012 196.525C765.695 196.843 765.293 197.001 764.808 197.001C764.323 197.001 763.921 196.843 763.604 196.525C763.287 196.189 763.128 195.779 763.128 195.293V183.729C763.128 183.244 763.287 182.843 763.604 182.525C763.921 182.189 764.323 182.021 764.808 182.021C765.293 182.021 765.695 182.189 766.012 182.525C766.329 182.843 766.488 183.244 766.488 183.729V195.293ZM764.78 180.201C764.145 180.201 763.697 180.099 763.436 179.893C763.175 179.688 763.044 179.324 763.044 178.801V178.269C763.044 177.728 763.184 177.364 763.464 177.177C763.763 176.972 764.211 176.869 764.808 176.869C765.461 176.869 765.919 176.972 766.18 177.177C766.441 177.383 766.572 177.747 766.572 178.269V178.801C766.572 179.343 766.432 179.716 766.152 179.921C765.872 180.108 765.415 180.201 764.78 180.201Z" fill="#07394F"/>
<path d="M784.333 189.525C784.333 191.056 783.988 192.409 783.297 193.585C782.625 194.743 781.71 195.648 780.553 196.301C779.414 196.955 778.136 197.281 776.717 197.281C775.298 197.281 774.01 196.955 772.853 196.301C771.714 195.648 770.8 194.743 770.109 193.585C769.437 192.409 769.101 191.056 769.101 189.525C769.101 187.995 769.437 186.651 770.109 185.493C770.8 184.317 771.714 183.403 772.853 182.749C774.01 182.077 775.298 181.741 776.717 181.741C778.136 181.741 779.414 182.077 780.553 182.749C781.71 183.403 782.625 184.317 783.297 185.493C783.988 186.651 784.333 187.995 784.333 189.525ZM780.973 189.525C780.973 188.573 780.777 187.752 780.385 187.061C780.012 186.352 779.498 185.801 778.845 185.409C778.21 185.017 777.501 184.821 776.717 184.821C775.933 184.821 775.214 185.017 774.561 185.409C773.926 185.801 773.413 186.352 773.021 187.061C772.648 187.752 772.461 188.573 772.461 189.525C772.461 190.459 772.648 191.28 773.021 191.989C773.413 192.68 773.926 193.221 774.561 193.613C775.214 194.005 775.933 194.201 776.717 194.201C777.501 194.201 778.21 194.005 778.845 193.613C779.498 193.221 780.012 192.68 780.385 191.989C780.777 191.28 780.973 190.459 780.973 189.525Z" fill="#07394F"/>
<path d="M795.148 181.741C796.53 181.741 797.575 182.031 798.284 182.609C799.012 183.188 799.507 183.963 799.768 184.933C800.048 185.885 800.188 186.949 800.188 188.125V195.293C800.188 195.779 800.03 196.189 799.712 196.525C799.395 196.843 798.994 197.001 798.508 197.001C798.023 197.001 797.622 196.843 797.304 196.525C796.987 196.189 796.828 195.779 796.828 195.293V188.125C796.828 187.509 796.744 186.959 796.576 186.473C796.427 185.969 796.147 185.568 795.736 185.269C795.326 184.971 794.738 184.821 793.972 184.821C793.226 184.821 792.591 184.971 792.068 185.269C791.564 185.568 791.172 185.969 790.892 186.473C790.631 186.959 790.5 187.509 790.5 188.125V195.293C790.5 195.779 790.342 196.189 790.024 196.525C789.707 196.843 789.306 197.001 788.82 197.001C788.335 197.001 787.934 196.843 787.616 196.525C787.299 196.189 787.14 195.779 787.14 195.293V183.729C787.14 183.244 787.299 182.843 787.616 182.525C787.934 182.189 788.335 182.021 788.82 182.021C789.306 182.021 789.707 182.189 790.024 182.525C790.342 182.843 790.5 183.244 790.5 183.729V184.933L790.08 184.849C790.248 184.532 790.491 184.196 790.808 183.841C791.126 183.468 791.499 183.123 791.928 182.805C792.358 182.488 792.843 182.236 793.384 182.049C793.926 181.844 794.514 181.741 795.148 181.741Z" fill="#07394F"/>
<path opacity="0.5" fill-rule="evenodd" clip-rule="evenodd" d="M201.065 6.04451C202.373 6.01489 203.685 6 205 6V0C203.639 0 202.282 0.0154016 200.929 0.046042L201.065 6.04451ZM184.445 7.22611C187.029 6.91561 189.632 6.66291 192.251 6.46935L191.808 0.485671C189.098 0.685989 186.404 0.947538 183.729 1.26895L184.445 7.22611ZM168.022 10.0205C170.566 9.45805 173.131 8.9524 175.716 8.50495L174.692 2.59286C172.016 3.05612 169.36 3.57966 166.727 4.16204L168.022 10.0205ZM151.954 14.4139C154.432 13.6033 156.935 12.8479 159.461 12.1493L157.862 6.36631C155.246 7.08975 152.654 7.87191 150.089 8.7113L151.954 14.4139ZM136.396 20.3675C138.784 19.3163 141.2 18.3183 143.644 17.3749L141.483 11.7775C138.953 12.7543 136.451 13.7877 133.978 14.8762L136.396 20.3675ZM121.497 27.8219C123.772 26.5405 126.079 25.3099 128.417 24.1316L125.717 18.7736C123.296 19.9936 120.907 21.2677 118.553 22.5943L121.497 27.8219ZM107.4 36.7004C109.539 35.2019 111.715 33.7514 113.925 32.3504L110.713 27.2826C108.425 28.733 106.173 30.2346 103.958 31.7858L107.4 36.7004ZM94.2352 46.9134C96.2195 45.2126 98.2436 43.5567 100.306 41.9472L96.6144 37.2172C94.4796 38.8832 92.3845 40.5973 90.3305 42.3579L94.2352 46.9134ZM82.1284 58.3608C83.9384 56.474 85.7916 54.6288 87.6865 52.8268L83.5517 48.4789C81.5903 50.3442 79.672 52.2542 77.7985 54.2073L82.1284 58.3608ZM71.1952 70.9332C72.8131 68.878 74.4776 66.8611 76.187 64.8839L71.6483 60.9597C69.8787 63.0064 68.1556 65.0943 66.4808 67.2218L71.1952 70.9332ZM61.5434 84.5127C62.9528 82.3082 64.412 80.1384 65.9193 78.0048L61.0188 74.5428C59.4583 76.7517 57.9476 78.9982 56.4883 81.2807L61.5434 84.5127ZM53.2714 98.9724C54.4576 96.639 55.6965 94.3366 56.9863 92.0667L51.7697 89.1024C50.4341 91.4527 49.1513 93.8369 47.9229 96.2533L53.2714 98.9724ZM46.4663 114.176C47.4166 111.735 48.422 109.322 49.4809 106.938L43.9974 104.502C42.9007 106.972 41.8595 109.471 40.8752 111.999L46.4663 114.176ZM41.2002 129.977C41.9044 127.453 42.6657 124.952 43.4827 122.477L37.785 120.596C36.9388 123.16 36.1503 125.75 35.4209 128.365L41.2002 129.977ZM37.5262 146.222C37.9773 143.639 38.4872 141.075 39.0543 138.533L33.1982 137.226C32.6109 139.859 32.0828 142.515 31.6156 145.19L37.5262 146.222ZM35.4734 162.753C35.6686 160.134 35.9234 157.533 36.2366 154.949L30.2802 154.227C29.9559 156.902 29.6921 159.596 29.49 162.307L35.4734 162.753ZM35 175.5C35 174.185 35.015 172.873 35.0449 171.565L29.0464 171.428C29.0155 172.782 29 174.139 29 175.5C29 176.861 29.0155 178.218 29.0464 179.572L35.0449 179.435C35.015 178.127 35 176.815 35 175.5ZM36.2366 196.051C35.9234 193.467 35.6686 190.866 35.4734 188.247L29.49 188.693C29.6921 191.404 29.9559 194.098 30.2802 196.773L36.2366 196.051ZM39.0543 212.467C38.4872 209.925 37.9773 207.361 37.5262 204.778L31.6156 205.81C32.0828 208.485 32.6108 211.141 33.1982 213.774L39.0543 212.467ZM43.4827 228.523C42.6657 226.048 41.9044 223.547 41.2002 221.023L35.4209 222.635C36.1502 225.25 36.9388 227.84 37.785 230.404L43.4827 228.523ZM49.4809 244.062C48.422 241.678 47.4166 239.265 46.4663 236.824L40.8752 239.001C41.8594 241.529 42.9007 244.028 43.9974 246.498L49.4809 244.062ZM56.9863 258.933C55.6964 256.663 54.4576 254.361 53.2714 252.028L47.9229 254.747C49.1513 257.163 50.4341 259.547 51.7697 261.898L56.9863 258.933ZM65.9193 272.995C64.412 270.862 62.9528 268.692 61.5434 266.487L56.4883 269.719C57.9476 272.002 59.4583 274.248 61.0188 276.457L65.9193 272.995ZM76.187 286.116C74.4775 284.139 72.8131 282.122 71.1952 280.067L66.4808 283.778C68.1556 285.906 69.8786 287.994 71.6483 290.04L76.187 286.116ZM87.6864 298.173C85.7916 296.371 83.9384 294.526 82.1284 292.639L77.7985 296.793C79.672 298.746 81.5903 300.656 83.5517 302.521L87.6864 298.173ZM100.306 309.053C98.2436 307.443 96.2195 305.787 94.2352 304.087L90.3305 308.642C92.3844 310.403 94.4796 312.117 96.6144 313.783L100.306 309.053ZM113.925 318.65C111.715 317.249 109.539 315.798 107.4 314.3L103.958 319.214C106.173 320.765 108.425 322.267 110.713 323.717L113.925 318.65ZM128.417 326.868C126.079 325.69 123.772 324.459 121.497 323.178L118.553 328.406C120.907 329.732 123.296 331.006 125.717 332.226L128.417 326.868ZM143.644 333.625C141.2 332.682 138.784 331.684 136.396 330.632L133.978 336.124C136.451 337.212 138.953 338.246 141.483 339.223L143.644 333.625ZM159.461 338.851C156.935 338.152 154.432 337.397 151.954 336.586L150.089 342.289C152.654 343.128 155.246 343.91 157.862 344.634L159.461 338.851ZM175.716 342.495C173.131 342.048 170.566 341.542 168.022 340.979L166.727 346.838C169.36 347.42 172.016 347.944 174.692 348.407L175.716 342.495ZM192.251 344.531C189.632 344.337 187.029 344.084 184.445 343.774L183.729 349.731C186.404 350.052 189.098 350.314 191.808 350.514L192.251 344.531ZM205 345C203.685 345 202.373 344.985 201.065 344.956L200.929 350.954C202.282 350.985 203.639 351 205 351V345Z" fill="#C4DEE9"/>
<path d="M10.192 153.399C11.1627 153.399 12.068 153.679 12.908 154.239C13.7667 154.799 14.4573 155.555 14.98 156.507C15.5027 157.459 15.764 158.523 15.764 159.699C15.764 160.857 15.5027 161.911 14.98 162.863C14.4573 163.815 13.7667 164.581 12.908 165.159C12.068 165.719 11.1627 165.999 10.192 165.999H5.03999L5.31999 165.495V171.291C5.31999 171.777 5.17066 172.187 4.87199 172.523C4.57333 172.841 4.18133 172.999 3.69599 172.999C3.22933 172.999 2.84666 172.841 2.54799 172.523C2.24933 172.187 2.09999 171.777 2.09999 171.291V155.107C2.09999 154.622 2.25866 154.221 2.57599 153.903C2.91199 153.567 3.32266 153.399 3.80799 153.399H10.192ZM10.192 162.807C10.5467 162.807 10.892 162.658 11.228 162.359C11.564 162.061 11.844 161.678 12.068 161.211C12.292 160.726 12.404 160.222 12.404 159.699C12.404 159.158 12.292 158.654 12.068 158.187C11.844 157.721 11.564 157.347 11.228 157.067C10.892 156.769 10.5467 156.619 10.192 156.619H4.98399L5.31999 156.115V163.255L5.01199 162.807H10.192Z" fill="#07394F"/>
<path d="M20.3711 172.999C19.8858 172.999 19.4844 172.841 19.1671 172.523C18.8498 172.187 18.6911 171.777 18.6911 171.291V159.727C18.6911 159.242 18.8498 158.841 19.1671 158.523C19.4844 158.187 19.8858 158.019 20.3711 158.019C20.8564 158.019 21.2578 158.187 21.5751 158.523C21.8924 158.841 22.0511 159.242 22.0511 159.727V162.359L21.8551 160.483C22.0604 160.035 22.3218 159.643 22.6391 159.307C22.9751 158.953 23.3484 158.663 23.7591 158.439C24.1698 158.197 24.6084 158.019 25.0751 157.907C25.5418 157.795 26.0084 157.739 26.4751 157.739C27.0351 157.739 27.5018 157.898 27.8751 158.215C28.2671 158.533 28.4631 158.906 28.4631 159.335C28.4631 159.951 28.3044 160.399 27.9871 160.679C27.6698 160.941 27.3244 161.071 26.9511 161.071C26.5964 161.071 26.2698 161.006 25.9711 160.875C25.6911 160.745 25.3644 160.679 24.9911 160.679C24.6551 160.679 24.3098 160.763 23.9551 160.931C23.6191 161.081 23.3018 161.323 23.0031 161.659C22.7231 161.995 22.4898 162.415 22.3031 162.919C22.1351 163.405 22.0511 163.983 22.0511 164.655V171.291C22.0511 171.777 21.8924 172.187 21.5751 172.523C21.2578 172.841 20.8564 172.999 20.3711 172.999Z" fill="#07394F"/>
<path d="M37.1188 173.279C35.5321 173.279 34.1508 172.953 32.9748 172.299C31.8175 171.627 30.9215 170.722 30.2868 169.583C29.6708 168.445 29.3628 167.157 29.3628 165.719C29.3628 164.039 29.6988 162.611 30.3708 161.435C31.0615 160.241 31.9575 159.326 33.0588 158.691C34.1601 158.057 35.3268 157.739 36.5588 157.739C37.5108 157.739 38.4068 157.935 39.2468 158.327C40.1055 158.719 40.8615 159.261 41.5148 159.951C42.1681 160.623 42.6815 161.407 43.0548 162.303C43.4468 163.199 43.6428 164.151 43.6428 165.159C43.6241 165.607 43.4468 165.971 43.1108 166.251C42.7748 166.531 42.3828 166.671 41.9348 166.671H31.2388L30.3988 163.871H40.6748L40.0588 164.431V163.675C40.0215 163.134 39.8255 162.649 39.4708 162.219C39.1348 161.79 38.7055 161.454 38.1828 161.211C37.6788 160.95 37.1375 160.819 36.5588 160.819C35.9988 160.819 35.4761 160.894 34.9908 161.043C34.5055 161.193 34.0855 161.445 33.7308 161.799C33.3761 162.154 33.0961 162.63 32.8908 163.227C32.6855 163.825 32.5828 164.581 32.5828 165.495C32.5828 166.503 32.7881 167.362 33.1988 168.071C33.6281 168.762 34.1695 169.294 34.8228 169.667C35.4948 170.022 36.2041 170.199 36.9508 170.199C37.6415 170.199 38.1921 170.143 38.6028 170.031C39.0135 169.919 39.3401 169.789 39.5828 169.639C39.8441 169.471 40.0775 169.331 40.2828 169.219C40.6188 169.051 40.9361 168.967 41.2348 168.967C41.6455 168.967 41.9815 169.107 42.2428 169.387C42.5228 169.667 42.6628 169.994 42.6628 170.367C42.6628 170.871 42.4015 171.329 41.8788 171.739C41.3935 172.15 40.7121 172.514 39.8348 172.831C38.9575 173.13 38.0521 173.279 37.1188 173.279Z" fill="#07394F"/>
<path d="M54.313 157.739C55.8063 157.739 56.9077 158.103 57.617 158.831C58.3263 159.541 58.793 160.465 59.017 161.603L58.541 161.351L58.765 160.903C58.989 160.474 59.3343 160.017 59.801 159.531C60.2677 159.027 60.8277 158.607 61.481 158.271C62.153 157.917 62.8997 157.739 63.721 157.739C65.065 157.739 66.0823 158.029 66.773 158.607C67.4823 159.186 67.9677 159.961 68.229 160.931C68.4903 161.883 68.621 162.947 68.621 164.123V171.291C68.621 171.777 68.4623 172.187 68.145 172.523C67.8277 172.841 67.4263 172.999 66.941 172.999C66.4557 172.999 66.0543 172.841 65.737 172.523C65.4197 172.187 65.261 171.777 65.261 171.291V164.123C65.261 163.507 65.1863 162.957 65.037 162.471C64.8877 161.967 64.617 161.566 64.225 161.267C63.833 160.969 63.273 160.819 62.545 160.819C61.8357 160.819 61.229 160.969 60.725 161.267C60.221 161.566 59.8383 161.967 59.577 162.471C59.3343 162.957 59.213 163.507 59.213 164.123V171.291C59.213 171.777 59.0543 172.187 58.737 172.523C58.4197 172.841 58.0183 172.999 57.533 172.999C57.0477 172.999 56.6463 172.841 56.329 172.523C56.0117 172.187 55.853 171.777 55.853 171.291V164.123C55.853 163.507 55.7783 162.957 55.629 162.471C55.4797 161.967 55.209 161.566 54.817 161.267C54.425 160.969 53.865 160.819 53.137 160.819C52.4277 160.819 51.821 160.969 51.317 161.267C50.813 161.566 50.4303 161.967 50.169 162.471C49.9263 162.957 49.805 163.507 49.805 164.123V171.291C49.805 171.777 49.6463 172.187 49.329 172.523C49.0117 172.841 48.6103 172.999 48.125 172.999C47.6397 172.999 47.2383 172.841 46.921 172.523C46.6037 172.187 46.445 171.777 46.445 171.291V159.727C46.445 159.242 46.6037 158.841 46.921 158.523C47.2383 158.187 47.6397 158.019 48.125 158.019C48.6103 158.019 49.0117 158.187 49.329 158.523C49.6463 158.841 49.805 159.242 49.805 159.727V160.931L49.385 160.847C49.553 160.53 49.7863 160.194 50.085 159.839C50.3837 159.466 50.7477 159.121 51.177 158.803C51.6063 158.486 52.0823 158.234 52.605 158.047C53.1277 157.842 53.697 157.739 54.313 157.739Z" fill="#07394F"/>
<path d="M75.4215 171.291C75.4215 171.777 75.2628 172.187 74.9455 172.523C74.6282 172.841 74.2268 172.999 73.7415 172.999C73.2562 172.999 72.8548 172.841 72.5375 172.523C72.2202 172.187 72.0615 171.777 72.0615 171.291V159.727C72.0615 159.242 72.2202 158.841 72.5375 158.523C72.8548 158.187 73.2562 158.019 73.7415 158.019C74.2268 158.019 74.6282 158.187 74.9455 158.523C75.2628 158.841 75.4215 159.242 75.4215 159.727V171.291ZM73.7135 156.199C73.0788 156.199 72.6308 156.097 72.3695 155.891C72.1082 155.686 71.9775 155.322 71.9775 154.799V154.267C71.9775 153.726 72.1175 153.362 72.3975 153.175C72.6962 152.97 73.1442 152.867 73.7415 152.867C74.3948 152.867 74.8522 152.97 75.1135 153.175C75.3748 153.381 75.5055 153.745 75.5055 154.267V154.799C75.5055 155.341 75.3655 155.714 75.0855 155.919C74.8055 156.106 74.3482 156.199 73.7135 156.199Z" fill="#07394F"/>
<path d="M89.9907 158.019C90.476 158.019 90.8773 158.187 91.1947 158.523C91.512 158.841 91.6707 159.242 91.6707 159.727V166.839C91.6707 168.818 91.12 170.386 90.0187 171.543C88.9174 172.701 87.3307 173.279 85.2587 173.279C83.1867 173.279 81.6 172.701 80.4987 171.543C79.416 170.386 78.8747 168.818 78.8747 166.839V159.727C78.8747 159.242 79.0333 158.841 79.3507 158.523C79.668 158.187 80.0693 158.019 80.5547 158.019C81.04 158.019 81.4413 158.187 81.7587 158.523C82.076 158.841 82.2347 159.242 82.2347 159.727V166.839C82.2347 167.978 82.4867 168.827 82.9907 169.387C83.4947 169.929 84.2507 170.199 85.2587 170.199C86.2853 170.199 87.0507 169.929 87.5547 169.387C88.0587 168.827 88.3107 167.978 88.3107 166.839V159.727C88.3107 159.242 88.4693 158.841 88.7867 158.523C89.104 158.187 89.5053 158.019 89.9907 158.019Z" fill="#07394F"/>
<path d="M103.176 157.739C104.67 157.739 105.771 158.103 106.48 158.831C107.19 159.541 107.656 160.465 107.88 161.603L107.404 161.351L107.628 160.903C107.852 160.474 108.198 160.017 108.664 159.531C109.131 159.027 109.691 158.607 110.344 158.271C111.016 157.917 111.763 157.739 112.584 157.739C113.928 157.739 114.946 158.029 115.636 158.607C116.346 159.186 116.831 159.961 117.092 160.931C117.354 161.883 117.484 162.947 117.484 164.123V171.291C117.484 171.777 117.326 172.187 117.008 172.523C116.691 172.841 116.29 172.999 115.804 172.999C115.319 172.999 114.918 172.841 114.6 172.523C114.283 172.187 114.124 171.777 114.124 171.291V164.123C114.124 163.507 114.05 162.957 113.9 162.471C113.751 161.967 113.48 161.566 113.088 161.267C112.696 160.969 112.136 160.819 111.408 160.819C110.699 160.819 110.092 160.969 109.588 161.267C109.084 161.566 108.702 161.967 108.44 162.471C108.198 162.957 108.076 163.507 108.076 164.123V171.291C108.076 171.777 107.918 172.187 107.6 172.523C107.283 172.841 106.882 172.999 106.396 172.999C105.911 172.999 105.51 172.841 105.192 172.523C104.875 172.187 104.716 171.777 104.716 171.291V164.123C104.716 163.507 104.642 162.957 104.492 162.471C104.343 161.967 104.072 161.566 103.68 161.267C103.288 160.969 102.728 160.819 102 160.819C101.291 160.819 100.684 160.969 100.18 161.267C99.6763 161.566 99.2936 161.967 99.0323 162.471C98.7896 162.957 98.6683 163.507 98.6683 164.123V171.291C98.6683 171.777 98.5096 172.187 98.1923 172.523C97.8749 172.841 97.4736 172.999 96.9883 172.999C96.5029 172.999 96.1016 172.841 95.7843 172.523C95.4669 172.187 95.3083 171.777 95.3083 171.291V159.727C95.3083 159.242 95.4669 158.841 95.7843 158.523C96.1016 158.187 96.5029 158.019 96.9883 158.019C97.4736 158.019 97.8749 158.187 98.1923 158.523C98.5096 158.841 98.6683 159.242 98.6683 159.727V160.931L98.2483 160.847C98.4163 160.53 98.6496 160.194 98.9483 159.839C99.2469 159.466 99.6109 159.121 100.04 158.803C100.47 158.486 100.946 158.234 101.468 158.047C101.991 157.842 102.56 157.739 103.176 157.739Z" fill="#07394F"/>
<path d="M0.951994 198.675C0.765328 198.414 0.681328 198.078 0.699994 197.667C0.718661 197.257 0.961328 196.902 1.42799 196.603C1.72666 196.417 2.04399 196.342 2.37999 196.379C2.71599 196.398 3.04266 196.566 3.35999 196.883C3.90133 197.425 4.47066 197.845 5.06799 198.143C5.66533 198.442 6.41199 198.591 7.30799 198.591C7.58799 198.573 7.896 198.535 8.23199 198.479C8.56799 198.405 8.85733 198.255 9.09999 198.031C9.36133 197.789 9.49199 197.425 9.49199 196.939C9.49199 196.529 9.352 196.202 9.07199 195.959C8.792 195.717 8.41866 195.511 7.95199 195.343C7.50399 195.175 6.99999 195.017 6.43999 194.867C5.86133 194.699 5.26399 194.513 4.64799 194.307C4.05066 194.102 3.49999 193.841 2.99599 193.523C2.49199 193.187 2.08133 192.749 1.76399 192.207C1.44666 191.666 1.28799 190.985 1.28799 190.163C1.28799 189.23 1.54933 188.437 2.07199 187.783C2.59466 187.13 3.26666 186.626 4.08799 186.271C4.92799 185.917 5.80533 185.739 6.71999 185.739C7.29866 185.739 7.90533 185.814 8.53999 185.963C9.17466 186.094 9.78133 186.318 10.36 186.635C10.9387 186.934 11.424 187.335 11.816 187.839C12.0213 188.119 12.1427 188.455 12.18 188.847C12.2173 189.239 12.04 189.594 11.648 189.911C11.368 190.135 11.0413 190.238 10.668 190.219C10.2947 190.182 9.98666 190.051 9.74399 189.827C9.42666 189.417 8.99733 189.09 8.45599 188.847C7.93333 188.605 7.32666 188.483 6.63599 188.483C6.35599 188.483 6.04799 188.521 5.71199 188.595C5.39466 188.651 5.11466 188.791 4.87199 189.015C4.62933 189.221 4.50799 189.557 4.50799 190.023C4.50799 190.453 4.64799 190.798 4.92799 191.059C5.20799 191.302 5.58133 191.507 6.04799 191.675C6.53333 191.825 7.04666 191.974 7.588 192.123C8.14799 192.273 8.71733 192.45 9.29599 192.655C9.87466 192.861 10.4067 193.131 10.892 193.467C11.3773 193.803 11.7693 194.242 12.068 194.783C12.3667 195.306 12.516 195.978 12.516 196.799C12.516 197.751 12.236 198.563 11.676 199.235C11.116 199.907 10.416 200.421 9.57599 200.775C8.73599 201.111 7.87733 201.279 6.99999 201.279C5.89866 201.279 4.79733 201.093 3.69599 200.719C2.59466 200.327 1.67999 199.646 0.951994 198.675Z" fill="#07394F"/>
<path d="M22.2438 201.279C20.6571 201.279 19.2758 200.953 18.0998 200.299C16.9425 199.627 16.0465 198.722 15.4118 197.583C14.7958 196.445 14.4878 195.157 14.4878 193.719C14.4878 192.039 14.8238 190.611 15.4958 189.435C16.1865 188.241 17.0825 187.326 18.1838 186.691C19.2851 186.057 20.4518 185.739 21.6838 185.739C22.6358 185.739 23.5318 185.935 24.3718 186.327C25.2305 186.719 25.9865 187.261 26.6398 187.951C27.2931 188.623 27.8065 189.407 28.1798 190.303C28.5718 191.199 28.7678 192.151 28.7678 193.159C28.7491 193.607 28.5718 193.971 28.2358 194.251C27.8998 194.531 27.5078 194.671 27.0598 194.671H16.3638L15.5238 191.871H25.7998L25.1838 192.431V191.675C25.1465 191.134 24.9505 190.649 24.5958 190.219C24.2598 189.79 23.8305 189.454 23.3078 189.211C22.8038 188.95 22.2625 188.819 21.6838 188.819C21.1238 188.819 20.6011 188.894 20.1158 189.043C19.6305 189.193 19.2105 189.445 18.8558 189.799C18.5011 190.154 18.2211 190.63 18.0158 191.227C17.8105 191.825 17.7078 192.581 17.7078 193.495C17.7078 194.503 17.9131 195.362 18.3238 196.071C18.7531 196.762 19.2945 197.294 19.9478 197.667C20.6198 198.022 21.3291 198.199 22.0758 198.199C22.7665 198.199 23.3171 198.143 23.7278 198.031C24.1385 197.919 24.4651 197.789 24.7078 197.639C24.9691 197.471 25.2025 197.331 25.4078 197.219C25.7438 197.051 26.0611 196.967 26.3598 196.967C26.7705 196.967 27.1065 197.107 27.3678 197.387C27.6478 197.667 27.7878 197.994 27.7878 198.367C27.7878 198.871 27.5265 199.329 27.0038 199.739C26.5185 200.15 25.8371 200.514 24.9598 200.831C24.0825 201.13 23.1771 201.279 22.2438 201.279Z" fill="#07394F"/>
<path d="M33.25 200.999C32.7647 200.999 32.3633 200.841 32.046 200.523C31.7287 200.187 31.57 199.777 31.57 199.291V187.727C31.57 187.242 31.7287 186.841 32.046 186.523C32.3633 186.187 32.7647 186.019 33.25 186.019C33.7353 186.019 34.1367 186.187 34.454 186.523C34.7713 186.841 34.93 187.242 34.93 187.727V190.359L34.734 188.483C34.9393 188.035 35.2007 187.643 35.518 187.307C35.854 186.953 36.2273 186.663 36.638 186.439C37.0487 186.197 37.4873 186.019 37.954 185.907C38.4207 185.795 38.8873 185.739 39.354 185.739C39.914 185.739 40.3807 185.898 40.754 186.215C41.146 186.533 41.342 186.906 41.342 187.335C41.342 187.951 41.1833 188.399 40.866 188.679C40.5487 188.941 40.2033 189.071 39.83 189.071C39.4753 189.071 39.1487 189.006 38.85 188.875C38.57 188.745 38.2433 188.679 37.87 188.679C37.534 188.679 37.1887 188.763 36.834 188.931C36.498 189.081 36.1807 189.323 35.882 189.659C35.602 189.995 35.3687 190.415 35.182 190.919C35.014 191.405 34.93 191.983 34.93 192.655V199.291C34.93 199.777 34.7713 200.187 34.454 200.523C34.1367 200.841 33.7353 200.999 33.25 200.999Z" fill="#07394F"/>
<path d="M45.7771 186.019C46.1318 186.019 46.4585 186.113 46.7571 186.299C47.0558 186.467 47.2798 186.729 47.4291 187.083L51.5452 196.491L50.9291 196.771L55.1292 187.111C55.4465 186.365 55.9411 186.01 56.6131 186.047C57.0798 186.047 57.4532 186.197 57.7332 186.495C58.0318 186.775 58.1811 187.13 58.1811 187.559C58.1811 187.69 58.1531 187.83 58.0971 187.979C58.0598 188.129 58.0131 188.269 57.9571 188.399L52.7211 199.935C52.4225 200.607 51.9465 200.962 51.2931 200.999C50.9385 201.055 50.5931 200.99 50.2571 200.803C49.9398 200.617 49.6971 200.327 49.5291 199.935L44.3211 188.399C44.2838 188.306 44.2371 188.185 44.1811 188.035C44.1438 187.886 44.1251 187.709 44.1251 187.503C44.1251 187.167 44.2745 186.841 44.5732 186.523C44.8718 186.187 45.2731 186.019 45.7771 186.019Z" fill="#07394F"/>
<path d="M63.9918 199.291C63.9918 199.777 63.8331 200.187 63.5158 200.523C63.1985 200.841 62.7971 200.999 62.3118 200.999C61.8265 200.999 61.4251 200.841 61.1078 200.523C60.7905 200.187 60.6318 199.777 60.6318 199.291V187.727C60.6318 187.242 60.7905 186.841 61.1078 186.523C61.4251 186.187 61.8265 186.019 62.3118 186.019C62.7971 186.019 63.1985 186.187 63.5158 186.523C63.8331 186.841 63.9918 187.242 63.9918 187.727V199.291ZM62.2838 184.199C61.6491 184.199 61.2011 184.097 60.9398 183.891C60.6785 183.686 60.5478 183.322 60.5478 182.799V182.267C60.5478 181.726 60.6878 181.362 60.9678 181.175C61.2665 180.97 61.7145 180.867 62.3118 180.867C62.9651 180.867 63.4225 180.97 63.6838 181.175C63.9451 181.381 64.0758 181.745 64.0758 182.267V182.799C64.0758 183.341 63.9358 183.714 63.6558 183.919C63.3758 184.106 62.9185 184.199 62.2838 184.199Z" fill="#07394F"/>
<path d="M73.969 185.739C75.033 185.739 75.957 185.851 76.741 186.075C77.5437 186.299 78.1597 186.617 78.589 187.027C79.037 187.419 79.261 187.895 79.261 188.455C79.261 188.829 79.149 189.183 78.925 189.519C78.701 189.837 78.3743 189.995 77.945 189.995C77.6463 189.995 77.3943 189.958 77.189 189.883C77.0023 189.79 76.8343 189.678 76.685 189.547C76.5357 189.417 76.3583 189.295 76.153 189.183C75.9663 189.071 75.677 188.987 75.285 188.931C74.9117 188.857 74.6317 188.819 74.445 188.819C73.493 188.819 72.681 189.025 72.009 189.435C71.3557 189.846 70.8517 190.406 70.497 191.115C70.1423 191.806 69.965 192.609 69.965 193.523C69.965 194.419 70.1423 195.222 70.497 195.931C70.8703 196.622 71.3743 197.173 72.009 197.583C72.6623 197.994 73.409 198.199 74.249 198.199C74.7157 198.199 75.117 198.171 75.453 198.115C75.789 198.059 76.069 197.975 76.293 197.863C76.5543 197.714 76.7877 197.555 76.993 197.387C77.1983 197.219 77.5063 197.135 77.917 197.135C78.4023 197.135 78.7757 197.294 79.037 197.611C79.2983 197.91 79.429 198.283 79.429 198.731C79.429 199.198 79.1677 199.627 78.645 200.019C78.1223 200.393 77.4317 200.701 76.573 200.943C75.733 201.167 74.8183 201.279 73.829 201.279C72.3543 201.279 71.0757 200.943 69.993 200.271C68.9103 199.581 68.0703 198.647 67.473 197.471C66.8943 196.295 66.605 194.979 66.605 193.523C66.605 191.993 66.913 190.649 67.529 189.491C68.1637 188.315 69.0317 187.401 70.133 186.747C71.253 186.075 72.5317 185.739 73.969 185.739Z" fill="#07394F"/>
<path d="M88.7711 201.279C87.1845 201.279 85.8032 200.953 84.6272 200.299C83.4698 199.627 82.5738 198.722 81.9391 197.583C81.3232 196.445 81.0152 195.157 81.0152 193.719C81.0152 192.039 81.3512 190.611 82.0231 189.435C82.7138 188.241 83.6098 187.326 84.7112 186.691C85.8125 186.057 86.9791 185.739 88.2112 185.739C89.1632 185.739 90.0592 185.935 90.8991 186.327C91.7578 186.719 92.5138 187.261 93.1672 187.951C93.8205 188.623 94.3338 189.407 94.7072 190.303C95.0992 191.199 95.2952 192.151 95.2952 193.159C95.2765 193.607 95.0991 193.971 94.7631 194.251C94.4271 194.531 94.0351 194.671 93.5872 194.671H82.8912L82.0511 191.871H92.3271L91.7112 192.431V191.675C91.6738 191.134 91.4778 190.649 91.1231 190.219C90.7871 189.79 90.3578 189.454 89.8352 189.211C89.3312 188.95 88.7898 188.819 88.2112 188.819C87.6512 188.819 87.1285 188.894 86.6432 189.043C86.1578 189.193 85.7378 189.445 85.3831 189.799C85.0285 190.154 84.7485 190.63 84.5432 191.227C84.3378 191.825 84.2351 192.581 84.2351 193.495C84.2351 194.503 84.4405 195.362 84.8512 196.071C85.2805 196.762 85.8218 197.294 86.4752 197.667C87.1471 198.022 87.8565 198.199 88.6031 198.199C89.2938 198.199 89.8445 198.143 90.2551 198.031C90.6658 197.919 90.9925 197.789 91.2351 197.639C91.4965 197.471 91.7298 197.331 91.9352 197.219C92.2711 197.051 92.5885 196.967 92.8871 196.967C93.2978 196.967 93.6338 197.107 93.8951 197.387C94.1751 197.667 94.3151 197.994 94.3151 198.367C94.3151 198.871 94.0538 199.329 93.5312 199.739C93.0458 200.15 92.3645 200.514 91.4872 200.831C90.6098 201.13 89.7045 201.279 88.7711 201.279Z" fill="#07394F"/>
</svg>
