<svg width="345" height="218" viewBox="0 0 345 218" fill="none" xmlns="http://www.w3.org/2000/svg">
<path d="M111.686 196.406C113.364 199.04 112.405 202.634 109.767 204.31C107.129 205.987 103.532 205.029 101.854 202.394L51.2561 118.555C49.5775 115.92 50.5367 112.327 53.1745 110.651C55.8123 108.974 59.4093 109.932 61.0879 112.567L111.686 196.406Z" fill="#68A2BA"/>
<path d="M48.8581 92.2006L56.7715 105.615L46.9397 111.603L39.0263 98.1891C35.4293 102.98 34.9497 109.687 38.0671 115.196C42.3835 122.383 51.7357 124.778 58.9297 120.466C66.1237 116.154 68.5217 106.812 64.2053 99.6263C61.0879 93.8774 54.8531 91.2424 48.8581 92.2006Z" fill="#68A2BA"/>
<path d="M59.8889 139.632C47.6591 142.746 40.4651 155.202 43.5825 167.418C46.6999 179.635 59.1695 186.821 71.3993 183.707C83.6291 180.593 90.8231 168.137 87.7057 155.92C84.5883 143.704 72.1187 136.518 59.8889 139.632ZM68.7615 173.407C62.2869 175.083 55.8123 171.251 54.1337 164.783C52.4551 158.316 56.2919 151.848 62.7665 150.171C69.2411 148.495 75.7157 152.327 77.3943 158.795C79.0729 165.023 75.2361 171.73 68.7615 173.407Z" fill="#FFB7BC"/>
<path d="M66.3635 143.467L56.5318 146.102C56.5318 146.102 52.695 138.676 53.894 136.52C55.093 134.364 61.8073 132.448 63.7257 133.885C65.8839 135.322 66.3635 143.467 66.3635 143.467Z" fill="#FFB7BC"/>
<path d="M74.5167 177.719L64.6849 180.354C64.6849 180.354 65.1645 188.738 67.3227 189.935C69.4809 191.133 76.1953 189.696 77.1545 187.3C78.1137 185.144 74.5167 177.719 74.5167 177.719Z" fill="#FFB7BC"/>
<path d="M52.4551 148.496L48.3785 157.838C48.3785 157.838 40.2253 156.161 39.2661 154.005C38.3069 151.61 40.7049 145.142 43.3427 144.663C45.7407 143.944 52.4551 148.496 52.4551 148.496Z" fill="#FFB7BC"/>
<path d="M48.1386 162.387L49.0978 172.688C49.0978 172.688 41.1845 175.323 39.2661 173.646C37.3477 171.969 36.3885 165.262 38.3069 163.346C39.9855 161.669 48.1386 162.387 48.1386 162.387Z" fill="#FFB7BC"/>
<path d="M84.1086 162.868L81.9504 152.808C81.9504 152.808 89.624 149.215 91.7822 150.652C93.9404 152.089 95.619 158.557 93.9404 160.712C92.2618 162.629 84.1086 162.868 84.1086 162.868Z" fill="#FFB7BC"/>
<path d="M70.4401 143.465L78.5933 149.693C78.5933 149.693 85.0678 144.183 84.5882 141.788C84.3484 139.153 78.8331 134.841 76.4351 135.56C74.0371 136.039 70.4401 143.465 70.4401 143.465Z" fill="#FFB7BC"/>
<path d="M59.4093 181.076L51.2562 174.848C51.2562 174.848 44.7816 180.357 45.2612 182.752C45.501 185.387 51.0164 189.699 53.4144 188.98C55.8124 188.262 59.4093 181.076 59.4093 181.076Z" fill="#FFB7BC"/>
<path d="M79.5524 176.037L83.629 166.695C83.629 166.695 91.7822 168.372 92.7414 170.528C93.7006 172.923 91.3026 179.391 88.6648 179.87C86.2668 180.589 79.5524 176.037 79.5524 176.037Z" fill="#FFB7BC"/>
<path d="M203.289 11.7179C181.228 17.4669 167.799 40.2231 173.794 62.2607C179.549 84.2982 202.33 97.4729 224.391 91.7239C246.453 85.975 259.642 63.2188 253.887 41.1812C248.132 18.9041 225.351 5.72947 203.289 11.7179ZM219.356 72.8004C207.605 75.9144 195.855 68.9678 192.738 57.2303C189.62 45.4929 196.575 33.7555 208.325 30.6415C220.075 27.5275 231.825 34.4741 234.943 46.2116C238.06 57.7094 231.106 69.6864 219.356 72.8004Z" fill="#FFB7BC"/>
<path d="M215.039 18.4222L197.054 23.213C197.054 23.213 190.1 9.55925 192.498 5.72662C194.896 1.65446 206.886 -1.69909 210.483 0.935843C214.08 3.57077 215.039 18.4222 215.039 18.4222Z" fill="#FFB7BC"/>
<path d="M229.667 80.7031L211.682 85.4939C211.682 85.4939 212.402 100.585 216.238 102.98C220.315 105.376 232.305 102.501 234.223 98.1895C236.142 94.1173 229.667 80.7031 229.667 80.7031Z" fill="#FFB7BC"/>
<path d="M189.86 27.5239L182.666 44.7707C182.666 44.7707 167.799 41.8962 165.88 37.8241C164.202 33.5124 168.758 22.0145 173.074 20.5773C177.391 19.3796 189.86 27.5239 189.86 27.5239Z" fill="#FFB7BC"/>
<path d="M181.947 52.9171L183.626 71.6011C183.626 71.6011 168.998 76.1524 165.641 73.2779C162.044 70.4034 160.605 57.9474 163.962 54.5938C167.079 51.4798 181.947 52.9171 181.947 52.9171Z" fill="#FFB7BC"/>
<path d="M247.173 53.6328L243.096 35.4279C243.096 35.4279 257.004 29.1999 260.841 31.5952C264.678 33.9906 267.795 46.2071 264.918 49.8002C262.04 53.3933 247.173 53.6328 247.173 53.6328Z" fill="#FFB7BC"/>
<path d="M222.233 18.424L237.101 29.6824C237.101 29.6824 248.611 19.8613 248.132 15.31C247.412 10.7588 237.82 2.854 233.264 4.05169C228.948 5.24939 222.233 18.424 222.233 18.424Z" fill="#FFB7BC"/>
<path d="M202.57 86.6919L187.702 75.4336C187.702 75.4336 176.192 85.2547 176.671 89.8059C177.391 94.3572 186.983 102.262 191.539 101.064C195.855 99.8666 202.57 86.6919 202.57 86.6919Z" fill="#FFB7BC"/>
<path d="M238.779 77.5906L245.973 60.3438C245.973 60.3438 260.841 63.2182 262.52 67.2904C264.198 71.6021 259.642 83.0999 255.326 84.5372C251.009 85.9744 238.779 77.5906 238.779 77.5906Z" fill="#FFB7BC"/>
<path d="M203.529 168.609H144.059V207.654H203.529V168.609Z" fill="#316277"/>
<path d="M265.157 46.6875H254.127H83.3893C78.3535 46.6875 74.2769 50.7597 74.2769 55.79V161.666H84.5883H264.198H274.51V56.0295C274.27 50.9992 270.193 46.6875 265.157 46.6875Z" fill="#316277"/>
<path d="M248.611 207.902H84.3485V217.005H248.611V207.902Z" fill="#68A2BA"/>
<path d="M265.637 56.5156H80.9913V161.913H265.637V56.5156Z" fill="#EAF0FE"/>
<path d="M187.223 54.3561L184.585 53.6374L187.462 50.5234L198.253 54.1165L187.223 54.3561Z" fill="#F0C542"/>
<path d="M186.983 58.4247L198.253 54.113L187.223 52.6758L186.983 58.4247Z" fill="#FAD77E"/>
<path d="M198.254 54.1157L187.463 51.2413L188.182 46.2109L198.254 54.1157Z" fill="#FAD784"/>
<path d="M184.585 53.6339L187.223 52.6758V54.3526L184.585 53.6339Z" fill="#DBAB33"/>
<path d="M202.33 73.5145C202.33 79.0239 197.774 83.5752 192.258 83.5752C186.743 83.5752 182.187 79.0239 182.187 73.5145V63.6934C182.187 58.1841 186.743 53.6328 192.258 53.6328C197.774 53.6328 202.33 58.1841 202.33 63.6934V73.5145Z" fill="#68A2BA"/>
<path d="M147.895 77.3488C148.855 97.2306 159.885 113.04 172.835 112.561C185.784 112.082 195.616 95.5538 194.656 75.6721C193.697 55.7903 182.666 39.9807 169.717 40.4598C157.008 40.9389 147.176 57.4671 147.895 77.3488Z" fill="#AACFDF"/>
<path d="M191.779 58.425C191.779 58.425 179.309 60.3414 157.727 52.4366C157.727 52.4366 141.181 68.2461 151.972 92.9186C151.972 92.9186 136.145 78.5463 144.059 53.6343C151.972 28.7222 168.039 33.2734 176.671 30.399C185.304 27.285 195.376 32.7944 201.611 27.0454C208.085 21.057 210.483 43.3341 191.779 58.425Z" fill="#377C9A"/>
<path d="M143.579 77.3436C143.819 82.853 146.217 87.1647 149.095 86.9251C151.972 86.6856 154.13 82.1344 153.891 76.8645C153.651 71.3551 151.253 67.0434 148.375 67.283C145.737 67.283 143.579 71.8342 143.579 77.3436Z" fill="#AACFDF"/>
<path d="M169.717 116.875C142.38 116.875 119.599 142.266 113.125 176.52H226.31C220.075 142.027 197.054 116.875 169.717 116.875Z" fill="#E8505B"/>
<path d="M179.789 126.217L171.396 136.038L163.003 126.217V107.293H179.789V126.217Z" fill="#AACFDF"/>
<path d="M154.37 74.7164C154.37 80.2258 149.814 84.7771 144.298 84.7771C138.783 84.7771 134.227 80.2258 134.227 74.7164V65.1349C134.227 59.6255 138.783 55.0742 144.298 55.0742C149.814 55.0742 154.37 59.6255 154.37 65.1349V74.7164Z" fill="#68A2BA"/>
<path d="M174.273 29.6758H158.207C148.375 29.6758 140.462 37.5806 140.462 47.4017V58.4205H145.498V49.318C145.498 41.4132 151.972 35.1852 159.646 35.1852H172.355C180.268 35.1852 186.503 41.6527 186.503 49.318V58.4205H191.539V47.4017C192.019 37.5806 184.105 29.6758 174.273 29.6758Z" fill="#68A2BA"/>
<path d="M163.003 42.3751C163.003 42.3751 168.998 30.8772 177.151 29.9191C185.304 29.2004 194.417 30.8772 198.014 28.7214C201.611 26.5655 207.126 22.2538 206.407 29.9191C205.687 37.3448 208.565 54.352 192.738 62.9754C192.738 62.9754 163.243 62.4964 157.727 52.1962L163.003 42.3751Z" fill="#377C9A"/>
<path d="M186.503 96.7454C186.503 98.6617 184.825 100.339 182.906 100.339H179.309C177.391 100.339 175.712 98.6617 175.712 96.7454C175.712 94.8291 177.391 93.1523 179.309 93.1523H182.906C185.064 93.1523 186.503 94.5896 186.503 96.7454Z" fill="#68A2BA"/>
<path d="M188.182 99.1488C185.784 99.1488 183.386 98.9092 180.988 98.6697L181.467 93.8789C187.223 94.5975 193.457 94.358 194.656 93.3998C196.335 87.8904 194.656 80.9438 194.656 80.9438L199.213 79.7461C199.213 79.9856 201.611 88.13 199.213 95.0766C198.253 98.1906 193.457 99.1488 188.182 99.1488Z" fill="#68A2BA"/>
<path d="M265.157 197.362H254.127H83.3893C78.3535 197.362 74.2769 193.29 74.2769 188.259V161.91H274.27V188.02C274.27 193.29 270.193 197.362 265.157 197.362Z" fill="#68A2BA"/>
<path d="M310 87.8842C310 109.922 282.423 122.378 260.361 122.378C238.3 122.378 221.994 109.922 221.994 87.6447C221.994 65.6071 240.938 53.3906 263.239 53.3906C285.301 53.3906 310 65.8467 310 87.8842Z" fill="#FFB7BC"/>
<path d="M226.55 132.682L241.177 114.956L228.708 97.2305L226.55 132.682Z" fill="#FFB7BC"/>
<path d="M242.376 97.227V94.5921L244.774 92.4362C248.851 88.8432 250.769 86.6873 251.009 84.5314C251.009 83.0942 250.05 81.8965 247.892 81.8965C246.213 81.8965 244.774 82.6151 243.815 83.5733L242.616 80.4593C244.055 79.5011 246.213 78.543 248.851 78.543C253.167 78.543 255.326 80.9384 255.326 84.5314C255.326 87.6454 252.928 90.2804 250.29 92.6758L248.611 94.113H255.805V97.7061H242.376V97.227Z" fill="white"/>
<path d="M266.117 97.2205V92.6692H257.724V89.7947L264.918 78.2969H270.193V89.3157H272.352V92.6692H270.193V97.2205H266.117ZM266.117 89.5552V85.483C266.117 84.2853 266.117 83.0877 266.357 81.89C265.637 83.0877 265.158 84.2853 264.678 85.483L262.28 89.5552H266.117Z" fill="white"/>
<path d="M273.79 98.4258L280.025 77.5859H282.903L276.668 98.4258H273.79Z" fill="white"/>
<path d="M297.53 78.543V81.4174L289.857 97.4666H285.301L292.974 82.3756H284.341V78.7825H297.53V78.543Z" fill="white"/>
<path d="M49.8173 65.6122C49.8173 84.0567 74.9963 98.1895 93.4609 98.1895C111.925 98.1895 126.793 83.3381 126.793 64.8936C126.793 46.4491 111.925 31.5977 93.4609 31.5977C75.2361 31.8372 49.8173 47.4072 49.8173 65.6122Z" fill="#AACFDF"/>
<path d="M122.956 102.506L111.446 93.1642L121.278 73.043L122.956 102.506Z" fill="#AACFDF"/>
<path d="M69.2411 58.1914V63.4613H74.2769V58.1914H77.3943V71.8451H74.2769V66.0962H69.2411V71.8451H66.1237V58.1914H69.2411Z" fill="white"/>
<path d="M88.6648 66.0988H83.6291V69.4524H89.1444V72.0873H80.5117V58.4336H88.9046V61.0685H83.6291V63.943H88.6648V66.0988Z" fill="white"/>
<path d="M91.7823 58.1914H94.8997V69.2102H100.415V71.8451H91.7823V58.1914Z" fill="white"/>
<path d="M102.573 58.4309C103.532 58.1914 104.971 58.1914 106.65 58.1914C108.568 58.1914 110.007 58.6705 110.726 59.3891C111.686 60.1077 112.165 61.3054 112.165 62.5031C112.165 63.9403 111.686 64.8985 110.966 65.8567C110.007 66.8148 108.328 67.2939 106.41 67.2939C105.93 67.2939 105.691 67.2939 105.451 67.2939V72.0847H102.333V58.4309H102.573ZM105.691 64.4194C105.93 64.4194 106.17 64.4194 106.65 64.4194C108.328 64.4194 109.288 63.7008 109.288 62.2636C109.288 61.0659 108.328 60.3473 106.89 60.3473C106.17 60.3473 105.93 60.3473 105.691 60.3473V64.4194Z" fill="white"/>
</svg>
