<svg width="345" height="218" viewBox="0 0 345 218" fill="none" xmlns="http://www.w3.org/2000/svg">
<path d="M212.718 217.004H148.347L157.986 136.34H203.013L212.718 217.004Z" fill="#316277"/>
<path d="M214.076 213.52H146.988C145.889 213.52 145.047 214.358 145.047 215.455V216.94H216.017V215.455C216.017 214.423 215.112 213.52 214.076 213.52Z" fill="#AACFDF"/>
<path d="M269.131 171.83H91.8687C85.8521 171.83 81 166.99 81 160.988V51.2202C81 45.2188 85.8521 40.3789 91.8687 40.3789H269.131C275.148 40.3789 280 45.2188 280 51.2202V160.988C280 166.99 275.148 171.83 269.131 171.83Z" fill="#316277"/>
<path d="M270.943 49.4141H90.0575V146.018H270.943V49.4141Z" fill="white"/>
<path d="M81 155.113V160.986C81 166.987 85.8521 171.827 91.8687 171.827H269.131C275.148 171.827 280 166.987 280 160.986V155.113H81Z" fill="#AACFDF"/>
<path d="M230.043 12.4727H131.506V46.2244H230.043V12.4727Z" fill="#E8505B"/>
<path d="M230.043 27.2428L131.506 35.6659V12.4727H230.043V27.2428Z" fill="#E04752"/>
<path d="M114.498 22.2566L138.464 7.30859H227.308L247.051 22.2566H114.498Z" fill="#E8505B"/>
<path d="M117.591 22.2578H239.558" stroke="#CA2833" stroke-width="0.75" stroke-miterlimit="10" stroke-linecap="round" stroke-linejoin="round"/>
<path d="M185.502 16.6204C185.502 14.0104 183.362 11.875 180.745 11.875C178.128 11.875 175.988 14.0104 175.988 16.6204H185.502Z" fill="#EB888F"/>
<path d="M178.624 17.8594H102.22V97.7494H178.624V17.8594Z" fill="#E1EFF4"/>
<path d="M178.624 101.812H102.22V146.081H178.624V101.812Z" fill="#E1EFF4"/>
<path d="M170.925 24.1172H109.789V28.7635H170.925V24.1172Z" fill="#B7D5DF"/>
<path d="M168.143 30.5703H112.635V33.0225H168.143V30.5703Z" fill="#B7D5DF"/>
<path d="M170.99 40.8945H130.556V42.3788H170.99V40.8945Z" fill="#B7D5DF"/>
<path d="M170.99 56.8359H130.556V58.3202H170.99V56.8359Z" fill="#B7D5DF"/>
<path d="M170.99 46.1875H130.556V47.6717H170.99V46.1875Z" fill="#B7D5DF"/>
<path d="M170.99 51.4805H130.556V52.9647H170.99V51.4805Z" fill="#B7D5DF"/>
<path d="M170.925 72.7109H109.789V74.1952H170.925V72.7109Z" fill="#B7D5DF"/>
<path d="M170.925 62.125H109.789V63.6092H170.925V62.125Z" fill="#B7D5DF"/>
<path d="M170.925 67.418H109.789V68.9022H170.925V67.418Z" fill="#B7D5DF"/>
<path d="M170.925 83.3555H109.789V84.8397H170.925V83.3555Z" fill="#B7D5DF"/>
<path d="M170.925 78H109.789V79.4842H170.925V78Z" fill="#B7D5DF"/>
<path d="M170.925 88.6484H109.789V90.1327H170.925V88.6484Z" fill="#B7D5DF"/>
<path d="M147.117 118.203H109.789V119.687H147.117V118.203Z" fill="#B7D5DF"/>
<path d="M147.117 112.914H109.789V114.398H147.117V112.914Z" fill="#B7D5DF"/>
<path d="M147.117 123.492H109.789V124.976H147.117V123.492Z" fill="#B7D5DF"/>
<path d="M171.637 132.793H109.789V139.375H171.637V132.793Z" fill="#B7D5DF"/>
<path d="M127.192 40.9648H109.789V58.3238H127.192V40.9648Z" fill="#B7D5DF"/>
<path d="M171.532 120.595C172.464 114.896 168.588 109.523 162.875 108.594C157.162 107.664 151.775 111.53 150.843 117.229C149.911 122.927 153.787 128.3 159.5 129.23C165.213 130.16 170.6 126.293 171.532 120.595Z" fill="#B7D5DF"/>
<path d="M264.02 58.2812H187.616V138.171H264.02V58.2812Z" fill="#E1EFF4"/>
<path d="M256.321 64.5391H195.185V69.1853H256.321V64.5391Z" fill="#B7D5DF"/>
<path d="M253.539 70.9961H198.032V73.4483H253.539V70.9961Z" fill="#B7D5DF"/>
<path d="M256.387 81.3164H215.953V82.8006H256.387V81.3164Z" fill="#B7D5DF"/>
<path d="M256.387 97.2578H215.953V98.742H256.387V97.2578Z" fill="#B7D5DF"/>
<path d="M256.387 86.6094H215.953V88.0936H256.387V86.6094Z" fill="#B7D5DF"/>
<path d="M256.387 91.9023H215.953V93.3866H256.387V91.9023Z" fill="#B7D5DF"/>
<path d="M256.321 113.133H195.185V114.617H256.321V113.133Z" fill="#B7D5DF"/>
<path d="M256.321 102.551H195.185V104.035H256.321V102.551Z" fill="#B7D5DF"/>
<path d="M256.321 107.84H195.185V109.324H256.321V107.84Z" fill="#B7D5DF"/>
<path d="M256.321 123.781H195.185V125.265H256.321V123.781Z" fill="#B7D5DF"/>
<path d="M256.321 118.422H195.185V119.906H256.321V118.422Z" fill="#B7D5DF"/>
<path d="M256.321 129.07H195.185V130.555H256.321V129.07Z" fill="#B7D5DF"/>
<path d="M212.588 81.3867H195.185V98.7457H212.588V81.3867Z" fill="#B7D5DF"/>
<path d="M232.82 55.3352C232.761 55.2156 232.583 55.1557 232.406 55.2155C230.752 56.053 229.394 57.4289 228.449 59.044C228.567 58.6253 228.685 58.2663 228.862 57.8476C229.512 56.4119 230.339 55.2754 231.343 54.4977C231.461 54.3781 231.52 54.1986 231.402 54.079C231.284 53.9593 231.107 53.8995 230.989 54.0192C229.925 54.8566 229.039 56.053 228.33 57.6083C228.212 57.8476 228.153 58.0271 228.035 58.2663C228.449 56.2923 229.276 54.737 230.339 53.6004C230.457 53.4808 230.457 53.3013 230.339 53.1817C230.221 53.062 230.043 53.062 229.925 53.1817C228.744 54.4379 227.917 56.053 227.444 58.1467C227.385 58.3262 227.385 58.5654 227.326 58.7449C227.326 57.6083 227.385 56.4718 227.622 55.395C227.681 55.2155 227.562 55.0959 227.385 55.0361C227.208 54.9763 227.09 55.0959 227.031 55.2754C226.736 56.7709 226.676 58.2663 226.736 59.7618C226.676 59.4029 226.617 59.044 226.558 58.7449C226.381 57.0101 226.558 55.4548 227.09 54.1388C227.149 53.9593 227.09 53.8397 226.913 53.7201C226.736 53.6602 226.617 53.7201 226.499 53.8995C225.909 55.2754 225.731 56.9503 225.968 58.8047C226.145 60.2404 226.499 61.676 226.913 63.0519L226.972 63.2912C226.972 63.351 226.972 63.4108 226.972 63.4706C226.913 65.325 226.381 71.1275 222.837 73.9988C220.769 75.7336 217.934 76.1523 214.449 75.3149C206.652 73.4006 205.175 54.9165 203.816 36.9706C202.399 18.7257 201.04 1.43791 193.302 0.181701C190.053 -0.356673 187.336 0.30134 185.209 2.15574C180.543 6.16364 180.366 14.2991 180.366 14.5982C180.366 14.7776 180.484 14.8973 180.661 14.8973C180.779 14.8973 180.956 14.7776 180.956 14.5982C180.956 14.5384 181.134 6.40292 185.564 2.57448C187.572 0.899534 190.112 0.241521 193.184 0.779895C200.449 1.97628 201.867 19.7426 203.167 37.0305C204.584 55.1557 206.002 73.939 214.272 75.9131C215.453 76.2122 216.576 76.3318 217.639 76.3318C219.824 76.3318 221.656 75.7336 223.191 74.4774C226.913 71.4864 227.444 65.7438 227.562 63.6501C227.622 63.5903 227.622 63.5304 227.622 63.4706C227.622 63.4108 227.622 63.351 227.622 63.2912C228.508 61.0779 229.984 59.1038 231.816 57.728C231.934 57.6083 231.993 57.4289 231.875 57.3092C231.756 57.1896 231.579 57.1298 231.461 57.2494C230.102 58.2663 228.921 59.6422 227.976 61.1377C228.744 58.8047 230.339 56.7709 232.465 55.6941C232.82 55.6941 232.879 55.5146 232.82 55.3352Z" fill="#CA2833"/>
</svg>
