<svg width="345" height="218" viewBox="0 0 345 218" fill="none" xmlns="http://www.w3.org/2000/svg">
<path d="M245.652 217.002H98.9069C96.2234 217.002 94 215.026 94 212.485V21.9462C94 19.4762 96.1467 17.4297 98.9069 17.4297H245.729C248.413 17.4297 250.636 19.4057 250.636 21.9462V212.485C250.559 214.955 248.413 217.002 245.652 217.002Z" fill="#AACFDF"/>
<g opacity="0.3">
<path opacity="0.3" d="M245.652 217.002H98.9069C96.2234 217.002 94 215.026 94 212.485V21.9462C94 19.4762 96.1467 17.4297 98.9069 17.4297H245.729C248.413 17.4297 250.636 19.4057 250.636 21.9462V212.485C250.559 214.955 248.413 217.002 245.652 217.002Z" fill="black"/>
</g>
<path d="M239.595 28.1562H104.964V210.015H239.595V28.1562Z" fill="#D4EBF3"/>
<path d="M237.756 26.6719H103.125V205.073H237.756V26.6719Z" fill="#E1EFF4"/>
<path d="M237.756 205.07C237.756 203.588 237.68 131.959 237.603 26.6687L237.756 26.8099C196.968 26.8099 151.273 26.8099 103.201 26.8099L103.431 26.5982C103.431 93.5692 103.431 155.459 103.355 204.999L103.201 204.858C184.931 204.999 236.376 205.07 237.756 205.07C236.453 205.07 185.008 205.141 103.125 205.211H102.971V205.07C102.971 155.53 102.971 93.6398 102.895 26.6687V26.457H103.125C151.196 26.457 196.891 26.457 237.68 26.457H237.833V26.5982C237.833 131.959 237.756 203.588 237.756 205.07Z" fill="#C4DEE9"/>
<path d="M189.99 205.079C189.99 205.079 224.568 192.941 237.449 172.828C237.449 172.828 225.949 181.155 209.848 178.121C209.771 178.191 200.648 200.633 189.99 205.079Z" fill="#D4EBF3"/>
<path d="M189.99 205.082C190.144 205.011 190.297 204.94 190.527 204.799C190.911 204.588 191.447 204.305 192.214 203.811C193.594 202.894 195.434 201.341 197.427 199.012C201.338 194.425 205.784 187.157 209.618 178.053L209.695 177.912H209.848C213.758 178.618 217.975 178.759 222.345 178.124C223.418 177.983 224.492 177.7 225.642 177.489C226.715 177.206 227.789 176.924 228.862 176.571C231.009 175.865 233.155 174.948 235.149 173.89C235.916 173.466 236.606 173.043 237.219 172.619L238.062 172.055L237.526 172.902C235.379 176.218 232.772 179.182 230.089 181.793C227.329 184.404 224.492 186.663 221.655 188.709C215.981 192.802 210.461 195.837 205.708 198.236C200.954 200.636 197.044 202.329 194.284 203.458C192.904 204.023 191.831 204.446 191.064 204.658C190.681 204.799 190.45 204.87 190.22 204.94C190.067 205.082 189.99 205.082 189.99 205.082C189.99 205.082 190.067 205.011 190.297 204.94C190.527 204.87 190.757 204.729 191.141 204.588C191.831 204.305 192.904 203.882 194.284 203.317C197.044 202.188 200.954 200.424 205.708 198.025C210.385 195.625 215.905 192.52 221.578 188.427C224.415 186.38 227.252 184.122 229.935 181.511C232.619 178.9 235.149 176.007 237.296 172.69L237.602 172.902C236.912 173.396 236.222 173.819 235.456 174.242C233.385 175.371 231.239 176.289 229.092 176.995C228.019 177.347 226.869 177.63 225.795 177.912C224.645 178.124 223.572 178.406 222.498 178.547C218.128 179.182 213.758 179.041 209.848 178.265L210.078 178.194C206.168 187.298 201.644 194.567 197.657 199.154C195.664 201.412 193.824 202.964 192.367 203.882C190.834 204.799 189.99 205.011 189.99 205.082Z" fill="#316277"/>
<path d="M132.719 90.4653H121.525C120.068 90.4653 118.918 89.4067 118.918 88.0659V77.7627C118.918 76.4218 120.068 75.3633 121.525 75.3633H132.719C134.175 75.3633 135.326 76.4218 135.326 77.7627V88.0659C135.326 89.3362 134.175 90.4653 132.719 90.4653Z" fill="#E8505B"/>
<path d="M126.048 85.0296C125.895 85.0296 125.818 84.959 125.741 84.8884L123.441 82.4185C123.288 82.2773 123.288 82.0656 123.518 81.9245C123.671 81.7833 123.901 81.7834 124.054 81.9951L126.048 84.1827L131.415 79.1723C131.568 79.0311 131.798 79.0311 131.951 79.1723C132.105 79.3134 132.105 79.5251 131.951 79.6662L126.355 84.959C126.278 85.0296 126.201 85.0296 126.048 85.0296Z" fill="white"/>
<path d="M222.039 77.1294C222.039 77.1999 204.558 77.3408 182.937 77.3408C161.317 77.3408 143.836 77.2704 143.836 77.1294C143.836 77.0589 161.317 76.918 182.937 76.918C204.482 76.9884 222.039 77.0589 222.039 77.1294Z" fill="#316277"/>
<path d="M176.727 88.2075C176.727 88.2075 176.267 88.278 175.423 88.278C174.503 88.278 173.353 88.278 171.897 88.3485C168.906 88.3485 164.766 88.419 160.243 88.419C155.719 88.419 151.579 88.419 148.589 88.3485C147.132 88.3485 145.982 88.278 145.062 88.278C144.219 88.278 143.759 88.2075 143.759 88.2075C143.759 88.2075 144.219 88.137 145.062 88.137C145.982 88.137 147.132 88.137 148.589 88.0666C151.579 88.0666 155.719 87.9961 160.243 87.9961C164.766 87.9961 168.906 87.9961 171.897 88.0666C173.353 88.0666 174.503 88.137 175.423 88.137C176.267 88.137 176.727 88.2075 176.727 88.2075Z" fill="#316277"/>
<path d="M222.038 82.0708C222.038 82.1413 204.558 82.2822 182.937 82.2822C161.316 82.2822 143.835 82.2118 143.835 82.0708C143.835 82.0003 161.316 81.8594 182.937 81.8594C204.481 81.8594 222.038 81.9299 222.038 82.0708Z" fill="#316277"/>
<path d="M132.719 117.012H121.525C120.068 117.012 118.918 115.954 118.918 114.613V104.31C118.918 102.969 120.068 101.91 121.525 101.91H132.719C134.175 101.91 135.326 102.969 135.326 104.31V114.613C135.326 115.954 134.175 117.012 132.719 117.012Z" fill="#E8505B"/>
<path d="M126.049 111.639C125.895 111.639 125.819 111.568 125.742 111.498L123.442 109.028C123.288 108.887 123.288 108.675 123.518 108.534C123.672 108.393 123.902 108.393 124.055 108.604L126.049 110.792L131.415 105.782C131.569 105.64 131.799 105.64 131.952 105.782C132.105 105.923 132.105 106.134 131.952 106.276L126.355 111.568C126.279 111.568 126.202 111.639 126.049 111.639Z" fill="white"/>
<path d="M222.038 103.735C222.038 103.805 204.558 103.946 182.937 103.946C161.316 103.946 143.835 103.876 143.835 103.735C143.835 103.594 161.316 103.523 182.937 103.523C204.481 103.523 222.038 103.594 222.038 103.735Z" fill="#316277"/>
<path d="M176.727 114.825C176.727 114.825 176.267 114.895 175.423 114.895C174.503 114.895 173.353 114.895 171.897 114.966C168.906 114.966 164.766 115.036 160.243 115.036C155.719 115.036 151.579 115.036 148.589 114.966C147.132 114.966 145.982 114.895 145.062 114.895C144.219 114.895 143.759 114.825 143.759 114.825C143.759 114.825 144.219 114.754 145.062 114.754C145.982 114.754 147.132 114.754 148.589 114.684C151.579 114.684 155.719 114.613 160.243 114.613C164.766 114.613 168.906 114.613 171.897 114.684C173.353 114.684 174.503 114.754 175.423 114.754C176.267 114.754 176.727 114.754 176.727 114.825Z" fill="#316277"/>
<path d="M222.038 108.606C222.038 108.676 204.558 108.817 182.937 108.817C161.316 108.817 143.835 108.747 143.835 108.606C143.835 108.535 161.316 108.395 182.937 108.395C204.481 108.465 222.038 108.535 222.038 108.606Z" fill="#316277"/>
<path d="M132.719 143.61H121.525C120.068 143.61 118.918 142.551 118.918 141.21V130.907C118.918 129.566 120.068 128.508 121.525 128.508H132.719C134.175 128.508 135.326 129.566 135.326 130.907V141.21C135.326 142.551 134.175 143.61 132.719 143.61Z" fill="#E8505B"/>
<path d="M126.048 138.248C125.895 138.248 125.818 138.178 125.741 138.107L123.441 135.637C123.288 135.496 123.288 135.284 123.518 135.143C123.671 135.002 123.901 135.002 124.054 135.214L126.048 137.401L131.415 132.391C131.568 132.25 131.798 132.25 131.951 132.391C132.105 132.532 132.105 132.744 131.951 132.885L126.355 138.178C126.278 138.178 126.201 138.248 126.048 138.248Z" fill="white"/>
<path d="M222.038 130.27C222.038 130.341 204.558 130.481 182.937 130.481C161.316 130.481 143.835 130.411 143.835 130.27C143.835 130.129 161.316 130.059 182.937 130.059C204.481 130.129 222.038 130.2 222.038 130.27Z" fill="#316277"/>
<path d="M176.727 141.36C176.727 141.36 176.267 141.43 175.423 141.43C174.503 141.43 173.353 141.43 171.897 141.501C168.906 141.501 164.766 141.571 160.243 141.571C155.719 141.571 151.579 141.571 148.589 141.501C147.132 141.501 145.982 141.43 145.062 141.43C144.219 141.43 143.759 141.36 143.759 141.36C143.759 141.36 144.219 141.289 145.062 141.289C145.982 141.289 147.132 141.289 148.589 141.219C151.579 141.219 155.719 141.148 160.243 141.148C164.766 141.148 168.906 141.148 171.897 141.219C173.353 141.219 174.503 141.289 175.423 141.289C176.267 141.36 176.727 141.36 176.727 141.36Z" fill="#316277"/>
<path d="M222.039 135.215C222.039 135.286 204.558 135.427 182.937 135.427C161.317 135.427 143.836 135.356 143.836 135.215C143.836 135.145 161.317 135.004 182.937 135.004C204.482 135.004 222.039 135.145 222.039 135.215Z" fill="#316277"/>
<path d="M132.719 170.207H121.525C120.069 170.207 118.918 169.149 118.918 167.808V157.505C118.918 156.164 120.069 155.105 121.525 155.105H132.719C134.176 155.105 135.326 156.164 135.326 157.505V167.808C135.326 169.078 134.176 170.207 132.719 170.207Z" fill="#E8505B"/>
<path d="M126.048 164.772C125.895 164.772 125.818 164.701 125.741 164.631L123.441 162.161C123.288 162.02 123.288 161.808 123.518 161.667C123.671 161.526 123.901 161.526 124.055 161.737L126.048 163.925L131.415 158.914C131.568 158.773 131.798 158.773 131.952 158.914C132.105 159.056 132.105 159.267 131.952 159.408L126.355 164.701C126.278 164.772 126.201 164.772 126.048 164.772Z" fill="white"/>
<path d="M222.039 156.872C222.039 156.942 204.558 157.083 182.937 157.083C161.317 157.083 143.836 157.013 143.836 156.872C143.836 156.731 161.317 156.66 182.937 156.66C204.482 156.731 222.039 156.801 222.039 156.872Z" fill="#316277"/>
<path d="M176.727 167.95C176.727 167.95 176.267 168.02 175.423 168.02C174.503 168.02 173.353 168.02 171.897 168.091C168.906 168.091 164.766 168.161 160.243 168.161C155.719 168.161 151.579 168.161 148.589 168.091C147.132 168.091 145.982 168.02 145.062 168.02C144.219 168.02 143.759 167.95 143.759 167.95C143.759 167.95 144.219 167.879 145.062 167.879C145.982 167.879 147.132 167.879 148.589 167.809C151.579 167.809 155.719 167.738 160.243 167.738C164.766 167.738 168.906 167.738 171.897 167.809C173.353 167.809 174.503 167.879 175.423 167.879C176.267 167.879 176.727 167.95 176.727 167.95Z" fill="#316277"/>
<path d="M222.038 161.813C222.038 161.883 204.558 162.024 182.937 162.024C161.316 162.024 143.835 161.954 143.835 161.813C143.835 161.743 161.316 161.602 182.937 161.602C204.481 161.602 222.038 161.672 222.038 161.813Z" fill="#316277"/>
<path d="M122.598 15.5898V24.9051C122.598 30.339 127.351 34.7143 133.255 34.7143H207.701C213.605 34.7143 218.358 30.339 218.358 24.9051V15.5898H122.598Z" fill="#316277"/>
<path d="M170.439 18.3482C164.919 18.3482 160.472 14.2552 160.472 9.17411C160.472 4.09307 164.919 0 170.439 0C175.959 0 180.406 4.09307 180.406 9.17411C180.406 14.2552 175.959 18.3482 170.439 18.3482ZM170.439 3.45793C167.066 3.45793 164.306 5.99846 164.306 9.10354C164.306 12.2086 167.066 14.7491 170.439 14.7491C173.813 14.7491 176.573 12.2086 176.573 9.10354C176.573 5.99846 173.813 3.45793 170.439 3.45793Z" fill="#316277"/>
</svg>
