<svg width="345" height="248" viewBox="0 0 345 248" fill="none" xmlns="http://www.w3.org/2000/svg">
<path d="M131.231 88.4565L146.366 114.185L138.609 110.023C133.918 116.682 134.637 129.446 135.583 134.995L117.8 135.752L112.503 150.129L65.3968 172.452C42.2412 124.628 56.7576 82.7811 66.9103 67.8359L106.07 89.97L131.231 88.4565Z" fill="#E1EFF4"/>
<path d="M131.231 88.457L146.366 114.185L138.61 110.024C133.918 116.683 134.637 129.446 135.583 134.995L117.8 135.752L112.503 150.13C107.016 141.932 99.3358 119.331 112.503 94.5108L106.071 89.9705L131.231 88.457Z" fill="#E8505B"/>
<path fill-rule="evenodd" clip-rule="evenodd" d="M74.1882 144.91C74.8151 144.91 75.3232 144.401 75.3232 143.775C75.3232 143.148 74.8151 142.64 74.1882 142.64C73.5613 142.64 73.0531 143.148 73.0531 143.775C73.0531 144.401 73.5613 144.91 74.1882 144.91ZM74.1882 145.666C74.5712 145.666 74.9277 145.553 75.2256 145.357L78.3663 148.672C78.1189 148.992 77.9718 149.393 77.9718 149.828C77.9718 150.873 78.8188 151.72 79.8636 151.72C80.9084 151.72 81.7554 150.873 81.7554 149.828C81.7554 149.351 81.5782 148.914 81.2861 148.581L84.6051 145.42C84.8806 145.577 85.1993 145.666 85.539 145.666C86.5838 145.666 87.4308 144.819 87.4308 143.775C87.4308 142.73 86.5838 141.883 85.539 141.883C84.4941 141.883 83.6472 142.73 83.6472 143.775C83.6472 144.205 83.7909 144.602 84.0331 144.92L80.6744 148.119C80.4287 148.002 80.1538 147.937 79.8636 147.937C79.5281 147.937 79.213 148.024 78.9398 148.177L75.7628 144.824C75.9632 144.523 76.08 144.163 76.08 143.775C76.08 142.73 75.233 141.883 74.1882 141.883C73.1434 141.883 72.2964 142.73 72.2964 143.775C72.2964 144.205 72.4399 144.601 72.6818 144.919L69.5615 147.875C69.2614 147.675 68.9007 147.558 68.5128 147.558C67.468 147.558 66.621 148.405 66.621 149.45C66.621 150.495 67.468 151.342 68.5128 151.342C69.5576 151.342 70.4046 150.495 70.4046 149.45C70.4046 149.067 70.2907 148.71 70.0949 148.412L73.2537 145.42C73.5293 145.577 73.8483 145.666 74.1882 145.666ZM68.5128 150.585C69.1397 150.585 69.6478 150.077 69.6478 149.45C69.6478 148.823 69.1397 148.315 68.5128 148.315C67.8859 148.315 67.3777 148.823 67.3777 149.45C67.3777 150.077 67.8859 150.585 68.5128 150.585ZM80.9986 149.828C80.9986 150.455 80.4904 150.963 79.8636 150.963C79.2367 150.963 78.7285 150.455 78.7285 149.828C78.7285 149.201 79.2367 148.693 79.8636 148.693C80.4904 148.693 80.9986 149.201 80.9986 149.828ZM85.539 144.91C86.1658 144.91 86.674 144.401 86.674 143.775C86.674 143.148 86.1658 142.64 85.539 142.64C84.9121 142.64 84.4039 143.148 84.4039 143.775C84.4039 144.401 84.9121 144.91 85.539 144.91Z" fill="#327B9B"/>
<path fill-rule="evenodd" clip-rule="evenodd" d="M71.918 143.778C71.918 142.524 72.9343 141.508 74.1881 141.508C75.4419 141.508 76.4583 142.524 76.4583 143.778C76.4583 144.133 76.3764 144.47 76.2303 144.77L79.0259 147.721C79.2853 147.618 79.5681 147.562 79.8635 147.562C80.117 147.562 80.3613 147.603 80.5896 147.68L83.5456 144.865C83.3691 144.542 83.2687 144.171 83.2687 143.778C83.2687 142.524 84.2851 141.508 85.5389 141.508C86.7927 141.508 87.8091 142.524 87.8091 143.778C87.8091 145.032 86.7927 146.048 85.5389 146.048C85.2339 146.048 84.9424 145.988 84.6761 145.878L81.7887 148.628C82.0072 148.977 82.1337 149.39 82.1337 149.832C82.1337 151.086 81.1173 152.102 79.8635 152.102C78.6097 152.102 77.5933 151.086 77.5933 149.832C77.5933 149.427 77.6994 149.047 77.8851 148.718L75.1527 145.833C74.8598 145.971 74.5326 146.048 74.1881 146.048C73.8826 146.048 73.5906 145.988 73.324 145.878L70.5681 148.489C70.7059 148.782 70.7829 149.109 70.7829 149.453C70.7829 150.707 69.7665 151.724 68.5127 151.724C67.2589 151.724 66.2426 150.707 66.2426 149.453C66.2426 148.2 67.2589 147.183 68.5127 147.183C68.8681 147.183 69.2049 147.265 69.5049 147.411L72.1939 144.864C72.018 144.541 71.918 144.171 71.918 143.778ZM74.1881 143.021C73.7702 143.021 73.4314 143.36 73.4314 143.778C73.4314 144.196 73.7702 144.535 74.1881 144.535C74.606 144.535 74.9448 144.196 74.9448 143.778C74.9448 143.36 74.606 143.021 74.1881 143.021ZM85.5389 143.021C85.121 143.021 84.7822 143.36 84.7822 143.778C84.7822 144.196 85.121 144.535 85.5389 144.535C85.9568 144.535 86.2956 144.196 86.2956 143.778C86.2956 143.36 85.9568 143.021 85.5389 143.021ZM72.6761 143.845C72.69 144.164 72.802 144.456 72.9828 144.693L73.1885 144.964L73.197 144.956L73.4408 145.094C73.6437 145.21 73.876 145.28 74.1246 145.29C73.3405 145.258 72.7104 144.629 72.6761 143.845ZM75.7002 143.842C75.6672 144.629 75.0339 145.26 74.2466 145.29C74.5313 145.28 74.7949 145.19 75.0178 145.044L75.2824 144.87L75.2804 144.868L75.448 144.617C75.597 144.394 75.6882 144.129 75.7002 143.842ZM84.0286 143.877C84.0483 144.183 84.159 144.464 84.334 144.694L84.5394 144.964L84.5477 144.956L84.7921 145.095C84.987 145.206 85.2089 145.274 85.4464 145.289C84.6863 145.243 84.0776 144.636 84.0286 143.877ZM69.3515 148.193C69.1265 148.043 68.8594 147.952 68.5707 147.941C69.3603 147.971 69.995 148.605 70.025 149.395C70.0143 149.11 69.9251 148.846 69.7786 148.624L69.6047 148.359L69.6025 148.361L69.3515 148.193ZM79.771 148.321C79.5368 148.335 79.3177 148.402 79.1248 148.51L78.8677 148.655L78.8638 148.65L78.6655 148.907C78.4676 149.163 78.3501 149.483 78.3501 149.832C78.3501 149.027 78.9782 148.369 79.771 148.321ZM80.512 148.464C80.3404 148.382 80.1509 148.332 79.9502 148.321C80.7199 148.364 81.3359 148.983 81.375 149.754C81.3572 149.402 81.2196 149.082 81.0016 148.834L80.762 148.561L80.747 148.575L80.512 148.464ZM68.5127 148.697C68.0948 148.697 67.756 149.035 67.756 149.453C67.756 149.871 68.0948 150.21 68.5127 150.21C68.9306 150.21 69.2694 149.871 69.2694 149.453C69.2694 149.035 68.9306 148.697 68.5127 148.697ZM79.8635 149.075C79.4456 149.075 79.1068 149.414 79.1068 149.832C79.1068 150.25 79.4456 150.588 79.8635 150.588C80.2814 150.588 80.6202 150.25 80.6202 149.832C80.6202 149.414 80.2814 149.075 79.8635 149.075Z" fill="#327B9B"/>
<path fill-rule="evenodd" clip-rule="evenodd" d="M95.3762 117.481C95.3762 120.511 92.92 122.967 89.89 122.967C86.8601 122.967 84.4038 120.511 84.4038 117.481C84.4038 114.451 86.8601 111.995 89.89 111.995C92.92 111.995 95.3762 114.451 95.3762 117.481ZM93.9275 122.243C92.839 123.167 91.4296 123.724 89.89 123.724C86.4422 123.724 83.6471 120.929 83.6471 117.481C83.6471 114.033 86.4422 111.238 89.89 111.238C93.3379 111.238 96.133 114.033 96.133 117.481C96.133 119.117 95.5037 120.606 94.474 121.719L98.4032 125.648C98.5509 125.796 98.5509 126.036 98.4032 126.184C98.2554 126.331 98.0158 126.331 97.8681 126.184L93.9275 122.243Z" fill="#327B9B"/>
<path fill-rule="evenodd" clip-rule="evenodd" d="M83.2688 117.481C83.2688 113.824 86.2333 110.859 89.8901 110.859C93.5469 110.859 96.5114 113.824 96.5114 117.481C96.5114 119.085 95.9407 120.556 94.9919 121.701L98.6708 125.38C98.9663 125.676 98.9663 126.155 98.6708 126.451L98.4032 126.183L98.6708 126.451C98.3752 126.746 97.8961 126.746 97.6006 126.451L93.9001 122.75C92.7872 123.598 91.3971 124.102 89.8901 124.102C86.2333 124.102 83.2688 121.138 83.2688 117.481ZM89.8901 112.373C87.0691 112.373 84.7822 114.66 84.7822 117.481C84.7822 120.302 87.0691 122.589 89.8901 122.589C92.7111 122.589 94.998 120.302 94.998 117.481C94.998 114.66 92.7111 112.373 89.8901 112.373ZM95.7547 117.481C95.7547 120.718 93.1313 123.343 89.8943 123.345C91.3392 123.344 92.6611 122.821 93.6828 121.954C93.833 121.826 94.0558 121.836 94.1951 121.975L94.2059 121.986C94.0628 121.842 94.0585 121.611 94.1963 121.462C95.1639 120.416 95.7547 119.018 95.7547 117.481Z" fill="#327B9B"/>
<path fill-rule="evenodd" clip-rule="evenodd" d="M72.2964 89.2958H69.2695L69.2695 92.3227H72.2964V89.2958ZM69.2695 88.5391C68.8516 88.5391 68.5128 88.8779 68.5128 89.2958V92.3227C68.5128 92.7406 68.8516 93.0794 69.2695 93.0794H72.2964C72.7143 93.0794 73.0531 92.7406 73.0531 92.3227V89.2958C73.0531 88.8779 72.7143 88.5391 72.2964 88.5391H69.2695Z" fill="#327B9B"/>
<path fill-rule="evenodd" clip-rule="evenodd" d="M68.1344 89.2952C68.1344 88.6683 68.6426 88.1602 69.2695 88.1602H72.2964C72.9232 88.1602 73.4314 88.6683 73.4314 89.2952V92.3221C73.4314 92.949 72.9232 93.4572 72.2964 93.4572H69.2695C68.6426 93.4572 68.1344 92.949 68.1344 92.3221V89.2952ZM69.6478 89.6736V91.9438H71.918V89.6736H69.6478Z" fill="#327B9B"/>
<path d="M74.9449 89.6747C74.9449 89.2568 75.2837 88.918 75.7017 88.918H83.6472C84.0651 88.918 84.4039 89.2568 84.4039 89.6747C84.4039 90.0926 84.0651 90.4314 83.6472 90.4314H75.7017C75.2837 90.4314 74.9449 90.0926 74.9449 89.6747Z" fill="#327B9B"/>
<path d="M74.9449 91.9442C74.9449 91.5263 75.2837 91.1875 75.7017 91.1875H80.9987C81.4166 91.1875 81.7554 91.5263 81.7554 91.9442C81.7554 92.3621 81.4166 92.7009 80.9987 92.7009H75.7017C75.2837 92.7009 74.9449 92.3621 74.9449 91.9442Z" fill="#327B9B"/>
<path fill-rule="evenodd" clip-rule="evenodd" d="M72.2964 97.2372H69.2695L69.2695 100.264H72.2964V97.2372ZM69.2695 96.4805C68.8516 96.4805 68.5128 96.8193 68.5128 97.2372V100.264C68.5128 100.682 68.8516 101.021 69.2695 101.021H72.2964C72.7143 101.021 73.0531 100.682 73.0531 100.264V97.2372C73.0531 96.8193 72.7143 96.4805 72.2964 96.4805H69.2695Z" fill="#327B9B"/>
<path fill-rule="evenodd" clip-rule="evenodd" d="M68.1344 97.2366C68.1344 96.6098 68.6426 96.1016 69.2695 96.1016H72.2964C72.9232 96.1016 73.4314 96.6098 73.4314 97.2366V100.264C73.4314 100.89 72.9232 101.399 72.2964 101.399H69.2695C68.6426 101.399 68.1344 100.89 68.1344 100.264V97.2366ZM69.6478 97.615V99.8852H71.918V97.615H69.6478Z" fill="#327B9B"/>
<path d="M74.9448 97.2372C74.9448 96.8193 75.2836 96.4805 75.7015 96.4805H82.512C82.9299 96.4805 83.2687 96.8193 83.2687 97.2372C83.2687 97.6551 82.9299 97.9939 82.512 97.9939H75.7015C75.2836 97.9939 74.9448 97.6551 74.9448 97.2372Z" fill="#327B9B"/>
<path d="M74.9448 99.8856C74.9448 99.4677 75.2836 99.1289 75.7015 99.1289H78.3501C78.768 99.1289 79.1068 99.4677 79.1068 99.8856C79.1068 100.304 78.768 100.642 78.3501 100.642H75.7015C75.2836 100.642 74.9448 100.304 74.9448 99.8856Z" fill="#327B9B"/>
<path d="M190.047 79.4935L169.113 100.771L171.125 92.202C163.479 89.3937 151.336 93.3915 146.221 95.7414L140.887 78.7603L124.988 79.1866L88.2876 40.9722C128.49 6.22768 176.254 6.08846 193.318 12.0271L182.073 55.5817L190.047 79.4935Z" fill="#E1EFF4"/>
<path d="M190.047 79.4971L169.113 100.775L171.125 92.2056C163.479 89.3973 151.336 93.3951 146.221 95.745L140.888 78.7639L125.367 79.3787C131.866 71.9576 151.97 56.679 179.353 62.9733L182.073 55.5852L190.047 79.4971Z" fill="#E8505B"/>
<path d="M217.605 130.52L190.379 118.283L199.114 117.193C199.09 109.047 191.123 99.0499 187.142 95.0697L201.212 84.1684L195.288 69.408L218.37 21.7162C264.918 47.3416 281.644 92.082 282.004 110.146L237.256 114.735L217.605 130.52Z" fill="#E1EFF4"/>
<path d="M217.605 130.523L190.379 118.285L199.114 117.195C199.09 109.049 191.123 99.0523 187.142 95.0721L201.212 84.1708L195.243 69.8308C204.459 73.346 225.771 86.8895 229.383 114.753L237.256 114.737L217.605 130.523Z" fill="#E8505B"/>
<path d="M175.955 172.915L179.293 143.253L182.999 151.237C190.748 148.727 197.834 138.087 200.408 133.081L215.086 143.149L227.332 133L279.794 140.413C269.61 192.563 232.116 222.155 215.026 228.015L196.989 186.807L175.955 172.915Z" fill="#E1EFF4"/>
<path d="M175.955 172.914L179.293 143.251L182.999 151.235C190.748 148.725 197.834 138.085 200.408 133.079L215.086 143.147L226.917 133.083C226.385 142.933 219.998 167.363 194.569 179.313L196.989 186.805L175.955 172.914Z" fill="#E8505B"/>
<path fill-rule="evenodd" clip-rule="evenodd" d="M238.396 158.344C238.396 154.687 241.361 151.723 245.018 151.723C248.674 151.723 251.639 154.687 251.639 158.344C251.639 159.948 251.068 161.419 250.119 162.565L253.798 166.244C254.094 166.539 254.094 167.018 253.798 167.314L253.531 167.046L253.798 167.314C253.503 167.609 253.024 167.609 252.728 167.314L249.028 163.613C247.915 164.461 246.525 164.965 245.018 164.965C241.361 164.965 238.396 162.001 238.396 158.344ZM245.018 153.236C242.197 153.236 239.91 155.523 239.91 158.344C239.91 161.165 242.197 163.452 245.018 163.452C247.839 163.452 250.126 161.165 250.126 158.344C250.126 155.523 247.839 153.236 245.018 153.236ZM250.882 158.344C250.882 161.581 248.259 164.206 245.022 164.209C246.467 164.208 247.789 163.684 248.81 162.817C248.961 162.69 249.183 162.699 249.323 162.838L249.333 162.849C249.19 162.705 249.186 162.474 249.324 162.325C250.291 161.279 250.882 159.881 250.882 158.344Z" fill="#327B9B"/>
<path d="M123.479 145.779L152.82 140.29L146.269 146.17C150.937 152.846 163.185 156.508 168.726 157.504L163.393 174.486L176.681 183.226L184.945 235.561C132.098 241.084 92.8293 213.89 82.2245 199.263L116.351 169.956L123.479 145.779Z" fill="#E1EFF4"/>
<path d="M123.479 145.778L152.82 140.289L146.269 146.169C150.937 152.844 163.185 156.506 168.726 157.503L163.393 174.484L176.479 182.853C166.904 185.227 141.674 186.268 122.807 165.449L116.351 169.955L123.479 145.778Z" fill="#E8505B"/>
<path fill-rule="evenodd" clip-rule="evenodd" d="M116.754 49.1874C121.038 49.1874 124.51 45.7148 124.51 41.4311C124.51 37.1473 121.038 33.6747 116.754 33.6747C112.47 33.6747 108.997 37.1473 108.997 41.4311C108.997 45.7148 112.47 49.1874 116.754 49.1874ZM116.754 49.9442C121.455 49.9442 125.267 46.1327 125.267 41.4311C125.267 36.7294 121.455 32.918 116.754 32.918C112.052 32.918 108.241 36.7294 108.241 41.4311C108.241 46.1327 112.052 49.9442 116.754 49.9442Z" fill="#327B9B"/>
<path fill-rule="evenodd" clip-rule="evenodd" d="M107.862 41.4305C107.862 36.5199 111.843 32.5391 116.754 32.5391C121.664 32.5391 125.645 36.5199 125.645 41.4305C125.645 46.3411 121.664 50.322 116.754 50.322C111.843 50.322 107.862 46.3411 107.862 41.4305ZM116.754 34.0525C112.679 34.0525 109.376 37.3558 109.376 41.4305C109.376 45.5053 112.679 48.8085 116.754 48.8085C120.829 48.8085 124.132 45.5053 124.132 41.4305C124.132 37.3558 120.829 34.0525 116.754 34.0525Z" fill="#327B9B"/>
<path d="M117.48 40.7767H116.406C115.794 40.7767 115.297 40.2791 115.297 39.6675C115.297 39.0558 115.794 38.5582 116.406 38.5582H118.553C118.83 38.5582 119.054 38.3338 119.054 38.057C119.054 37.7802 118.83 37.5558 118.553 37.5558H117.444V36.4465C117.444 36.1697 117.219 35.9453 116.943 35.9453C116.666 35.9453 116.441 36.1697 116.441 36.4465V37.5558H116.406C115.241 37.5558 114.294 38.5031 114.294 39.6675C114.294 40.8318 115.242 41.7791 116.406 41.7791H117.48C118.091 41.7791 118.589 42.2767 118.589 42.8884C118.589 43.5 118.091 43.9977 117.48 43.9977H115.332C115.055 43.9977 114.831 44.2221 114.831 44.4989C114.831 44.7757 115.055 45.0001 115.332 45.0001H116.441V46.1094C116.441 46.3862 116.666 46.6106 116.943 46.6106C117.219 46.6106 117.444 46.3862 117.444 46.1094V45.0001H117.48C118.644 45.0001 119.591 44.0528 119.591 42.8884C119.591 41.724 118.644 40.7767 117.48 40.7767Z" fill="#327B9B"/>
<path fill-rule="evenodd" clip-rule="evenodd" d="M157.238 46.7296C157.238 47.0083 157.224 47.2837 157.196 47.555L154.189 48.9701C153.955 48.672 153.635 48.4457 153.265 48.3297V45.3414C153.645 45.1218 153.941 44.774 154.095 44.3572L157.205 45.9938C157.227 46.2361 157.238 46.4815 157.238 46.7296ZM152.509 45.5852V48.2524C151.821 48.3207 151.241 48.7578 150.97 49.3633L148.529 49.2107C148.505 48.9439 148.426 48.693 148.304 48.4695L151.639 45.4683C151.85 45.5498 152.079 45.5945 152.319 45.5945C152.383 45.5945 152.446 45.5914 152.509 45.5852ZM148.444 49.9636L150.806 50.1112C150.806 50.1191 150.806 50.127 150.806 50.1349C150.806 50.8215 151.172 51.4227 151.719 51.7542L149.124 54.6734C148.041 54.6509 147.011 54.4117 146.077 53.9974V51.1833C146.256 51.2396 146.446 51.2699 146.644 51.2699C147.485 51.2699 148.197 50.7218 148.444 49.9636ZM150.982 45.0409L147.815 47.8918C147.571 47.6996 147.279 47.5661 146.959 47.5125L146.466 45.0432C146.81 44.7006 147.022 44.2265 147.022 43.7027C147.022 43.6389 147.019 43.5758 147.013 43.5136H150.437C150.431 43.5758 150.428 43.6389 150.428 43.7027C150.428 44.2254 150.64 44.6985 150.982 45.0409ZM144.752 49.3781C144.752 48.4887 145.366 47.7425 146.193 47.5404L145.781 45.4797C145.578 45.554 145.359 45.5945 145.131 45.5945C144.883 45.5945 144.647 45.5471 144.43 45.4607L141.414 47.7672C141.504 48.4534 141.681 49.1121 141.934 49.7317L144.753 49.4184C144.752 49.405 144.752 49.3916 144.752 49.3781ZM142.273 50.4554C142.973 51.7714 144.032 52.8673 145.32 53.6122V50.7292C145.154 50.567 145.019 50.3747 144.921 50.1611L142.273 50.4554ZM150.179 54.6263C153.573 54.2497 156.322 51.7355 157.049 48.4603L154.526 49.6475C154.568 49.803 154.59 49.9664 154.59 50.1349C154.59 51.1797 153.743 52.0267 152.698 52.0267C152.631 52.0267 152.564 52.0231 152.499 52.0163L150.179 54.6263ZM157.063 45.0644L154.206 43.5605C154.16 42.9374 153.812 42.3983 153.307 42.089L153.581 40.0393C155.333 41.1649 156.615 42.9605 157.063 45.0644ZM152.871 39.6337L152.579 41.8285C152.494 41.8169 152.407 41.8109 152.319 41.8109C152.187 41.8109 152.057 41.8247 151.932 41.8508L147.985 38.8911C148.411 38.8207 148.847 38.7841 149.293 38.7841C150.58 38.7841 151.796 39.0902 152.871 39.6337ZM147.021 39.1136C146.625 39.2315 146.242 39.3794 145.875 39.5547L145.718 41.9039C146.165 42.0496 146.538 42.357 146.769 42.7568H150.681C150.802 42.5467 150.963 42.362 151.153 42.213L147.021 39.1136ZM145.087 39.9868C143.825 40.7759 142.8 41.9099 142.144 43.2568L143.318 43.159C143.537 42.4299 144.183 41.8858 144.965 41.8181L145.087 39.9868ZM141.812 44.0438L143.252 43.9239C143.301 44.3454 143.488 44.7246 143.768 45.0148L141.348 46.865C141.347 46.82 141.347 46.7748 141.347 46.7296C141.347 45.787 141.511 44.8827 141.812 44.0438ZM157.995 46.7296C157.995 51.5358 154.099 55.4319 149.293 55.4319C144.486 55.4319 140.59 51.5358 140.59 46.7296C140.59 41.9235 144.486 38.0273 149.293 38.0273C154.099 38.0273 157.995 41.9235 157.995 46.7296ZM147.779 49.3781C147.779 50.005 147.271 50.5132 146.644 50.5132C146.017 50.5132 145.509 50.005 145.509 49.3781C145.509 48.7513 146.017 48.2431 146.644 48.2431C147.271 48.2431 147.779 48.7513 147.779 49.3781ZM152.698 51.2699C153.325 51.2699 153.833 50.7617 153.833 50.1349C153.833 49.508 153.325 48.9998 152.698 48.9998C152.071 48.9998 151.563 49.508 151.563 50.1349C151.563 50.7617 152.071 51.2699 152.698 51.2699ZM153.455 43.7027C153.455 44.3296 152.946 44.8378 152.319 44.8378C151.693 44.8378 151.184 44.3296 151.184 43.7027C151.184 43.0759 151.693 42.5677 152.319 42.5677C152.946 42.5677 153.455 43.0759 153.455 43.7027ZM145.131 44.8378C145.758 44.8378 146.266 44.3296 146.266 43.7027C146.266 43.0759 145.758 42.5677 145.131 42.5677C144.504 42.5677 143.996 43.0759 143.996 43.7027C143.996 44.3296 144.504 44.8378 145.131 44.8378Z" fill="#327B9B"/>
<path fill-rule="evenodd" clip-rule="evenodd" d="M140.401 46.7274C140.401 41.8168 144.382 37.8359 149.293 37.8359C154.203 37.8359 158.184 41.8168 158.184 46.7274C158.184 51.638 154.203 55.6188 149.293 55.6188C144.382 55.6188 140.401 51.638 140.401 46.7274ZM149.293 38.2143C144.591 38.2143 140.779 42.0257 140.779 46.7274C140.779 51.429 144.591 55.2405 149.293 55.2405C153.994 55.2405 157.806 51.429 157.806 46.7274C157.806 42.0257 153.994 38.2143 149.293 38.2143ZM147.954 38.7022C148.39 38.6301 148.837 38.5927 149.293 38.5927C150.61 38.5927 151.855 38.9061 152.957 39.4626L153.077 39.5232L152.741 42.0395L152.553 42.0137C152.477 42.0033 152.399 41.9979 152.319 41.9979C152.2 41.9979 152.083 42.0103 151.97 42.0337L151.886 42.0512L147.518 38.7745L147.954 38.7022ZM148.468 39.0143L151.979 41.6474C152.09 41.629 152.203 41.6195 152.319 41.6195C152.351 41.6195 152.383 41.6203 152.415 41.6217L152.666 39.7409C151.646 39.2476 150.502 38.971 149.293 38.971C149.014 38.971 148.739 38.9857 148.468 39.0143ZM147.058 38.9029L151.464 42.2075L151.27 42.3597C151.099 42.4939 150.954 42.6602 150.845 42.8493L150.79 42.9438H146.66L146.606 42.8493C146.397 42.4892 146.061 42.2126 145.659 42.0815L145.519 42.0359L145.693 39.4295L145.793 39.3818C146.169 39.2023 146.561 39.0508 146.967 38.9301L147.058 38.9029ZM146.056 39.6765L145.916 41.773C146.311 41.9341 146.645 42.2128 146.875 42.5654H150.575C150.656 42.4415 150.75 42.3267 150.854 42.2229L146.984 39.3203C146.665 39.4195 146.356 39.5387 146.056 39.6765ZM145.301 39.6281L145.143 41.9903L144.982 42.0043C144.278 42.0652 143.696 42.5549 143.499 43.211L143.462 43.3346L141.829 43.4707L141.974 43.1718C142.645 41.7928 143.695 40.632 144.987 39.8242L145.301 39.6281ZM153.432 39.7171L153.683 39.8779C155.477 41.0301 156.789 42.8682 157.248 45.0227L157.333 45.4176L154.025 43.6768L154.017 43.5723C153.976 43.012 153.663 42.5267 153.208 42.248L153.103 42.1837L153.432 39.7171ZM142.468 43.0377L143.178 42.9786C143.433 42.289 144.043 41.7714 144.787 41.6478L144.873 40.3522C143.876 41.0447 143.049 41.9651 142.468 43.0377ZM153.728 40.3634L153.511 41.9939C153.981 42.3225 154.309 42.8407 154.384 43.4382L156.781 44.6999C156.3 42.9194 155.201 41.3922 153.728 40.3634ZM145.131 42.7546C144.608 42.7546 144.185 43.1781 144.185 43.7005C144.185 44.2229 144.608 44.6464 145.131 44.6464C145.653 44.6464 146.077 44.2229 146.077 43.7005C146.077 43.1781 145.653 42.7546 145.131 42.7546ZM143.806 43.7005C143.806 42.9691 144.399 42.3763 145.131 42.3763C145.862 42.3763 146.455 42.9691 146.455 43.7005C146.455 44.4319 145.862 45.0248 145.131 45.0248C144.399 45.0248 143.806 44.4319 143.806 43.7005ZM150.995 43.7005C150.995 42.9691 151.588 42.3763 152.319 42.3763C153.051 42.3763 153.644 42.9691 153.644 43.7005C153.644 44.4319 153.051 45.0248 152.319 45.0248C151.588 45.0248 150.995 44.4319 150.995 43.7005ZM152.319 42.7546C151.797 42.7546 151.374 43.1781 151.374 43.7005C151.374 44.2229 151.797 44.6464 152.319 44.6464C152.842 44.6464 153.265 44.2229 153.265 43.7005C153.265 43.1781 152.842 42.7546 152.319 42.7546ZM146.804 43.3222H150.646L150.625 43.53C150.62 43.586 150.617 43.6429 150.617 43.7005C150.617 44.1709 150.807 44.5965 151.116 44.9048L151.257 45.0458L147.823 48.1368L147.697 48.0381C147.478 47.8651 147.215 47.745 146.928 47.6969L146.8 47.6753L146.26 44.9785L146.332 44.9069C146.642 44.5984 146.833 44.172 146.833 43.7005C146.833 43.6429 146.83 43.586 146.825 43.53L146.804 43.3222ZM147.212 43.7005C147.212 44.2395 147.006 44.7309 146.67 45.1004L147.12 47.3497C147.367 47.4076 147.597 47.5094 147.802 47.6465L150.714 45.0251C150.417 44.6654 150.238 44.2037 150.238 43.7005H147.212ZM143.418 43.7179L143.44 43.8998C143.484 44.2788 143.652 44.6199 143.904 44.8813L144.051 45.034L141.165 47.2408L141.159 46.866C141.158 46.8199 141.158 46.7737 141.158 46.7274C141.158 45.7627 141.326 44.8368 141.634 43.9776L141.675 43.8631L143.418 43.7179ZM141.95 44.2199C141.707 44.9314 141.565 45.6897 141.54 46.4778L143.493 44.9845C143.299 44.7371 143.159 44.4444 143.093 44.1247L141.95 44.2199ZM153.992 44.0871L157.384 45.872L157.393 45.9743C157.416 46.2223 157.427 46.4735 157.427 46.7274C157.427 47.0126 157.413 47.2944 157.384 47.5721L157.373 47.6784L154.133 49.2033L154.04 49.0844C153.83 48.8159 153.541 48.6123 153.209 48.5079L153.076 48.4663V45.2301L153.171 45.1755C153.513 44.9777 153.779 44.6644 153.917 44.2895L153.992 44.0871ZM154.188 44.6177C154.022 44.9552 153.767 45.241 153.455 45.4449V48.1936C153.757 48.3118 154.025 48.4986 154.239 48.7348L157.018 47.4274C157.038 47.1969 157.049 46.9634 157.049 46.7274C157.049 46.5198 157.041 46.3142 157.025 46.1108L154.188 44.6177ZM145.923 45.2239L146.414 47.6789L146.238 47.7219C145.494 47.9039 144.941 48.5756 144.941 49.3759C144.941 49.3881 144.942 49.4002 144.942 49.4123L144.945 49.5851L141.813 49.9332L141.759 49.801C141.499 49.1665 141.318 48.492 141.227 47.7894L141.212 47.6811L144.401 45.243L144.5 45.2827C144.695 45.3604 144.908 45.4031 145.131 45.4031C145.337 45.4031 145.534 45.3666 145.716 45.2998L145.923 45.2239ZM151.598 45.2477L151.707 45.2896C151.897 45.3629 152.103 45.4031 152.319 45.4031C152.377 45.4031 152.434 45.4003 152.49 45.3947L152.698 45.3741V48.4215L152.527 48.4384C151.909 48.4999 151.387 48.893 151.143 49.4383L151.089 49.558L148.354 49.3871L148.34 49.225C148.319 48.9849 148.248 48.7593 148.138 48.5583L148.066 48.4269L151.598 45.2477ZM144.463 45.6719L141.617 47.8483C141.701 48.4309 141.85 48.9924 142.056 49.5255L144.567 49.2465C144.62 48.3883 145.192 47.671 145.974 47.4053L145.637 45.7195C145.475 45.76 145.305 45.7815 145.131 45.7815C144.897 45.7815 144.673 45.743 144.463 45.6719ZM151.682 45.6818L148.537 48.5115C148.612 48.674 148.666 48.8477 148.696 49.0294L150.855 49.1643C151.147 48.6099 151.682 48.203 152.319 48.086V45.7815C152.097 45.7815 151.883 45.7466 151.682 45.6818ZM145.32 49.3759C145.32 48.6445 145.913 48.0517 146.644 48.0517C147.375 48.0517 147.968 48.6445 147.968 49.3759C147.968 50.1073 147.375 50.7002 146.644 50.7002C145.913 50.7002 145.32 50.1073 145.32 49.3759ZM146.644 48.43C146.122 48.43 145.698 48.8535 145.698 49.3759C145.698 49.8983 146.122 50.3218 146.644 50.3218C147.166 50.3218 147.59 49.8983 147.59 49.3759C147.59 48.8535 147.166 48.43 146.644 48.43ZM157.317 48.1227L157.234 48.4991C156.489 51.8525 153.675 54.4265 150.2 54.8121L149.71 54.8664L152.422 51.8158L152.518 51.8259C152.577 51.8321 152.637 51.8352 152.698 51.8352C153.638 51.8352 154.4 51.073 154.4 50.1326C154.4 49.9807 154.381 49.8337 154.343 49.6939L154.303 49.5413L157.317 48.1227ZM154.744 49.7519C154.767 49.8754 154.779 50.0027 154.779 50.1326C154.779 51.2819 153.847 52.2136 152.698 52.2136C152.657 52.2136 152.617 52.2125 152.577 52.2102L150.664 54.3629C153.611 53.8372 155.982 51.6467 156.769 48.7988L154.744 49.7519ZM152.698 49.1867C152.175 49.1867 151.752 49.6102 151.752 50.1326C151.752 50.655 152.175 51.0785 152.698 51.0785C153.22 51.0785 153.644 50.655 153.644 50.1326C153.644 49.6102 153.22 49.1867 152.698 49.1867ZM151.374 50.1326C151.374 49.4013 151.966 48.8084 152.698 48.8084C153.429 48.8084 154.022 49.4013 154.022 50.1326C154.022 50.864 153.429 51.4569 152.698 51.4569C151.966 51.4569 151.374 50.864 151.374 50.1326ZM148.309 49.7634L150.998 49.9314L150.995 50.1113C150.995 50.1184 150.995 50.1255 150.995 50.1326C150.995 50.7504 151.324 51.2915 151.817 51.5902L152.012 51.7079L149.208 54.8622L149.12 54.8603C148.012 54.8373 146.957 54.5924 146 54.1681L145.887 54.1182V50.9234L146.133 51.0006C146.294 51.0512 146.466 51.0785 146.644 51.0785C147.4 51.0785 148.042 50.5855 148.264 49.9028L148.309 49.7634ZM148.573 50.1589C148.263 50.92 147.517 51.4569 146.644 51.4569C146.515 51.4569 146.388 51.4451 146.266 51.4225V53.871C147.123 54.2346 148.059 54.4485 149.041 54.4798L151.435 51.7868C150.976 51.4361 150.667 50.8983 150.622 50.2871L148.573 50.1589ZM145.037 49.9557L145.094 50.0805C145.181 50.2726 145.303 50.4457 145.452 50.5918L145.509 50.6475V53.938L145.225 53.7737C143.907 53.0112 142.822 51.8893 142.106 50.542L141.975 50.2959L145.037 49.9557ZM142.576 50.6098C143.202 51.6895 144.08 52.6046 145.131 53.2738V50.8042C145.006 50.6719 144.898 50.5231 144.811 50.3615L142.576 50.6098Z" fill="#327B9B"/>
<path fill-rule="evenodd" clip-rule="evenodd" d="M177.102 30.7482L177.396 30.521C178.83 29.4126 179.751 27.6782 179.751 25.7284C179.751 22.385 177.04 19.6747 173.697 19.6747C170.353 19.6747 167.643 22.385 167.643 25.7284C167.643 27.6782 168.564 29.4126 169.998 30.521L170.292 30.7482V33.2956H177.102V30.7482ZM177.859 31.1197C179.47 29.8741 180.507 27.9224 180.507 25.7284C180.507 21.9671 177.458 18.918 173.697 18.918C169.936 18.918 166.886 21.9671 166.886 25.7284C166.886 27.9224 167.924 29.8741 169.535 31.1197V34.0524H177.859V31.1197Z" fill="#327B9B"/>
<path fill-rule="evenodd" clip-rule="evenodd" d="M166.508 25.7318C166.508 21.7615 169.726 18.543 173.697 18.543C177.667 18.543 180.886 21.7615 180.886 25.7318C180.886 27.9804 179.853 29.988 178.237 31.3057V34.4341H169.156V31.3057C167.541 29.988 166.508 27.9804 166.508 25.7318ZM173.697 20.0564C170.562 20.0564 168.021 22.5974 168.021 25.7318C168.021 27.5595 168.884 29.1852 170.229 30.225L170.67 30.5658V32.9206H176.724V30.5658L177.164 30.225C178.509 29.1852 179.372 27.5595 179.372 25.7318C179.372 22.5974 176.831 20.0564 173.697 20.0564Z" fill="#327B9B"/>
<path fill-rule="evenodd" clip-rule="evenodd" d="M171.048 26.11C171.466 26.11 171.805 25.7712 171.805 25.3533C171.805 24.9354 171.466 24.5966 171.048 24.5966C170.63 24.5966 170.292 24.9354 170.292 25.3533C170.292 25.7712 170.63 26.11 171.048 26.11ZM171.048 26.8667C171.884 26.8667 172.562 26.1891 172.562 25.3533C172.562 24.5174 171.884 23.8398 171.048 23.8398C170.212 23.8398 169.535 24.5174 169.535 25.3533C169.535 26.1891 170.212 26.8667 171.048 26.8667Z" fill="#327B9B"/>
<path fill-rule="evenodd" clip-rule="evenodd" d="M172.562 25.3533C172.562 26.1891 171.884 26.8667 171.048 26.8667C170.212 26.8667 169.535 26.1891 169.535 25.3533C169.535 24.5174 170.212 23.8398 171.048 23.8398C171.884 23.8398 172.562 24.5174 172.562 25.3533ZM171.048 26.11C171.466 26.11 171.805 25.7712 171.805 25.3533C171.805 24.9354 171.466 24.5966 171.048 24.5966C170.63 24.5966 170.292 24.9354 170.292 25.3533C170.292 25.7712 170.63 26.11 171.048 26.11Z" fill="#327B9B"/>
<path fill-rule="evenodd" clip-rule="evenodd" d="M175.967 26.11C176.385 26.11 176.724 25.7712 176.724 25.3533C176.724 24.9354 176.385 24.5966 175.967 24.5966C175.549 24.5966 175.21 24.9354 175.21 25.3533C175.21 25.7712 175.549 26.11 175.967 26.11ZM175.967 26.8667C176.803 26.8667 177.48 26.1891 177.48 25.3533C177.48 24.5174 176.803 23.8398 175.967 23.8398C175.131 23.8398 174.453 24.5174 174.453 25.3533C174.453 26.1891 175.131 26.8667 175.967 26.8667Z" fill="#327B9B"/>
<path fill-rule="evenodd" clip-rule="evenodd" d="M177.48 25.3533C177.48 26.1891 176.803 26.8667 175.967 26.8667C175.131 26.8667 174.453 26.1891 174.453 25.3533C174.453 24.5174 175.131 23.8398 175.967 23.8398C176.803 23.8398 177.48 24.5174 177.48 25.3533ZM175.967 26.11C176.385 26.11 176.724 25.7712 176.724 25.3533C176.724 24.9354 176.385 24.5966 175.967 24.5966C175.549 24.5966 175.21 24.9354 175.21 25.3533C175.21 25.7712 175.549 26.11 175.967 26.11Z" fill="#327B9B"/>
<path d="M171.427 28.7573C171.427 28.5483 171.596 28.3789 171.805 28.3789H172.562C172.771 28.3789 172.94 28.5483 172.94 28.7573V29.514C172.94 29.7229 172.771 29.8923 172.562 29.8923H171.805C171.596 29.8923 171.427 29.7229 171.427 29.514V28.7573Z" fill="#327B9B"/>
<path fill-rule="evenodd" clip-rule="evenodd" d="M172.562 28.7573H171.805V29.514H172.562V28.7573ZM171.805 28.3789C171.596 28.3789 171.427 28.5483 171.427 28.7573V29.514C171.427 29.7229 171.596 29.8923 171.805 29.8923H172.562C172.771 29.8923 172.94 29.7229 172.94 29.514V28.7573C172.94 28.5483 172.771 28.3789 172.562 28.3789H171.805Z" fill="#327B9B"/>
<path d="M174.075 28.7573C174.075 28.5483 174.244 28.3789 174.453 28.3789H175.21C175.419 28.3789 175.589 28.5483 175.589 28.7573V29.514C175.589 29.7229 175.419 29.8923 175.21 29.8923H174.453C174.244 29.8923 174.075 29.7229 174.075 29.514V28.7573Z" fill="#327B9B"/>
<path fill-rule="evenodd" clip-rule="evenodd" d="M175.21 28.7573H174.453V29.514H175.21V28.7573ZM174.453 28.3789C174.244 28.3789 174.075 28.5483 174.075 28.7573V29.514C174.075 29.7229 174.244 29.8923 174.453 29.8923H175.21C175.419 29.8923 175.589 29.7229 175.589 29.514V28.7573C175.589 28.5483 175.419 28.3789 175.21 28.3789H174.453Z" fill="#327B9B"/>
<path d="M174.075 31.4057C174.075 31.1967 174.244 31.0273 174.453 31.0273H175.21C175.419 31.0273 175.589 31.1967 175.589 31.4057V33.6759H174.075V31.4057Z" fill="#327B9B"/>
<path fill-rule="evenodd" clip-rule="evenodd" d="M175.21 31.4057H174.453V33.2975H175.21V31.4057ZM174.453 31.0273C174.244 31.0273 174.075 31.1967 174.075 31.4057V33.6759H175.589V31.4057C175.589 31.1967 175.419 31.0273 175.21 31.0273H174.453Z" fill="#327B9B"/>
<path d="M171.427 31.4057C171.427 31.1967 171.596 31.0273 171.805 31.0273H172.562C172.771 31.0273 172.94 31.1967 172.94 31.4057V33.6759H171.427V31.4057Z" fill="#327B9B"/>
<path fill-rule="evenodd" clip-rule="evenodd" d="M172.562 31.4057H171.805V33.2975H172.562V31.4057ZM171.805 31.0273C171.596 31.0273 171.427 31.1967 171.427 31.4057V33.6759H172.94V31.4057C172.94 31.1967 172.771 31.0273 172.562 31.0273H171.805Z" fill="#327B9B"/>
<path d="M231.171 43.4162H230.865C230.797 43.1775 230.696 42.9389 230.594 42.7344L230.831 42.4957C231.069 42.2571 231.069 41.848 230.831 41.5753L230.39 41.1321C230.152 40.8935 229.779 40.8935 229.542 41.1321L229.304 41.3707C229.1 41.2685 228.897 41.1662 228.659 41.098V40.7571C228.659 40.4162 228.387 40.1094 228.048 40.1094H227.437C227.098 40.1094 226.826 40.3821 226.826 40.7571V41.098C226.588 41.1662 226.385 41.2685 226.181 41.3707L225.944 41.1321C225.706 40.8935 225.333 40.8935 225.095 41.1321L224.654 41.5753C224.416 41.8139 224.416 42.223 224.654 42.4957L224.891 42.7344C224.789 42.9389 224.688 43.1775 224.62 43.4162H224.28C223.941 43.4162 223.669 43.6889 223.669 44.0639V44.7116C223.669 45.0525 223.941 45.3593 224.28 45.3593H224.586C224.654 45.598 224.755 45.8366 224.857 46.0411L224.62 46.2798C224.382 46.5184 224.382 46.9275 224.62 47.2002L225.061 47.6434C225.299 47.882 225.672 47.882 225.91 47.6434L226.147 47.4048C226.351 47.507 226.554 47.6093 226.792 47.6775V48.0184C226.792 48.3593 227.064 48.6661 227.403 48.6661H228.014C228.353 48.6661 228.625 48.3934 228.625 48.0184V47.6775C228.863 47.6093 229.066 47.507 229.27 47.4048L229.508 47.6434C229.745 47.882 230.119 47.882 230.356 47.6434L230.797 47.2002C231.035 46.9616 231.035 46.5525 230.797 46.2798L230.56 46.0411C230.662 45.8366 230.763 45.598 230.831 45.3593H231.137C231.476 45.3593 231.748 45.0866 231.748 44.7116V44.0639C231.782 43.723 231.51 43.4162 231.171 43.4162ZM227.743 46.6889C226.521 46.6889 225.536 45.6662 225.536 44.3707C225.536 43.0753 226.521 42.0525 227.743 42.0525C228.964 42.0525 229.949 43.0753 229.949 44.3707C229.949 45.6662 228.964 46.6889 227.743 46.6889Z" fill="#327B9B"/>
<path d="M237.351 53.3966H237.045C236.977 53.158 236.876 52.9194 236.774 52.7148L237.011 52.4762C237.249 52.2376 237.249 51.8285 237.011 51.5557L236.57 51.1126C236.332 50.8739 235.959 50.8739 235.721 51.1126L235.484 51.3512C235.28 51.2489 235.077 51.1467 234.839 51.0785V50.7376C234.839 50.3967 234.567 50.0898 234.228 50.0898H233.617C233.278 50.0898 233.006 50.3626 233.006 50.7376V51.0785C232.768 51.1467 232.565 51.2489 232.361 51.3512L232.123 51.1126C231.886 50.8739 231.512 50.8739 231.275 51.1126L230.834 51.5557C230.596 51.7944 230.596 52.2035 230.834 52.4762L231.071 52.7148C230.969 52.9194 230.868 53.158 230.8 53.3966H230.46C230.121 53.3966 229.849 53.6694 229.849 54.0444V54.6921C229.849 55.033 230.121 55.3398 230.46 55.3398H230.766C230.834 55.5784 230.935 55.8171 231.037 56.0216L230.8 56.2603C230.562 56.4989 230.562 56.908 230.8 57.1807L231.241 57.6239C231.479 57.8625 231.852 57.8625 232.089 57.6239L232.327 57.3852C232.531 57.4875 232.734 57.5898 232.972 57.658V57.9989C232.972 58.3398 233.244 58.6466 233.583 58.6466H234.194C234.533 58.6466 234.805 58.3739 234.805 57.9989V57.658C235.043 57.5898 235.246 57.4875 235.45 57.3852L235.687 57.6239C235.925 57.8625 236.298 57.8625 236.536 57.6239L236.977 57.1807C237.215 56.9421 237.215 56.533 236.977 56.2603L236.74 56.0216C236.842 55.8171 236.943 55.5784 237.011 55.3398H237.317C237.656 55.3398 237.928 55.0671 237.928 54.6921V54.0444C237.962 53.7035 237.69 53.3966 237.351 53.3966ZM233.922 56.6693C232.7 56.6693 231.716 55.6466 231.716 54.3512C231.716 53.0557 232.7 52.033 233.922 52.033C235.144 52.033 236.129 53.0557 236.129 54.3512C236.129 55.6466 235.144 56.6693 233.922 56.6693Z" fill="#327B9B"/>
<path d="M225.466 53.3966H225.161C225.093 53.158 224.991 52.9194 224.889 52.7148L225.127 52.4762C225.364 52.2376 225.364 51.8285 225.127 51.5557L224.686 51.1126C224.448 50.8739 224.075 50.8739 223.837 51.1126L223.599 51.3512C223.396 51.2489 223.192 51.1467 222.955 51.0785V50.7376C222.955 50.3967 222.683 50.0898 222.344 50.0898H221.733C221.393 50.0898 221.122 50.3626 221.122 50.7376V51.0785C220.884 51.1467 220.68 51.2489 220.477 51.3512L220.239 51.1126C220.001 50.8739 219.628 50.8739 219.39 51.1126L218.949 51.5557C218.712 51.7944 218.712 52.2035 218.949 52.4762L219.187 52.7148C219.085 52.9194 218.983 53.158 218.915 53.3966H218.576C218.236 53.3966 217.965 53.6694 217.965 54.0444V54.6921C217.965 55.033 218.236 55.3398 218.576 55.3398H218.881C218.949 55.5784 219.051 55.8171 219.153 56.0216L218.915 56.2603C218.678 56.4989 218.678 56.908 218.915 57.1807L219.357 57.6239C219.594 57.8625 219.967 57.8625 220.205 57.6239L220.443 57.3852C220.646 57.4875 220.85 57.5898 221.088 57.658V57.9989C221.088 58.3398 221.359 58.6466 221.699 58.6466H222.31C222.649 58.6466 222.921 58.3739 222.921 57.9989V57.658C223.158 57.5898 223.362 57.4875 223.565 57.3852L223.803 57.6239C224.041 57.8625 224.414 57.8625 224.652 57.6239L225.093 57.1807C225.331 56.9421 225.331 56.533 225.093 56.2603L224.855 56.0216C224.957 55.8171 225.059 55.5784 225.127 55.3398H225.432C225.772 55.3398 226.043 55.0671 226.043 54.6921V54.0444C226.077 53.7035 225.806 53.3966 225.466 53.3966ZM222.038 56.6693C220.816 56.6693 219.832 55.6466 219.832 54.3512C219.832 53.0557 220.816 52.033 222.038 52.033C223.26 52.033 224.244 53.0557 224.244 54.3512C224.244 55.6466 223.26 56.6693 222.038 56.6693Z" fill="#327B9B"/>
<path fill-rule="evenodd" clip-rule="evenodd" d="M226.1 72.8326V71.8867H225.343V81.1565H224.397V81.9133H226.1V73.5893H229.883V81.9133H230.64V74.9136H237.261V81.9133H238.018V73.5893H241.612V81.9133H243.315V81.1565H242.369V71.8867H241.612V72.8326H240.288V71.8867H239.531V72.8326H238.018V71.8867H237.261V74.1569H235.559V73.211H234.802V74.1569H232.91V73.0218H232.153V74.1569H230.64V71.8867H229.883V72.8326H228.37V71.8867H227.613V72.8326H226.1Z" fill="#327B9B"/>
<path fill-rule="evenodd" clip-rule="evenodd" d="M224.965 71.5078H226.478V72.4537H227.235V71.5078H228.748V72.4537H229.505V71.5078H231.018V73.778H231.775V72.6429H233.288V73.778H234.424V72.8321H235.937V73.778H236.883V71.5078H238.396V72.4537H239.153V71.5078H240.667V72.4537H241.234V71.5078H242.747V80.7776H243.693V82.2911H241.234V73.9672H238.396V82.2911H236.883V75.2914H231.018V82.2911H229.505V73.9672H226.478V82.2911H224.019V80.7776H224.965V71.5078Z" fill="#327B9B"/>
<path fill-rule="evenodd" clip-rule="evenodd" d="M234.802 81.345V78.5073C234.802 77.9849 234.378 77.5614 233.856 77.5614C233.334 77.5614 232.91 77.9849 232.91 78.5073V81.345H234.802ZM233.856 76.8047C232.916 76.8047 232.153 77.567 232.153 78.5073V82.1017H235.559V78.5073C235.559 77.567 234.796 76.8047 233.856 76.8047Z" fill="#327B9B"/>
<path fill-rule="evenodd" clip-rule="evenodd" d="M233.856 76.8047C234.796 76.8047 235.559 77.567 235.559 78.5073V82.1017H232.153V78.5073C232.153 77.567 232.916 76.8047 233.856 76.8047ZM233.856 77.5614C233.334 77.5614 232.91 77.9849 232.91 78.5073V81.345H234.802V78.5073C234.802 77.9849 234.378 77.5614 233.856 77.5614Z" fill="#327B9B"/>
<path fill-rule="evenodd" clip-rule="evenodd" d="M254.983 85.1289H260.735L258.465 90.2368H262.645L255.037 99.6958H252.577L255.036 94.0204H251.26L254.983 85.1289ZM255.486 85.8856L252.398 93.2636H256.189L253.73 98.939H254.675L261.066 90.9935H257.301L259.571 85.8856H255.486Z" fill="#327B9B"/>
<path fill-rule="evenodd" clip-rule="evenodd" d="M254.731 84.7539H261.317L259.047 89.8618H263.435L255.218 100.077H252.001L254.46 94.4021H250.692L254.731 84.7539ZM255.738 86.2673L252.966 92.8886H256.765L254.306 98.564H254.494L260.276 91.3752H256.718L258.989 86.2673H255.738Z" fill="#327B9B"/>
<path fill-rule="evenodd" clip-rule="evenodd" d="M236.559 189.557H231.153L231.153 195.232H236.559V189.557ZM231.153 188.422C230.556 188.422 230.072 188.93 230.072 189.557V195.232C230.072 195.859 230.556 196.367 231.153 196.367H236.559C237.156 196.367 237.64 195.859 237.64 195.232V189.557C237.64 188.93 237.156 188.422 236.559 188.422H231.153Z" fill="#327B9B"/>
<path fill-rule="evenodd" clip-rule="evenodd" d="M224.451 178.151H219.046L219.046 183.556H224.451V178.151ZM219.046 177.07C218.449 177.07 217.965 177.554 217.965 178.151V183.556C217.965 184.154 218.449 184.638 219.046 184.638H224.451C225.048 184.638 225.532 184.154 225.532 183.556V178.151C225.532 177.554 225.048 177.07 224.451 177.07H219.046Z" fill="#327B9B"/>
<path fill-rule="evenodd" clip-rule="evenodd" d="M228.021 175.716C228.234 175.925 228.234 176.264 228.021 176.474L222.029 182.369L220.395 180.761C220.182 180.552 220.182 180.213 220.395 180.003C220.607 179.794 220.952 179.794 221.165 180.003L222.029 180.853L227.251 175.716C227.463 175.506 227.808 175.506 228.021 175.716Z" fill="#327B9B"/>
<path fill-rule="evenodd" clip-rule="evenodd" d="M236.558 178.151H231.153L231.153 183.556H236.558V178.151ZM231.153 177.07C230.556 177.07 230.072 177.554 230.072 178.151V183.556C230.072 184.154 230.556 184.638 231.153 184.638H236.558C237.155 184.638 237.639 184.154 237.639 183.556V178.151C237.639 177.554 237.155 177.07 236.558 177.07H231.153Z" fill="#327B9B"/>
<path fill-rule="evenodd" clip-rule="evenodd" d="M239.75 175.724C239.963 175.945 239.963 176.303 239.75 176.524L233.758 182.747L232.124 181.05C231.911 180.829 231.911 180.471 232.124 180.25C232.336 180.029 232.681 180.029 232.894 180.25L233.758 181.147L238.98 175.724C239.192 175.503 239.537 175.503 239.75 175.724Z" fill="#327B9B"/>
<path fill-rule="evenodd" clip-rule="evenodd" d="M224.451 189.553H219.046L219.046 195.228H224.451V189.553ZM219.046 188.418C218.449 188.418 217.965 188.926 217.965 189.553V195.228C217.965 195.855 218.449 196.364 219.046 196.364H224.451C225.048 196.364 225.532 195.855 225.532 195.228V189.553C225.532 188.926 225.048 188.418 224.451 188.418H219.046Z" fill="#327B9B"/>
<path fill-rule="evenodd" clip-rule="evenodd" d="M228.392 187.826C228.615 188.047 228.615 188.405 228.392 188.626L222.114 194.849L220.402 193.152C220.179 192.931 220.179 192.573 220.402 192.352C220.625 192.131 220.986 192.131 221.209 192.352L222.114 193.249L227.585 187.826C227.808 187.605 228.169 187.605 228.392 187.826Z" fill="#327B9B"/>
<path fill-rule="evenodd" clip-rule="evenodd" d="M165.562 223.993C169.637 223.993 172.94 220.69 172.94 216.615C172.94 212.54 169.637 209.237 165.562 209.237C161.487 209.237 158.184 212.54 158.184 216.615C158.184 220.69 161.487 223.993 165.562 223.993ZM165.562 224.75C170.055 224.75 173.697 221.108 173.697 216.615C173.697 212.123 170.055 208.48 165.562 208.48C161.069 208.48 157.427 212.123 157.427 216.615C157.427 221.108 161.069 224.75 165.562 224.75Z" fill="#327B9B"/>
<path fill-rule="evenodd" clip-rule="evenodd" d="M165.562 208.671C161.174 208.671 157.616 212.229 157.616 216.617C157.616 221.005 161.174 224.562 165.562 224.562C169.95 224.562 173.508 221.005 173.508 216.617C173.508 212.229 169.95 208.671 165.562 208.671ZM157.238 216.617C157.238 212.02 160.965 208.293 165.562 208.293C170.159 208.293 173.886 212.02 173.886 216.617C173.886 221.214 170.159 224.941 165.562 224.941C160.965 224.941 157.238 221.214 157.238 216.617ZM165.562 209.428C161.592 209.428 158.373 212.647 158.373 216.617C158.373 220.587 161.592 223.806 165.562 223.806C169.532 223.806 172.751 220.587 172.751 216.617C172.751 212.647 169.532 209.428 165.562 209.428ZM157.995 216.617C157.995 212.438 161.383 209.05 165.562 209.05C169.741 209.05 173.129 212.438 173.129 216.617C173.129 220.796 169.741 224.184 165.562 224.184C161.383 224.184 157.995 220.796 157.995 216.617Z" fill="#327B9B"/>
<path d="M160.833 216.426H161.968V219.831H160.833V216.426Z" fill="#327B9B"/>
<path fill-rule="evenodd" clip-rule="evenodd" d="M160.643 216.238H162.157V220.022H160.643V216.238ZM161.022 216.617V219.644H161.778V216.617H161.022Z" fill="#327B9B"/>
<path d="M162.724 212.262H163.859V219.829H162.724V212.262Z" fill="#327B9B"/>
<path fill-rule="evenodd" clip-rule="evenodd" d="M162.535 212.078H164.048V220.024H162.535V212.078ZM162.913 212.456V219.645H163.67V212.456H162.913Z" fill="#327B9B"/>
<path d="M165.373 215.293H166.508V219.833H165.373V215.293Z" fill="#327B9B"/>
<path fill-rule="evenodd" clip-rule="evenodd" d="M165.184 215.102H166.697V220.02H165.184V215.102ZM165.562 215.48V219.642H166.319V215.48H165.562Z" fill="#327B9B"/>
<path d="M167.265 213.398H168.4V219.831H167.265V213.398Z" fill="#327B9B"/>
<path fill-rule="evenodd" clip-rule="evenodd" d="M167.075 213.211H168.589V220.021H167.075V213.211ZM167.454 213.589V219.643H168.211V213.589H167.454Z" fill="#327B9B"/>
<path d="M169.535 215.672H170.67V219.834H169.535V215.672Z" fill="#327B9B"/>
<path fill-rule="evenodd" clip-rule="evenodd" d="M169.346 215.48H170.859V220.021H169.346V215.48ZM169.724 215.859V219.642H170.481V215.859H169.724Z" fill="#327B9B"/>
<path fill-rule="evenodd" clip-rule="evenodd" d="M110.511 193.381V186.16H111.267V193.381L117.321 199.435V196.943H118.078V200.727H114.483V199.97H116.786L110.889 194.073L104.992 199.97H107.294V200.727H103.7V196.943H104.457V199.435L110.511 193.381Z" fill="#327B9B"/>
<path fill-rule="evenodd" clip-rule="evenodd" d="M110.321 185.969H111.457V193.301L117.132 198.976V196.752H118.267V200.914H114.294V199.779H116.329L110.889 194.339L105.449 199.779H107.484V200.914H103.511V196.752H104.646V198.976L110.321 193.301V185.969ZM110.7 186.347V193.458L104.268 199.89V197.13H103.889V200.536H107.105V200.157H104.535L110.889 193.803L117.243 200.157H114.673V200.536H117.889V197.13H117.51V199.89L111.078 193.458V186.347H110.7Z" fill="#327B9B"/>
<path fill-rule="evenodd" clip-rule="evenodd" d="M133.969 195.234H147.212V211.882H139.727C138.929 212.809 137.747 213.396 136.428 213.396C134.025 213.396 132.077 211.448 132.077 209.045C132.077 207.554 132.826 206.239 133.969 205.455V195.234ZM134.726 205.039C135.249 204.817 135.824 204.693 136.428 204.693C138.831 204.693 140.779 206.641 140.779 209.045C140.779 209.798 140.588 210.507 140.25 211.125H146.455V195.991H134.726V205.039ZM140.023 209.045C140.023 211.03 138.413 212.639 136.428 212.639C134.443 212.639 132.834 211.03 132.834 209.045C132.834 207.059 134.443 205.45 136.428 205.45C138.413 205.45 140.023 207.059 140.023 209.045Z" fill="#327B9B"/>
<path fill-rule="evenodd" clip-rule="evenodd" d="M133.78 195.043H147.401V212.069H139.813C138.981 212.998 137.773 213.583 136.428 213.583C133.921 213.583 131.888 211.55 131.888 209.042C131.888 207.523 132.635 206.178 133.78 205.354V195.043ZM134.158 195.421V205.552L134.076 205.608C132.983 206.359 132.266 207.617 132.266 209.042C132.266 211.341 134.13 213.204 136.428 213.204C137.69 213.204 138.82 212.643 139.584 211.757L139.64 211.691H147.022V195.421H134.158ZM134.537 195.8H146.644V211.312H139.932L140.084 211.033C140.407 210.442 140.59 209.764 140.59 209.042C140.59 206.744 138.727 204.88 136.428 204.88C135.85 204.88 135.3 204.998 134.8 205.211L134.537 205.323V195.8ZM134.915 196.178V204.76C135.389 204.593 135.898 204.502 136.428 204.502C138.936 204.502 140.969 206.535 140.969 209.042C140.969 209.717 140.821 210.358 140.557 210.934H146.266V196.178H134.915ZM132.645 209.042C132.645 206.953 134.339 205.259 136.428 205.259C138.518 205.259 140.212 206.953 140.212 209.042C140.212 211.132 138.518 212.826 136.428 212.826C134.339 212.826 132.645 211.132 132.645 209.042ZM136.428 205.637C134.548 205.637 133.023 207.162 133.023 209.042C133.023 210.923 134.548 212.448 136.428 212.448C138.309 212.448 139.834 210.923 139.834 209.042C139.834 207.162 138.309 205.637 136.428 205.637Z" fill="#327B9B"/>
<path fill-rule="evenodd" clip-rule="evenodd" d="M138.888 207.716C139.035 207.864 139.035 208.104 138.888 208.251L135.861 211.278L134.347 209.765C134.2 209.617 134.2 209.377 134.347 209.23C134.495 209.082 134.735 209.082 134.882 209.23L135.861 210.208L138.353 207.716C138.5 207.569 138.74 207.569 138.888 207.716Z" fill="#327B9B"/>
<path fill-rule="evenodd" clip-rule="evenodd" d="M138.754 207.852C138.68 207.778 138.56 207.778 138.486 207.852L135.861 210.477L134.749 209.365C134.675 209.291 134.555 209.291 134.481 209.365C134.407 209.439 134.407 209.559 134.481 209.633L135.861 211.012L138.754 208.119C138.828 208.045 138.828 207.926 138.754 207.852ZM138.219 207.584C138.441 207.363 138.8 207.363 139.022 207.584C139.243 207.806 139.243 208.165 139.022 208.387L135.861 211.547L134.214 209.9C133.992 209.679 133.992 209.319 134.214 209.098C134.435 208.876 134.795 208.876 135.016 209.098L135.861 209.942L138.219 207.584Z" fill="#327B9B"/>
<path d="M163.993 115.05C164.428 115.05 164.802 115.199 165.115 115.498C165.446 115.779 165.611 116.14 165.611 116.579C165.611 116.808 165.559 117.045 165.454 117.291L159.008 132.535C158.851 132.886 158.625 133.15 158.329 133.326C158.051 133.484 157.764 133.563 157.468 133.563C157.19 133.545 156.92 133.458 156.659 133.299C156.398 133.124 156.198 132.877 156.059 132.561L149.612 117.265C149.56 117.16 149.525 117.054 149.508 116.949C149.491 116.826 149.482 116.711 149.482 116.606C149.482 116.096 149.665 115.709 150.03 115.445C150.395 115.164 150.743 115.023 151.074 115.023C151.735 115.023 152.213 115.366 152.509 116.052L158.225 129.634L157.311 129.66L162.557 116.052C162.853 115.384 163.332 115.05 163.993 115.05Z" fill="#327B9B"/>
<path d="M169.989 115.076C170.232 115.076 170.484 115.147 170.745 115.287C171.024 115.41 171.233 115.577 171.372 115.788L177.714 125.651L176.409 125.599L182.907 115.788C183.238 115.314 183.664 115.076 184.186 115.076C184.604 115.076 184.978 115.226 185.308 115.525C185.639 115.823 185.804 116.21 185.804 116.685V131.954C185.804 132.411 185.656 132.798 185.361 133.115C185.065 133.414 184.673 133.563 184.186 133.563C183.699 133.563 183.299 133.414 182.986 133.115C182.69 132.798 182.542 132.411 182.542 131.954V119.533L183.56 119.77L178.236 127.972C178.079 128.166 177.879 128.333 177.635 128.473C177.409 128.614 177.174 128.675 176.931 128.658C176.705 128.675 176.47 128.614 176.226 128.473C176 128.333 175.809 128.166 175.652 127.972L170.667 120.008L171.346 118.61V131.954C171.346 132.411 171.206 132.798 170.928 133.115C170.65 133.414 170.284 133.563 169.832 133.563C169.397 133.563 169.04 133.414 168.762 133.115C168.483 132.798 168.344 132.411 168.344 131.954V116.685C168.344 116.245 168.501 115.867 168.814 115.551C169.145 115.234 169.536 115.076 169.989 115.076Z" fill="#327B9B"/>
</svg>
