<svg width="316" height="217" viewBox="0 0 316 217" fill="none" xmlns="http://www.w3.org/2000/svg">
<path d="M285.8 13.0703H79.5193V173.428H285.8V13.0703Z" fill="white"/>
<path d="M285.8 173.433C285.8 172.227 285.733 109.88 285.666 13.0761L285.8 13.2102C227.083 13.2102 156.086 13.2102 79.5866 13.2102L79.7879 13.0091C79.7879 70.7967 79.7879 125.433 79.7879 173.366L79.6537 173.232C201.986 173.366 284.391 173.433 285.8 173.433C284.391 173.433 201.986 173.5 79.5195 173.567H79.3853V173.433C79.3853 125.568 79.3853 70.8637 79.3853 13.0761V12.875H79.5866C156.086 12.875 227.15 12.875 285.8 12.875H285.934V13.0091C285.867 109.88 285.8 172.227 285.8 173.433Z" fill="#45788E"/>
<path d="M136.223 159.954C136.156 159.954 136.022 142.524 136.022 121.004C136.022 99.4848 136.089 82.0547 136.223 82.0547C136.29 82.0547 136.424 99.4848 136.424 121.004C136.424 142.524 136.357 159.954 136.223 159.954Z" fill="#45788E"/>
<path d="M225.741 159.954C225.674 159.954 225.54 142.524 225.54 121.004C225.54 99.4848 225.607 82.0547 225.741 82.0547C225.875 82.0547 225.942 99.4848 225.942 121.004C225.942 142.524 225.875 159.954 225.741 159.954Z" fill="#45788E"/>
<path d="M166.823 159.955C166.756 159.955 166.622 137.698 166.622 110.212C166.622 82.7257 166.689 60.4688 166.823 60.4688C166.957 60.4688 167.024 82.7257 167.024 110.212C166.957 137.698 166.89 159.955 166.823 159.955Z" fill="#45788E"/>
<path d="M104.885 159.955C104.818 159.955 104.684 137.698 104.684 110.212C104.684 82.7257 104.751 60.4688 104.885 60.4688C105.019 60.4688 105.086 82.7257 105.086 110.212C105.019 137.698 104.952 159.955 104.885 159.955Z" fill="#45788E"/>
<path d="M260.904 159.955C260.837 159.955 260.703 137.698 260.703 110.212C260.703 82.7257 260.77 60.4688 260.904 60.4688C260.971 60.4688 261.105 82.7257 261.105 110.212C261.105 137.698 260.971 159.955 260.904 159.955Z" fill="#45788E"/>
<path d="M193.598 159.952C193.531 159.952 193.397 134.209 193.397 102.499C193.397 70.7899 193.464 45.0469 193.598 45.0469C193.732 45.0469 193.799 70.7899 193.799 102.499C193.799 134.209 193.732 159.952 193.598 159.952Z" fill="#45788E"/>
<path d="M136.961 82.1202C136.961 82.5225 136.626 82.8577 136.223 82.8577C135.821 82.8577 135.485 82.5225 135.485 82.1202C135.485 81.718 135.821 81.3828 136.223 81.3828C136.626 81.3828 136.961 81.718 136.961 82.1202Z" fill="#45788E"/>
<path d="M166.823 61.1389C167.231 61.1389 167.561 60.8088 167.561 60.4015C167.561 59.9942 167.231 59.6641 166.823 59.6641C166.415 59.6641 166.085 59.9942 166.085 60.4015C166.085 60.8088 166.415 61.1389 166.823 61.1389Z" fill="#45788E"/>
<path d="M166.823 63.0129C165.414 63.0129 164.273 61.8733 164.273 60.4654C164.273 59.0576 165.414 57.918 166.823 57.918C168.232 57.918 169.373 59.0576 169.373 60.4654C169.373 61.8062 168.232 63.0129 166.823 63.0129ZM166.823 58.052C165.481 58.052 164.407 59.1247 164.407 60.4654C164.407 61.8062 165.481 62.8789 166.823 62.8789C168.165 62.8789 169.239 61.8062 169.239 60.4654C169.239 59.1247 168.165 58.052 166.823 58.052Z" fill="#45788E"/>
<path d="M193.598 45.7835C194.006 45.7835 194.336 45.4533 194.336 45.046C194.336 44.6388 194.006 44.3086 193.598 44.3086C193.19 44.3086 192.86 44.6388 192.86 45.046C192.86 45.4533 193.19 45.7835 193.598 45.7835Z" fill="#45788E"/>
<path d="M225.741 83.5959C226.149 83.5959 226.479 83.2658 226.479 82.8585C226.479 82.4513 226.149 82.1211 225.741 82.1211C225.333 82.1211 225.003 82.4513 225.003 82.8585C225.003 83.2658 225.333 83.5959 225.741 83.5959Z" fill="#45788E"/>
<path d="M260.904 61.1389C261.312 61.1389 261.642 60.8088 261.642 60.4015C261.642 59.9942 261.312 59.6641 260.904 59.6641C260.496 59.6641 260.166 59.9942 260.166 60.4015C260.166 60.8088 260.496 61.1389 260.904 61.1389Z" fill="#45788E"/>
<path d="M105.623 61.1359C105.623 61.5381 105.288 61.8733 104.885 61.8733C104.483 61.8733 104.147 61.5381 104.147 61.1359C104.147 60.7336 104.483 60.3984 104.885 60.3984C105.288 60.3984 105.623 60.7336 105.623 61.1359Z" fill="#45788E"/>
<path d="M267.816 95.6713C267.816 95.6713 267.615 95.7383 267.212 95.8724C266.81 95.9394 266.273 96.1406 265.535 96.4087C264.126 97.0121 262.179 98.2858 260.233 100.431C258.22 102.576 256.274 105.593 253.724 108.945C252.449 110.621 251.04 112.431 249.295 114.04C248.423 114.911 247.483 115.649 246.41 116.386C245.336 117.124 244.195 117.727 242.987 118.263C240.505 119.269 237.619 119.805 234.733 119.671C233.257 119.604 231.781 119.47 230.305 119.135C228.828 118.8 227.285 118.196 226.01 117.258C224.668 116.319 223.594 115.113 222.655 113.772C221.715 112.431 220.91 111.023 220.105 109.548C218.494 106.666 216.816 103.716 214.938 100.766C213.059 97.8165 211.381 94.6657 209.435 91.5819C207.489 88.4981 205.409 85.4143 202.657 82.8668C201.315 81.5931 199.772 80.4534 198.094 79.649C196.417 78.7775 194.605 78.2411 192.726 78.04C190.847 77.8389 188.901 77.973 187.022 78.3752C185.143 78.7775 183.264 79.4478 181.586 80.4534C178.164 82.3976 175.413 85.2802 173.064 88.364C170.715 91.4478 168.836 94.7998 166.957 98.1517C165.146 101.504 163.2 104.722 161.052 107.738C158.905 110.755 156.623 113.504 153.939 115.85C153.268 116.453 152.597 116.99 151.859 117.526C151.188 118.062 150.383 118.532 149.644 118.934C148.101 119.738 146.558 120.476 144.88 120.878C144.075 121.146 143.202 121.213 142.397 121.347C141.994 121.414 141.592 121.414 141.122 121.414C140.719 121.414 140.317 121.414 139.914 121.414C138.236 121.347 136.693 121.012 135.15 120.543C132.13 119.537 129.513 117.995 127.097 116.319C124.681 114.643 122.534 112.967 120.387 111.425C118.239 109.884 116.159 108.543 114.012 107.537C111.864 106.599 109.717 105.928 107.637 105.727C105.556 105.526 103.677 105.66 101.933 106.062C101.463 106.129 101.127 106.33 100.725 106.465C100.322 106.599 99.9195 106.733 99.584 106.934C98.8459 107.336 98.1748 107.604 97.5709 108.073C96.2959 108.811 95.3564 109.749 94.5511 110.487C94.1485 110.889 93.813 111.291 93.4775 111.627C93.1419 111.962 92.8735 112.297 92.6051 112.632C92.1354 113.235 91.7998 113.705 91.5314 114.04C91.263 114.375 91.1288 114.509 91.1288 114.509C91.1288 114.509 91.1959 114.308 91.4643 113.973C91.6656 113.638 92.0011 113.168 92.4709 112.498C92.6722 112.163 92.9406 111.828 93.2761 111.492C93.6117 111.157 93.9472 110.755 94.2827 110.286C95.088 109.481 96.0274 108.543 97.3024 107.738C97.9064 107.269 98.6445 106.934 99.3156 106.532C99.6511 106.33 100.121 106.196 100.523 106.062C100.926 105.928 101.329 105.727 101.798 105.66C103.543 105.124 105.556 104.99 107.704 105.191C109.851 105.392 112.066 105.995 114.28 106.934C116.494 107.872 118.642 109.28 120.789 110.822C122.937 112.364 125.151 114.04 127.5 115.649C129.848 117.258 132.465 118.733 135.351 119.671C136.827 120.141 138.304 120.409 139.914 120.476C140.317 120.476 140.719 120.476 141.055 120.476C141.458 120.476 141.86 120.476 142.263 120.409C143.068 120.275 143.873 120.208 144.611 119.939C147.765 119.135 150.651 117.325 153.201 115.046C155.818 112.766 158.032 110.018 160.18 107.068C162.26 104.118 164.139 100.9 166.018 97.6154C167.897 94.3305 169.776 90.9115 172.192 87.6936C174.54 84.5428 177.426 81.526 181.049 79.4478C182.861 78.4423 184.807 77.7048 186.821 77.3026C188.834 76.9004 190.847 76.7663 192.86 76.9674C194.873 77.1685 196.819 77.7719 198.631 78.6434C200.443 79.5149 201.986 80.7216 203.395 82.0624C206.214 84.7439 208.361 87.8948 210.307 90.9785C212.253 94.1294 213.931 97.2132 215.81 100.163C217.689 103.113 219.366 106.062 220.977 109.012C222.587 111.895 224.131 114.71 226.614 116.453C227.822 117.325 229.164 117.928 230.64 118.263C232.049 118.666 233.526 118.733 234.935 118.8C237.753 118.934 240.505 118.465 242.92 117.526C244.128 117.057 245.202 116.386 246.276 115.716C247.282 114.979 248.222 114.241 249.094 113.437C250.839 111.828 252.248 110.085 253.523 108.476C256.073 105.124 258.086 102.174 260.166 100.029C262.179 97.8836 264.26 96.6098 265.736 96.0735C266.474 95.8054 267.078 95.6713 267.481 95.6042C267.615 95.6713 267.816 95.6713 267.816 95.6713Z" fill="#E8505B"/>
<path d="M140.115 31.1016H104.147V33.1127H140.115V31.1016Z" fill="#45788E"/>
<path d="M121.93 35.7305H104.147V37.7416H121.93V35.7305Z" fill="#45788E"/>
<path d="M282.78 0H82.3377C80.6601 0 79.318 1.34078 79.318 3.01676V13.0726H285.8V3.01676C285.8 1.34078 284.458 0 282.78 0Z" fill="#45788E"/>
<path d="M89.9878 6.76719C89.9878 7.57166 89.3838 8.17501 88.5786 8.17501C87.7733 8.17501 87.1694 7.57166 87.1694 6.76719C87.1694 5.96273 87.7733 5.35938 88.5786 5.35938C89.3838 5.35938 89.9878 6.02977 89.9878 6.76719Z" fill="white"/>
<path d="M96.1615 6.76719C96.1615 7.57166 95.5576 8.17501 94.7523 8.17501C93.9471 8.17501 93.3431 7.57166 93.3431 6.76719C93.3431 5.96273 93.9471 5.35938 94.7523 5.35938C95.4905 5.35938 96.1615 6.02977 96.1615 6.76719Z" fill="white"/>
<path d="M102.268 6.76719C102.268 7.57166 101.664 8.17501 100.858 8.17501C100.053 8.17501 99.4493 7.57166 99.4493 6.76719C99.4493 5.96273 100.053 5.35938 100.858 5.35938C101.664 5.35938 102.268 6.02977 102.268 6.76719Z" fill="white"/>
<path d="M82.5392 131.118H2.14736C0.93947 131.118 0 130.179 0 128.973V109.598C0 108.392 0.93947 107.453 2.14736 107.453H82.5392C83.747 107.453 84.6865 108.392 84.6865 109.598V128.973C84.6865 130.179 83.747 131.118 82.5392 131.118Z" fill="#E1EFF4"/>
<path d="M17.8502 123.211C16.0384 125.424 12.8173 125.759 10.6029 124.016C8.38842 122.206 8.05289 118.988 9.79762 116.776C11.6095 114.563 14.8305 114.228 17.045 115.971C19.2594 117.781 19.6621 120.999 17.8502 123.211Z" fill="white"/>
<path d="M16.7091 118.249C16.7762 118.316 15.5012 119.657 13.8907 121.198C13.6894 121.4 13.421 121.668 13.2197 121.869L13.0855 122.003L12.9512 121.869C11.6762 120.595 10.8039 119.59 10.871 119.523C10.9381 119.455 11.9447 120.327 13.2197 121.601H12.9512C13.1526 121.4 13.421 121.198 13.6223 120.93C15.2999 119.388 16.642 118.182 16.7091 118.249Z" fill="#45788E"/>
<path d="M76.4327 117.584C76.4327 117.651 65.6959 117.785 52.4091 117.785C39.1224 117.785 28.3856 117.718 28.3856 117.584C28.3856 117.45 39.1224 117.383 52.4091 117.383C65.6288 117.383 76.4327 117.45 76.4327 117.584Z" fill="#45788E"/>
<path d="M56.7037 122.271C56.7037 122.338 50.4629 122.473 42.813 122.473C35.163 122.473 28.9222 122.405 28.9222 122.271C28.9222 122.137 35.163 122.07 42.813 122.07C50.4629 122.07 56.7037 122.137 56.7037 122.271Z" fill="#45788E"/>
<path d="M106.764 84.9365H26.7747C25.8352 84.9365 25.03 84.132 25.03 83.1935V52.0204C25.03 51.0818 25.8352 50.2773 26.7747 50.2773H106.764C107.703 50.2773 108.509 51.0818 108.509 52.0204V83.1265C108.509 84.132 107.703 84.9365 106.764 84.9365Z" fill="#AACFDF"/>
<path d="M42.343 61.2047C42.343 63.3499 40.5983 65.0929 38.4509 65.0929C36.3036 65.0929 34.5588 63.3499 34.5588 61.2047C34.5588 59.0594 36.3036 57.3164 38.4509 57.3164C40.5983 57.3164 42.343 59.0594 42.343 61.2047Z" fill="#327B9B"/>
<path d="M73.3458 58.5234H46.2354V59.9983H73.3458V58.5234Z" fill="#327B9B"/>
<path d="M98.9799 61.9414H46.2354V63.4163H98.9799V61.9414Z" fill="white"/>
<path d="M42.3435 73.2086C42.3435 75.3538 40.5988 77.0968 38.4514 77.0968C36.3041 77.0968 34.5593 75.3538 34.5593 73.2086C34.5593 71.0633 36.3041 69.3203 38.4514 69.3203C40.5988 69.3203 42.3435 71.0633 42.3435 73.2086Z" fill="#327B9B"/>
<path d="M60.059 70.457H46.2354V71.9319H60.059V70.457Z" fill="#327B9B"/>
<path d="M98.9802 73.875H46.2357V75.3499H98.9802V73.875Z" fill="white"/>
<path d="M144.813 187.1H42.3433C40.867 187.1 39.6591 185.893 39.6591 184.419V143.994C39.6591 142.519 40.867 141.312 42.3433 141.312H144.746C146.222 141.312 147.43 142.519 147.43 143.994V184.419C147.43 185.893 146.222 187.1 144.813 187.1Z" fill="#AACFDF"/>
<path d="M59.4549 163.502L59.3878 154.184C56.6365 154.184 53.8852 155.256 51.7379 157.2C49.1879 159.413 47.5774 162.765 48.0471 166.787C48.1142 167.256 48.1813 167.658 48.2484 168.128L59.4549 165.58V163.502Z" fill="#327B9B"/>
<path d="M70.93 160.618C69.3866 157.333 66.2998 154.719 61.8709 154.316C61.7366 154.316 61.6024 154.316 61.5353 154.316C61.4682 154.316 61.4011 154.316 61.334 154.316C61.1327 154.316 60.8643 154.316 60.663 154.316L60.7301 163.568V165.78L71.9366 168.193C72.1379 167.389 72.205 166.585 72.205 165.78C72.1379 163.97 71.7353 162.227 70.93 160.618Z" fill="#327B9B"/>
<g opacity="0.2">
<path opacity="0.2" d="M70.93 160.618C69.3866 157.333 66.2998 154.719 61.8709 154.316C61.7366 154.316 61.6024 154.316 61.5353 154.316C61.4682 154.316 61.4011 154.316 61.334 154.316C61.1327 154.316 60.8643 154.316 60.663 154.316L60.7301 163.568V165.78L71.9366 168.193C72.1379 167.389 72.205 166.585 72.205 165.78C72.1379 163.97 71.7353 162.227 70.93 160.618Z" fill="#285C72"/>
</g>
<path d="M59.9908 166.785L48.7843 169.333C49.9251 174.428 54.4882 178.249 59.9908 178.249C65.4935 178.249 70.0566 174.361 71.1974 169.199L59.9908 166.785Z" fill="#327B9B"/>
<g opacity="0.1">
<path opacity="0.1" d="M59.9908 166.785L48.7843 169.333C49.9251 174.428 54.4882 178.249 59.9908 178.249C65.4935 178.249 70.0566 174.361 71.1974 169.199L59.9908 166.785Z" fill="#285C72"/>
</g>
<path d="M136.491 156.996H79.6534V159.544H136.491V156.996Z" fill="white"/>
<path d="M136.491 163.773H79.6534V166.321H136.491V163.773Z" fill="white"/>
<path d="M110.388 171.277H79.6534V173.825H110.388V171.277Z" fill="white"/>
<path d="M271.977 217H170.917C167.83 217 165.28 214.453 165.28 211.369V114.565C165.28 111.481 167.83 108.934 170.917 108.934H271.977C275.064 108.934 277.614 111.481 277.614 114.565V211.302C277.614 214.453 275.064 217 271.977 217Z" fill="#E1EFF4"/>
<path d="M176.822 182.941H173.131V184.014H176.822V182.941Z" fill="#45788E"/>
<path d="M186.15 188.641H181.452V189.713H186.15V188.641Z" fill="#45788E"/>
<path d="M202.59 188.641H197.893V189.713H202.59V188.641Z" fill="#45788E"/>
<path d="M219.031 188.641H214.334V189.713H219.031V188.641Z" fill="#45788E"/>
<path d="M235.405 188.641H230.708V189.713H235.405V188.641Z" fill="#45788E"/>
<path d="M251.845 188.641H247.148V189.713H251.845V188.641Z" fill="#45788E"/>
<path d="M268.219 188.641H263.521V189.713H268.219V188.641Z" fill="#45788E"/>
<path d="M176.822 168.801H173.131V169.873H176.822V168.801Z" fill="#45788E"/>
<path d="M176.822 142.117H173.131V143.19H176.822V142.117Z" fill="#45788E"/>
<path d="M176.822 128.711H173.131V129.784H176.822V128.711Z" fill="#45788E"/>
<path d="M177.023 155.457H173.333V156.53H177.023V155.457Z" fill="#45788E"/>
<path d="M268.152 184.012C268.152 184.012 268.018 184.012 267.749 184.012C267.481 184.012 267.078 184.012 266.608 184.012C265.602 184.012 264.058 184.012 262.18 184.012C258.287 184.012 252.718 184.012 245.806 184.079C231.915 184.079 212.79 184.079 191.652 184.146C187.29 184.146 182.929 184.146 178.835 184.146H178.634V183.945C178.634 165.844 178.701 149.956 178.701 138.559C178.701 132.861 178.768 128.302 178.768 125.152C178.768 123.61 178.768 122.403 178.768 121.532C178.768 121.129 178.768 120.794 178.768 120.593C178.768 120.392 178.768 120.258 178.768 120.258C178.768 120.258 178.768 120.392 178.768 120.593C178.768 120.794 178.768 121.129 178.768 121.532C178.768 122.336 178.768 123.61 178.768 125.152C178.768 128.302 178.768 132.861 178.835 138.559C178.835 149.956 178.902 165.844 178.902 183.945L178.701 183.744C182.794 183.744 187.156 183.744 191.518 183.744C212.656 183.744 231.781 183.811 245.672 183.811C252.583 183.811 258.22 183.878 262.045 183.878C263.991 183.878 265.468 183.878 266.474 183.878C266.944 183.878 267.347 183.878 267.615 183.878C268.018 184.012 268.152 184.012 268.152 184.012Z" fill="#45788E"/>
<path d="M269.158 155.998C269.158 156.065 249.698 156.199 225.741 156.199C201.785 156.199 182.324 156.132 182.324 155.998C182.324 155.864 201.785 155.797 225.741 155.797C249.698 155.797 269.158 155.864 269.158 155.998Z" fill="#45788E"/>
<path d="M269.158 142.654C269.158 142.721 249.698 142.855 225.741 142.855C201.785 142.855 182.324 142.788 182.324 142.654C182.324 142.587 201.785 142.453 225.741 142.453C249.698 142.453 269.158 142.52 269.158 142.654Z" fill="#45788E"/>
<path d="M269.158 129.248C269.158 129.315 249.698 129.449 225.741 129.449C201.785 129.449 182.324 129.382 182.324 129.248C182.324 129.181 201.785 129.047 225.741 129.047C249.698 129.047 269.158 129.114 269.158 129.248Z" fill="#45788E"/>
<path d="M269.158 169.33C269.158 169.397 249.698 169.531 225.741 169.531C201.785 169.531 182.324 169.464 182.324 169.33C182.324 169.263 201.785 169.129 225.741 169.129C249.698 169.129 269.158 169.196 269.158 169.33Z" fill="#45788E"/>
<path d="M183.197 181.135C183.197 178.922 183.197 169.269 183.197 169.269L190.578 157.805L195.611 161.626L205.878 145.671L211.918 149.962L220.373 135.213L227.218 140.777L237.552 121.336L248.624 143.191L257.616 132.263L268.152 129.247V181.135H183.197Z" fill="#327B9B"/>
<path d="M269.159 125.023C269.159 125.023 269.091 125.023 268.957 125.023C268.823 125.023 268.622 125.023 268.42 125.023C267.951 125.023 267.212 125.023 266.273 125.023C264.394 125.023 261.643 125.023 258.153 125.09L258.22 125.023C255.872 128.107 252.919 131.928 249.564 136.353L249.497 136.42H249.43C243.122 136.42 235.74 136.42 227.688 136.42L227.822 136.353C224.936 141.113 221.849 146.208 218.696 151.571C215.609 156.733 212.589 161.761 209.703 166.454L209.569 166.655L209.435 166.454C205.14 160.554 201.181 155.124 197.692 150.297H197.96C193.464 157.269 189.773 162.968 187.223 166.99C185.948 169.001 184.942 170.543 184.204 171.616C183.868 172.152 183.6 172.554 183.398 172.822C183.197 173.09 183.13 173.224 183.13 173.224C183.13 173.224 183.197 173.09 183.398 172.822C183.6 172.554 183.801 172.152 184.136 171.616C184.808 170.543 185.814 168.934 187.089 166.99C189.639 162.968 193.263 157.202 197.692 150.23L197.826 150.029L197.96 150.23C201.45 155.057 205.476 160.487 209.771 166.386H209.502C212.321 161.694 215.34 156.666 218.427 151.504C221.648 146.208 224.735 141.046 227.553 136.353L227.621 136.286H227.688C235.74 136.286 243.122 136.286 249.43 136.286L249.295 136.353C252.718 131.928 255.67 128.174 258.019 125.09V125.023H258.086C261.576 125.023 264.26 125.09 266.206 125.09C267.145 125.09 267.816 125.09 268.353 125.09C268.555 125.09 268.756 125.09 268.89 125.09C269.091 125.023 269.159 125.023 269.159 125.023Z" fill="#45788E"/>
<path d="M201.45 154.051C201.45 154.52 201.047 154.855 200.644 154.855C200.242 154.855 199.839 154.52 199.839 154.051C199.839 153.581 200.242 153.246 200.644 153.246C201.047 153.246 201.45 153.581 201.45 154.051Z" fill="#45788E"/>
<path d="M226.48 139.84C226.48 140.309 226.077 140.644 225.674 140.644C225.205 140.644 224.869 140.309 224.869 139.84C224.869 139.37 225.272 139.035 225.674 139.035C226.144 139.035 226.48 139.37 226.48 139.84Z" fill="#45788E"/>
<path d="M245.94 136.351C245.94 136.821 245.537 137.156 245.135 137.156C244.732 137.156 244.33 136.821 244.33 136.351C244.33 135.882 244.732 135.547 245.135 135.547C245.537 135.547 245.94 135.882 245.94 136.351Z" fill="#45788E"/>
<path d="M186.887 207.945C189.852 207.945 192.256 205.634 192.256 202.783C192.256 199.932 189.852 197.621 186.887 197.621C183.923 197.621 181.519 199.932 181.519 202.783C181.519 205.634 183.923 207.945 186.887 207.945Z" fill="white"/>
<path d="M263.521 199.305H200.241V201.249H263.521V199.305Z" fill="white"/>
<path d="M226.547 204.191H200.241V206.136H226.547V204.191Z" fill="white"/>
<path d="M312.71 86.8139H244.8C242.988 86.8139 241.511 85.339 241.511 83.529V28.2888C241.511 26.4788 242.988 25.0039 244.8 25.0039H312.71C314.522 25.0039 315.998 26.4788 315.998 28.2888V83.4619C316.065 85.339 314.589 86.8139 312.71 86.8139Z" fill="#E1EFF4"/>
<path d="M258.489 49.7461H254.463V80.0477H258.489V49.7461Z" fill="#327B9B"/>
<path d="M276.741 47.3281H272.715V80.1102H276.741V47.3281Z" fill="#327B9B"/>
<path d="M295.732 43.1055H291.706V80.044H295.732V43.1055Z" fill="#327B9B"/>
<path d="M286.807 65.2969H282.781V80.0455H286.807V65.2969Z" fill="#327B9B"/>
<g opacity="0.2">
<path opacity="0.2" d="M286.807 65.2969H282.781V80.0455H286.807V65.2969Z" fill="#285C72"/>
</g>
<path d="M263.186 46.5273H259.16V80.1139H263.186V46.5273Z" fill="#327B9B"/>
<g opacity="0.1">
<path opacity="0.1" d="M263.186 46.5273H259.16V80.1139H263.186V46.5273Z" fill="#285C72"/>
</g>
<path d="M281.774 39.4883H277.748V80.1139H281.774V39.4883Z" fill="#327B9B"/>
<g opacity="0.1">
<path opacity="0.1" d="M281.774 39.4883H277.748V80.1139H281.774V39.4883Z" fill="#285C72"/>
</g>
<path d="M306.066 39.4883H302.04V80.1139H306.066V39.4883Z" fill="#327B9B"/>
<g opacity="0.2">
<path opacity="0.2" d="M306.066 39.4883H302.04V80.1139H306.066V39.4883Z" fill="#285C72"/>
</g>
<path d="M300.832 31.4414H296.806V80.0447H300.832V31.4414Z" fill="#327B9B"/>
<g opacity="0.1">
<path opacity="0.1" d="M300.832 31.4414H296.806V80.0447H300.832V31.4414Z" fill="#285C72"/>
</g>
<path d="M268.085 58.793H264.059V80.1114H268.085V58.793Z" fill="#327B9B"/>
<g opacity="0.2">
<path opacity="0.2" d="M268.085 58.793H264.059V80.1114H268.085V58.793Z" fill="#285C72"/>
</g>
<path d="M311.837 81.9199C311.837 81.9869 297.477 82.121 279.828 82.121C262.112 82.121 247.819 82.0539 247.819 81.9199C247.819 81.8528 262.18 81.7188 279.828 81.7188C297.477 81.7188 311.837 81.8528 311.837 81.9199Z" fill="#45788E"/>
<path d="M248.356 74.6797H245.873V75.4842H248.356V74.6797Z" fill="#45788E"/>
<path d="M248.356 63.8867H245.873V64.6912H248.356V63.8867Z" fill="#45788E"/>
<path d="M248.356 43.5742H245.873V44.3787H248.356V43.5742Z" fill="#45788E"/>
<path d="M248.356 33.3828H245.873V34.1873H248.356V33.3828Z" fill="#45788E"/>
<path d="M248.49 53.7656H246.007V54.5701H248.49V53.7656Z" fill="#45788E"/>
<path d="M229.902 41.4245H157.764C156.556 41.4245 155.617 40.486 155.617 39.2793V22.1843C155.617 20.9776 156.556 20.0391 157.764 20.0391H229.902C231.11 20.0391 232.049 20.9776 232.049 22.1843V39.2793C232.049 40.4189 231.11 41.4245 229.902 41.4245Z" fill="#E8505B"/>
<path d="M171.722 34.2524C170.111 36.2636 167.159 36.5988 165.145 34.9898C163.132 33.3809 162.797 30.4312 164.407 28.42C166.018 26.4088 168.97 26.0736 170.984 27.6826C172.997 29.3585 173.332 32.2412 171.722 34.2524Z" fill="white"/>
<path d="M168.031 36.0645C166.957 36.0645 165.951 35.7293 165.146 35.0589C164.139 34.2545 163.535 33.1818 163.401 31.9081C163.267 30.6344 163.602 29.4277 164.407 28.4891C165.213 27.4835 166.286 26.8802 167.561 26.7461C167.763 26.7461 167.897 26.7461 168.098 26.7461C169.172 26.7461 170.178 27.0813 170.984 27.7517C171.99 28.5561 172.594 29.6288 172.728 30.9025C172.863 32.1763 172.527 33.383 171.722 34.3215C170.917 35.3271 169.843 35.9304 168.568 36.0645C168.434 35.9975 168.232 36.0645 168.031 36.0645ZM168.098 26.7461C167.897 26.7461 167.763 26.7461 167.561 26.7461C166.353 26.8802 165.213 27.4835 164.475 28.4221C163.669 29.3606 163.334 30.5673 163.468 31.8411C163.602 33.0478 164.206 34.1874 165.146 34.9248C166.085 35.7293 167.293 36.0645 168.568 35.9304C169.776 35.7964 170.917 35.193 171.655 34.2545C172.46 33.3159 172.796 32.1092 172.661 30.8355C172.527 29.6288 171.923 28.4891 170.984 27.7517C170.111 27.0813 169.105 26.7461 168.098 26.7461Z" fill="#45788E"/>
<path d="M170.715 29.7606C170.782 29.8277 169.642 31.0344 168.232 32.4422C168.031 32.6433 167.83 32.8444 167.628 33.0455L167.494 33.1796L167.36 33.0455C166.219 31.9059 165.414 30.9673 165.481 30.9003C165.548 30.8332 166.421 31.6377 167.628 32.7774H167.36C167.561 32.5763 167.763 32.3751 167.964 32.174C169.373 30.8333 170.648 29.6936 170.715 29.7606Z" fill="#E8505B"/>
<path d="M224.601 29.1621C224.601 29.2291 214.87 29.3632 202.859 29.3632C190.847 29.3632 181.117 29.2961 181.117 29.1621C181.117 29.095 190.847 28.9609 202.859 28.9609C214.87 28.9609 224.601 29.028 224.601 29.1621Z" fill="white"/>
<path d="M206.818 33.3769C206.818 33.4439 201.181 33.578 194.269 33.578C187.357 33.578 181.72 33.511 181.72 33.3769C181.72 33.2428 187.357 33.1758 194.269 33.1758C201.181 33.1758 206.818 33.2428 206.818 33.3769Z" fill="white"/>
</svg>
